<svg width="293" height="252" viewBox="0 0 293 252" fill="none" xmlns="http://www.w3.org/2000/svg">
<path d="M229.46 134.39C218.62 134.39 208.54 137.51 199.96 142.83L177.37 103.7C189.56 93.4 197.32 78.01 197.32 60.79C197.32 29.76 172.17 4.60999 141.14 4.60999C110.11 4.60999 84.96 29.76 84.96 60.79C84.96 78.01 92.72 93.39 104.91 103.7L84.71 138.69C78.08 135.94 70.81 134.4 63.18 134.4C32.15 134.4 7 159.55 7 190.58C7 221.61 32.15 246.76 63.18 246.76C92.4 246.76 116.38 224.46 119.09 195.95H173.55C176.26 224.46 200.25 246.76 229.46 246.76C260.49 246.76 285.64 221.61 285.64 190.58C285.64 159.55 260.49 134.4 229.46 134.4V134.39ZM116.68 74.89C126.01 72.72 135.22 70.78 130.79 62.55C117.67 38.17 127.05 24.34 141.14 24.34C155.23 24.34 164.57 37.65 151.49 62.55C147.19 70.73 156.07 72.67 165.6 74.89C174.19 76.89 174.44 81.2 174.41 88.77C174.41 90.21 173.17 90.92 171.82 91.38C165.71 93.46 159.44 95.08 153.07 96.09C140.59 98.06 127.78 97.65 115.8 93.4C113.35 92.53 107.88 91.65 107.87 88.24C107.86 81 108.3 76.85 116.68 74.9V74.89ZM113.77 109.83C121.87 114.36 131.19 116.97 141.14 116.97C151.09 116.97 160.41 114.36 168.51 109.83L191.35 149.38C181.5 158.5 174.9 171.06 173.56 185.19H119.1C117.46 167.87 107.96 152.86 94.2 143.73L113.78 109.82L113.77 109.83ZM93.86 221.17C87.75 223.25 81.48 224.87 75.11 225.88C62.63 227.85 49.82 227.44 37.84 223.19C35.39 222.32 29.92 221.44 29.91 218.03C29.9 210.79 30.34 206.64 38.72 204.69C48.05 202.52 57.26 200.58 52.83 192.35C39.71 167.97 49.09 154.14 63.18 154.14C77.27 154.14 86.61 167.45 73.53 192.35C69.23 200.53 78.11 202.47 87.64 204.69C96.23 206.69 96.48 211 96.45 218.57C96.45 220.01 95.21 220.72 93.86 221.18V221.17ZM260.14 221.17C254.03 223.25 247.76 224.87 241.39 225.88C228.91 227.85 216.1 227.44 204.12 223.19C201.67 222.32 196.2 221.44 196.19 218.03C196.18 210.79 196.62 206.64 205 204.69C214.33 202.52 223.54 200.58 219.11 192.35C205.99 167.97 215.37 154.14 229.46 154.14C243.55 154.14 252.89 167.45 239.81 192.35C235.51 200.53 244.39 202.47 253.92 204.69C262.51 206.69 262.76 211 262.73 218.57C262.73 220.01 261.49 220.72 260.14 221.18V221.17Z" fill="white"/>
</svg>
