<svg width="195" height="136" viewBox="0 0 195 136" fill="none" xmlns="http://www.w3.org/2000/svg">
<path d="M159.82 35.42H23.18C20.7 35.42 18.69 33.41 18.69 30.93C18.69 28.45 20.7 26.44 23.18 26.44H159.82C162.3 26.44 164.31 28.45 164.31 30.93C164.31 33.41 162.3 35.42 159.82 35.42Z" fill="white"/>
<path d="M159.82 72.63H23.18C20.7 72.63 18.69 70.62 18.69 68.14C18.69 65.66 20.7 63.65 23.18 63.65H159.82C162.3 63.65 164.31 65.66 164.31 68.14C164.31 70.62 162.3 72.63 159.82 72.63Z" fill="white"/>
<path d="M159.82 109.84H23.18C20.7 109.84 18.69 107.83 18.69 105.35C18.69 102.87 20.7 100.86 23.18 100.86H159.82C162.3 100.86 164.31 102.87 164.31 105.35C164.31 107.83 162.3 109.84 159.82 109.84Z" fill="white"/>
</svg>
