<svg width="192" height="195" viewBox="0 0 192 195" fill="none" xmlns="http://www.w3.org/2000/svg">
<path d="M120.07 47.99H71.74C57.97 47.99 46.77 59.19 46.77 72.96V121.29C46.77 135.06 57.97 146.26 71.74 146.26H120.07C133.84 146.26 145.05 135.06 145.05 121.29V72.96C145.05 59.19 133.85 47.99 120.07 47.99V47.99ZM96.4 126.95C79.96 126.95 66.59 113.58 66.59 97.14C66.59 80.7 79.97 67.33 96.4 67.33C112.83 67.33 126.21 80.7 126.21 97.14C126.21 113.58 112.84 126.95 96.4 126.95ZM127.95 72.42C124.03 72.42 120.85 69.24 120.85 65.32C120.85 61.4 124.03 58.22 127.95 58.22C131.87 58.22 135.05 61.4 135.05 65.32C135.05 69.24 131.87 72.42 127.95 72.42Z" fill="#2977BC"/>
<path d="M96.4 78.03C85.87 78.03 77.3 86.6 77.3 97.13C77.3 107.66 85.87 116.23 96.4 116.23C106.93 116.23 115.5 107.66 115.5 97.13C115.5 86.6 106.93 78.03 96.4 78.03Z" fill="#2977BC"/>
<path d="M95.62 5.77002C45.16 5.77002 4.26001 46.67 4.26001 97.13C4.26001 147.59 45.16 188.49 95.62 188.49C146.08 188.49 186.98 147.59 186.98 97.13C186.98 46.67 146.07 5.77002 95.62 5.77002ZM156.44 121.3C156.44 141.35 140.13 157.66 120.07 157.66H71.74C51.69 157.66 35.38 141.35 35.38 121.3V72.97C35.38 52.92 51.69 36.61 71.74 36.61H120.07C140.12 36.61 156.44 52.92 156.44 72.97V121.3Z" fill="#2977BC"/>
</svg>
