<?xml version="1.0" encoding="UTF-8"?>
<svg id="Layer_1" data-name="Layer 1" xmlns="http://www.w3.org/2000/svg" viewBox="0 0 278.8 231.9">
  <defs>
    <style>
      .cls-1 {
        fill: #237cc0;
        stroke-width: 0px;
      }
    </style>
  </defs>
  <g>
    <path class="cls-1" d="m97.7,143.1c-.1.8-.2,1.6-.2,2.6l-.1.1-5.7-.1c-.9,0-1.6,0-2,.1l-.1-.1v-.3c.4-.2.6-.4.6-.5.1-.1.1-.4.1-1v-5.6c0-1.2,0-2-.1-2.4,0-.1-.1-.2-.3-.3-.1,0-.4-.1-.9-.1l-.1-.1v-.5l.1-.1c.5,0,1.3.1,2.3.1s1.9,0,2.4-.1l.1.1v.5l-.1.1c-.5,0-.8.1-.9.1-.2,0-.2.1-.3.3-.1.4-.1,1.2-.1,2.4v6.6h1.1c1.5,0,2.4-.1,2.8-.2.1,0,.1-.1.1-.1.1-.1.1-.2.2-.5l.2-1,.1-.1.8.1h0Z"/>
    <path class="cls-1" d="m110.3,145.7h0c-1.2.1-1.9,0-2.2,0-.9,0-1.8,0-2.7.1l-.1-.1v-.5l.1-.1h.7c.3,0,.4-.1.4-.3,0-.1-.1-.4-.2-.7l-.6-1.6h-4l-.3.9c-.3.7-.4,1.2-.4,1.4s.1.3.4.4c.1,0,.4,0,.8.1l.1.1v.5l-.1.1c-1,0-1.6-.1-1.8-.1s-.7,0-1.6.1l-.1-.1v-.5l.1-.1c.5,0,.9-.1,1-.3s.6-1.3,1.4-3.2l2-5.1c.2-.4.4-1,.7-1.8h1.1l4.1,9.7c.2.4.3.6.4.6.2.1.4.1.7.1l.1.1v.3h0Zm-4.9-4.2l-1.7-4.1-1.6,4.1h1.7c.7,0,1.2.1,1.6,0h0Z"/>
    <path class="cls-1" d="m124.3,142.2c0,1.3-.6,2.3-1.9,3-.6.4-1.4.5-2.4.5h-2.7c-.7,0-1.2,0-1.5.1l-.1-.1v-.3c.4-.2.6-.4.6-.5.1-.1.1-.4.1-1v-5.6c0-1.2,0-2-.1-2.4,0-.1-.1-.2-.3-.3-.1,0-.4-.1-.9-.1l-.1-.1v-.5l.1-.1c.5,0,1.2.1,2.4.1h3.1c1.4,0,2.4.3,2.8,1,.2.4.4.8.4,1.2,0,.7-.3,1.4-.9,1.8-.3.2-.6.4-.8.5-.3.1-.7.2-1.1.3,2.2,0,3.2.9,3.3,2.5h0Zm-2.7-4.9c0-1.1-.6-1.7-1.8-1.7-.4,0-.7,0-1,.1v3.6h.7c.9,0,1.6-.3,1.8-.9.2-.3.3-.7.3-1.1Zm.3,5.2c0-1.6-.8-2.3-2.4-2.3h-.7v4.7c.2,0,.5.1.9.1.7,0,1.3-.2,1.7-.7.3-.4.5-1,.5-1.8h0Z"/>
    <path class="cls-1" d="m136.3,145.7h0c-.1.1-.2.1-.4.1h-1.3c-.3,0-.7,0-1.3.1,0-.1-.1-.3-.3-.6l-1.9-3.2-.9-1.3c-.1-.2-.3-.3-.5-.5l.1-.3h.3c.5,0,.9-.1,1.2-.2.3-.1.5-.4.7-.8s.3-.8.3-1.3c0-.9-.3-1.5-1-1.8-.3-.1-.8-.2-1.4-.2-.3,0-.5,0-.8.1-.1.5-.1,1.4-.1,2.6v4.1c0,1.2,0,2,.1,2.4,0,.1.1.2.3.3.1,0,.4.1.9.1l.1.1v.5l-.1.1c-.5,0-1.3-.1-2.4-.1s-1.9,0-2.4.1l-.1-.1v-.5l.1-.1c.5,0,.8-.1.9-.1.2,0,.2-.1.3-.3.1-.4.1-1.2.1-2.4v-4.1c0-1.2,0-2-.1-2.4,0-.1-.1-.2-.3-.3-.1,0-.4-.1-.9-.1l-.1-.1v-.5l.1-.1c.5,0,1.3.1,2.4.1h1.5c.8,0,1.4-.1,1.8-.1.9,0,1.6.1,2,.2.6.2.9.6,1.1,1.1.1.2.1.6.1.9,0,1.4-.8,2.4-2.4,3,.3.4.5.9.8,1.3l1.2,1.8c.7,1.1,1.2,1.7,1.4,1.9.1.1.3.1.5.1l.1.1.3.4h0Z"/>
    <path class="cls-1" d="m148.5,135.4h0c-.7.1-1,.2-1.1.6,0,.2-.1.6-.1,1.2v4.3c0,1.5-.3,2.6-.9,3.3-.8.9-1.9,1.3-3.4,1.3-1.4,0-2.4-.2-3.2-.7-.6-.4-1.1-.9-1.3-1.6-.1-.4-.2-1.6-.2-3.5v-2c0-1.2,0-2-.1-2.4,0-.1-.1-.2-.3-.3-.1,0-.4-.1-.9-.1l-.1-.1v-.5l.1-.1c.5,0,1.3.1,2.4.1s1.9,0,2.4-.1l.1.1v.5l-.1.1c-.5,0-.8.1-.9.1s-.2.1-.3.3c-.1.4-.1,1.2-.1,2.4v1.6c0,2,.1,3.2.3,3.6.4.9,1.2,1.3,2.6,1.3.9,0,1.6-.2,2.1-.7.2-.2.4-.4.5-.6s.2-.6.2-1c.1-.4.1-.9.1-1.3v-4.4c0-.5,0-.8-.1-.9,0-.1-.1-.2-.3-.2-.1-.1-.4-.1-1-.1l-.1-.1v-.5l.1-.1c.4,0,.9.1,1.4.1.4,0,1,0,2.1-.1l.1.1v.4h0Zm-3-4.2l-3.5,2.5-.4-.3v-.1l1.7-2.1,2-.2.2.2h0Z"/>
    <path class="cls-1" d="m154.7,135.4h0c-.6.1-.9.1-1,.2-.1,0-.2.1-.3.3-.1.4-.1,1.2-.1,2.4v5.8c0,1-.1,1.9-.3,2.4-.2.7-.7,1.3-1.4,1.9-.7.6-1.4.9-2.1.9-.2,0-.4,0-.6-.1v-1.4l.2-.1c.4.4.8.6,1.1.6.4,0,.7-.2.8-.7.1-.6.1-1.5.1-2.8v-6.5c0-1.2,0-2-.1-2.4,0-.1-.1-.2-.3-.3,0,0-.4,0-1.1-.1l-.1-.1v-.5l.1-.1c.7,0,1.6.1,2.6.1,1.1,0,1.9,0,2.4-.1l.1.1v.5h0Z"/>
    <path class="cls-1" d="m167.1,135.4h0c-.7.1-1,.2-1.1.6,0,.2-.1.6-.1,1.2v4.3c0,1.5-.3,2.6-.9,3.3-.8.9-1.9,1.3-3.4,1.3-1.4,0-2.4-.2-3.2-.7-.6-.4-1.1-.9-1.3-1.6-.1-.4-.2-1.6-.2-3.5v-2c0-1.2,0-2-.1-2.4,0-.1-.1-.2-.3-.3-.1,0-.4-.1-.9-.1l-.1-.1v-.5l.1-.1c.5,0,1.3.1,2.4.1s1.9,0,2.4-.1l.1.1v.5l-.1.1c-.5,0-.8.1-.9.1s-.2.1-.3.3c-.1.4-.1,1.2-.1,2.4v1.6c0,2,.1,3.2.3,3.6.4.9,1.2,1.3,2.6,1.3.9,0,1.6-.2,2.1-.7.2-.2.4-.4.5-.6s.2-.6.2-1c.1-.4.1-.9.1-1.3v-4.4c0-.5,0-.8-.1-.9,0-.1-.1-.2-.3-.2-.1-.1-.4-.1-1-.1l-.1-.1v-.5l.1-.1c.4,0,.9.1,1.4.1.4,0,1,0,2.1-.1l.1.1v.4h0Z"/>
    <path class="cls-1" d="m176.5,143.1c-.1.8-.2,1.6-.2,2.6l-.1.1-5.6-.1c-.9,0-1.6,0-2,.1l-.1-.1v-.3c.4-.2.6-.4.6-.5.1-.1.1-.4.1-1v-5.6c0-1.2,0-2-.1-2.4,0-.1-.1-.2-.3-.3-.1,0-.4-.1-.9-.1l-.1-.1v-.5l.1-.1c.5,0,1.3.1,2.4.1s1.9,0,2.4-.1l.1.1v.5l-.1.1c-.5,0-.8.1-.9.1s-.2.1-.3.3c-.1.4-.1,1.2-.1,2.4v6.6h1.1c1.5,0,2.4-.1,2.8-.2.1,0,.1-.1.1-.1.1-.1.1-.2.1-.5l.2-1,.1-.1.7.1h0Z"/>
    <path class="cls-1" d="m189.1,145.7h0c-1.2.1-1.9,0-2.2,0-.9,0-1.8,0-2.7.1l-.1-.1v-.5l.1-.1h.7c.3,0,.4-.1.4-.3,0-.1-.1-.4-.2-.7l-.6-1.6h-4l-.3.9c-.3.7-.4,1.2-.4,1.4s.1.3.4.4c.1,0,.4,0,.8.1l.1.1v.5l-.1.1c-1,0-1.6-.1-1.9-.1-.2,0-.7,0-1.6.1l-.1-.1v-.5l.1-.1c.5,0,.9-.1,1-.3s.6-1.3,1.4-3.2l2-5.1c.1-.4.4-1,.7-1.8h1.1l4.1,9.7c.2.4.3.6.4.6.2.1.4.1.7.1l.1.1.1.3h0Zm-4.9-4.2l-1.7-4.1-1.6,4.1h1.7c.7,0,1.2.1,1.6,0h0Z"/>
  </g>
  <g>
    <path class="cls-1" d="m113.9,123.5l-.1.2c-2.4-.1-3.8-.1-4.3-.1-2,0-3.8,0-5.5.1l-.2-.2v-1l.2-.2,1.4-.1c.6,0,.9-.2.9-.6,0-.2-.2-.7-.4-1.5l-1.3-3.4h-8.2l-.7,2c-.5,1.5-.8,2.4-.8,2.8s.2.7.8.7c.3,0,.8.1,1.6.1l.2.2v1l-.2.2c-2-.1-3.3-.1-3.8-.1-.4,0-1.5,0-3.3.1l-.2-.2v-1l.2-.2c1.1-.1,1.8-.3,2-.7.2-.4,1.2-2.6,2.8-6.7l4.2-10.5c.3-.8.8-2,1.4-3.7h2.3l8.5,20.1c.3.8.6,1.2.9,1.3.3.1.9.2,1.5.2l.1.2v1h0Zm-10.1-8.7l-3.4-8.4-3.3,8.4c.9,0,2,.1,3.4.1s2.4-.1,3.3-.1Z"/>
    <path class="cls-1" d="m141.1,102.1l-.2.2c-1.1.1-1.7.1-1.9.2-.3.1-.5.3-.6.6-.1.8-.2,2.4-.2,5v6.5c0,4.8.1,7.9.2,9.4l-.2.2c-1.2-.2-2.1-.3-2.8-.4-2.9-3.2-7.8-9.1-14.7-17.7v10.5c0,2.6.1,4.2.2,5,.1.3.2.5.6.6.2,0,.8.1,1.9.2l.2.2v1.1l-.2.2c-1.2-.1-2.4-.1-3.4-.1-1.2,0-2.5,0-3.7.1l-.2-.2v-1.1l.2-.2c1.1-.1,1.7-.1,1.9-.2.3-.1.5-.3.6-.6.1-.8.2-2.4.2-5v-8.6c0-2.6-.1-4.2-.2-5-.1-.3-.2-.5-.6-.6-.2,0-.8-.1-1.9-.2l-.2-.2v-1l.2-.1c1,.1,2,.1,2.9.1,1.4,0,2.7,0,3.6-.1,3.9,5.2,8.4,10.7,13.6,16.5v-9.4c0-2.6-.1-4.2-.2-5-.1-.3-.2-.5-.6-.6-.2,0-.8-.1-1.9-.2l-.2-.2v-1l.2-.1c1.2.1,2.3.1,3.4.1,1.4,0,2.6,0,3.7-.1l.2.1.1,1.1h0Zm-6.3-8.5c-.2,1.2-.7,2.2-1.4,3s-1.5,1.2-2.4,1.2c-.6,0-1.3-.2-2.1-.6-.3-.1-.7-.3-1.3-.6-.2-.1-.6-.3-1.1-.5-.4-.2-.8-.3-1.2-.3-.9,0-1.5.6-1.8,1.8h-1l-.1-.2c.2-1.2.7-2.2,1.4-3.1s1.5-1.2,2.4-1.2c.6,0,1.3.2,2.1.6.3.1.7.3,1.3.6.2.1.6.3,1.1.5.4.2.8.3,1.2.3.9,0,1.5-.6,1.8-1.8h1l.1.3h0Z"/>
    <path class="cls-1" d="m168.1,111.6c0,4-1.1,7.1-3.5,9.3-2.2,2.2-5.3,3.3-9.2,3.3s-6.6-1-8.6-3.1c-2.1-2.1-3.1-4.9-3.1-8.6,0-5.2,2-8.7,5.9-10.7,1.8-.9,4-1.3,6.6-1.3,3.7,0,6.6,1,8.7,2.9,2.1,2,3.2,4.7,3.2,8.2h0Zm-4.9.9c0-3.1-.6-5.6-1.9-7.4-1.2-1.8-3.1-2.7-5.5-2.7-3.2,0-5.3,1.4-6.3,4.3-.5,1.5-.8,3.1-.8,4.9,0,3.3.6,5.9,1.8,7.8,1.3,2,3.2,3,5.7,3,3.1,0,5.1-1.5,6.2-4.5.5-1.6.8-3.4.8-5.4h0Z"/>
    <path class="cls-1" d="m188,116.1c0,1.8-.5,3.3-1.5,4.7-.9,1.2-2,2.1-3.5,2.7-1.3.5-2.9.8-4.7.8-2.2,0-4.5-.5-6.6-1.5l-.2-.3c.3-1.2.4-3,.4-5.3l.2-.2h1l.1.2v.4c0,.6.1,1.4.2,2.4.4.7,1.1,1.3,2.1,1.8s2.1.8,3.2.8c2.1,0,3.6-.7,4.4-2.2.4-.8.6-1.6.6-2.4,0-1.4-.6-2.3-1.7-2.9-.6-.3-1.5-.5-2.8-.7-2.9-.4-4.8-1-5.6-1.7-1.4-1-2-2.6-2-4.7s.7-3.9,2.2-5.3c1.6-1.4,3.7-2.1,6.5-2.1,2.5,0,4.5.4,6.1,1.2l.1.4c-.3,1.3-.4,2.8-.5,4.6l-.2.2h-1l-.2-.2c0-1.3-.1-2.1-.2-2.5-.3-.5-.9-.9-1.7-1.3-.9-.4-1.8-.6-2.8-.6-1.4,0-2.6.4-3.4,1.1-.8.7-1.2,1.7-1.2,2.8,0,1.2.4,2.1,1.3,2.7.6.4,1.9.7,4.1,1.1.2,0,.9.1,1.9.3.6.1,1.2.3,1.8.5,1.1.4,1.9,1,2.4,1.9.9.8,1.2,1.9,1.2,3.3h0Z"/>
  </g>
  <g>
    <path class="cls-1" d="m136.7,84.2l-.3.4c-2.8-.2-6.3-.3-10.3-.3s-8.1.1-12.5.3l-.3-.3v-1.8l.4-.3c1-.1,2-.2,3-.3,1.7-.1,2.8-.3,3.3-.5.3-.2.6-.5.9-1.1.4-.9.6-4.8.6-11.5v-7.5c0-2.2,0-5.1-.1-8.6l-.1-2.3c0-1-.2-1.5-.6-1.5-.2,0-.8.2-1.8.7-2.8,1.3-5.1,2.4-7.1,3.3l-.4-.2c-.1-1.2-.3-2.4-.6-3.8v-.2c5.6-1.6,11.8-3.7,18.6-6.3l.6.5c-.1,1.2-.2,3-.3,5.3-.1.9-.1,3.3-.2,7.1l-.2,11.7c0,8.5.1,13,.4,13.7.2.5.5.7.9.8.7.2,2.6.4,5.7.5l.4.3v1.9h0Z"/>
    <path class="cls-1" d="m168.6,84.2l-.3.4c-2.9-.2-6.2-.2-9.7-.2-2,0-5.4.1-10,.2l-.3-.3v-1.9l.3-.3,3.2-.2c1.6-.1,2.6-.3,2.9-.7.4-.4.6-1.5.7-3.3l.1-3.9h-4l-6,.1c-1.1,0-2.7,0-4.8.1l-.4-2.5c.8-2.6,3-7.1,6.6-13.7,3.7-6.8,6.5-11.4,8.5-14l7.6-1.5.5.5c-.4,3.9-.5,10.2-.5,19v7.1h1c.9,0,2.4-.1,4.2-.2l.4.3c-.1,2-.1,3.5,0,4.5l-.4.4h-5.1c0,4.4.2,6.8.7,7.3.4.3,1.1.6,2.3.7.9.1,1.7.2,2.4.3l.3.3-.2,1.5h0Zm-12.8-36.3c-2.7,4.3-4.7,7.6-5.9,10-.9,1.7-2.6,5.3-5.2,10.9h10.8c0,.1.3-20.9.3-20.9Z"/>
  </g>
  <g>
    <path class="cls-1" d="m139.4,172.8c-11.7,0-21.2,9.5-21.2,21.2s9.5,21.2,21.2,21.2,21.2-9.5,21.2-21.2-9.5-21.2-21.2-21.2Zm-.1,2.3c3.6,0,6.6,2.9,6.6,6.6s-2.9,6.6-6.6,6.6-6.6-2.9-6.6-6.6,3-6.6,6.6-6.6Zm-.9,15.1c.6-.6,1.5-.6,2.1,0s.6,1.5,0,2.1-1.6.6-2.1,0c-.6-.5-.6-1.5,0-2.1Zm-.6,5c-.6.6-1.5.6-2.1,0s-.6-1.5,0-2.1,1.5-.6,2.1,0c.6.5.6,1.5,0,2.1Zm3.2-2.3c.6-.6,1.6-.6,2.1,0s.6,1.5,0,2.1-1.5.6-2.1,0-.6-1.6,0-2.1Zm-21.1-2.1c0-3.6,2.9-6.6,6.6-6.6s6.6,2.9,6.6,6.6-2.9,6.6-6.6,6.6-6.6-3-6.6-6.6Zm11.8,20.7c-3.6,0-6.6-2.9-6.6-6.6s3-6.6,6.6-6.6,6.6,2.9,6.6,6.6-3,6.6-6.6,6.6Zm6.5-13.7c-.6-.6-.6-1.5,0-2.1s1.5-.6,2.1,0,.6,1.5,0,2.1c-.5.6-1.5.6-2.1,0Zm8.8,13.7c-3.6,0-6.6-2.9-6.6-6.6s2.9-6.6,6.6-6.6,6.6,2.9,6.6,6.6-3,6.6-6.6,6.6Zm5.3-14.1c-3.6,0-6.6-2.9-6.6-6.6s2.9-6.6,6.6-6.6,6.6,2.9,6.6,6.6-3,6.6-6.6,6.6Z"/>
    <path class="cls-1" d="m171,192.9l-7.6-3.4c-.8-4.2-2.6-8-5.2-11.1l1.5-4.1c0-.1.1-.4-.1-.6-.3-.3-.6-.1-.6-.1h0l-4,1.5c-3.2-2.6-7-4.5-11.2-5.2l-3.4-7.5s-.3-.6-1-.6-1,.6-1,.6l-3.3,7.4c-4.3.8-8.2,2.6-11.3,5.3l-3.9-1.5h0s-.3-.1-.6.1-.2.6-.2.6h0l1.5,3.9c-2.7,3.2-4.6,7.1-5.3,11.4l-7.3,3.3s-.6.3-.6,1,.6,1,.6,1l7.3,3.3c.8,4.3,2.7,8.2,5.3,11.4l-1.5,3.9h0s-.1.3.1.6c.2.2.5.2.6.2l3.9-1.5c3.2,2.6,7.1,4.5,11.3,5.2l3.4,7.4s.3.6,1,.6,1.1-.6,1.1-.6l3.3-7.4c4.2-.8,8-2.6,11.2-5.3l4,1.5h0s.3.1.6-.1c.2-.2.2-.5.2-.6l-1.6-4.1c2.6-3.1,4.4-6.9,5.2-11.1l7.6-3.4s.6-.3.6-1-.6-.9-.6-1h0Zm-31.7,24.2c-12.8,0-23.1-10.4-23.1-23.1s10.3-23.1,23.1-23.1,23.1,10.4,23.1,23.1-10.3,23.1-23.1,23.1Z"/>
  </g>
  <path class="cls-1" d="m178.9,191.7c.2-.1.4-.2.6-.3,0,.1-.2.1-.6.3Z"/>
  <g>
    <path class="cls-1" d="m96.3,194.3c.1-2.1.1-3,.1-3,0,0,0-1.2-1.1-1.7l-.1-.1c-.3-.2-.7-.3-1-.5-8.1-4-15.5-9-22.1-14.8-1.7-1.5-3.3-3-4.9-4.5,3.1-3.4,5.2-6.9,6.5-10.2,2.2-5.3,2.6-10.3,2.1-14.8-.7-6.5-3.3-11.8-5.1-14.8-1.1-1.8-1.8-2.7-1.8-2.7-.8.9-1.6,1.8-2.3,2.7-3.8,4.9-5.6,9.9-6.3,14.8-.8,5.4-.2,10.5.9,14.8.6,2.3,1.3,4.3,2,6-1.8-1.9-3.4-4-5-6-3.6-4.6-6.8-9.6-9.4-14.8-.2-.3-.4-.6-.5-.9,6.2-4.1,9.8-9,11.7-13.8,2.2-5.4,2.3-10.7,1.8-14.8-.5-4.4-1.7-7.3-1.7-7.3-3.6,2.2-6.3,4.7-8.4,7.3-3.8,4.8-5.6,10-6.3,14.8-.3,2.3-.4,4.5-.4,6.4-.8-2.1-1.6-4.2-2.3-6.4-1.5-4.8-2.7-9.7-3.5-14.8-.7-4.7-1.1-9.5-1.1-14.4v-.3c0-5,.4-10,1.2-14.8v-.1c13.6-.7,20-8.9,22.8-14.7,1.5-3.1,2-5.4,2-5.4-7,0-12.4,2.4-16.4,5.4-3,2.3-5.3,5.1-7,7.6.6-2.6,1.3-5.1,2.2-7.6,1.7-5.1,3.8-10,6.3-14.8,1.3-2.4,2.7-4.8,4.1-7.1.4.6.7.9.7.9,1.8-2.5,3-4.9,3.7-7.2.4-.5.7-.9,1.1-1.4,1.6-2,3.2-4,5-6,15.7,4.8,24.6-6.5,26.2-8.8.2-.2.3-.4.3-.4-6.4-2.1-11.9-1.4-16.4.4-.7.3-1.3.5-1.9.9.3-.3.7-.6,1.1-.9,1.8-1.6,3.7-3.1,5.6-4.5-2,1.4-4,3-5.9,4.5-.5.4-1.1.8-1.6,1.3-5.5,3-8.8,7.1-8.8,7.1.3.1.6.2.9.3-1.8,1.9-3.5,3.8-5.2,5.8,1.2-5.9-.6-11-2.6-14.4-1.7-3-3.5-4.7-3.5-4.7-1.1,1.6-2,3.2-2.6,4.7-2.2,5.5-1.5,10.7-.1,14.8,1,3,2.4,5.3,3.4,6.8-1.8,2.6-3.4,5.2-4.9,7.9-1.9,3.4-3.6,6.9-5.1,10.5,1.3-3.8,1.5-7.3,1.1-10.5-.9-7.3-5.1-12.7-6.9-14.8-.5-.6-.8-.9-.8-.9-.2.3-.4.6-.6.9-3.4,5.1-4.4,10.2-4.2,14.8.2,6.2,2.7,11.4,4.6,14.8,1.4,2.3,2.6,3.7,2.6,3.7.9-1.3,1.7-2.5,2.3-3.7.3-.6.7-1.2,1-1.8-.2.6-.4,1.2-.7,1.8-1.7,4.8-3.1,9.7-4,14.8-.2,1-.4,1.9-.5,2.9-.3-1-.6-2-1-2.9-3.5-8.7-11.3-13-15.4-14.8-1.6-.7-2.7-1-2.7-1v1c-.3,6,1.3,10.9,3.8,14.8,4.3,6.8,11.2,10.7,14.3,12.2,0,.8,0,1.7-.1,2.6,0,1.2-.1,2.3-.1,3.5,0,3.8.2,7.6.7,11.3.6,5.1,1.6,10,2.9,14.8,1.4,5.1,3.2,10,5.4,14.8,2.4,5.2,5.2,10.1,8.4,14.8,3.6,5.3,7.8,10.2,12.3,14.8,5.6,5.6,11.8,10.5,18.6,14.8,3.5,2.2,7.2,4.2,11,6,.7.1,1.6.1,1.6-1h0Z"/>
    <path class="cls-1" d="m60.8,171.1c-.3-.6-.7-1.1-1-1.6-.4-.6-.8-1.1-1.2-1.6-.4-.6-.9-1.1-1.3-1.6-.5-.6-1-1.1-1.5-1.6-.6-.6-1.1-1.1-1.7-1.6-.6-.6-1.3-1.1-2-1.6-.8-.6-1.6-1.1-2.3-1.6-1-.6-1.9-1.1-2.9-1.6-1.3-.6-2.6-1.2-3.8-1.6-2.2-.8-4.3-1.3-6.4-1.6-5.6-.9-10.5-.4-13.3,0-1.7.3-2.7.5-2.7.5.2.4.4.7.6,1.1.3.6.6,1.1,1,1.6.4.6.7,1.1,1.1,1.6.4.6.8,1.1,1.2,1.6.5.6.9,1.1,1.4,1.6.5.6,1.1,1.1,1.6,1.6.6.6,1.3,1.1,1.9,1.6.7.6,1.5,1.1,2.2,1.6.9.6,1.8,1.1,2.7,1.6,1.1.6,2.2,1.1,3.3,1.6,1.5.6,3.1,1.2,4.6,1.6,3.1.9,6.1,1.4,8.8,1.6,4.1.4,7.5.2,9.5,0,1.2-.1,1.8-.2,1.8-.2-.2-.5-.5-.9-.8-1.4-.1-.5-.4-1.1-.8-1.6h0Z"/>
    <path class="cls-1" d="m26.9,148.5c2.7.8,5.3,1.2,7.6,1.4,3.6.3,6.5.2,8.2,0,1-.1,1.6-.2,1.6-.2-.2-.4-.5-.8-.7-1.2-.3-.5-.5-.9-.8-1.4s-.6-1-.9-1.4c-.3-.5-.7-.9-1-1.4-.4-.5-.8-.9-1.2-1.4s-.9-1-1.3-1.4c-.5-.5-1-1-1.5-1.4-.6-.5-1.1-1-1.7-1.4-.7-.5-1.3-1-2-1.4-.8-.5-1.7-1-2.5-1.4-1.1-.6-2.2-1-3.3-1.4-1.9-.7-3.8-1.1-5.6-1.4-4.9-.8-9.1-.4-11.6,0-1.5.2-2.3.5-2.3.5.2.3.4.6.5.9.3.5.6.9.9,1.4.3.5.6.9,1,1.4s.7,1,1.1,1.4c.4.5.8,1,1.2,1.4.5.5.9,1,1.4,1.4.5.5,1.1,1,1.7,1.4.6.5,1.3,1,1.9,1.4.8.5,1.5,1,2.3,1.4,1,.5,1.9,1,2.9,1.4,1.5.6,2.8,1.1,4.1,1.4h0Z"/>
    <path class="cls-1" d="m11.5,101.4c.1.8.2,1.6.4,2.4s.4,1.6.6,2.4c.3.8.6,1.6.9,2.4.3.8.7,1.6,1.1,2.4.4.8.9,1.6,1.4,2.4.6.8,1.1,1.6,1.8,2.4.7.8,1.4,1.6,2.2,2.4.9.9,1.8,1.6,2.7,2.4,1.1.9,2.2,1.7,3.3,2.4,1.4.9,2.9,1.7,4.2,2.4,2.5,1.2,4.6,2,5.7,2.4.7.2,1,.3,1,.3v-.3c0-.8-.1-1.6-.1-2.4-.1-.8-.2-1.6-.3-2.4s-.3-1.6-.5-2.4-.4-1.6-.7-2.4-.6-1.6-.9-2.4l-1.2-2.4c-.5-.8-1-1.6-1.5-2.4-.6-.8-1.2-1.6-1.9-2.4-.8-.9-1.6-1.7-2.4-2.4-1-.9-2-1.7-3.1-2.4-1.4-.9-2.7-1.7-4-2.4-2.3-1.1-4.4-1.9-6-2.4-1.9-.6-3.1-.8-3.1-.8,0,.3,0,.5.1.8.1.8.2,1.6.3,2.4h0Z"/>
    <path class="cls-1" d="m68.2,25c.9-.5,1.8-.9,2.5-1.5.7-.5,1.2-1,1.8-1.5.5-.5,1-1,1.4-1.5s.8-1,1.1-1.5.6-1,.9-1.5.5-1,.7-1.5.4-1,.5-1.5c.2-.5.3-1,.4-1.5s.2-1,.3-1.5c.1-.6.1-1,.2-1.5v-1.7c-.5.1-.9.3-1.4.5-1.2.4-2.3.9-3.3,1.5-.8.4-1.5.9-2.2,1.5-.6.5-1.1,1-1.6,1.5s-.9,1-1.3,1.5-.7,1-1.1,1.5c-.3.5-.6,1-.9,1.5s-.5,1-.7,1.5-.4,1-.6,1.5-.3,1-.5,1.5-.3,1-.4,1.5-.2,1-.3,1.5c-.1.7-.2,1.2-.2,1.5v.2c.2-.1.4-.1.6-.2,1.7-.8,3-1.3,4.1-1.8Z"/>
    <path class="cls-1" d="m58.1,85.8c-1.8.7-3.5,1.4-5,2.3-1.2.7-2.2,1.5-3.2,2.3-.9.7-1.7,1.5-2.5,2.3-.7.8-1.4,1.5-2,2.3s-1.1,1.6-1.6,2.3-.8,1.7-1.2,2.5-.7,1.6-1,2.3c-.3.8-.6,1.6-.8,2.3-.2.8-.5,1.6-.7,2.3-.2.8-.4,1.6-.5,2.3-.2.9-.3,1.7-.3,2.3-.1,1.1-.2,1.9-.2,2.3v.3c.3-.1.7-.2,1-.3,2.1-.7,4-1.4,5.7-2.3,1.4-.7,2.6-1.5,3.8-2.3,1-.7,1.9-1.5,2.8-2.3.8-.8,1.5-1.5,2.1-2.3s1.2-1.6,1.6-2.3c.5-.8.9-1.6,1.3-2.3s.7-1.6,1-2.3c.3-.8.5-1.6.8-2.3.2-.8.4-1.6.5-2.3.2-.8.3-1.6.4-2.3.1-.9.2-1.6.2-2.3v-2.3c0-.5-.1-.8-.1-.8-.8.1-1.5.4-2.1.6h0Z"/>
    <path class="cls-1" d="m63.3,46.6c-1,.4-2,.8-2.8,1.3-.8.4-1.5.8-2.2,1.3-.6.4-1.3.9-1.8,1.3-.5.4-1.1.9-1.6,1.3-.5.4-.9.9-1.4,1.3-.4.4-.8.9-1.2,1.3-.4.5-.8.9-1.1,1.3-.4.5-.7.9-1,1.3-.3.5-.7.9-.9,1.3-.3.5-.6,1-.8,1.3-.4.7-.6,1.1-.6,1.1.8.1,1.5.1,2.2.2,2,.2,4,.2,5.7,0,2.2-.2,4.1-.7,5.9-1.3,1.1-.4,2-.8,3-1.3.8-.4,1.5-.8,2.2-1.3.6-.4,1.2-.9,1.8-1.3.5-.4,1-.9,1.5-1.3.5-.4.9-.9,1.3-1.3.4-.4.8-.9,1.1-1.3.4-.5.7-.9,1-1.3.3-.5.6-.9.9-1.3.3-.5.6-.9.8-1.3.3-.5.5-.9.7-1.3.3-.7.5-1.1.6-1.3,0-.1.1-.2.1-.2-3-.4-5.8-.3-8.3.2-2,.3-3.6.7-5.1,1.3h0Z"/>
    <path class="cls-1" d="m86.7,19.3c1.5.2,3,.1,4.4,0,1.7-.1,3.2-.5,4.7-.9.8-.3,1.7-.6,2.4-.9.6-.3,1.2-.6,1.8-.9.5-.3,1-.6,1.5-.9.5-.3.9-.6,1.3-.9.4-.3.8-.6,1.1-.9.4-.3.7-.6,1-.9.3-.3.6-.6.9-.9.3-.3.6-.6.8-.9.3-.4.6-.7.8-.9.4-.5.6-.9.6-.9q-.1,0-.2-.1c-1.4-.5-2.8-.7-4.1-.9-2.5-.4-4.9-.4-7.1,0-1.3.2-2.5.6-3.7.9-.8.3-1.6.6-2.4.9-.7.3-1.3.6-1.9.9-.6.3-1.1.6-1.6.9-.5.3-1,.6-1.4.9s-.9.6-1.3.9c-.4.3-.8.6-1.1.9-.4.3-.7.6-1,.9-.4.3-.7.7-.9.9-.4.4-.7.7-.8.9-.2.2-.3.4-.3.4.6.2,1.2.4,1.9.5,1.6.5,3.2.9,4.6,1h0Z"/>
  </g>
  <g>
    <path class="cls-1" d="m182.5,194.3c-.1-2.1-.1-3-.1-3,0,0,0-1.2,1.1-1.7l.1-.1c.3-.2.7-.3,1-.5,8.1-4,15.5-9,22.1-14.8,1.7-1.5,3.4-3,4.9-4.5-3.1-3.4-5.1-6.9-6.5-10.2-2.2-5.3-2.6-10.3-2.1-14.8.7-6.5,3.3-11.8,5.1-14.8,1.1-1.8,1.8-2.7,1.8-2.7.8.9,1.6,1.8,2.3,2.7,3.8,4.9,5.6,9.9,6.3,14.8.8,5.4.2,10.5-.9,14.8-.6,2.3-1.3,4.3-2,6,1.8-1.9,3.4-4,5-6,3.6-4.6,6.8-9.6,9.4-14.8.2-.3.4-.6.5-.9-6.2-4.1-9.8-9-11.7-13.8-2.2-5.4-2.3-10.7-1.8-14.8.5-4.4,1.7-7.3,1.7-7.3,3.6,2.2,6.3,4.7,8.4,7.3,3.8,4.8,5.6,10,6.3,14.8.3,2.3.4,4.5.4,6.4.9-2.1,1.6-4.2,2.3-6.4,1.6-4.8,2.7-9.7,3.5-14.8.7-4.7,1.1-9.5,1.1-14.4v-.3c0-5-.4-10-1.2-14.8v-.1c-13.6-.7-20-8.9-22.8-14.7-1.5-3.1-2-5.4-2-5.4,7,0,12.4,2.4,16.4,5.4,3,2.3,5.3,5.1,7,7.6-.6-2.6-1.3-5.1-2.2-7.6-1.7-5.1-3.8-10-6.3-14.8-1.3-2.4-2.7-4.8-4.1-7.1-.4.6-.7.9-.7.9-1.8-2.5-3-4.9-3.7-7.2-.4-.5-.7-.9-1.1-1.4-1.6-2-3.2-4-5-6-15.7,4.8-24.6-6.5-26.2-8.8-.2-.2-.3-.4-.3-.4,6.4-2.1,11.9-1.4,16.4.4.7.3,1.3.5,1.9.9-.3-.3-.7-.6-1.1-.9-1.8-1.6-3.7-3.1-5.6-4.5,2,1.4,4,3,5.9,4.5.5.4,1.1.8,1.6,1.3,5.5,3,8.8,7.1,8.8,7.1-.3.1-.6.2-.9.3,1.8,1.9,3.5,3.8,5.2,5.8-1.2-5.9.6-11,2.6-14.4,1.7-3,3.5-4.7,3.5-4.7,1.1,1.6,1.9,3.2,2.6,4.7,2.2,5.5,1.5,10.7.1,14.8-1,3-2.4,5.3-3.4,6.8,1.8,2.6,3.4,5.2,4.9,7.9,1.9,3.4,3.6,6.9,5.1,10.5-1.3-3.8-1.5-7.3-1.1-10.5.9-7.3,5.1-12.7,6.9-14.8.5-.6.9-.9.9-.9.2.3.4.6.6.9,3.4,5.1,4.4,10.2,4.2,14.8-.2,6.2-2.7,11.4-4.6,14.8-1.4,2.3-2.6,3.7-2.6,3.7-.9-1.3-1.7-2.5-2.4-3.7-.3-.6-.7-1.2-1-1.8.2.6.4,1.2.6,1.8,1.7,4.8,3.1,9.7,4.1,14.8.2,1,.4,1.9.5,2.9.3-1,.6-2,1-2.9,3.5-8.7,11.3-13,15.4-14.8,1.6-.7,2.7-1,2.7-1v1c.3,6-1.3,10.9-3.8,14.8-4.3,6.8-11.1,10.7-14.3,12.2.1.8.1,1.7.1,2.6,0,1.2.1,2.3.1,3.5,0,3.8-.2,7.6-.7,11.3-.6,5.1-1.6,10-2.9,14.8-1.4,5.1-3.2,10-5.4,14.8-2.4,5.2-5.2,10.1-8.4,14.8-3.6,5.3-7.8,10.2-12.3,14.8-5.6,5.6-11.8,10.5-18.6,14.8-3.5,2.2-7.2,4.2-11,6-.6.1-1.6.1-1.6-1h0Z"/>
    <path class="cls-1" d="m218,171.1c.3-.6.7-1.1,1-1.6.4-.6.8-1.1,1.2-1.6.4-.6.9-1.1,1.3-1.6.5-.6,1-1.1,1.5-1.6.6-.6,1.1-1.1,1.7-1.6.6-.6,1.3-1.1,1.9-1.6.8-.6,1.6-1.1,2.4-1.6.9-.6,1.9-1.1,2.9-1.6,1.3-.6,2.6-1.2,3.9-1.6,2.2-.8,4.4-1.3,6.4-1.6,5.6-.9,10.5-.4,13.3,0,1.7.3,2.7.5,2.7.5-.2.4-.4.7-.6,1.1-.3.6-.6,1.1-1,1.6-.4.6-.7,1.1-1.1,1.6-.4.6-.8,1.1-1.2,1.6-.5.6-.9,1.1-1.4,1.6-.5.6-1.1,1.1-1.6,1.6-.6.6-1.3,1.1-1.9,1.6-.7.6-1.5,1.1-2.2,1.6-.9.6-1.8,1.1-2.7,1.6-1.1.6-2.2,1.1-3.4,1.6-1.5.6-3.1,1.2-4.6,1.6-3.1.9-6.1,1.4-8.8,1.6-4.1.4-7.5.2-9.5,0-1.1-.1-1.8-.2-1.8-.2.2-.5.5-.9.8-1.4.1-.5.5-1.1.8-1.6h0Z"/>
    <path class="cls-1" d="m251.9,148.5c-2.7.8-5.3,1.2-7.6,1.4-3.6.3-6.5.2-8.2,0-1-.1-1.6-.2-1.6-.2.2-.4.4-.8.7-1.2.3-.5.5-.9.8-1.4s.6-1,.9-1.4c.3-.5.7-.9,1-1.4.4-.5.8-.9,1.1-1.4.4-.5.9-1,1.3-1.4.5-.5,1-1,1.5-1.4.6-.5,1.1-1,1.7-1.4.7-.5,1.4-1,2-1.4.8-.5,1.7-1,2.5-1.4,1.1-.6,2.2-1,3.3-1.4,1.9-.7,3.8-1.1,5.6-1.4,4.9-.8,9.1-.4,11.6,0,1.5.2,2.3.5,2.3.5-.2.3-.4.6-.5.9-.3.5-.6.9-.9,1.4s-.6.9-1,1.4-.7,1-1.1,1.4c-.4.5-.8,1-1.2,1.4-.5.5-.9,1-1.4,1.4-.5.5-1.1,1-1.7,1.4-.6.5-1.3,1-1.9,1.4-.8.5-1.5,1-2.3,1.4-1,.5-1.9,1-2.9,1.4-1.3.6-2.7,1.1-4,1.4h0Z"/>
    <path class="cls-1" d="m267.3,101.4c-.1.8-.2,1.6-.4,2.4-.2.8-.4,1.6-.6,2.4-.3.8-.6,1.6-.9,2.4s-.7,1.6-1.1,2.4-.9,1.6-1.4,2.4c-.6.8-1.1,1.6-1.8,2.4-.7.8-1.4,1.6-2.2,2.4-.9.9-1.8,1.6-2.7,2.4-1.1.9-2.2,1.7-3.3,2.4-1.4.9-2.9,1.7-4.2,2.4-2.5,1.2-4.6,2-5.7,2.4-.7.2-1.1.3-1.1.3v-.3c0-.8.1-1.6.1-2.4.1-.8.2-1.6.3-2.4s.3-1.6.5-2.4.4-1.6.7-2.4.6-1.6.9-2.4c.4-.8.8-1.6,1.2-2.4.5-.8,1-1.6,1.5-2.4.6-.8,1.2-1.6,1.9-2.4.8-.9,1.6-1.7,2.4-2.4,1-.9,2-1.7,3.1-2.4,1.4-.9,2.7-1.7,4-2.4,2.3-1.1,4.4-1.9,6-2.4,1.9-.6,3.1-.8,3.1-.8v.8c-.1.8-.2,1.6-.3,2.4h0Z"/>
    <path class="cls-1" d="m210.6,25c-.9-.5-1.8-.9-2.5-1.5-.7-.5-1.2-1-1.8-1.5-.5-.5-1-1-1.4-1.5s-.8-1-1.1-1.5-.6-1-.9-1.5-.5-1-.7-1.5-.4-1-.5-1.5c-.2-.5-.3-1-.4-1.5-.1-.5-.2-1-.3-1.5-.1-.6-.1-1-.2-1.5-.1-.6-.1-1.1-.1-1.5v-.5c.5.1.9.3,1.4.5,1.2.4,2.4.9,3.4,1.5.8.4,1.5.9,2.2,1.5.6.5,1.1,1,1.6,1.5s.9,1,1.3,1.5c.4.5.7,1,1.1,1.5.3.5.6,1,.9,1.5s.5,1,.7,1.5.4,1,.6,1.5c.2.5.3,1,.5,1.5.1.5.3,1,.4,1.5.1.5.2,1,.3,1.5.1.7.1,1.2.2,1.5v.2c-.2-.1-.4-.1-.6-.2-1.6-.5-2.9-1-4.1-1.5h0Z"/>
    <path class="cls-1" d="m220.7,85.8c1.8.7,3.5,1.4,5,2.3,1.2.7,2.2,1.5,3.2,2.3.9.7,1.7,1.5,2.5,2.3.7.8,1.4,1.5,2,2.3s1.1,1.6,1.6,2.3.9,1.6,1.3,2.3.7,1.6,1,2.3c.3.8.6,1.6.8,2.3.2.8.5,1.6.6,2.3.2.8.4,1.6.5,2.3.1.9.3,1.7.3,2.3.1,1.1.2,1.9.2,2.3v.3c-.3-.1-.7-.2-1-.3-2.1-.7-4-1.4-5.7-2.3-1.4-.7-2.6-1.5-3.8-2.3-1-.7-1.9-1.5-2.8-2.3-.8-.8-1.5-1.5-2.1-2.3s-1.1-1.6-1.6-2.3c-.5-.8-.9-1.6-1.3-2.3-.4-.8-.7-1.6-1-2.3-.3-.8-.6-1.6-.8-2.3-.2-.8-.4-1.6-.6-2.3-.2-.8-.3-1.6-.4-2.3-.1-.9-.1-1.6-.2-2.3v-2.3c0-.5.1-.8.1-.8,1,.3,1.6.6,2.2.8h0Z"/>
    <path class="cls-1" d="m215.6,46.6c1,.4,1.9.8,2.9,1.3.8.4,1.5.8,2.2,1.3.6.4,1.3.9,1.9,1.3.6.4,1.1.9,1.6,1.3.5.4.9.9,1.4,1.3.4.4.9.9,1.2,1.3.4.5.8.9,1.1,1.3.4.5.7.9,1,1.3.4.5.6.9.9,1.3.3.5.6,1,.8,1.3.4.7.6,1.1.6,1.1-.8.1-1.5.1-2.2.2-2,.2-3.9.2-5.7,0-2.1-.2-4.1-.7-5.9-1.3-1.1-.4-2-.8-3-1.3-.8-.4-1.5-.8-2.2-1.3-.6-.4-1.2-.9-1.8-1.3-.5-.4-1-.9-1.5-1.3-.5-.4-.9-.9-1.3-1.3-.4-.4-.8-.9-1.1-1.3-.4-.5-.7-.9-1-1.3-.3-.5-.6-.9-.9-1.3-.3-.5-.6-.9-.8-1.3-.3-.5-.5-.9-.7-1.3-.3-.7-.5-1.1-.6-1.3,0-.1-.1-.2-.1-.2,3-.4,5.8-.3,8.3.2,1.7.3,3.4.7,4.9,1.3h0Z"/>
    <path class="cls-1" d="m192.1,19.3c-1.5.2-3,.1-4.4,0-1.7-.1-3.2-.5-4.7-.9-.9-.3-1.7-.6-2.4-.9-.6-.3-1.2-.6-1.8-.9-.5-.3-1-.6-1.5-.9-.5-.3-.9-.6-1.3-.9-.4-.3-.8-.6-1.1-.9-.4-.3-.7-.6-1-.9-.3-.3-.6-.6-.9-.9-.3-.3-.6-.6-.8-.9-.3-.4-.6-.7-.8-.9-.4-.5-.6-.9-.6-.9q.1,0,.2-.1c1.4-.5,2.8-.7,4.1-.9,2.5-.4,4.9-.4,7.1,0,1.3.2,2.5.6,3.6.9.8.3,1.6.6,2.4.9.7.3,1.3.6,1.9.9.6.3,1.1.6,1.6.9.5.3,1,.6,1.4.9.4.3.9.6,1.3.9.4.3.8.6,1.1.9.4.3.7.6,1,.9.4.3.7.7.9.9.4.4.6.7.9.9.2.2.3.4.3.4-.6.2-1.2.4-1.9.5-1.6.5-3.1.9-4.6,1h0Z"/>
  </g>
</svg>