<svg width="328" height="328" viewBox="0 0 328 328" fill="none" xmlns="http://www.w3.org/2000/svg">
<path d="M159.11 77.24C111.36 77.24 72.65 115.95 72.65 163.69C72.65 211.43 111.36 250.14 159.11 250.14C206.86 250.14 245.58 211.43 245.58 163.69C245.58 115.95 206.86 77.24 159.11 77.24ZM158.72 86.77C173.58 86.77 185.62 98.81 185.62 113.66C185.62 128.51 173.57 140.55 158.72 140.55C143.87 140.55 131.83 128.51 131.83 113.66C131.83 98.81 143.87 86.77 158.72 86.77V86.77ZM155.14 148.34C157.54 145.93 161.44 145.93 163.85 148.34C166.25 150.74 166.25 154.64 163.85 157.04C161.44 159.45 157.54 159.45 155.14 157.04C152.74 154.64 152.74 150.75 155.14 148.34ZM152.46 168.43C150.05 170.83 146.16 170.83 143.75 168.43C141.35 166.03 141.35 162.13 143.75 159.72C146.16 157.32 150.05 157.32 152.46 159.72C154.85 162.13 154.85 166.02 152.46 168.43ZM165.77 158.97C168.18 156.56 172.08 156.56 174.48 158.97C176.88 161.37 176.88 165.27 174.48 167.67C172.08 170.07 168.18 170.07 165.77 167.67C163.38 165.27 163.38 161.37 165.77 158.97ZM79.75 150.42C79.75 135.57 91.79 123.53 106.64 123.53C121.49 123.53 133.54 135.57 133.54 150.42C133.54 165.27 121.49 177.32 106.64 177.32C91.79 177.32 79.75 165.28 79.75 150.42ZM127.55 234.82C112.69 234.82 100.66 222.78 100.66 207.92C100.66 193.06 112.7 181.03 127.55 181.03C142.4 181.03 154.44 193.07 154.44 207.92C154.44 222.77 142.39 234.82 127.55 234.82V234.82ZM154.39 179.05C151.98 176.65 151.98 172.76 154.39 170.35C156.79 167.94 160.69 167.94 163.09 170.35C165.49 172.76 165.49 176.65 163.09 179.05C160.68 181.45 156.79 181.45 154.39 179.05ZM189.9 234.82C175.05 234.82 163.01 222.78 163.01 207.92C163.01 193.06 175.05 181.03 189.9 181.03C204.75 181.03 216.8 193.07 216.8 207.92C216.8 222.77 204.76 234.82 189.9 234.82V234.82ZM211.59 177.32C196.73 177.32 184.69 165.28 184.69 150.42C184.69 135.56 196.74 123.53 211.59 123.53C226.44 123.53 238.48 135.57 238.48 150.42C238.48 165.27 226.43 177.32 211.59 177.32V177.32Z" fill="#1BA7E3"/>
<path d="M287.83 159.38L256.99 145.55C253.86 128.52 246.43 113.01 235.83 100.17L242.08 83.53C242.18 83.19 242.38 82.12 241.47 81.2C240.36 80.08 238.97 80.58 238.97 80.58L222.55 86.83C209.67 76.13 194.08 68.6 176.95 65.43L163.1 34.92C163.07 34.87 161.88 32.43 158.93 32.43C155.98 32.43 154.83 34.94 154.83 34.94L141.22 65.29C123.83 68.36 108 75.91 94.9601 86.73L79.1301 80.79C79.1301 80.79 77.7901 80.26 76.6701 81.37C75.5501 82.48 76.0401 83.86 76.0401 83.86L75.9701 83.78L82.0101 99.63C71.0701 112.7 63.4101 128.61 60.3201 146.1L30.4401 159.66C30.4401 159.66 27.9301 160.93 27.9301 163.92C27.9301 166.91 30.4401 168 30.4401 168L60.3401 181.4C63.4701 198.89 71.1701 214.81 82.1401 227.88L76.1901 243.75V243.73C76.1901 243.73 75.6701 245.07 76.7901 246.19C77.6801 247.07 78.7301 246.94 79.1201 246.85L95.1201 240.75C108.16 251.53 123.99 259.06 141.36 262.1L155.07 292.28C155.07 292.28 156.18 294.79 159.16 294.79C162.14 294.79 163.47 292.29 163.47 292.28L177.09 261.9C194.23 258.71 209.84 251.15 222.7 240.41L239.19 246.6C239.19 246.6 240.53 247.13 241.64 246.02C242.53 245.12 242.39 244.08 242.3 243.69L235.97 227.04C246.51 214.21 253.92 198.7 257.02 181.69L287.84 167.69C287.84 167.69 290.35 166.47 290.35 163.49C290.35 160.51 287.84 159.38 287.84 159.38H287.83ZM158.7 257.96C106.61 257.96 64.4001 215.74 64.4001 163.69C64.4001 111.64 106.61 69.4 158.7 69.4C210.79 69.4 252.99 111.61 252.99 163.69C252.99 215.77 210.77 257.96 158.7 257.96Z" fill="#1BA7E3"/>
</svg>
