<svg width="307" height="174" viewBox="0 0 307 174" fill="none" xmlns="http://www.w3.org/2000/svg">
<path d="M289.33 162.16H236.56C236.56 104.73 207.85 132.03 207.85 81.6999C207.85 63.5299 219.74 53.6699 235.02 53.6699C257.59 53.6699 273.28 75.21 251.92 115.5C244.9 128.74 259.39 131.88 274.97 135.47C290.53 139.06 289.33 147.27 289.33 162.16ZM31.75 135.47C47.32 131.88 61.82 128.73 54.8 115.5C33.43 75.21 49.14 53.6699 71.7 53.6699C86.97 53.6699 98.87 63.5299 98.87 81.6999C98.87 132.03 70.1601 104.73 70.1601 162.16H17.38C17.38 147.27 16.18 139.06 31.75 135.47ZM203.6 128.59C184.01 124.07 165.78 120.12 174.61 103.47C201.49 52.79 181.74 25.7 153.35 25.7C124.96 25.7 105.14 53.84 132.09 103.47C141.18 120.22 122.27 124.17 103.1 128.59C83.52 133.11 85.03 143.43 85.03 162.16H221.68C221.68 143.43 223.19 133.11 203.61 128.59H203.6Z" fill="white"/>
</svg>
