<svg width="239" height="246" viewBox="0 0 239 246" fill="none" xmlns="http://www.w3.org/2000/svg">
<path d="M27.24 23.76V222H211.24V23.76H27.24ZM190.12 200.89H47.83V44.52H190.12V200.89ZM65.49 88.53L70.18 84.19C75.66 86.84 79.15 88.86 85.31 93.26C96.91 80.1 104.57 73.42 118.81 64.56L120.34 68.07C108.59 78.32 99.99 89.74 87.61 111.95C79.97 102.95 74.87 97.21 65.49 88.52V88.53ZM65.49 156.25L70.18 151.91C75.66 154.56 79.15 156.58 85.31 160.98C96.91 147.82 104.57 141.14 118.81 132.28L120.34 135.79C108.59 146.04 99.99 157.46 87.61 179.68C79.97 170.68 74.87 164.94 65.49 156.25V156.25ZM172.18 84.18H135.7V73.75H172.18V84.18ZM172.18 93.3H135.7V103.73H172.18V93.3ZM172.18 156.94H135.7V146.52H172.18V156.94ZM172.18 166.06H135.7V176.48H172.18V166.06Z" fill="white"/>
</svg>
