<svg width="239" height="246" viewBox="0 0 239 246" fill="none" xmlns="http://www.w3.org/2000/svg">
<path d="M112.68 76.55L224.77 54.33L224.69 53.95L217.19 16.11L12.21 58.24V229.65H226.27V76.55H112.68ZM205.77 208.86H33.14L33 125.87H205.48L205.77 208.86V208.86ZM162.63 86.94L144.49 105.09H117.25L135.4 86.94H162.64H162.63ZM191.57 31.78L212.95 46.08L186.25 51.39L164.86 37.08L191.58 31.78H191.57ZM138.97 42.21L160.38 56.53L133.68 61.84L112.26 47.51L138.98 42.21H138.97ZM86.31 52.65L107.75 67L81.05 72.31L59.6 57.95L86.32 52.65H86.31ZM81.71 86.94H108.95L90.8 105.09H63.56L81.71 86.94V86.94ZM170.87 105.09L189.02 86.94H216.26L198.11 105.09H170.87Z" fill="white"/>
</svg>
