<svg width="239" height="246" viewBox="0 0 239 246" fill="none" xmlns="http://www.w3.org/2000/svg">
<path d="M121.31 126.89C121.31 113.79 110.69 103.18 97.5999 103.18C84.5099 103.18 73.8899 113.8 73.8899 126.89C73.8899 139.98 84.5099 150.6 97.5999 150.6C110.69 150.6 121.31 139.99 121.31 126.89V126.89ZM155.86 161.23C159.86 161.23 163.7 160.54 167.28 159.28V192.35C167.28 199.67 161.35 205.61 154.03 205.61H99.0899C91.7699 205.61 85.8299 199.67 85.8299 192.35V159.15C89.4999 160.5 93.4699 161.23 97.5999 161.23C109.87 161.23 120.66 154.76 126.73 145.05C132.8 154.76 143.59 161.23 155.86 161.23V161.23ZM155.86 103.18C142.77 103.18 132.14 113.8 132.14 126.89C132.14 139.98 142.77 150.6 155.86 150.6C168.95 150.6 179.57 139.98 179.57 126.89C179.57 113.8 168.96 103.18 155.86 103.18V103.18ZM217.93 142.91V205.61L177.9 185.24V163.63L217.93 142.91V142.91Z" fill="white"/>
<path d="M111.45 224.71C21.25 211.1 21.65 71.66 128.05 71.66L127.01 90.11L163.07 56.35L129.9 20.92L129.32 38.02C-22.6099 42.35 -2.83997 230.37 111.45 224.71Z" fill="white"/>
</svg>
