<svg width="239" height="246" viewBox="0 0 239 246" fill="none" xmlns="http://www.w3.org/2000/svg">
<path d="M128.34 87.44L189.51 26.27L226.66 63.42L165.49 124.59L156.46 115.56L206.57 65.45C208.06 63.97 208.06 61.56 206.57 60.07C205.08 58.58 202.68 58.58 201.19 60.07L151.08 110.18L142.71 101.8L192.89 51.63C194.38 50.14 194.38 47.73 192.89 46.25C191.41 44.76 189 44.76 187.51 46.25L137.33 96.43L128.34 87.45V87.44ZM114.7 175.38L75.14 214.94L28.6 223.53L37.99 177.79L77.54 138.24L86.53 147.23L50.94 182.82C49.46 184.3 49.45 186.71 50.94 188.2C52.43 189.69 54.84 189.69 56.32 188.2L91.9 152.62L100.28 160.99L64.63 196.64C63.14 198.13 63.14 200.54 64.63 202.02C66.12 203.51 68.53 203.51 70.01 202.02L105.66 166.37L114.69 175.4L114.7 175.38Z" fill="white"/>
<path d="M172.23 216.43L72.66 116.71C68.58 112.63 63 110.4 57.23 110.54C45.52 110.83 33.89 106.46 25.12 97.69C12.4 84.97 6.64 65.51 17.66 43.63L46.52 72.48C52.47 70.85 60.38 62.99 62.02 56.98L33.16 28.12C55.3 16.98 74.49 22.84 87.22 35.58C95.85 44.21 100.37 55.85 100.07 67.7C99.93 73.47 102.16 79.04 106.23 83.12L205.8 182.83C215.06 192.09 215.06 207.15 205.8 216.41C196.52 225.68 181.5 225.69 172.22 216.41L172.23 216.43ZM58.28 99.08C65.98 98.57 73.53 101.42 78.99 106.88L180.31 208.35C185.12 213.16 192.91 213.16 197.72 208.35C202.53 203.55 202.53 195.74 197.72 190.94L96.4 89.46C90.95 84.01 88.1 76.46 88.6 68.77C89.81 50.08 74.8 33.7 55.37 34.17L73.54 52.34C75.21 56.8 71.54 66.44 64.89 73.51C57.39 81.47 46.54 85.75 41.88 84.01L23.68 65.81C23.13 85.02 39.48 100.31 58.29 99.07L58.28 99.08ZM188.57 206.53C184.6 206.53 181.37 203.31 181.37 199.34C181.37 195.37 184.6 192.14 188.57 192.14C192.54 192.14 195.77 195.36 195.77 199.34C195.77 203.32 192.55 206.53 188.57 206.53Z" fill="white"/>
</svg>
