<?xml version="1.0" standalone="no"?>
<!DOCTYPE svg PUBLIC "-//W3C//DTD SVG 20010904//EN"
 "http://www.w3.org/TR/2001/REC-SVG-20010904/DTD/svg10.dtd">
<svg version="1.0" xmlns="http://www.w3.org/2000/svg"
 width="645.000000pt" height="387.000000pt" viewBox="0 0 645.000000 387.000000"
 preserveAspectRatio="xMidYMid meet">

<g transform="translate(0.000000,387.000000) scale(0.100000,-0.100000)"
fill="#000000" stroke="none">
<path d="M4747 3600 c-136 -35 -233 -153 -257 -315 -6 -43 -10 -470 -10 -1122
l0 -1053 65 0 65 0 1 338 c1 185 5 503 8 706 l6 370 193 -3 192 -3 0 61 0 61
-195 0 -195 0 0 310 c0 334 5 383 49 452 69 109 253 118 361 18 l44 -41 43 44
44 43 -38 38 c-21 21 -66 52 -101 69 -52 24 -79 30 -150 33 -48 2 -104 -1
-125 -6z"/>
<path d="M5420 3123 c-60 -18 -90 -56 -90 -119 0 -52 53 -104 107 -104 87 0
145 81 110 155 -24 50 -82 81 -127 68z"/>
<path d="M860 2634 c-139 -29 -282 -124 -375 -247 l-29 -39 24 -18 c13 -10 36
-25 51 -34 26 -15 27 -15 55 25 37 55 118 126 174 154 196 99 480 74 591 -52
68 -79 108 -208 109 -355 l0 -56 -342 -4 c-325 -4 -347 -5 -413 -27 -160 -52
-255 -126 -308 -239 -31 -64 -32 -73 -32 -187 1 -159 21 -213 114 -306 111
-111 249 -160 451 -161 147 0 251 21 359 73 105 51 191 134 242 234 58 111 61
140 57 520 -4 368 -5 371 -68 495 -30 59 -115 142 -179 175 -123 62 -326 83
-481 49z m600 -893 c0 -225 -22 -304 -111 -393 -94 -94 -228 -140 -404 -139
-279 1 -438 114 -453 322 -12 171 91 299 276 343 42 11 140 15 375 15 l317 1
0 -149z"/>
<path d="M2370 2634 c-143 -31 -263 -119 -327 -240 -65 -121 -65 -124 -70
-726 l-5 -548 71 0 71 0 0 518 c0 551 4 602 50 692 76 148 233 220 421 192
188 -27 307 -132 355 -312 15 -58 17 -119 15 -577 l-2 -513 70 0 70 0 3 528
c3 521 3 528 26 592 59 167 169 256 346 280 226 32 398 -73 450 -275 14 -50
16 -143 16 -591 l0 -532 66 -4 c36 -1 68 -1 70 1 2 2 4 241 4 530 0 425 -3
539 -15 596 -42 197 -178 338 -375 386 -122 30 -312 9 -424 -48 -61 -31 -169
-132 -203 -190 -14 -24 -26 -43 -28 -43 -2 0 -20 25 -40 55 -49 74 -132 148
-208 185 -113 55 -274 73 -407 44z"/>
<path d="M5370 1875 l0 -765 70 0 70 0 0 765 0 765 -70 0 -70 0 0 -765z"/>
<path d="M1480 710 c-35 -34 -35 -38 -14 -68 18 -26 46 -28 68 -6 21 21 20 40
-4 64 -12 12 -18 25 -15 30 12 19 -5 10 -35 -20z m40 -25 c17 -20 5 -45 -20
-45 -11 0 -23 7 -26 15 -6 15 11 45 26 45 4 0 13 -7 20 -15z"/>
<path d="M374 675 c-7 -19 -14 -36 -14 -37 0 -2 18 -3 40 -3 22 0 40 1 40 2 0
11 -36 73 -42 73 -5 0 -16 -16 -24 -35z m31 -5 c3 -5 1 -10 -4 -10 -6 0 -11 5
-11 10 0 6 2 10 4 10 3 0 8 -4 11 -10z"/>
<path d="M514 698 c-4 -6 2 -19 14 -29 28 -22 28 -29 0 -29 -20 -1 -21 -2 -6
-10 9 -6 23 -7 32 -4 23 9 20 41 -4 49 -27 8 -25 23 3 28 19 4 19 4 -5 6 -15
0 -30 -4 -34 -11z"/>
<path d="M651 688 c-10 -28 -4 -46 21 -59 42 -22 88 30 58 66 -20 24 -69 19
-79 -7z m64 -18 c0 -18 -6 -26 -21 -28 -26 -4 -40 24 -23 45 18 21 44 11 44
-17z"/>
<path d="M820 695 c-30 -36 17 -89 57 -66 18 10 16 12 -22 15 -31 2 -28 51 3
50 12 0 22 3 22 8 0 14 -47 9 -60 -7z"/>
<path d="M960 665 c0 -25 5 -45 10 -45 6 0 10 20 10 45 0 25 -4 45 -10 45 -5
0 -10 -20 -10 -45z"/>
<path d="M1070 668 c-10 -24 -16 -45 -13 -48 3 -3 8 1 10 8 3 6 15 12 28 12
13 0 25 -6 28 -12 2 -7 7 -10 11 -7 8 7 -26 89 -37 89 -4 0 -16 -19 -27 -42z"/>
<path d="M1222 698 c-32 -32 6 -90 46 -72 14 6 13 8 -8 13 -34 9 -37 57 -2 54
12 -2 22 2 22 7 0 14 -44 12 -58 -2z"/>
<path d="M1360 665 c0 -25 5 -45 10 -45 6 0 10 20 10 45 0 25 -4 45 -10 45 -5
0 -10 -20 -10 -45z"/>
<path d="M1620 671 c0 -49 18 -64 22 -19 l3 33 18 -33 c10 -18 24 -32 30 -29
15 5 22 87 8 87 -6 0 -11 -12 -11 -27 l-1 -28 -22 28 c-32 38 -47 35 -47 -12z"/>
<path d="M1880 671 c0 -47 17 -64 22 -24 l4 28 13 -30 13 -30 13 30 c9 21 15
25 18 15 3 -8 8 -22 10 -30 3 -8 6 6 6 33 1 54 -18 65 -36 20 l-10 -28 -11 28
c-18 42 -42 35 -42 -12z"/>
<path d="M2070 665 c0 -41 2 -45 24 -45 14 0 28 5 31 10 4 6 -5 10 -19 10 -32
0 -35 20 -3 21 21 0 21 1 -3 11 -25 11 -25 11 -2 15 30 6 28 23 -3 23 -23 0
-25 -4 -25 -45z"/>
<path d="M2212 685 c8 -19 8 -28 -2 -40 -7 -8 -10 -18 -6 -22 3 -4 13 2 21 13
14 18 16 18 26 2 5 -10 15 -18 21 -18 6 0 4 10 -5 24 -14 21 -14 26 -1 45 16
22 6 29 -14 9 -9 -9 -15 -9 -24 0 -20 20 -28 14 -16 -13z"/>
<path d="M2363 665 c0 -27 2 -38 4 -22 2 15 2 37 0 50 -2 12 -4 0 -4 -28z"/>
<path d="M2462 698 c-29 -29 -7 -78 35 -78 13 0 23 5 23 10 0 6 -6 10 -12 9
-29 -4 -38 2 -38 26 0 20 5 25 25 25 14 0 25 5 25 10 0 14 -43 13 -58 -2z"/>
<path d="M2612 668 c-20 -45 -20 -60 0 -40 16 16 45 15 51 0 2 -7 7 -10 11 -6
7 6 -29 88 -39 88 -2 0 -13 -19 -23 -42z m33 3 c3 -5 1 -12 -5 -16 -5 -3 -10
1 -10 9 0 18 6 21 15 7z"/>
<path d="M2759 705 c-4 -23 -1 -76 4 -82 4 -3 7 6 7 20 0 34 13 35 28 2 18
-40 42 -32 42 14 0 22 -4 43 -10 46 -6 4 -10 -6 -10 -22 l-1 -28 -22 28 c-21
25 -36 34 -38 22z"/>
<path d="M2931 669 c-11 -24 -17 -46 -14 -49 3 -3 8 1 10 8 6 14 39 16 48 2
16 -26 22 -6 9 28 -24 58 -32 59 -53 11z m26 -11 c-3 -8 -6 -5 -6 6 -1 11 2
17 5 13 3 -3 4 -12 1 -19z"/>
<path d="M3170 665 c0 -43 1 -45 29 -45 16 0 34 7 41 15 17 21 4 61 -22 69
-44 11 -48 8 -48 -39z m58 -3 c3 -17 -2 -22 -17 -22 -16 0 -21 6 -21 26 0 33
33 30 38 -4z"/>
<path d="M3330 665 c0 -44 1 -45 33 -44 27 1 29 2 9 7 -28 8 -30 24 -5 33 17
7 17 8 1 8 -25 1 -22 21 3 21 11 0 17 5 14 10 -3 6 -17 10 -31 10 -22 0 -24
-4 -24 -45z"/>
<path d="M3569 708 c-7 -33 -7 -88 1 -88 6 0 10 7 10 15 0 8 9 15 20 15 11 0
20 5 20 10 0 6 -9 10 -20 10 -11 0 -20 5 -20 10 0 6 9 10 20 10 11 0 20 5 20
10 0 8 -49 15 -51 8z"/>
<path d="M3700 666 c0 -25 5 -46 10 -46 6 0 10 18 10 39 0 22 -4 43 -10 46 -6
4 -10 -12 -10 -39z"/>
<path d="M3801 668 c-1 -46 0 -48 27 -47 23 0 24 1 7 8 -13 5 -22 21 -26 47
l-6 39 -2 -47z"/>
<path d="M4432 694 c-43 -30 -4 -93 46 -73 29 11 31 63 3 79 -25 13 -22 13
-49 -6z m48 -19 c10 -12 10 -18 0 -30 -25 -30 -61 -7 -46 30 3 8 12 15 19 15
8 0 20 -7 27 -15z"/>
<path d="M3931 658 c2 -31 3 -35 6 -15 5 30 23 27 23 -4 0 -28 19 -23 32 9
l11 27 7 -30 c7 -28 8 -27 9 13 1 31 -3 42 -14 42 -8 0 -15 -6 -15 -14 0 -24
-21 -30 -27 -7 -10 40 -33 24 -32 -21z"/>
<path d="M4116 664 c-20 -42 -16 -51 13 -32 18 11 23 11 31 -2 5 -8 12 -12 15
-8 8 8 -21 78 -33 78 -4 0 -16 -16 -26 -36z m34 -4 c0 -5 -4 -10 -10 -10 -5 0
-10 5 -10 10 0 6 5 10 10 10 6 0 10 -4 10 -10z"/>
<path d="M4260 660 c0 -40 1 -41 31 -38 18 2 37 11 43 21 16 25 -4 51 -43 55
-30 3 -31 2 -31 -38z m58 6 c4 -17 -12 -35 -30 -36 -5 0 -8 14 -8 31 0 24 4
30 17 27 10 -2 19 -12 21 -22z"/>
<path d="M4580 660 c0 -38 20 -60 20 -22 1 16 1 16 14 0 17 -23 30 -23 22 -2
-4 9 -1 23 5 30 16 19 2 34 -32 34 -27 0 -29 -2 -29 -40z m45 20 c3 -5 -1 -10
-9 -10 -9 0 -16 5 -16 10 0 6 4 10 9 10 6 0 13 -4 16 -10z"/>
<path d="M4734 665 c-7 -19 -14 -36 -14 -37 0 -2 18 -3 40 -3 22 0 40 1 40 2
0 11 -36 73 -42 73 -5 0 -16 -16 -24 -35z m36 -5 c0 -5 -4 -10 -10 -10 -5 0
-10 5 -10 10 0 6 5 10 10 10 6 0 10 -4 10 -10z"/>
<path d="M4874 688 c-4 -6 2 -19 14 -29 25 -20 29 -34 7 -26 -8 4 -17 2 -20
-2 -7 -12 21 -22 40 -15 22 9 18 42 -5 49 -27 8 -25 23 3 28 19 4 19 4 -5 6
-15 0 -30 -4 -34 -11z"/>
<path d="M5117 660 l-15 -39 30 6 c20 4 33 1 38 -8 5 -7 11 -11 14 -8 7 7 -31
89 -42 89 -5 0 -16 -18 -25 -40z m33 0 c0 -5 -5 -10 -11 -10 -5 0 -7 5 -4 10
3 6 8 10 11 10 2 0 4 -4 4 -10z"/>
<path d="M5361 678 c-16 -41 34 -87 62 -59 8 8 4 11 -15 11 -32 0 -42 13 -33
41 5 14 13 19 26 16 10 -3 22 -1 25 4 3 5 -9 9 -26 9 -23 0 -33 -6 -39 -22z"/>
<path d="M5505 620 c3 -5 8 -10 11 -10 2 0 4 5 4 10 0 6 -5 10 -11 10 -5 0 -7
-4 -4 -10z"/>
</g>
</svg>
