<?xml version="1.0" standalone="no"?>
<!DOCTYPE svg PUBLIC "-//W3C//DTD SVG 20010904//EN"
 "http://www.w3.org/TR/2001/REC-SVG-20010904/DTD/svg10.dtd">
<svg version="1.0" xmlns="http://www.w3.org/2000/svg"
 width="1000.000000pt" height="394.000000pt" viewBox="0 0 1000.000000 394.000000"
 preserveAspectRatio="xMidYMid meet">

<g transform="translate(0.000000,394.000000) scale(0.100000,-0.100000)"
fill="#000000" stroke="none">
<path d="M8955 3715 c-161 -30 -323 -117 -570 -304 -55 -42 -129 -96 -165
-121 -120 -81 -264 -193 -473 -368 -159 -132 -213 -172 -227 -167 -11 4 -86
70 -168 148 -82 79 -173 159 -203 179 -269 178 -522 172 -926 -22 -67 -32
-136 -61 -155 -65 -110 -22 -308 -97 -308 -116 0 -5 23 0 51 12 29 11 53 18
56 16 2 -2 -21 -19 -52 -38 -30 -18 -55 -39 -55 -46 0 -8 25 4 59 27 61 42
171 95 171 82 0 -4 -28 -27 -61 -51 -76 -55 -169 -140 -169 -154 0 -6 33 21
73 59 124 120 241 194 307 193 l25 0 -22 -11 c-13 -6 -23 -17 -23 -25 0 -10
10 -7 33 10 37 28 80 43 152 51 59 7 50 -5 -20 -28 -27 -9 -61 -24 -75 -32
-16 -10 -18 -13 -5 -8 11 4 55 20 98 35 51 19 98 29 134 29 71 0 228 -32 345
-71 176 -58 447 -202 553 -293 l30 -26 -30 -25 c-74 -62 -284 -206 -392 -268
-130 -74 -275 -127 -419 -152 -78 -13 -97 -13 -188 1 -117 18 -166 45 -258
142 -130 137 -165 273 -107 427 23 61 70 108 154 156 30 17 55 33 55 35 0 6
-59 -25 -92 -47 -42 -30 -45 -22 -8 19 19 20 -15 -12 -75 -73 -133 -132 -160
-167 -191 -242 l-24 -58 0 56 c0 65 29 132 91 206 l41 48 -44 -46 c-23 -25
-56 -70 -73 -100 -35 -64 -39 -133 -12 -220 19 -60 74 -155 84 -145 3 3 -1 14
-10 24 -34 37 -16 33 26 -5 24 -22 56 -48 71 -58 14 -10 25 -20 22 -22 -7 -7
-70 23 -85 40 -7 9 -17 14 -22 11 -5 -2 -23 3 -41 12 -31 16 -32 16 -19 0 18
-22 77 -64 67 -48 -10 17 7 15 30 -4 19 -15 19 -16 -1 -10 -41 12 11 -18 108
-64 53 -25 96 -48 97 -51 1 -14 -215 26 -296 55 -73 27 -86 25 -21 -3 70 -30
204 -60 318 -70 58 -6 114 -14 125 -18 17 -7 15 -8 -11 -15 -19 -5 -7 -6 30
-3 98 8 42 -12 -96 -34 -68 -11 -142 -22 -164 -24 -22 -3 5 -3 60 0 55 2 147
12 204 22 l103 17 84 -33 c172 -69 341 -95 545 -82 199 13 372 61 582 161 121
58 130 61 153 47 13 -8 88 -78 166 -154 411 -403 823 -607 1124 -556 179 30
336 170 444 397 17 35 53 93 79 128 103 136 150 277 158 472 5 107 2 151 -15
240 -11 60 -23 140 -27 177 -13 151 -83 301 -193 416 -56 59 -65 74 -82 138
-46 174 -138 269 -286 293 -69 11 -60 12 -149 -5z m241 -53 c90 -46 138 -105
174 -211 26 -79 26 -80 -12 -44 -32 31 -110 72 -136 73 -8 0 -39 16 -70 35
-87 53 -149 62 -290 41 -139 -21 -213 -40 -304 -77 -38 -15 -68 -25 -68 -23 0
11 154 102 253 149 150 72 200 85 317 82 74 -3 104 -8 136 -25z m-276 -143
c-25 -4 -58 -8 -75 -8 -26 0 -27 2 -10 9 11 5 45 8 75 8 l55 -1 -45 -8z m-224
-28 c-4 -5 -39 -22 -79 -37 -251 -95 -451 -241 -808 -591 -102 -101 -191 -183
-196 -183 -6 0 -16 6 -22 14 -9 11 9 31 91 102 57 49 157 136 223 194 357 313
479 397 705 481 82 31 94 33 86 20z m354 -9 c0 -4 -31 -8 -69 -9 -127 -2 -210
-33 -481 -178 l-105 -56 45 40 c55 50 188 147 226 166 51 25 167 43 277 44 59
1 107 -3 107 -7z m150 -48 c22 -15 39 -29 37 -31 -4 -4 -97 46 -97 53 0 11 24
2 60 -22z m-324 9 c-10 -11 -130 -53 -135 -48 -4 5 -3 5 79 34 65 23 65 23 56
14z m281 -33 c58 -29 183 -131 183 -150 0 -5 -30 -10 -67 -12 -66 -3 -70 -2
-117 35 -71 55 -138 86 -220 103 -39 9 -72 16 -73 18 -9 8 167 45 197 41 19
-2 63 -18 97 -35z m-642 -43 c-22 -18 -79 -68 -128 -112 -48 -44 -134 -116
-191 -160 -56 -44 -172 -136 -257 -205 -300 -244 -310 -248 -104 -44 262 261
429 397 632 514 83 47 102 50 48 7z m848 -11 c20 -18 37 -39 37 -45 0 -16 -2
-15 -50 34 -51 52 -41 61 13 11z m-430 -1 c97 -20 238 -99 222 -125 -3 -5 -12
-10 -19 -10 -23 0 -198 -90 -285 -147 -117 -76 -203 -143 -436 -338 -110 -92
-251 -206 -313 -253 -133 -101 -113 -102 -270 21 l-104 81 39 36 c21 19 137
125 257 235 273 250 427 365 614 459 106 53 186 64 295 41z m578 -147 c27 -37
12 -35 -33 5 -21 18 -40 45 -43 62 l-6 30 31 -35 c17 -19 40 -47 51 -62z
m-121 63 c13 -25 13 -34 0 -26 -16 10 -32 45 -21 45 6 0 15 -9 21 -19z m-39
-41 c26 0 49 -54 49 -112 0 -59 -11 -148 -19 -148 -3 0 -15 21 -25 48 -11 26
-44 82 -73 125 -29 43 -53 80 -53 82 0 5 72 12 88 8 8 -2 22 -3 33 -3z m-66
-130 c64 -97 89 -162 82 -213 -10 -72 -87 -309 -123 -377 -118 -226 -370 -342
-675 -310 -163 16 -282 52 -484 145 l-80 36 30 22 c27 19 183 145 616 494 204
165 353 258 484 303 l50 18 28 -27 c16 -14 48 -55 72 -91z m155 89 c0 -11 -4
-17 -10 -14 -5 3 -10 13 -10 21 0 8 5 14 10 14 6 0 10 -9 10 -21z m-2545 -14
c120 -31 304 -141 385 -231 l25 -27 -45 27 c-213 130 -506 193 -730 157 -30
-4 1 -7 90 -7 281 1 503 -73 734 -245 58 -43 106 -81 106 -83 0 -3 -39 20 -87
51 -276 173 -413 211 -873 242 -103 7 -104 7 -60 18 25 6 35 11 24 12 -12 1
-53 -9 -90 -20 -76 -24 -196 -51 -201 -45 -6 6 171 83 252 110 44 14 109 32
145 40 89 19 252 20 325 1z m2680 -180 c25 -49 51 -117 60 -150 47 -182 -21
-433 -154 -566 -48 -48 -161 -121 -161 -104 0 3 16 37 35 75 19 38 51 115 70
172 20 57 48 137 63 178 24 69 26 87 26 225 0 137 -3 157 -27 224 -15 41 -27
88 -27 105 0 31 0 31 36 -19 19 -28 55 -90 79 -140z m11 50 c40 -83 27 -85
-16 -2 -22 42 -40 81 -40 85 1 13 32 -33 56 -83z m-1586 51 c0 -2 -89 -79
-197 -171 -109 -93 -209 -178 -222 -189 -13 -12 -22 -15 -20 -8 4 11 427 372
437 372 1 0 2 -2 2 -4z m1439 -66 c6 -28 11 -74 10 -103 -1 -50 -14 -158 -18
-147 -1 3 -10 34 -19 70 -14 53 -15 80 -8 148 5 45 13 82 17 82 4 0 12 -23 18
-50z m58 -235 c-1 -71 -7 -138 -12 -147 -7 -11 -10 51 -10 185 -1 188 0 198
12 147 9 -36 12 -101 10 -185z m-2737 189 c41 -9 103 -28 138 -44 63 -29 232
-135 232 -145 0 -3 -39 15 -87 39 -116 58 -263 112 -398 147 l-110 29 75 -6
c41 -3 109 -12 150 -20z m360 -59 c106 -45 254 -132 355 -208 6 -5 -7 -22 -34
-46 l-44 -39 -96 97 c-108 109 -197 176 -295 222 -36 17 -66 32 -66 34 0 8
103 -27 180 -60z m-74 -20 c33 -19 72 -43 85 -55 13 -11 -7 -1 -46 22 -38 23
-98 54 -133 68 -34 15 -65 30 -70 34 -13 14 103 -35 164 -69z m-1066 50 c0 -6
-102 -36 -107 -31 -5 4 75 34 95 35 6 1 12 -1 12 -4z m2059 -31 c-53 -58 -341
-305 -352 -301 -27 9 -12 28 70 90 49 36 135 104 193 151 58 47 107 85 109 86
3 0 -6 -12 -20 -26z m1370 -127 c6 -35 11 -78 11 -95 0 -49 -50 -293 -65 -321
-41 -75 -168 -182 -284 -241 -67 -33 -94 -41 -181 -50 -289 -29 -442 3 -673
142 -112 67 -115 74 -16 32 112 -47 233 -82 349 -99 258 -40 450 11 582 154
95 103 195 308 238 489 6 28 16 52 20 52 4 0 13 -28 19 -63z m52 -106 c-6 -69
-15 -129 -19 -133 -6 -6 -5 43 7 272 2 23 2 24 13 6 8 -14 8 -53 -1 -145z
m-3517 18 c-10 -26 -17 -74 -17 -116 0 -107 47 -197 160 -310 72 -71 81 -83
56 -77 -51 12 -177 83 -231 130 -102 89 -125 169 -78 269 21 46 114 161 122
152 2 -2 -3 -24 -12 -48z m1571 -27 c-39 -33 -95 -72 -95 -65 1 10 81 73 95
73 6 0 6 -3 0 -8z m2178 -177 c0 -152 -18 -243 -69 -354 -32 -72 -74 -144 -80
-138 -3 2 7 44 21 93 35 121 72 307 85 434 6 58 14 116 17 129 l6 25 10 -25
c6 -13 10 -87 10 -164z m-2133 150 c11 -14 7 -22 -25 -55 -22 -22 -42 -40 -45
-40 -3 0 -15 8 -28 18 l-23 18 47 37 c54 42 57 43 74 22z m79 -59 c10 -11 3
-21 -33 -51 -40 -32 -47 -35 -65 -23 -27 17 -25 22 29 57 53 35 54 35 69 17z
m-269 -26 c-38 -30 -176 -125 -167 -114 17 19 172 132 182 133 6 0 -1 -8 -15
-19z m62 -17 c10 -9 18 -19 18 -24 0 -18 -333 -191 -467 -243 -65 -24 -51 -10
29 30 91 46 222 128 318 198 41 30 77 55 79 56 3 0 13 -7 23 -17z m377 -90
c64 -48 120 -90 124 -93 8 -7 -65 -60 -84 -60 -11 0 -235 155 -243 169 -4 6
70 71 82 71 2 0 57 -39 121 -87z m1606 33 c-4 -25 -12 -46 -17 -46 -5 0 -7 8
-4 18 2 9 8 32 11 50 10 49 18 31 10 -22z m-1925 -11 c7 -9 11 -17 9 -19 -18
-16 -191 -123 -259 -159 -93 -50 -251 -120 -257 -114 -2 3 21 14 52 27 81 33
237 129 340 209 50 39 93 71 96 71 4 0 12 -7 19 -15z m2128 -82 c-16 -101 -47
-235 -80 -342 -31 -99 -35 -106 -83 -144 -57 -45 -125 -78 -205 -98 -63 -16
-336 -17 -351 -2 -6 6 17 18 63 33 40 12 91 32 113 43 54 27 144 115 180 177
25 43 41 57 100 87 94 48 181 137 226 230 19 40 37 72 40 72 3 1 2 -25 -3 -56z
m-1950 -45 c59 -50 108 -94 110 -98 1 -4 -9 -12 -23 -18 -24 -11 -29 -7 -102
80 -136 159 -134 164 15 36z m-338 68 c0 -3 -44 -34 -98 -70 -119 -80 -237
-136 -357 -171 -84 -24 -245 -48 -245 -36 0 4 47 19 103 34 124 34 354 125
492 195 110 56 105 54 105 48z m288 -99 c45 -53 82 -100 82 -102 0 -3 -17 6
-37 20 -21 14 -41 25 -45 25 -19 0 -5 -21 28 -44 l36 -24 -23 -16 c-91 -59
-347 -155 -503 -187 -133 -29 -381 -31 -500 -5 -80 18 -243 72 -250 84 -2 4
53 8 122 8 128 2 321 28 432 60 148 43 369 147 500 238 36 25 68 44 71 43 3
-1 42 -46 87 -100z m1754 11 c-8 -8 -9 -4 -5 13 4 13 8 18 11 10 2 -7 -1 -18
-6 -23z m-1199 -127 c107 -63 171 -90 306 -130 189 -56 317 -60 486 -16 33 8
75 15 95 15 19 0 63 6 98 14 77 16 77 4 1 -42 -169 -102 -430 -89 -821 42
-257 86 -458 171 -458 193 0 5 19 20 42 35 l42 26 60 -42 c34 -24 101 -66 149
-95z m-363 66 c0 -5 -13 1 -30 13 -16 12 -30 24 -30 26 0 3 14 -3 30 -13 17
-9 30 -21 30 -26z m1500 -45 l-31 -81 -74 -16 c-104 -23 -119 -17 -58 22 28
18 81 62 119 97 38 35 70 63 72 61 2 -1 -11 -39 -28 -83z m-1252 -95 c258
-160 469 -250 675 -288 l102 -19 -81 5 c-162 9 -369 67 -538 152 -117 58 -218
126 -373 250 -8 6 -12 16 -9 22 8 12 25 2 224 -122z m-1936 60 c53 -23 96 -42
94 -44 -1 -1 -35 6 -75 17 -77 22 -145 52 -157 71 -9 15 17 7 138 -44z m1793
-37 c191 -143 365 -237 555 -302 91 -31 105 -37 65 -32 -77 9 -203 49 -319
100 -119 52 -371 195 -430 245 l-39 33 23 18 c12 10 26 18 30 18 4 0 56 -36
115 -80z m356 -69 c231 -82 363 -117 492 -131 131 -13 281 6 360 46 46 24 30
0 -30 -45 -101 -75 -127 -84 -240 -89 -200 -8 -386 54 -688 228 -89 51 -103
60 -94 60 3 0 93 -31 200 -69z m-1968 22 c-7 -2 -19 -2 -25 0 -7 3 -2 5 12 5
14 0 19 -2 13 -5z m205 -20 c-10 -2 -26 -2 -35 0 -10 3 -2 5 17 5 19 0 27 -2
18 -5z m1507 -95 c224 -127 454 -196 670 -203 61 -2 182 -7 271 -11 232 -10
363 13 466 81 22 15 42 24 45 21 9 -8 -75 -148 -123 -207 -146 -178 -367 -244
-609 -180 -145 39 -386 171 -577 318 -69 53 -224 195 -253 232 l-20 26 25 -16
c14 -9 61 -36 105 -61z"/>
<path d="M9132 2998 c2 -15 10 -23 23 -23 30 0 27 39 -3 43 -20 3 -23 0 -20
-20z"/>
<path d="M8500 1739 c0 -5 5 -7 10 -4 6 3 10 8 10 11 0 2 -4 4 -10 4 -5 0 -10
-5 -10 -11z"/>
<path d="M8530 3570 c0 -5 5 -10 10 -10 6 0 10 5 10 10 0 6 -4 10 -10 10 -5 0
-10 -4 -10 -10z"/>
<path d="M7998 3294 c-14 -31 -1 -57 31 -62 28 -4 51 14 51 42 0 50 -62 65
-82 20z"/>
<path d="M5949 2853 c-13 -16 -12 -17 4 -4 16 13 21 21 13 21 -2 0 -10 -8 -17
-17z"/>
<path d="M9783 2803 c-18 -6 -16 -42 2 -49 8 -4 22 -1 30 6 24 20 -1 54 -32
43z"/>
<path d="M6926 2628 c-21 -29 -20 -51 2 -71 36 -33 102 -12 102 31 0 32 -30
62 -60 62 -18 0 -34 -8 -44 -22z"/>
<path d="M5760 2372 c0 -4 10 -13 23 -21 22 -14 22 -14 3 8 -20 22 -26 25 -26
13z"/>
<path d="M4446 1867 c-43 -140 -134 -254 -216 -272 -23 -5 -29 -12 -32 -40
l-4 -34 76 -3 75 -3 5 -380 c6 -425 5 -422 78 -470 73 -48 207 -57 301 -19 53
21 112 89 139 160 28 71 28 90 0 97 -12 4 -22 5 -23 4 -12 -39 -53 -102 -80
-123 -42 -32 -136 -45 -174 -24 -47 25 -51 55 -51 420 l0 340 145 0 145 0 0
48 0 47 -145 -3 -145 -4 0 171 0 171 -34 0 c-33 0 -34 0 -60 -83z"/>
<path d="M5760 1906 c0 -22 3 -27 11 -19 8 8 8 16 0 30 -9 16 -10 14 -11 -11z"/>
<path d="M9558 1849 c-26 -15 -23 -65 3 -80 34 -18 69 3 69 40 0 42 -36 62
-72 40z"/>
<path d="M460 1631 c-107 -34 -185 -92 -221 -162 -26 -52 -26 -132 1 -159 41
-41 125 -38 160 7 24 31 25 58 5 97 -21 40 -19 60 9 93 30 36 84 53 162 53
124 0 174 -61 182 -220 l5 -97 -99 -23 c-367 -84 -532 -242 -473 -453 47 -171
326 -185 535 -27 l52 39 17 -45 c10 -26 31 -55 53 -72 31 -23 45 -27 106 -27
84 0 131 24 161 80 23 41 11 64 -23 46 -35 -19 -97 -13 -118 10 -18 20 -19 45
-24 358 l-5 337 -26 49 c-31 61 -84 99 -164 120 -81 20 -225 19 -295 -4z m310
-575 c0 -123 -18 -188 -66 -245 -44 -51 -93 -73 -168 -74 -111 -2 -156 43
-156 153 0 97 43 160 142 211 48 25 170 58 216 58 l32 1 0 -104z"/>
<path d="M1333 1597 c-137 -46 -153 -54 -153 -74 0 -18 6 -23 26 -23 39 0 90
-28 103 -56 8 -18 11 -184 11 -569 l0 -545 -25 -16 c-13 -9 -42 -18 -65 -21
-36 -5 -40 -8 -40 -34 l0 -29 260 0 260 0 0 29 c0 27 -2 28 -60 34 -67 7 -114
27 -124 52 -9 26 -7 375 3 375 5 0 14 -6 20 -14 25 -30 129 -67 209 -73 188
-14 345 87 431 279 37 81 51 150 51 246 0 146 -46 265 -142 368 -80 85 -144
116 -253 122 -130 7 -236 -39 -296 -128 l-29 -43 0 40 c0 67 -12 133 -24 132
-6 0 -80 -24 -163 -52z m523 -95 c146 -74 225 -307 180 -523 -36 -169 -119
-251 -256 -250 -110 0 -171 35 -215 121 -37 73 -47 150 -43 326 3 139 6 165
26 210 26 58 82 116 127 133 43 15 134 7 181 -17z"/>
<path d="M2679 1631 c-111 -36 -206 -124 -264 -246 -45 -96 -60 -163 -59 -275
1 -162 48 -284 147 -377 131 -124 343 -157 511 -80 65 30 149 110 190 181 l29
49 -23 19 -23 19 -68 -68 c-87 -87 -141 -113 -234 -113 -116 0 -216 65 -274
179 -28 54 -53 163 -49 215 l3 41 334 3 334 2 -6 73 c-11 140 -81 275 -175
336 -94 60 -258 79 -373 42z m198 -72 c117 -44 179 -256 87 -298 -30 -13 -372
-15 -393 -2 -11 7 -12 22 -8 64 12 100 58 175 135 219 51 30 126 37 179 17z"/>
<path d="M3535 1614 c-88 -18 -161 -33 -162 -34 -2 0 -3 -13 -3 -29 0 -26 4
-30 40 -36 22 -4 51 -16 66 -28 51 -39 54 -62 54 -376 0 -160 -4 -301 -10
-315 -12 -32 -51 -58 -98 -65 -33 -6 -37 -10 -40 -39 l-3 -32 266 0 266 0 -3
33 c-3 31 -5 32 -54 38 -61 8 -98 30 -114 69 -19 45 -8 426 14 505 34 123 101
195 182 195 l44 0 0 -45 c0 -59 32 -95 85 -95 82 0 122 54 113 152 -9 89 -69
138 -168 138 -95 0 -197 -76 -252 -189 l-23 -46 -3 118 c-2 103 -5 117 -20
116 -9 -1 -89 -16 -177 -35z"/>
<path d="M6375 1614 c-88 -18 -161 -33 -162 -34 -2 0 -3 -13 -3 -28 0 -25 5
-29 46 -40 55 -15 89 -47 103 -98 7 -24 11 -148 11 -312 0 -233 -2 -279 -16
-308 -19 -39 -59 -64 -104 -64 -28 0 -30 -3 -30 -35 l0 -35 260 0 260 0 0 35
c0 34 -1 35 -37 35 -54 0 -105 29 -125 70 -14 28 -18 61 -18 165 0 262 31 406
105 484 38 40 47 45 100 49 l58 5 -5 -28 c-14 -70 24 -115 98 -115 122 0 137
226 19 276 -50 20 -131 18 -181 -6 -52 -25 -139 -116 -163 -170 -10 -22 -21
-37 -24 -33 -4 3 -7 55 -7 115 0 80 -3 108 -12 107 -7 -1 -85 -16 -173 -35z"/>
<path d="M7390 1632 c-165 -55 -264 -163 -247 -269 10 -57 37 -78 103 -78 47
0 59 4 76 25 20 25 20 40 2 142 -5 31 -2 41 19 62 31 31 84 46 163 46 118 0
173 -70 177 -226 l2 -89 -85 -21 c-265 -65 -418 -152 -470 -267 -28 -61 -27
-169 3 -227 69 -138 330 -132 521 12 l51 38 13 -37 c35 -102 149 -143 252 -90
39 19 90 75 90 97 0 14 -31 20 -50 10 -28 -15 -87 -12 -104 6 -9 8 -18 25 -21
37 -3 12 -6 164 -7 337 -3 348 -5 360 -70 427 -53 55 -117 75 -248 80 -92 3
-126 0 -170 -15z m300 -586 c0 -167 -36 -248 -128 -288 -63 -28 -162 -29 -200
-2 -112 83 -66 268 85 344 51 25 169 58 216 59 l27 1 0 -114z"/>
<path d="M5040 1607 c-63 -5 -116 -10 -118 -12 -2 -1 0 -14 3 -28 6 -21 16
-26 63 -36 97 -19 92 -3 92 -325 0 -309 8 -387 48 -459 46 -86 154 -125 315
-114 131 8 212 45 265 121 l27 39 3 -71 c2 -60 6 -72 20 -72 25 0 336 41 340
44 2 2 0 15 -4 30 -5 20 -14 27 -43 32 -56 9 -67 13 -95 35 l-26 20 0 405 0
404 -32 0 c-18 0 -102 -5 -185 -12 l-153 -11 0 -28 c0 -25 4 -28 53 -34 60 -8
102 -27 111 -50 3 -9 6 -126 6 -259 0 -264 -5 -293 -58 -371 -15 -22 -47 -53
-70 -70 -37 -25 -54 -30 -118 -33 -83 -5 -119 6 -156 46 -45 49 -48 73 -48
458 l0 364 -62 -2 c-35 0 -115 -5 -178 -11z"/>
<path d="M8074 1539 c-10 -17 13 -36 27 -22 12 12 4 33 -11 33 -5 0 -12 -5
-16 -11z"/>
</g>
</svg>
