<svg xmlns="http://www.w3.org/2000/svg" viewBox="0 0 314 102.28"><defs><style>.cls-1{fill:#fff;}</style></defs><g id="Capa_2" data-name="Capa 2"><g id="Capa_1-2" data-name="Capa 1"><path class="cls-1" d="M123.49,71.59h-8.41V31.74h8.41Zm1.83-7.22h4.13c6.07,0,8-3.72,8-9.33V48.23c0-6.53-2.75-9.16-8.13-9.16h-4V31.74h5c5.84,0,11.23,2.12,13.92,7.44,1.48,3,1.66,7,1.66,11.8,0,5.55-.12,9.56-1.49,12.71-2.64,6-8.42,7.9-15.06,7.9h-4.07Z"/><path class="cls-1" d="M163.71,71.93c-10.31-.34-14.32-6.75-14.32-15.06V47c0-8,4.36-15.29,14.32-15.63v7.44c-4.18.46-5.84,3.78-5.84,7.5V56.87c0,4,1.6,7.22,5.84,7.68Zm1.89-7.38c4-.46,6.07-3.32,6.07-7.68V46.34c0-3.84-1.84-7.1-6.13-7.5V31.4c9.62.28,14.66,6.92,14.66,15.63V56.3c0,9.33-5.27,15.52-14.66,15.63Z"/><path class="cls-1" d="M198,39c-4.35.52-5.73,3.84-5.73,7.33V57.05c0,3.89,1.61,7.44,6.82,7.44a6.92,6.92,0,0,0,7-5.21l7.67,2.92c-2.11,6.24-7.5,9.73-14.71,9.73-10.54,0-15.17-6.24-15.17-15V46.63c0-8,4.58-14.78,14.14-15.23Zm1.83-7.55c6.93.28,11.57,3.83,13.51,9.56l-7.44,3a6.76,6.76,0,0,0-6.07-5Z"/><path class="cls-1" d="M230.21,71.93c-5-.23-10.71-1.49-15.29-5.49l4.52-6.24a17.55,17.55,0,0,0,10.71,4.4C230.15,67,230.21,69.53,230.21,71.93ZM232,64.66c4.17-.11,6.52-1.95,6.52-4.58,0-7.38-21.7-3.49-21.7-16.83,0-8,7.1-11.74,13.57-11.91v7.38c-3.61.18-5.38,1.61-5.38,4,0,2.07,1.77,3.1,7.21,4.59,6.76,1.89,14.89,3.89,14.89,12.36,0,7.79-6.3,12.14-15.11,12.31Zm.17-33.32A25,25,0,0,1,245,35.23c-1.2,2.12-2.46,4.24-3.72,6.36a19.34,19.34,0,0,0-9.16-2.87Z"/><path class="cls-1" d="M253,58.44V30.34h6.89v2.57h-3.27V55.84h3.27v2.6Z"/><path class="cls-1" d="M265.78,41.58l.39,5v8.29h-4.08V33.33Zm-3.62-11v-.14h3.94l9.06,20.41-.28.56h-3.41Zm11.77,14.62c2.14-4.89,4.25-9.84,6.36-14.76h4V54.86h-4.07V39.69l-.14,0-4.29,9.62Z"/><path class="cls-1" d="M295.47,47.2l-4.56,7.66h-4.6c2.28-3.76,4.56-7.59,6.84-11.38C293.93,44.71,294.74,46,295.47,47.2Zm-8.78-16.79h4.64l14.82,24.45h-4.67Q294.05,42.64,286.69,30.41Zm10.19,6.92L301,30.41h4.6c-2.14,3.59-4.32,7.13-6.46,10.68C298.42,39.86,297.61,38.6,296.88,37.33Z"/><path class="cls-1" d="M307.15,58.44v-2.6h3.23V32.91h-3.23V30.34H314v28.1Z"/><path class="cls-1" d="M64,63.93a12.79,12.79,0,1,0-12.8-12.79A12.79,12.79,0,0,0,64,63.93Z"/><path class="cls-1" d="M102.33,51.14A51.17,51.17,0,0,0,52.76,0V6.4a44.77,44.77,0,0,1,0,89.48v6.4A51.17,51.17,0,0,0,102.33,51.14Z"/><path class="cls-1" d="M6.4,51.14A44.76,44.76,0,0,1,49.57,6.4V0a51.16,51.16,0,0,0,0,102.28v-6.4A44.77,44.77,0,0,1,6.4,51.14Z"/></g></g></svg>