<?xml version="1.0" encoding="UTF-8"?>
<svg id="Capa_2" data-name="Capa 2" xmlns="http://www.w3.org/2000/svg" viewBox="0 0 1151.71 1722.78">
  <defs>
    <style>
      .cls-1 {
        fill: #fff;
      }
    </style>
  </defs>
  <g id="Festival_de_cortometraje_universitario" data-name="Festival de cortometraje universitario">
    <g>
      <g>
        <g>
          <path class="cls-1" d="M69.22,1639.12h18.03c12.73,0,18.62,6.72,18.62,20.03v7.07c0,13.32-5.89,19.92-18.62,19.92h-8.84v35.47h-9.19v-82.49Zm18.03,38.65c6.48,0,9.43-2.95,9.43-11.08v-8.13c0-8.13-2.95-11.08-9.43-11.08h-8.84v30.29h8.84Z"/>
          <path class="cls-1" d="M137.34,1639.12h18.03c13.08,0,18.62,5.89,18.62,18.74v5.07c0,9.07-2.95,14.5-9.54,16.62v.12c6.95,1.77,9.66,7.54,9.66,17.21v14.73c0,3.77,.12,7.07,1.18,10.02h-9.31c-.71-2.36-1.06-4.48-1.06-10.02v-15.2c0-8.96-3.18-12.02-10.96-12.02h-7.42v37.24h-9.19v-82.49Zm16.62,36.88c7.19,0,10.84-3.06,10.84-11.31v-5.89c0-8.01-2.83-11.31-9.66-11.31h-8.6v28.52h7.42Z"/>
          <path class="cls-1" d="M207.58,1639.12h33.82v8.37h-24.63v26.87h20.03v8.37h-20.03v30.52h24.63v8.37h-33.82v-82.49Z"/>
          <path class="cls-1" d="M272.51,1639.12h13.32l12.14,65.87,12.02-65.87h13.43v82.49h-8.84v-68.82l-13.08,68.82h-7.78l-13.08-68.82v68.82h-8.13v-82.49Z"/>
          <path class="cls-1" d="M357.6,1639.12h9.19v82.49h-9.19v-82.49Z"/>
          <path class="cls-1" d="M400.02,1702.4v-44.19c0-13.08,6.72-20.27,18.85-20.27s18.97,7.19,18.97,20.27v44.19c0,13.08-6.72,20.39-18.97,20.39s-18.85-7.31-18.85-20.39Zm28.64,.59v-45.37c0-7.78-3.54-11.31-9.78-11.31s-9.66,3.54-9.66,11.31v45.37c0,7.9,3.54,11.43,9.66,11.43s9.78-3.54,9.78-11.43Z"/>
          <path class="cls-1" d="M468.73,1702.75v-4.6h8.72v5.3c0,7.42,3.65,10.96,9.54,10.96s9.66-3.54,9.66-11.08-3.18-12.49-12.73-20.39c-11.43-9.43-15.2-16.03-15.2-25.34,0-12.37,6.6-19.68,18.5-19.68s18.15,7.31,18.15,19.92v3.3h-8.72v-3.89c0-7.42-3.42-10.96-9.43-10.96s-9.43,3.54-9.43,10.72,3.3,11.55,13.08,19.56c11.31,9.43,14.97,16.03,14.97,26.04,0,12.84-6.72,20.15-18.74,20.15s-18.38-7.31-18.38-20.03Z"/>
          <path class="cls-1" d="M578.8,1703.1v-45.49c0-12.37,6.6-19.68,18.38-19.68s18.38,7.31,18.38,19.68v8.49h-8.72v-9.07c0-7.07-3.65-10.72-9.43-10.72s-9.43,3.65-9.43,10.72v46.67c0,7.07,3.65,10.72,9.43,10.72s9.43-3.65,9.43-10.72v-11.55h8.72v10.96c0,12.25-6.48,19.68-18.38,19.68s-18.38-7.42-18.38-19.68Z"/>
          <path class="cls-1" d="M647.74,1639.12h33.82v8.37h-24.63v26.87h20.03v8.37h-20.03v30.52h24.63v8.37h-33.82v-82.49Z"/>
          <path class="cls-1" d="M711.73,1703.1v-45.49c0-12.37,6.6-19.68,18.38-19.68s18.38,7.31,18.38,19.68v8.49h-8.72v-9.07c0-7.07-3.65-10.72-9.43-10.72s-9.43,3.65-9.43,10.72v46.67c0,7.07,3.65,10.72,9.43,10.72s9.43-3.65,9.43-10.72v-11.55h8.72v10.96c0,12.25-6.48,19.68-18.38,19.68s-18.38-7.42-18.38-19.68Z"/>
          <path class="cls-1" d="M820.62,1714.54c0-13.79,5.3-21.8,14.61-31.58,9.19-9.55,13.43-15.67,13.43-24.39,0-7.9-2.83-12.26-9.54-12.26-7.07,0-9.78,4.6-9.78,11.31v7.42h-8.72v-6.83c0-11.9,5.54-20.27,18.74-20.27s18.5,8.25,18.5,20.27c0,10.37-4.95,18.62-15.56,29.7-8.25,8.48-12.61,14.26-12.61,23.57v1.77h27.22v8.37h-36.3v-7.07Z"/>
          <path class="cls-1" d="M888.39,1702.4v-44.19c0-13.08,6.72-20.27,18.85-20.27s18.97,7.19,18.97,20.27v44.19c0,13.08-6.72,20.39-18.97,20.39s-18.85-7.31-18.85-20.39Zm28.64,.59v-45.37c0-7.78-3.54-11.31-9.78-11.31s-9.66,3.54-9.66,11.31v45.37c0,7.9,3.54,11.43,9.66,11.43s9.78-3.54,9.78-11.43Z"/>
          <path class="cls-1" d="M957.21,1714.54c0-13.79,5.3-21.8,14.61-31.58,9.19-9.55,13.43-15.67,13.43-24.39,0-7.9-2.83-12.26-9.54-12.26-7.07,0-9.78,4.6-9.78,11.31v7.42h-8.72v-6.83c0-11.9,5.54-20.27,18.74-20.27s18.5,8.25,18.5,20.27c0,10.37-4.95,18.62-15.56,29.7-8.25,8.48-12.61,14.26-12.61,23.57v1.77h27.22v8.37h-36.3v-7.07Z"/>
          <path class="cls-1" d="M1023.32,1702.63v-6.25h8.72v6.6c0,7.07,2.95,11.43,9.78,11.43s9.66-3.89,9.66-12.26v-7.19c0-8.48-3.42-12.26-10.37-12.26h-4.95v-8.37h5.18c6.13,0,9.9-3.65,9.9-11.2v-5.42c0-7.54-3.42-11.43-9.43-11.43-6.48,0-9.31,3.89-9.31,11.08v4.83h-8.72v-4.12c0-12.61,5.89-20.15,18.38-20.15s18.27,7.31,18.27,20.03v3.3c0,8.84-3.18,14.61-9.66,16.73v.24c7.07,2.24,9.9,8.25,9.9,16.73v7.66c0,12.61-5.89,20.15-18.62,20.15s-18.74-8.01-18.74-20.15Z"/>
        </g>
        <g>
          <polygon class="cls-1" points="161.48 1098.88 161.48 1252.71 187.93 1252.71 187.93 1186.36 217.3 1186.36 217.3 1159.07 189.39 1162.01 189.39 1120.43 227.54 1118.08 227.54 1091.21 161.48 1098.88"/>
          <polygon class="cls-1" points="244.17 1098.6 239.05 1237.08 305.59 1242.19 305.59 1217.01 267.2 1219.16 267.2 1178.22 292.79 1178.22 292.79 1152.62 267.2 1155.18 267.2 1121.91 300.47 1121.91 300.47 1098.6 244.17 1098.6"/>
          <polygon class="cls-1" points="314.74 1091.21 314.74 1175.66 364.45 1183.33 364.45 1224.28 318.38 1219.16 317.26 1248.85 392.15 1248.85 392.15 1158.65 338.86 1150.07 338.86 1119.36 382.36 1121.91 382.36 1093.76 314.74 1091.21"/>
          <polygon class="cls-1" points="420.75 1124.47 397.88 1124.47 397.88 1101.44 470.53 1101.44 470.53 1124.47 446.17 1124.47 446.17 1242.19 416.78 1242.19 420.75 1124.47"/>
          <polygon class="cls-1" points="482.17 1093.76 482.17 1244.73 505.38 1242.19 507.9 1098.6 482.17 1093.76"/>
          <polygon class="cls-1" points="518 1101.44 530.79 1249.87 561.5 1249.87 589.65 1098.88 564.59 1098.6 551.26 1211.48 538.47 1098.88 518 1101.44"/>
          <path class="cls-1" d="M663.69,1248.85l-15.12-155.09h-46.12l-28.15,153.55,26.4,1.54,9.42-55.28h25.01v55.28h28.55Zm-51-73.2l8.59-56.3h11.88l3.66,56.3h-24.13Z"/>
          <polygon class="cls-1" points="673.76 1098.6 676.66 1252.43 737.59 1248.85 737.59 1219.53 702.25 1226.84 702.25 1098.6 673.76 1098.6"/>
          <path class="cls-1" d="M796.61,1089.52l-6.07,158.84,69.15-2.6,24.46-142.17-87.55-14.07Zm44.25,130.91l-23.97,.86,3.77-101,38.22,7.64-18.02,92.49Z"/>
          <polygon class="cls-1" points="893.99 1101.6 893.35 1247.64 957.34 1253.14 958.17 1228.12 917.7 1226.5 919.04 1186.02 945.19 1186.88 945.91 1164.96 918.9 1164.9 920.13 1127.8 967.04 1125.13 968.43 1097.32 893.99 1101.6"/>
        </g>
        <g>
          <path class="cls-1" d="M255.59,1353.28l28.82,.96-4.27-84.17-76-7.63-5.18,155.87,27.65,.92,2.01-60.31,28.12,53.53,31.09,1.03-32.23-60.2Zm-26.48-22.67l1.32-39.64,29.25,.97,1.73,39.74-32.3-1.07Z"/>
          <path class="cls-1" d="M811.7,1360.03l26.96,.9-3.99-78.73-71.08-7.14-4.85,145.79,25.86,.86,1.88-56.41,26.3,50.07,29.08,.97-30.15-56.31Zm-24.77-21.2l1.23-37.07,27.36,.91,1.62,37.17-30.21-1Z"/>
          <polygon class="cls-1" points="31.34 1272.33 31.34 1422.52 99.06 1422.52 98.3 1397.19 58.49 1397.19 58.84 1299.47 99.06 1299.47 99.06 1268.71 31.34 1272.33"/>
          <polygon class="cls-1" points="591.69 1275.98 591.06 1422.02 655.04 1427.52 655.87 1402.5 615.4 1400.88 616.75 1360.39 642.89 1361.26 643.62 1339.34 616.61 1339.28 617.84 1302.18 664.75 1299.51 666.13 1271.7 591.69 1275.98"/>
          <polygon class="cls-1" points="471.1 1272.3 467.37 1420.69 492.89 1423.08 495.5 1344.73 517.15 1386.49 542.97 1343.18 540.38 1421.21 572.32 1421.62 574.78 1270.63 552.98 1272.46 523.44 1343.81 493.02 1265.35 471.1 1272.3"/>
          <path class="cls-1" d="M117.39,1270.68l-2.44,153.23,66.6-3.99,9.86-146.13-74.02-3.11Zm45.46,125.23l-23.09,1.35,1.47-97.43,26.34-2.02-4.72,98.1Z"/>
          <path class="cls-1" d="M381.12,1270.32l2.13,145.71,69.41-.09,2.85-142.19-74.39-3.42Zm52.6,124.37l-28.97-5.07,.43-93.58,29.57,1.6-1.04,97.05Z"/>
          <polygon class="cls-1" points="317.94 1291.48 293.49 1291.66 293.31 1267.04 370.98 1266.46 371.16 1291.08 345.12 1291.28 346.06 1417.14 314.64 1417.37 317.94 1291.48"/>
          <polygon class="cls-1" points="700.06 1297.24 675.96 1296.44 676.77 1272.17 753.33 1274.71 752.52 1298.99 726.85 1298.14 722.73 1422.21 691.75 1421.18 700.06 1297.24"/>
          <polygon class="cls-1" points="1041.11 1278.55 1031.39 1416.78 1097.72 1424.11 1098.56 1398.94 1060.12 1399.81 1061.48 1358.89 1087.06 1359.74 1087.91 1334.16 1062.25 1335.87 1063.35 1302.62 1096.6 1303.73 1097.38 1280.42 1041.11 1278.55"/>
          <path class="cls-1" d="M939.08,1423.1l-9.95-155.51-46.1-1.53-33.24,152.53,26.34,2.42,11.26-54.94,24.99,.83-1.84,55.25,28.54,.95Zm-48.54-74.85l10.46-55.98,11.87,.39,1.78,56.39-24.12-.8Z"/>
          <polygon class="cls-1" points="995.06 1272.39 991.47 1396.9 968.2 1404.75 963 1384.11 945.77 1383.62 953.25 1424.8 990.7 1423.29 1013.98 1421.43 1020.64 1277.97 995.06 1272.39"/>
        </g>
        <g>
          <path class="cls-1" d="M931.99,1534.21l26.96,.9-3.99-78.73-71.08-7.14-4.85,145.79,25.86,.86,1.88-56.41,26.3,50.07,29.08,.97-30.15-56.31Zm-24.77-21.2l1.23-37.07,27.36,.91,1.62,37.17-30.21-1Z"/>
          <path class="cls-1" d="M527.33,1533.65l30.07,1-4.46-87.83-79.3-7.96-5.41,162.64,28.85,.96,2.09-62.93,29.34,55.86,32.44,1.08-33.63-62.82Zm-27.63-23.65l1.38-41.36,30.52,1.01,1.81,41.46-33.7-1.12Z"/>
          <polygon class="cls-1" points="261.97 1591.51 285 1594.07 280.71 1439.25 255.57 1440.92 261.97 1591.51"/>
          <polygon class="cls-1" points="661.2 1588.95 684.23 1591.51 687.61 1449.48 662.47 1451.16 661.2 1588.95"/>
          <polygon class="cls-1" points="153.17 1449.09 150.43 1601.21 174.12 1597.56 179.48 1503.74 214.03 1603.03 237.88 1599.39 235.14 1441.81 215.22 1445.45 214.19 1541.09 185.05 1448.18 153.17 1449.09"/>
          <polygon class="cls-1" points="386.09 1447.54 385.46 1593.58 449.44 1599.09 450.27 1574.06 409.8 1572.44 411.14 1531.96 437.29 1532.83 438.02 1510.9 411 1510.85 412.24 1473.74 459.15 1471.08 460.53 1443.26 386.09 1447.54"/>
          <path class="cls-1" d="M1019.1,1451.63l-2.43,152.72,66.38-3.98,9.83-145.64-73.77-3.1Zm45.31,124.82l-23.01,1.34,1.46-97.11,26.25-2.01-4.7,97.78Z"/>
          <polygon class="cls-1" points="569.26 1444.36 569.26 1528.82 618.97 1536.49 618.97 1577.44 572.91 1572.32 571.78 1602.01 646.67 1602.01 646.67 1511.81 593.38 1503.22 593.38 1472.51 636.88 1475.07 636.88 1446.92 569.26 1444.36"/>
          <polygon class="cls-1" points="723.89 1472.51 701.03 1472.51 701.03 1449.48 773.67 1449.48 773.67 1472.51 749.32 1472.51 749.32 1590.23 719.92 1590.23 723.89 1472.51"/>
          <polygon class="cls-1" points="375.85 1441.81 357.94 1592.79 324.67 1590.23 296.52 1441.81 321.58 1441.52 340.03 1549.29 355.38 1439.25 375.85 1441.81"/>
          <polygon class="cls-1" points="971.68 1454.71 981.54 1605.35 1004.53 1601.31 997.67 1457.85 971.68 1454.71"/>
          <path class="cls-1" d="M860.96,1598.73l-25.21-153.77-46.02,3.01-18.07,155.06,26.45-.18,5.8-55.78,24.95-1.63,3.61,55.17,28.49-1.86Zm-55.67-69.71l4.9-56.74,11.86-.78,7.32,55.94-24.08,1.58Z"/>
          <polygon class="cls-1" points="55.89 1601.28 140.77 1601.28 140.77 1451.46 114.37 1452.26 114.37 1572.98 84.19 1572.61 69.09 1448.09 37.03 1448.09 55.89 1601.28"/>
        </g>
      </g>
      <g>
        <path class="cls-1" d="M575.84,781.49c-193.28-.28-349.19-156.68-348.17-349.26,1.01-190.95,158.37-347.63,348.49-346.98,191.37,.65,347.76,156.78,347.88,347.29,.12,193.57-155.21,349.23-348.2,348.95ZM277.62,432.03c-1.06,165.29,130.93,299.77,295.9,301.47,164.66,1.7,301.22-133.53,302.2-299.25,.96-162.74-132.28-297.45-295.68-298.94-168.01-1.54-301.34,129.28-302.42,296.72Z"/>
        <path class="cls-1" d="M577.07,182.82c-139.56-.87-251.28,109.88-251.51,249.31-.23,142.49,108.62,251.63,251.12,251.77,140.99,.14,249.4-108.51,249.47-250.02,.07-141.12-108.13-250.18-249.08-251.06Zm-133.11,238.48l34.59-5.53,1.82,34.02-36.6,1.96,4.43,82.68-32.97,1.77-10.27-191.71,81.82-13.98,1.79,33.49-47.39,5.49,2.78,51.81Zm155.61-50.66h-51.46l-.45,125.02h50.93l.98,32.41h-86.64v-192.16l86.64-4.63v39.36Zm133.81,164.41l-106-7.58-9.88-192.99,40.05,2.86,7.72,156.86,37.66,3.16,10.78-150.76,33.05,1.36-13.38,187.09Z"/>
      </g>
      <g>
        <g>
          <path class="cls-1" d="M273.14,60.4s79.07,0,84.24-57.86c0,0-52.68-21.04-84.24,57.86Z"/>
          <path class="cls-1" d="M208.27,123.52c8.77-17.53,12.27-26.3,10.52-43.83-2.55-25.48,10.52-38.57,15.78-43.83,8.94-8.94,22.75-12.25,22.79-12.27h0s14.03,26.3-10.52,63.12c0,0,54.35-22.79,64.87-1.75-5.31,8.77-11.11,13.47-14.9,16-19.65,13.11-38.75,3.54-69.25,13.81-8.87,2.99-15.57,6.59-19.29,8.77Z"/>
          <path class="cls-1" d="M106.78,275.25c4.57-23.76,5.81-35.35-2.13-55.61-11.54-29.44-.37-49.36,4.12-57.36,7.64-13.61,22.95-22.16,22.99-22.2h0s25.45,26.58,8.57,78.53c0,0,56.99-45.23,76.52-23.74-3.39,12.2-8.71,19.72-12.37,23.99-18.98,22.14-44.87,17.14-77.7,39.53-9.55,6.51-16.3,13.03-20,16.86Z"/>
          <path class="cls-1" d="M72.83,364.05c.51-25.61-.27-37.93-12.18-57.64-17.31-28.65-9.23-51.43-5.97-60.59,5.54-15.57,19.98-27.23,20.02-27.28h0s31.32,23.17,23,80.41c0,0,51.36-57.41,75.59-38.47-1.35,13.34-5.56,22.13-8.61,27.25-15.84,26.5-43.75,25.92-74,55.16-8.8,8.5-14.67,16.52-17.85,21.17Z"/>
          <path class="cls-1" d="M152.16,191.89s7.01-29.8,1.75-61.36c-5.26-31.56,40.32-61.36,40.32-61.36,0,0,10.52,47.34-3.51,73.64,0,0,42.08-24.55,71.88-15.78-7.01,28.05-45.58,42.08-61.36,43.83-52.6,14.03-49.09,21.04-49.09,21.04Z"/>
          <path class="cls-1" d="M4.89,526.76c9.69,58.45,29.28,79.22,46.46,86.78,12.73,5.61,29.23,6.22,45.58,21.04,11.14,10.1,16.97,22.05,20.16,30.68-2.4-11.82-4.41-29.83,.88-49.97,6.58-25.1,19.23-33.5,26.3-56.1,4.26-13.64,7.16-34.59-1.72-64.19-9.07,6.19-21.51,16.54-31.59,32.63-23.44,37.38-16.27,77.15-14.03,87.66-8.05-17.39-24.97-47.1-57.86-70.13-12.09-8.47-23.89-14.31-34.19-18.41Z"/>
          <path class="cls-1" d="M152.1,842.07c9.63,10.49,23.37,22.33,42.14,30.07,24.22,9.99,41.94,7.03,92.92,8.77,22.61,.77,42.2,2.14,57.86,3.51-12.61-18.95-20-36.45-24.55-50.84-11.47-36.32-5.89-56.12-21.04-80.65-10.29-16.67-24.85-26.93-36.82-33.31-5.73,9.02-8.81,17.48-10.52,24.55-12,49.73,37.09,105.24,42.95,111.33-20.46-6.57-59.58-24.99-97.3-21.92-17.55,1.43-32.91,4.75-45.65,8.5Z"/>
          <path class="cls-1" d="M235.44,913.34c17.86,18.27,34.13,24.21,45.58,26.3,37.62,6.85,60.81-21.1,115.71-22.79,16.33-.5,29.73,1.49,38.33,3.2-5.82-3.84-14.56-10.44-22.55-20.73-24.82-31.96-13.71-62.57-33.31-96.43-6.3-10.88-17.77-25.56-40.32-38.57-4.28,11.3-10.05,31.42-7.01,56.1,5.97,48.47,41.24,76.46,49.09,82.4-23.8-7.37-67.38-16.68-115.71-1.75-11.15,3.44-21.09,7.73-29.8,12.27Z"/>
          <path class="cls-1" d="M328.88,967.9c42.44,23.86,70.74,22.88,88.9,17.33,24.24-7.41,35.86-25.49,68.38-29.8,17.49-2.32,30.95,.59,43.83,3.51,0,0,35.33,7.99,117.47,66.62,3.86,2.45,8.73,2.44,12.27,0,4.26-2.94,5.87-8.89,3.51-14.03-34.58-25.81-64.87-42.34-85.91-52.6-49.53-24.14-65.36-22.04-82.4-43.83-21.71-27.76-11.9-50.19-36.32-81.04-7.62-9.63-21.35-23.1-46.78-33.21-2.67,12.13-5.53,33.47,1.25,58.12,13.32,48.41,53.38,71.61,62.25,76.48-25.31-3.94-71.03-6.9-117.96,15.51-10.83,5.17-20.29,11.01-28.48,16.94Z"/>
          <path class="cls-1" d="M93.43,746.79c20.89,38.25,43.02,51.33,59.61,56.1,18.78,5.4,34.44,1.3,64.87,10.52,16.25,4.93,28.82,11.26,36.82,15.78-4.38-8.88-10.82-23.38-15.78-42.08-12.16-45.88-2.97-70.22-19.29-105.19-4.31-9.24-11.61-21.81-24.55-35.06-5.56,9.69-16.44,31.73-15.78,61.36,.87,39.2,21.36,65.67,28.05,73.64-13.26-11.07-40.39-30.72-78.89-35.06-13.16-1.48-25.02-1.12-35.06,0Z"/>
          <path class="cls-1" d="M32.07,643.35c13.68,42.46,33.13,59.31,49.09,66.62,16.85,7.72,31.3,5.49,57.86,17.53,17.39,7.89,30.26,17.49,38.57,24.55-10.54-22.75-12.51-41.36-12.27-54.35,.56-30.64,13.63-45.06,10.52-73.64-2-18.36-9.6-32.74-15.78-42.08-7.07,6.58-21.28,21.66-28.05,45.58-9.95,35.17,10.32,78.38,14.03,85.91-6.72-10.38-34.08-52.77-71.88-64.87-16.58-5.3-31.45-5.86-42.08-5.26Z"/>
          <path class="cls-1" d="M2.26,427.7c-2.7,12.69-4.43,31.03,3.51,49.09,8.46,19.27,22.23,25.27,42.08,47.34,9.38,10.43,21.84,26.35,33.31,49.09-2.04-26.34,4.19-43.45,10.52-54.35,12.13-20.91,28.02-24.95,36.82-45.58,7.35-17.23,5-34.9,1.75-47.34-7.37,2.8-16.02,7.15-24.55,14.03-28.21,22.76-33.75,56.14-35.06,66.62-1.15-8.5-5.95-39.93-33.31-61.36-13.08-10.25-26.2-15.11-35.06-17.53Z"/>
          <path class="cls-1" d="M30.32,315.49c-14.29,31.81-11.79,52.21-7.01,64.87,5.72,15.13,15.57,21.53,29.8,47.34,7.97,14.45,12.92,27.02,15.78,35.06,5.04-8.16,13.07-20.14,24.55-33.31,19.86-22.8,31.61-28,42.08-45.58,5.68-9.54,11.94-24.34,12.84-46.34-8.78,1.68-19.45,4.92-30.38,11.28-36.17,21.07-46.65,59.83-49.09,70.13,1.51-12.35,3.48-42.88-14.03-73.64-7.75-13.61-17.05-23.32-24.55-29.8Z"/>
        </g>
        <g>
          <path class="cls-1" d="M878.58,60.4s-79.07,0-84.24-57.86c0,0,52.68-21.04,84.24,57.86Z"/>
          <path class="cls-1" d="M943.45,123.52c-8.77-17.53-12.27-26.3-10.52-43.83,2.55-25.48-10.52-38.57-15.78-43.83-8.94-8.94-22.75-12.25-22.79-12.27h0s-14.03,26.3,10.52,63.12c0,0-54.35-22.79-64.87-1.75,5.31,8.77,11.11,13.47,14.9,16,19.65,13.11,38.75,3.54,69.25,13.81,8.87,2.99,15.57,6.59,19.29,8.77Z"/>
          <path class="cls-1" d="M1044.94,275.25c-4.57-23.76-5.81-35.35,2.13-55.61,11.54-29.44,.37-49.36-4.12-57.36-7.64-13.61-22.95-22.16-22.99-22.2h0s-25.45,26.58-8.57,78.53c0,0-56.99-45.23-76.52-23.74,3.39,12.2,8.71,19.72,12.37,23.99,18.98,22.14,44.87,17.14,77.7,39.53,9.55,6.51,16.3,13.03,20,16.86Z"/>
          <path class="cls-1" d="M1078.88,364.05c-.51-25.61,.27-37.93,12.18-57.64,17.31-28.65,9.23-51.43,5.97-60.59-5.54-15.57-19.98-27.23-20.02-27.28h0s-31.32,23.17-23,80.41c0,0-51.36-57.41-75.59-38.47,1.35,13.34,5.56,22.13,8.61,27.25,15.84,26.5,43.75,25.92,74,55.16,8.8,8.5,14.67,16.52,17.85,21.17Z"/>
          <path class="cls-1" d="M999.55,191.89s-7.01-29.8-1.75-61.36c5.26-31.56-40.32-61.36-40.32-61.36,0,0-10.52,47.34,3.51,73.64,0,0-42.08-24.55-71.88-15.78,7.01,28.05,45.58,42.08,61.36,43.83,52.6,14.03,49.09,21.04,49.09,21.04Z"/>
          <path class="cls-1" d="M1146.82,526.76c-9.69,58.45-29.28,79.22-46.46,86.78-12.73,5.61-29.23,6.22-45.58,21.04-11.14,10.1-16.97,22.05-20.16,30.68,2.4-11.82,4.41-29.83-.88-49.97-6.58-25.1-19.23-33.5-26.3-56.1-4.26-13.64-7.16-34.59,1.72-64.19,9.07,6.19,21.51,16.54,31.59,32.63,23.44,37.38,16.27,77.15,14.03,87.66,8.05-17.39,24.97-47.1,57.86-70.13,12.09-8.47,23.89-14.31,34.19-18.41Z"/>
          <path class="cls-1" d="M999.62,842.07c-9.63,10.49-23.37,22.33-42.14,30.07-24.22,9.99-41.94,7.03-92.92,8.77-22.61,.77-42.2,2.14-57.86,3.51,12.61-18.95,20-36.45,24.55-50.84,11.47-36.32,5.89-56.12,21.04-80.65,10.29-16.67,24.85-26.93,36.82-33.31,5.73,9.02,8.81,17.48,10.52,24.55,12,49.73-37.09,105.24-42.95,111.33,20.46-6.57,59.58-24.99,97.3-21.92,17.55,1.43,32.91,4.75,45.65,8.5Z"/>
          <path class="cls-1" d="M916.27,913.34c-17.86,18.27-34.13,24.21-45.58,26.3-37.62,6.85-60.81-21.1-115.71-22.79-16.33-.5-29.73,1.49-38.33,3.2,5.82-3.84,14.56-10.44,22.55-20.73,24.82-31.96,13.71-62.57,33.31-96.43,6.3-10.88,17.77-25.56,40.32-38.57,4.28,11.3,10.05,31.42,7.01,56.1-5.97,48.47-41.24,76.46-49.09,82.4,23.8-7.37,67.38-16.68,115.71-1.75,11.15,3.44,21.09,7.73,29.8,12.27Z"/>
          <path class="cls-1" d="M822.84,967.9c-42.44,23.86-70.74,22.88-88.9,17.33-24.24-7.41-35.86-25.49-68.38-29.8-17.49-2.32-30.95,.59-43.83,3.51,0,0-35.33,7.99-117.47,66.62-3.86,2.45-8.73,2.44-12.27,0-4.26-2.94-5.87-8.89-3.51-14.03,34.58-25.81,64.87-42.34,85.91-52.6,49.53-24.14,65.36-22.04,82.4-43.83,21.71-27.76,11.9-50.19,36.32-81.04,7.62-9.63,21.35-23.1,46.78-33.21,2.67,12.13,5.53,33.47-1.25,58.12-13.32,48.41-53.38,71.61-62.25,76.48,25.31-3.94,71.03-6.9,117.96,15.51,10.83,5.17,20.29,11.01,28.48,16.94Z"/>
          <path class="cls-1" d="M1058.28,746.79c-20.89,38.25-43.02,51.33-59.61,56.1-18.78,5.4-34.44,1.3-64.87,10.52-16.25,4.93-28.82,11.26-36.82,15.78,4.38-8.88,10.82-23.38,15.78-42.08,12.16-45.88,2.97-70.22,19.29-105.19,4.31-9.24,11.61-21.81,24.55-35.06,5.56,9.69,16.44,31.73,15.78,61.36-.87,39.2-21.36,65.67-28.05,73.64,13.26-11.07,40.39-30.72,78.89-35.06,13.16-1.48,25.02-1.12,35.06,0Z"/>
          <path class="cls-1" d="M1119.64,643.35c-13.68,42.46-33.13,59.31-49.09,66.62-16.85,7.72-31.3,5.49-57.86,17.53-17.39,7.89-30.26,17.49-38.57,24.55,10.54-22.75,12.51-41.36,12.27-54.35-.56-30.64-13.63-45.06-10.52-73.64,2-18.36,9.6-32.74,15.78-42.08,7.07,6.58,21.28,21.66,28.05,45.58,9.95,35.17-10.32,78.38-14.03,85.91,6.72-10.38,34.08-52.77,71.88-64.87,16.58-5.3,31.45-5.86,42.08-5.26Z"/>
          <path class="cls-1" d="M1149.45,427.7c2.7,12.69,4.43,31.03-3.51,49.09-8.46,19.27-22.23,25.27-42.08,47.34-9.38,10.43-21.84,26.35-33.31,49.09,2.04-26.34-4.19-43.45-10.52-54.35-12.13-20.91-28.02-24.95-36.82-45.58-7.35-17.23-5-34.9-1.75-47.34,7.37,2.8,16.02,7.15,24.55,14.03,28.21,22.76,33.75,56.14,35.06,66.62,1.15-8.5,5.95-39.93,33.31-61.36,13.08-10.25,26.2-15.11,35.06-17.53Z"/>
          <path class="cls-1" d="M1121.4,315.49c14.29,31.81,11.79,52.21,7.01,64.87-5.72,15.13-15.57,21.53-29.8,47.34-7.97,14.45-12.92,27.02-15.78,35.06-5.04-8.16-13.07-20.14-24.55-33.31-19.86-22.8-31.61-28-42.08-45.58-5.68-9.54-11.94-24.34-12.84-46.34,8.78,1.68,19.45,4.92,30.38,11.28,36.17,21.07,46.65,59.83,49.09,70.13-1.51-12.35-3.48-42.88,14.03-73.64,7.75-13.61,17.05-23.32,24.55-29.8Z"/>
        </g>
      </g>
    </g>
  </g>
</svg>