<?xml version="1.0" encoding="UTF-8" standalone="no"?>
<svg
   xmlns:dc="http://purl.org/dc/elements/1.1/"
   xmlns:cc="http://creativecommons.org/ns#"
   xmlns:rdf="http://www.w3.org/1999/02/22-rdf-syntax-ns#"
   xmlns:svg="http://www.w3.org/2000/svg"
   xmlns="http://www.w3.org/2000/svg"
   viewBox="0 0 2666.6667 2666.6667"
   height="2666.6667"
   width="2666.6667"
   xml:space="preserve"
   id="svg2"
   version="1.1"><metadata
     id="metadata8"><rdf:RDF><cc:Work
         rdf:about=""><dc:format>image/svg+xml</dc:format><dc:type
           rdf:resource="http://purl.org/dc/dcmitype/StillImage" /></cc:Work></rdf:RDF></metadata><defs
     id="defs6"><clipPath
       id="clipPath18"
       clipPathUnits="userSpaceOnUse"><path
         id="path16"
         d="M 0,2000 H 2000 V 0 H 0 Z" /></clipPath><clipPath
       id="clipPath332"
       clipPathUnits="userSpaceOnUse"><path
         id="path330"
         d="M 0,2000 H 2000 V 0 H 0 Z" /></clipPath></defs><g
     transform="matrix(1.3333333,0,0,-1.3333333,0,2666.6667)"
     id="g10"><g
       id="g12"><g
         clip-path="url(#clipPath18)"
         id="g14"><g
           transform="translate(511.3984,195.2324)"
           id="g20"><path
             id="path22"
             style="fill:#1e1e1c;fill-opacity:1;fill-rule:nonzero;stroke:none"
             d="m 0,0 c 6.481,0 9.428,2.946 9.428,11.077 v 8.131 C 9.428,27.34 6.481,30.286 0,30.286 H -8.838 V 0 Z M -18.03,38.652 H 0 c 12.728,0 18.619,-6.716 18.619,-20.033 v -7.07 C 18.619,-1.768 12.728,-8.367 0,-8.367 h -8.838 v -35.471 h -9.192 z" /></g><g
           transform="translate(578.1016,197)"
           id="g24"><path
             id="path26"
             style="fill:#1e1e1c;fill-opacity:1;fill-rule:nonzero;stroke:none"
             d="m 0,0 c 7.188,0 10.842,3.063 10.842,11.313 v 5.892 c 0,8.014 -2.828,11.314 -9.663,11.314 H -7.424 L -7.424,0 Z m -16.616,36.885 h 18.03 c 13.081,0 18.619,-5.892 18.619,-18.738 v -5.066 c 0,-9.074 -2.946,-14.495 -9.545,-16.616 v -0.118 c 6.952,-1.768 9.663,-7.542 9.663,-17.205 v -14.731 c 0,-3.77 0.119,-7.07 1.179,-10.016 h -9.309 c -0.708,2.356 -1.062,4.478 -1.062,10.016 v 15.202 c 0,8.956 -3.182,12.02 -10.959,12.02 h -7.424 v -37.238 h -9.192 z" /></g><g
           transform="translate(631.7217,233.8848)"
           id="g28"><path
             id="path30"
             style="fill:#1e1e1c;fill-opacity:1;fill-rule:nonzero;stroke:none"
             d="M 0,0 H 33.821 V -8.366 H 9.192 v -26.869 h 20.034 v -8.367 H 9.192 V -74.123 H 33.821 V -82.49 L 0,-82.49 Z" /></g><g
           transform="translate(696.6553,233.8848)"
           id="g32"><path
             id="path34"
             style="fill:#1e1e1c;fill-opacity:1;fill-rule:nonzero;stroke:none"
             d="M 0,0 H 13.316 L 25.454,-65.874 37.475,0 H 50.908 V -82.49 H 42.07 v 68.82 L 28.99,-82.49 H 21.212 L 8.132,-13.67 V -82.49 H 0 Z" /></g><path
           id="path36"
           style="fill:#1e1e1c;fill-opacity:1;fill-rule:nonzero;stroke:none"
           d="m 781.742,233.885 h 9.192 v -82.49 h -9.192 z" /><g
           transform="translate(852.8037,170.0137)"
           id="g38"><path
             id="path40"
             style="fill:#1e1e1c;fill-opacity:1;fill-rule:nonzero;stroke:none"
             d="m 0,0 v 45.37 c 0,7.777 -3.535,11.313 -9.781,11.313 -6.128,0 -9.663,-3.536 -9.663,-11.313 V 0 c 0,-7.896 3.535,-11.431 9.663,-11.431 C -3.535,-11.431 0,-7.896 0,0 m -28.636,0.59 v 44.19 c 0,13.081 6.717,20.27 18.855,20.27 12.256,0 18.973,-7.189 18.973,-20.27 V 0.59 c 0,-13.081 -6.717,-20.388 -18.973,-20.388 -12.138,0 -18.855,7.307 -18.855,20.388" /></g><g
           transform="translate(892.874,170.25)"
           id="g42"><path
             id="path44"
             style="fill:#1e1e1c;fill-opacity:1;fill-rule:nonzero;stroke:none"
             d="m 0,0 v 4.596 h 8.721 v -5.304 c 0,-7.424 3.652,-10.959 9.545,-10.959 6.009,0 9.663,3.535 9.663,11.077 0,7.66 -3.182,12.491 -12.728,20.387 C 3.771,29.225 0,35.824 0,45.134 c 0,12.373 6.599,19.679 18.501,19.679 11.902,0 18.148,-7.306 18.148,-19.916 v -3.298 h -8.72 v 3.888 c 0,7.424 -3.417,10.959 -9.428,10.959 -5.892,0 -9.427,-3.535 -9.427,-10.723 0,-6.835 3.299,-11.549 13.08,-19.562 C 33.468,16.733 37.12,10.134 37.12,0.117 37.12,-12.728 30.403,-20.034 18.384,-20.034 6.363,-20.034 0,-12.728 0,0" /></g><g
           transform="translate(1002.9434,169.8955)"
           id="g46"><path
             id="path48"
             style="fill:#1e1e1c;fill-opacity:1;fill-rule:nonzero;stroke:none"
             d="m 0,0 v 45.488 c 0,12.373 6.599,19.68 18.384,19.68 11.902,0 18.383,-7.307 18.383,-19.68 v -8.485 h -8.72 v 9.074 c 0,7.07 -3.653,10.724 -9.428,10.724 -5.774,0 -9.428,-3.654 -9.428,-10.724 V -0.589 c 0,-7.07 3.654,-10.724 9.428,-10.724 5.775,0 9.428,3.654 9.428,10.724 V 10.96 h 8.72 V 0 c 0,-12.255 -6.481,-19.68 -18.383,-19.68 C 6.599,-19.68 0,-12.255 0,0" /></g><g
           transform="translate(1071.8838,233.8848)"
           id="g50"><path
             id="path52"
             style="fill:#1e1e1c;fill-opacity:1;fill-rule:nonzero;stroke:none"
             d="M 0,0 H 33.821 V -8.366 H 9.192 v -26.869 h 20.034 v -8.367 H 9.192 V -74.123 H 33.821 V -82.49 L 0,-82.49 Z" /></g><g
           transform="translate(1135.875,169.8955)"
           id="g54"><path
             id="path56"
             style="fill:#1e1e1c;fill-opacity:1;fill-rule:nonzero;stroke:none"
             d="m 0,0 v 45.488 c 0,12.373 6.599,19.68 18.384,19.68 11.902,0 18.383,-7.307 18.383,-19.68 v -8.485 h -8.72 v 9.074 c 0,7.07 -3.653,10.724 -9.428,10.724 -5.774,0 -9.428,-3.654 -9.428,-10.724 V -0.589 c 0,-7.07 3.654,-10.724 9.428,-10.724 5.775,0 9.428,3.654 9.428,10.724 V 10.96 h 8.72 V 0 c 0,-12.255 -6.481,-19.68 -18.383,-19.68 C 6.599,-19.68 0,-12.255 0,0" /></g><g
           transform="translate(1244.7656,158.4648)"
           id="g58"><path
             id="path60"
             style="fill:#1e1e1c;fill-opacity:1;fill-rule:nonzero;stroke:none"
             d="m 0,0 c 0,13.788 5.304,21.802 14.613,31.582 9.192,9.546 13.434,15.674 13.434,24.394 0,7.895 -2.828,12.255 -9.545,12.255 -7.07,0 -9.781,-4.595 -9.781,-11.312 V 49.494 H 0 v 6.835 c 0,11.902 5.539,20.27 18.737,20.27 12.728,0 18.502,-8.249 18.502,-20.27 C 37.239,45.959 32.29,37.71 21.684,26.633 13.435,18.148 9.074,12.374 9.074,3.064 V 1.297 H 36.296 V -7.07 H 0 Z" /></g><g
           transform="translate(1341.165,170.0137)"
           id="g62"><path
             id="path64"
             style="fill:#1e1e1c;fill-opacity:1;fill-rule:nonzero;stroke:none"
             d="m 0,0 v 45.37 c 0,7.777 -3.535,11.313 -9.781,11.313 -6.128,0 -9.663,-3.536 -9.663,-11.313 V 0 c 0,-7.896 3.535,-11.431 9.663,-11.431 C -3.535,-11.431 0,-7.896 0,0 m -28.636,0.59 v 44.19 c 0,13.081 6.717,20.27 18.855,20.27 12.256,0 18.973,-7.189 18.973,-20.27 V 0.59 c 0,-13.081 -6.717,-20.388 -18.973,-20.388 -12.138,0 -18.855,7.307 -18.855,20.388" /></g><g
           transform="translate(1381.3516,158.4648)"
           id="g66"><path
             id="path68"
             style="fill:#1e1e1c;fill-opacity:1;fill-rule:nonzero;stroke:none"
             d="m 0,0 c 0,13.788 5.304,21.802 14.613,31.582 9.192,9.546 13.434,15.674 13.434,24.394 0,7.895 -2.828,12.255 -9.545,12.255 -7.07,0 -9.781,-4.595 -9.781,-11.312 V 49.494 H 0 v 6.835 c 0,11.902 5.539,20.27 18.737,20.27 12.728,0 18.502,-8.249 18.502,-20.27 C 37.239,45.959 32.29,37.71 21.684,26.633 13.435,18.148 9.074,12.374 9.074,3.064 V 1.297 H 36.296 V -7.07 H 0 Z" /></g><g
           transform="translate(1447.4648,170.3672)"
           id="g70"><path
             id="path72"
             style="fill:#1e1e1c;fill-opacity:1;fill-rule:nonzero;stroke:none"
             d="m 0,0 v 6.246 h 8.721 v -6.6 c 0,-7.07 2.946,-11.43 9.781,-11.43 6.6,0 9.663,3.888 9.663,12.256 V 7.66 c 0,8.485 -3.417,12.256 -10.37,12.256 h -4.949 v 8.366 h 5.184 c 6.128,0 9.9,3.654 9.9,11.196 v 5.42 c 0,7.542 -3.418,11.431 -9.428,11.431 -6.481,0 -9.31,-3.889 -9.31,-11.077 v -4.831 h -8.72 v 4.124 c 0,12.609 5.892,20.151 18.383,20.151 12.021,0 18.266,-7.306 18.266,-20.033 v -3.3 c 0,-8.838 -3.182,-14.612 -9.663,-16.733 v -0.236 c 7.07,-2.24 9.898,-8.249 9.898,-16.734 V 0 c 0,-12.609 -5.891,-20.151 -18.619,-20.151 C 5.774,-20.151 0,-12.138 0,0" /></g><g
           transform="translate(585.6196,774.1177)"
           id="g74"><path
             id="path76"
             style="fill:#1e1e1c;fill-opacity:1;fill-rule:nonzero;stroke:none"
             d="m 0,0 v -153.823 h 26.454 v 66.345 h 29.369 v 27.294 l -27.912,-2.939 v 41.571 l 38.148,2.359 v 26.87 z" /></g><g
           transform="translate(668.3134,774.401)"
           id="g78"><path
             id="path80"
             style="fill:#1e1e1c;fill-opacity:1;fill-rule:nonzero;stroke:none"
             d="m 0,0 -5.118,-138.476 66.537,-5.118 v 25.18 l -38.387,-2.148 v 40.946 h 25.591 v 25.591 l -25.591,-2.559 v 33.269 H 56.301 V 0 Z" /></g><g
           transform="translate(738.8862,781.7951)"
           id="g82"><path
             id="path84"
             style="fill:#1e1e1c;fill-opacity:1;fill-rule:nonzero;stroke:none"
             d="m 0,0 v -84.451 l 49.706,-7.677 v -40.947 l -46.064,5.119 -1.123,-29.693 h 74.887 v 90.208 l -53.291,8.581 v 30.71 l 43.505,-2.56 v 28.151 z" /></g><g
           transform="translate(844.893,748.5265)"
           id="g86"><path
             id="path88"
             style="fill:#1e1e1c;fill-opacity:1;fill-rule:nonzero;stroke:none"
             d="M 0,0 H -22.865 V 23.032 H 49.779 V 0 H 25.425 V -117.72 H -3.969 Z" /></g><g
           transform="translate(906.312,779.236)"
           id="g90"><path
             id="path92"
             style="fill:#1e1e1c;fill-opacity:1;fill-rule:nonzero;stroke:none"
             d="m 0,0 v -150.963 l 23.213,2.534 2.519,143.594 z" /></g><g
           transform="translate(942.1398,771.5586)"
           id="g94"><path
             id="path96"
             style="fill:#1e1e1c;fill-opacity:1;fill-rule:nonzero;stroke:none"
             d="M 0,0 12.796,-148.429 H 43.505 L 71.655,2.559 46.592,2.842 33.269,-110.042 20.473,2.559 Z" /></g><g
           transform="translate(1036.8274,697.344)"
           id="g98"><path
             id="path100"
             style="fill:#1e1e1c;fill-opacity:1;fill-rule:nonzero;stroke:none"
             d="M 0,0 8.592,56.301 H 20.473 L 24.129,0 Z M 51.003,-73.198 35.886,81.892 h -46.123 l -28.15,-153.548 26.404,-1.542 9.424,55.284 h 25.008 v -55.284 z" /></g><g
           transform="translate(1097.9081,774.401)"
           id="g102"><path
             id="path104"
             style="fill:#1e1e1c;fill-opacity:1;fill-rule:nonzero;stroke:none"
             d="m 0,0 2.897,-153.831 60.929,3.576 v 29.321 L 28.489,-128.24 V 0 Z" /></g><g
           transform="translate(1265.0024,652.5668)"
           id="g106"><path
             id="path108"
             style="fill:#1e1e1c;fill-opacity:1;fill-rule:nonzero;stroke:none"
             d="m 0,0 -23.97,-0.864 3.772,100.998 38.218,-7.644 z m -44.25,130.913 -6.065,-158.836 69.149,2.599 24.462,142.172 z" /></g><g
           transform="translate(1318.1309,771.4025)"
           id="g110"><path
             id="path112"
             style="fill:#1e1e1c;fill-opacity:1;fill-rule:nonzero;stroke:none"
             d="m 0,0 -0.634,-146.04 63.982,-5.505 0.832,25.025 -40.471,1.622 1.346,40.481 26.143,-0.87 0.73,21.928 -27.016,0.054 1.234,37.107 46.911,2.662 1.382,27.815 z" /></g><g
           transform="translate(653.2581,542.391)"
           id="g114"><path
             id="path116"
             style="fill:#1e1e1c;fill-opacity:1;fill-rule:nonzero;stroke:none"
             d="M 0,0 1.318,39.637 30.57,38.664 32.302,-1.074 Z m 26.478,-22.666 28.822,-0.958 -4.27,84.171 -75.995,7.632 -5.183,-155.874 27.65,-0.92 2.005,60.311 28.116,-53.532 31.088,-1.033 z" /></g><g
           transform="translate(1211.0751,534.1746)"
           id="g118"><path
             id="path120"
             style="fill:#1e1e1c;fill-opacity:1;fill-rule:nonzero;stroke:none"
             d="m 0,0 1.233,37.072 27.359,-0.909 1.62,-37.168 z m 24.765,-21.199 26.957,-0.897 -3.993,78.726 -71.079,7.138 -4.847,-145.79 25.86,-0.859 1.876,56.408 26.297,-50.068 29.076,-0.967 z" /></g><g
           transform="translate(455.4876,600.6711)"
           id="g122"><path
             id="path124"
             style="fill:#1e1e1c;fill-opacity:1;fill-rule:nonzero;stroke:none"
             d="m 0,0 v -150.194 h 67.719 l -0.765,25.334 H 27.143 l 0.354,97.716 H 67.719 V 3.619 Z" /></g><g
           transform="translate(1015.8377,597.0228)"
           id="g126"><path
             id="path128"
             style="fill:#1e1e1c;fill-opacity:1;fill-rule:nonzero;stroke:none"
             d="m 0,0 -0.634,-146.04 63.982,-5.505 0.832,25.025 -40.471,1.622 1.346,40.481 26.144,-0.87 0.729,21.928 -27.016,0.054 1.234,37.107 46.911,2.662 1.382,27.815 z" /></g><g
           transform="translate(895.2474,600.7009)"
           id="g130"><path
             id="path132"
             style="fill:#1e1e1c;fill-opacity:1;fill-rule:nonzero;stroke:none"
             d="m 0,0 -3.737,-148.387 25.526,-2.392 2.605,78.348 21.657,-41.764 25.818,43.311 -2.594,-78.031 31.94,-0.401 2.46,150.99 L 81.873,-0.162 52.335,-71.515 21.913,6.953 Z" /></g><g
           transform="translate(587.0008,477.0833)"
           id="g134"><path
             id="path136"
             style="fill:#1e1e1c;fill-opacity:1;fill-rule:nonzero;stroke:none"
             d="m 0,0 -23.085,-1.348 1.467,97.431 26.336,2.021 z m -45.462,125.234 -2.436,-153.228 66.596,3.989 9.859,146.129 z" /></g><g
           transform="translate(857.8576,478.3119)"
           id="g138"><path
             id="path140"
             style="fill:#1e1e1c;fill-opacity:1;fill-rule:nonzero;stroke:none"
             d="m 0,0 -28.969,5.073 0.434,93.577 29.571,-1.597 z m -52.598,124.373 2.128,-145.709 69.411,0.095 2.85,142.192 z" /></g><g
           transform="translate(742.0843,581.5183)"
           id="g142"><path
             id="path144"
             style="fill:#1e1e1c;fill-opacity:1;fill-rule:nonzero;stroke:none"
             d="m 0,0 -24.446,-0.182 -0.184,24.624 77.667,0.58 0.184,-24.625 -26.038,-0.194 0.939,-125.859 -31.426,-0.235 z" /></g><g
           transform="translate(1124.2012,575.7557)"
           id="g146"><path
             id="path148"
             style="fill:#1e1e1c;fill-opacity:1;fill-rule:nonzero;stroke:none"
             d="m 0,0 -24.099,0.801 0.807,24.275 76.565,-2.545 -0.807,-24.275 -25.669,0.853 -4.126,-124.072 -30.979,1.03 z" /></g><g
           transform="translate(1465.2523,594.4484)"
           id="g150"><path
             id="path152"
             style="fill:#1e1e1c;fill-opacity:1;fill-rule:nonzero;stroke:none"
             d="m 0,0 -9.717,-138.229 66.33,-7.327 0.837,25.166 -38.437,-0.871 1.361,40.923 25.577,-0.85 0.85,25.577 -25.662,-1.707 1.106,33.25 33.25,-1.105 0.775,23.302 z" /></g><g
           transform="translate(1314.6816,524.7498)"
           id="g154"><path
             id="path156"
             style="fill:#1e1e1c;fill-opacity:1;fill-rule:nonzero;stroke:none"
             d="M 0,0 10.458,55.984 22.333,55.589 24.115,-0.802 Z M 48.542,-74.853 38.588,80.654 -7.509,82.187 -40.747,-70.34 l 26.338,-2.419 11.256,54.94 24.995,-0.831 -1.838,-55.254 z" /></g><g
           transform="translate(1419.2065,600.6083)"
           id="g158"><path
             id="path160"
             style="fill:#1e1e1c;fill-opacity:1;fill-rule:nonzero;stroke:none"
             d="m 0,0 -3.596,-124.506 -23.268,-7.848 -5.203,20.632 -17.229,0.497 7.481,-41.179 37.457,1.504 23.276,1.862 6.664,143.462 z" /></g><g
           transform="translate(1331.3718,359.986)"
           id="g162"><path
             id="path164"
             style="fill:#1e1e1c;fill-opacity:1;fill-rule:nonzero;stroke:none"
             d="m 0,0 1.233,37.072 27.359,-0.909 1.62,-37.168 z m 24.765,-21.199 26.957,-0.897 -3.993,78.726 -71.079,7.138 -4.847,-145.79 25.86,-0.859 1.876,56.408 26.297,-50.068 29.076,-0.967 z" /></g><g
           transform="translate(923.8497,362.9963)"
           id="g166"><path
             id="path168"
             style="fill:#1e1e1c;fill-opacity:1;fill-rule:nonzero;stroke:none"
             d="m 0,0 1.375,41.358 30.523,-1.015 1.807,-41.464 z m 27.628,-23.65 30.073,-1 -4.455,87.827 -79.295,7.963 -5.408,-162.643 28.85,-0.96 2.093,62.93 29.336,-55.856 32.438,-1.079 z" /></g><g
           transform="translate(686.1159,281.4862)"
           id="g170"><path
             id="path172"
             style="fill:#1e1e1c;fill-opacity:1;fill-rule:nonzero;stroke:none"
             d="M 0,0 23.032,-2.559 18.736,152.268 -6.398,150.592 Z" /></g><g
           transform="translate(1085.3394,284.0453)"
           id="g174"><path
             id="path176"
             style="fill:#1e1e1c;fill-opacity:1;fill-rule:nonzero;stroke:none"
             d="M 0,0 23.032,-2.559 26.414,139.472 1.28,137.797 Z" /></g><g
           transform="translate(577.3097,423.908)"
           id="g178"><path
             id="path180"
             style="fill:#1e1e1c;fill-opacity:1;fill-rule:nonzero;stroke:none"
             d="m 0,0 -2.733,-152.116 23.683,3.643 5.361,93.821 34.554,-99.286 23.846,3.644 L 81.979,7.287 62.056,3.643 61.029,-91.998 31.881,0.911 Z" /></g><g
           transform="translate(810.2335,425.4581)"
           id="g182"><path
             id="path184"
             style="fill:#1e1e1c;fill-opacity:1;fill-rule:nonzero;stroke:none"
             d="m 0,0 -0.634,-146.04 63.982,-5.505 0.832,25.025 -40.471,1.622 1.346,40.481 26.144,-0.87 0.729,21.928 -27.016,0.054 1.234,37.107 46.911,2.662 1.382,27.815 z" /></g><g
           transform="translate(1488.5551,296.5536)"
           id="g186"><path
             id="path188"
             style="fill:#1e1e1c;fill-opacity:1;fill-rule:nonzero;stroke:none"
             d="m 0,0 -23.009,-1.343 1.462,97.107 26.249,2.014 z m -45.311,124.818 -2.428,-152.719 66.375,3.975 9.826,145.645 z" /></g><g
           transform="translate(993.4078,428.6359)"
           id="g190"><path
             id="path192"
             style="fill:#1e1e1c;fill-opacity:1;fill-rule:nonzero;stroke:none"
             d="m 0,0 v -84.451 l 49.706,-7.677 v -40.946 l -46.064,5.118 -1.123,-29.693 h 74.887 v 90.208 l -53.291,8.581 v 30.71 l 43.505,-2.56 v 28.151 z" /></g><g
           transform="translate(1148.038,400.4855)"
           id="g194"><path
             id="path196"
             style="fill:#1e1e1c;fill-opacity:1;fill-rule:nonzero;stroke:none"
             d="M 0,0 H -22.865 V 23.032 H 49.779 V 0 H 25.425 V -117.72 H -3.969 Z" /></g><g
           transform="translate(799.9969,431.195)"
           id="g198"><path
             id="path200"
             style="fill:#1e1e1c;fill-opacity:1;fill-rule:nonzero;stroke:none"
             d="m 0,0 -17.914,-150.988 -33.268,2.559 L -79.333,0 -54.27,0.283 -35.828,-107.483 -20.473,2.559 Z" /></g><g
           transform="translate(1395.8256,418.2926)"
           id="g202"><path
             id="path204"
             style="fill:#1e1e1c;fill-opacity:1;fill-rule:nonzero;stroke:none"
             d="m 0,0 9.854,-150.641 22.998,4.044 -6.859,143.452 z" /></g><g
           transform="translate(1229.4314,343.9785)"
           id="g206"><path
             id="path208"
             style="fill:#1e1e1c;fill-opacity:1;fill-rule:nonzero;stroke:none"
             d="M 0,0 4.899,56.742 16.754,57.517 24.077,1.575 Z M 55.672,-69.713 30.464,84.06 -15.56,81.049 -33.628,-74.008 l 26.448,0.184 5.796,55.781 24.955,1.633 3.608,-55.167 z" /></g><g
           transform="translate(480.0351,271.7243)"
           id="g210"><path
             id="path212"
             style="fill:#1e1e1c;fill-opacity:1;fill-rule:nonzero;stroke:none"
             d="M 0,0 H 84.882 V 149.812 L 58.474,149.015 V 28.294 l -30.18,0.368 -15.09,124.524 h -32.067 z" /></g><g
           transform="translate(701.7679,1440.9738)"
           id="g214"><path
             id="path216"
             style="fill:#1e1e1c;fill-opacity:1;fill-rule:nonzero;stroke:none"
             d="M 0,0 C -1.063,-165.295 130.928,-299.771 295.901,-301.474 460.558,-303.173 597.124,-167.94 598.1,-2.224 599.059,160.516 465.824,295.222 302.42,296.72 134.407,298.26 1.077,167.442 0,0 M 298.22,-349.459 C 104.944,-349.175 -50.967,-192.776 -49.95,-0.201 -48.94,190.753 108.417,347.43 298.54,346.783 489.907,346.132 646.298,190.003 646.418,-0.512 646.54,-194.079 491.212,-349.742 298.22,-349.459" /></g><g
           transform="translate(1157.5178,1337.947)"
           id="g218"><path
             id="path220"
             style="fill:#1e1e1c;fill-opacity:1;fill-rule:nonzero;stroke:none"
             d="m 0,0 -106.004,7.581 -9.876,192.99 40.046,-2.864 7.724,-156.859 37.658,-3.155 10.781,150.762 33.05,-1.362 z m -133.808,164.411 h -51.461 L -185.721,39.39 h 50.934 l 0.979,-32.412 h -86.641 V 199.14 l 86.641,4.63 z m -155.605,-50.663 34.589,5.528 1.823,-34.016 -36.601,-1.962 4.431,-82.685 -32.969,-1.767 -10.275,191.706 81.816,13.981 1.794,-33.489 -47.385,-5.487 z m 133.11,238.481 c -139.559,0.869 -251.283,-109.879 -251.508,-249.312 -0.231,-142.495 108.625,-251.634 251.116,-251.772 140.993,-0.136 249.4,108.512 249.471,250.024 0.071,141.118 -108.134,250.182 -249.079,251.06" /></g><g
           transform="translate(697.2798,1812.5988)"
           id="g222"><path
             id="path224"
             style="fill:#1e1e1c;fill-opacity:1;fill-rule:nonzero;stroke:none"
             d="M 0,0 C 0,0 79.066,0 84.24,57.856 84.24,57.856 31.558,78.895 0,0" /></g><g
           transform="translate(632.4108,1749.4829)"
           id="g226"><path
             id="path228"
             style="fill:#1e1e1c;fill-opacity:1;fill-rule:nonzero;stroke:none"
             d="m 0,0 c 8.766,17.532 12.273,26.298 10.519,43.83 -2.548,25.485 10.52,38.571 15.779,43.831 8.94,8.94 22.753,12.249 22.792,12.272 0,0 14.026,-26.298 -10.519,-63.115 0,0 54.35,22.791 64.869,1.753 C 98.126,29.799 92.329,25.102 88.537,22.573 68.885,9.463 49.791,19.037 19.285,8.766 10.415,5.779 3.719,2.172 0,0" /></g><g
           transform="translate(530.9205,1597.7472)"
           id="g230"><path
             id="path232"
             style="fill:#1e1e1c;fill-opacity:1;fill-rule:nonzero;stroke:none"
             d="m 0,0 c 4.566,23.765 5.808,35.355 -2.129,55.608 -11.537,29.44 -0.373,49.356 4.122,57.364 7.641,13.61 22.954,22.155 22.993,22.195 0,0 25.45,-26.575 8.568,-78.53 0,0 56.99,45.234 76.516,23.74 C 106.683,68.176 101.361,60.659 97.699,56.387 78.716,34.244 52.825,39.249 19.996,16.857 10.449,10.346 3.696,3.823 0,0" /></g><g
           transform="translate(496.9745,1508.951)"
           id="g234"><path
             id="path236"
             style="fill:#1e1e1c;fill-opacity:1;fill-rule:nonzero;stroke:none"
             d="m 0,0 c 0.509,25.615 -0.272,37.931 -12.181,57.642 -17.31,28.652 -9.229,51.433 -5.972,60.594 5.536,15.569 19.983,27.228 20.017,27.278 0,0 31.315,-23.172 23.004,-80.407 0,0 51.364,57.405 75.589,38.474 C 99.107,90.244 94.9,81.447 91.844,76.333 76.002,49.829 48.091,50.415 17.845,21.171 9.05,12.667 3.172,4.651 0,0" /></g><g
           transform="translate(576.3079,1681.1075)"
           id="g238"><path
             id="path240"
             style="fill:#1e1e1c;fill-opacity:1;fill-rule:nonzero;stroke:none"
             d="m 0,0 c 0,0 7.013,29.805 1.753,61.363 -5.259,31.557 40.324,61.362 40.324,61.362 0,0 10.519,-47.337 -3.506,-73.635 0,0 42.077,24.545 71.882,15.779 C 103.44,36.818 64.869,22.792 49.09,21.039 -3.506,7.013 0,0 0,0" /></g><g
           transform="translate(429.0376,1346.243)"
           id="g242"><path
             id="path244"
             style="fill:#1e1e1c;fill-opacity:1;fill-rule:nonzero;stroke:none"
             d="m 0,0 c 9.693,-58.453 29.278,-79.216 46.46,-86.784 12.73,-5.607 29.234,-6.216 45.584,-21.039 11.144,-10.103 16.968,-22.051 20.162,-30.681 -2.405,11.816 -4.406,29.827 0.876,49.967 6.584,25.103 19.235,33.501 26.299,56.103 4.264,13.643 7.159,34.594 -1.717,64.192 C 128.595,25.565 116.159,15.218 106.07,-0.877 82.634,-38.261 89.803,-78.03 92.044,-88.537 83.99,-71.143 67.074,-41.439 34.188,-18.409 22.097,-9.941 10.301,-4.094 0,0" /></g><g
           transform="translate(576.2404,1030.9286)"
           id="g246"><path
             id="path248"
             style="fill:#1e1e1c;fill-opacity:1;fill-rule:nonzero;stroke:none"
             d="m 0,0 c 9.63,-10.495 23.369,-22.328 42.145,-30.069 24.22,-9.986 41.944,-7.028 92.92,-8.766 22.615,-0.772 42.203,-2.141 57.856,-3.507 -12.612,18.954 -19.998,36.451 -24.545,50.844 -11.474,36.319 -5.894,56.118 -21.038,80.648 -10.294,16.672 -24.851,26.927 -36.818,33.311 -5.727,-9.02 -8.814,-17.477 -10.519,-24.545 C 88.006,48.183 137.095,-7.321 142.955,-13.414 122.495,-6.839 83.379,11.576 45.651,8.502 28.104,7.072 12.745,3.75 0,0" /></g><g
           transform="translate(659.5856,959.6588)"
           id="g250"><path
             id="path252"
             style="fill:#1e1e1c;fill-opacity:1;fill-rule:nonzero;stroke:none"
             d="m 0,0 c 17.863,-18.272 34.134,-24.214 45.584,-26.298 37.622,-6.85 60.81,21.099 115.712,22.792 16.328,0.503 29.734,-1.492 38.327,-3.196 -5.818,3.836 -14.563,10.445 -22.548,20.728 -24.818,31.956 -13.711,62.573 -33.311,96.427 -6.299,10.879 -17.774,25.555 -40.324,38.57 C 99.155,137.728 93.386,117.599 96.427,92.92 102.399,44.453 137.664,16.458 145.517,10.519 121.721,17.886 78.136,27.201 29.805,12.273 18.651,8.828 8.718,4.547 0,0" /></g><g
           transform="translate(753.0203,905.1023)"
           id="g254"><path
             id="path256"
             style="fill:#1e1e1c;fill-opacity:1;fill-rule:nonzero;stroke:none"
             d="m 0,0 c 42.442,-23.864 70.743,-22.878 88.9,-17.325 24.244,7.413 35.865,25.485 68.375,29.804 17.485,2.323 30.948,-0.593 43.831,-3.506 0,0 35.327,-7.989 117.465,-66.622 3.864,-2.452 8.733,-2.442 12.273,0 4.26,2.937 5.868,8.894 3.506,14.025 -34.584,25.812 -64.867,42.342 -85.907,52.597 -49.531,24.14 -65.361,22.04 -82.402,43.83 -21.71,27.761 -11.904,50.192 -36.317,81.04 -7.622,9.631 -21.35,23.098 -46.783,33.206 -2.67,-12.131 -5.529,-33.468 1.253,-58.116 C 97.514,60.525 137.571,37.32 146.446,32.454 121.14,36.39 75.413,39.349 28.482,16.939 17.652,11.768 8.188,5.928 0,0" /></g><g
           transform="translate(517.5751,1126.2144)"
           id="g258"><path
             id="path260"
             style="fill:#1e1e1c;fill-opacity:1;fill-rule:nonzero;stroke:none"
             d="m 0,0 c 20.893,-38.247 43.018,-51.33 59.609,-56.103 18.785,-5.404 34.44,-1.296 64.869,-10.519 16.251,-4.926 28.823,-11.261 36.818,-15.779 -4.378,8.878 -10.823,23.382 -15.779,42.077 C 133.355,5.551 142.551,29.895 126.232,64.869 121.92,74.11 114.621,86.677 101.687,99.933 96.125,90.246 85.246,68.202 85.908,38.571 86.783,-0.628 107.271,-27.094 113.959,-35.064 100.694,-23.999 73.568,-4.344 35.064,0 21.904,1.485 10.043,1.12 0,0" /></g><g
           transform="translate(456.2125,1229.6542)"
           id="g262"><path
             id="path264"
             style="fill:#1e1e1c;fill-opacity:1;fill-rule:nonzero;stroke:none"
             d="m 0,0 c 13.681,-42.464 33.127,-59.31 49.09,-66.622 16.853,-7.72 31.303,-5.493 57.856,-17.532 17.394,-7.887 30.265,-17.49 38.571,-24.545 -10.544,22.747 -12.509,41.355 -12.273,54.349 0.558,30.639 13.627,45.06 10.52,73.635 -1.997,18.358 -9.602,32.737 -15.779,42.078 -7.067,-6.58 -21.285,-21.662 -28.052,-45.584 -9.949,-35.171 10.32,-78.377 14.026,-85.908 -6.72,10.385 -34.084,52.774 -71.882,64.869 C 25.5,0.045 10.63,0.6 0,0" /></g><g
           transform="translate(426.4078,1445.2998)"
           id="g266"><path
             id="path268"
             style="fill:#1e1e1c;fill-opacity:1;fill-rule:nonzero;stroke:none"
             d="m 0,0 c -2.704,-12.69 -4.425,-31.029 3.506,-49.09 8.463,-19.27 22.227,-25.275 42.078,-47.337 9.383,-10.428 21.838,-26.348 33.311,-49.09 -2.043,26.343 4.193,43.446 10.519,54.35 12.129,20.908 28.021,24.948 36.818,45.583 7.345,17.232 4.996,34.9 1.753,47.337 -7.368,-2.805 -16.024,-7.15 -24.545,-14.025 C 75.232,-35.031 69.685,-68.409 68.375,-78.895 67.224,-70.398 62.426,-38.969 35.064,-17.532 21.987,-7.286 8.866,-2.425 0,0" /></g><g
           transform="translate(454.4593,1557.5057)"
           id="g270"><path
             id="path272"
             style="fill:#1e1e1c;fill-opacity:1;fill-rule:nonzero;stroke:none"
             d="m 0,0 c -14.29,-31.812 -11.794,-52.207 -7.013,-64.869 5.715,-15.135 15.566,-21.525 29.805,-47.337 7.972,-14.451 12.921,-27.018 15.779,-35.064 5.035,8.155 13.066,20.137 24.545,33.311 19.863,22.797 31.608,27.997 42.077,45.584 5.682,9.544 11.945,24.344 12.845,46.344 -8.781,-1.681 -19.452,-4.917 -30.377,-11.28 C 51.49,-54.379 41.013,-93.14 38.571,-103.44 40.082,-91.092 42.047,-60.564 24.545,-29.805 16.799,-16.192 7.491,-6.489 0,0" /></g><g
           transform="translate(1302.7202,1812.5988)"
           id="g274"><path
             id="path276"
             style="fill:#1e1e1c;fill-opacity:1;fill-rule:nonzero;stroke:none"
             d="m 0,0 c 0,0 -79.066,0 -84.24,57.856 0,0 52.682,21.039 84.24,-57.856" /></g><g
           transform="translate(1367.5892,1749.4829)"
           id="g278"><path
             id="path280"
             style="fill:#1e1e1c;fill-opacity:1;fill-rule:nonzero;stroke:none"
             d="m 0,0 c -8.766,17.532 -12.273,26.298 -10.519,43.83 2.548,25.485 -10.52,38.571 -15.779,43.831 -8.94,8.94 -22.753,12.249 -22.792,12.272 0,0 -14.026,-26.298 10.519,-63.115 0,0 -54.35,22.791 -64.869,1.753 5.314,-8.772 11.111,-13.469 14.903,-15.998 C -68.885,9.463 -49.791,19.037 -19.285,8.766 -10.415,5.779 -3.719,2.172 0,0" /></g><g
           transform="translate(1469.0795,1597.7472)"
           id="g282"><path
             id="path284"
             style="fill:#1e1e1c;fill-opacity:1;fill-rule:nonzero;stroke:none"
             d="m 0,0 c -4.566,23.765 -5.807,35.355 2.129,55.608 11.537,29.44 0.373,49.356 -4.122,57.364 -7.641,13.61 -22.954,22.155 -22.993,22.195 0,0 -25.45,-26.575 -8.567,-78.53 0,0 -56.991,45.234 -76.517,23.74 3.387,-12.201 8.709,-19.718 12.372,-23.99 18.982,-22.143 44.873,-17.138 77.702,-39.53 C -10.449,10.346 -3.696,3.823 0,0" /></g><g
           transform="translate(1503.0255,1508.951)"
           id="g286"><path
             id="path288"
             style="fill:#1e1e1c;fill-opacity:1;fill-rule:nonzero;stroke:none"
             d="m 0,0 c -0.509,25.615 0.272,37.931 12.181,57.642 17.31,28.652 9.229,51.433 5.972,60.594 -5.536,15.569 -19.983,27.228 -20.017,27.278 0,0 -31.315,-23.172 -23.004,-80.407 0,0 -51.364,57.405 -75.589,38.474 1.35,-13.337 5.557,-22.134 8.613,-27.248 C -76.002,49.829 -48.091,50.415 -17.845,21.171 -9.05,12.667 -3.172,4.651 0,0" /></g><g
           transform="translate(1423.6921,1681.1075)"
           id="g290"><path
             id="path292"
             style="fill:#1e1e1c;fill-opacity:1;fill-rule:nonzero;stroke:none"
             d="m 0,0 c 0,0 -7.013,29.805 -1.753,61.363 5.259,31.557 -40.324,61.362 -40.324,61.362 0,0 -10.519,-47.337 3.506,-73.635 0,0 -42.077,24.545 -71.882,15.779 7.013,-28.051 45.584,-42.077 61.363,-43.83 C 3.506,7.013 0,0 0,0" /></g><g
           transform="translate(1570.9624,1346.243)"
           id="g294"><path
             id="path296"
             style="fill:#1e1e1c;fill-opacity:1;fill-rule:nonzero;stroke:none"
             d="m 0,0 c -9.693,-58.453 -29.278,-79.216 -46.46,-86.784 -12.73,-5.607 -29.234,-6.216 -45.584,-21.039 -11.144,-10.103 -16.968,-22.051 -20.162,-30.681 2.405,11.816 4.406,29.827 -0.877,49.967 -6.584,25.103 -19.234,33.501 -26.298,56.103 -4.264,13.643 -7.159,34.594 1.717,64.192 9.069,-6.193 21.505,-16.54 31.594,-32.635 23.436,-37.384 16.266,-77.153 14.026,-87.66 8.054,17.394 24.97,47.098 57.856,70.128 C -22.097,-9.941 -10.301,-4.094 0,0" /></g><g
           transform="translate(1423.7596,1030.9286)"
           id="g298"><path
             id="path300"
             style="fill:#1e1e1c;fill-opacity:1;fill-rule:nonzero;stroke:none"
             d="m 0,0 c -9.63,-10.495 -23.369,-22.328 -42.145,-30.069 -24.22,-9.986 -41.944,-7.028 -92.92,-8.766 -22.615,-0.772 -42.203,-2.141 -57.856,-3.507 12.612,18.954 19.998,36.451 24.545,50.844 11.474,36.319 5.894,56.118 21.038,80.648 10.294,16.672 24.851,26.927 36.818,33.311 5.727,-9.02 8.814,-17.477 10.519,-24.545 11.995,-49.733 -37.094,-105.237 -42.954,-111.33 20.46,6.575 59.576,24.99 97.304,21.916 C -28.104,7.072 -12.745,3.75 0,0" /></g><g
           transform="translate(1340.4143,959.6588)"
           id="g302"><path
             id="path304"
             style="fill:#1e1e1c;fill-opacity:1;fill-rule:nonzero;stroke:none"
             d="m 0,0 c -17.863,-18.272 -34.134,-24.214 -45.584,-26.298 -37.622,-6.85 -60.81,21.099 -115.712,22.792 -16.328,0.503 -29.734,-1.492 -38.327,-3.196 5.818,3.836 14.563,10.445 22.548,20.728 24.818,31.956 13.711,62.573 33.311,96.427 6.299,10.879 17.774,25.555 40.324,38.57 4.285,-11.295 10.054,-31.424 7.013,-56.103 -5.972,-48.467 -41.237,-76.462 -49.09,-82.401 23.796,7.367 67.382,16.682 115.712,1.754 C -18.651,8.828 -8.718,4.547 0,0" /></g><g
           transform="translate(1246.9797,905.1023)"
           id="g306"><path
             id="path308"
             style="fill:#1e1e1c;fill-opacity:1;fill-rule:nonzero;stroke:none"
             d="m 0,0 c -42.442,-23.864 -70.743,-22.878 -88.9,-17.325 -24.244,7.413 -35.865,25.485 -68.375,29.804 -17.485,2.323 -30.948,-0.593 -43.831,-3.506 0,0 -35.327,-7.989 -117.465,-66.622 -3.864,-2.452 -8.733,-2.442 -12.273,0 -4.26,2.937 -5.868,8.894 -3.506,14.025 34.584,25.812 64.867,42.342 85.907,52.597 49.531,24.14 65.361,22.04 82.401,43.83 21.711,27.761 11.905,50.192 36.318,81.04 7.622,9.631 21.35,23.098 46.783,33.206 2.67,-12.131 5.529,-33.468 -1.253,-58.116 -13.32,-48.408 -53.377,-71.613 -62.252,-76.479 25.306,3.936 71.033,6.895 117.963,-15.515 C -17.652,11.768 -8.188,5.928 0,0" /></g><g
           transform="translate(1482.4249,1126.2144)"
           id="g310"><path
             id="path312"
             style="fill:#1e1e1c;fill-opacity:1;fill-rule:nonzero;stroke:none"
             d="m 0,0 c -20.893,-38.247 -43.018,-51.33 -59.609,-56.103 -18.785,-5.404 -34.44,-1.296 -64.869,-10.519 -16.251,-4.926 -28.823,-11.261 -36.818,-15.779 4.378,8.878 10.823,23.382 15.779,42.077 12.162,45.875 2.966,70.219 19.285,105.193 4.312,9.241 11.611,21.808 24.545,35.064 5.562,-9.687 16.441,-31.731 15.779,-61.362 -0.875,-39.199 -21.363,-65.665 -28.051,-73.635 13.265,11.065 40.391,30.72 78.895,35.064 13.16,1.485 25.022,1.12 35.064,0" /></g><g
           transform="translate(1543.7875,1229.6542)"
           id="g314"><path
             id="path316"
             style="fill:#1e1e1c;fill-opacity:1;fill-rule:nonzero;stroke:none"
             d="m 0,0 c -13.682,-42.464 -33.127,-59.31 -49.09,-66.622 -16.853,-7.72 -31.303,-5.493 -57.856,-17.532 -17.394,-7.887 -30.265,-17.49 -38.571,-24.545 10.544,22.747 12.509,41.355 12.273,54.349 -0.558,30.639 -13.627,45.06 -10.52,73.635 1.997,18.358 9.602,32.737 15.779,42.078 7.067,-6.58 21.285,-21.662 28.052,-45.584 9.949,-35.171 -10.32,-78.377 -14.026,-85.908 6.72,10.385 34.084,52.774 71.882,64.869 C -25.5,0.045 -10.63,0.6 0,0" /></g><g
           transform="translate(1573.5922,1445.2998)"
           id="g318"><path
             id="path320"
             style="fill:#1e1e1c;fill-opacity:1;fill-rule:nonzero;stroke:none"
             d="m 0,0 c 2.704,-12.69 4.425,-31.029 -3.506,-49.09 -8.463,-19.27 -22.227,-25.275 -42.078,-47.337 -9.383,-10.428 -21.838,-26.348 -33.311,-49.09 2.043,26.343 -4.193,43.446 -10.519,54.35 -12.129,20.908 -28.021,24.948 -36.818,45.583 -7.345,17.232 -4.996,34.9 -1.753,47.337 7.368,-2.805 16.024,-7.15 24.545,-14.025 28.208,-22.759 33.755,-56.137 35.065,-66.623 1.151,8.497 5.949,39.926 33.311,61.363 C -21.987,-7.286 -8.865,-2.425 0,0" /></g><g
           transform="translate(1545.5408,1557.5057)"
           id="g322"><path
             id="path324"
             style="fill:#1e1e1c;fill-opacity:1;fill-rule:nonzero;stroke:none"
             d="m 0,0 c 14.29,-31.812 11.794,-52.207 7.013,-64.869 -5.715,-15.135 -15.566,-21.525 -29.805,-47.337 -7.972,-14.451 -12.921,-27.018 -15.779,-35.064 -5.035,8.155 -13.066,20.137 -24.545,33.311 -19.863,22.797 -31.608,27.997 -42.077,45.584 -5.682,9.544 -11.945,24.344 -12.845,46.344 8.781,-1.681 19.452,-4.917 30.377,-11.28 36.171,-21.068 46.648,-59.829 49.09,-70.129 -1.511,12.348 -3.476,42.876 14.026,73.635 C -16.799,-16.192 -7.491,-6.489 0,0" /></g></g></g><g
       id="g326"><g
         clip-path="url(#clipPath332)"
         id="g328"><g
           transform="translate(543.6745,1124.9552)"
           id="g334"><path
             id="path336"
             style="fill:#1e1e1c;fill-opacity:1;fill-rule:nonzero;stroke:none"
             d="m 0,0 c -1.626,-252.917 200.333,-458.681 452.759,-461.285 251.942,-2.6 460.901,204.32 462.396,457.882 C 916.622,245.606 712.758,451.72 462.733,454.012 205.657,456.368 1.647,256.203 0,0 m 456.307,-534.708 c -295.731,0.434 -534.292,239.741 -532.735,534.401 1.544,292.179 242.317,531.91 533.225,530.92 292.811,-0.996 532.106,-239.889 532.289,-531.396 0.187,-296.178 -237.482,-534.358 -532.779,-533.925" /></g><g
           transform="translate(1241.0184,967.3139)"
           id="g338"><path
             id="path340"
             style="fill:#1e1e1c;fill-opacity:1;fill-rule:nonzero;stroke:none"
             d="m 0,0 -162.198,11.599 -15.111,295.295 61.275,-4.382 11.819,-240.01 57.62,-4.828 16.496,230.681 50.57,-2.084 z m -204.74,251.566 h -78.741 l -0.691,-191.295 h 77.935 l 1.497,-49.594 h -132.57 v 294.027 l 132.57,7.085 z m -238.092,-77.52 52.925,8.458 2.79,-52.048 -56.005,-3.001 6.781,-126.517 -50.446,-2.703 -15.721,293.329 125.186,21.392 2.746,-51.241 -72.504,-8.396 z m 203.672,364.9 c -213.54,1.33 -384.488,-168.125 -384.833,-381.473 -0.353,-218.031 166.207,-385.026 384.234,-385.236 215.733,-0.209 381.608,166.034 381.716,382.562 0.108,215.924 -165.456,382.804 -381.117,384.147" /></g><g
           transform="translate(536.8071,1693.5796)"
           id="g342"><path
             id="path344"
             style="fill:#1e1e1c;fill-opacity:1;fill-rule:nonzero;stroke:none"
             d="M 0,0 C 0,0 120.979,0 128.896,88.526 128.896,88.526 48.287,120.717 0,0" /></g><g
           transform="translate(437.5509,1597.006)"
           id="g346"><path
             id="path348"
             style="fill:#1e1e1c;fill-opacity:1;fill-rule:nonzero;stroke:none"
             d="m 0,0 c 13.413,26.826 18.778,40.239 16.096,67.065 -3.9,38.994 16.095,59.017 24.143,67.065 13.679,13.679 34.814,18.743 34.874,18.778 0,0 21.461,-40.239 -16.096,-96.573 0,0 83.161,34.873 99.256,2.682 -8.13,-13.422 -17,-20.609 -22.802,-24.479 C 105.401,14.48 76.185,29.129 29.509,13.413 15.935,8.843 5.691,3.323 0,0" /></g><g
           transform="translate(282.2604,1364.8347)"
           id="g350"><path
             id="path352"
             style="fill:#1e1e1c;fill-opacity:1;fill-rule:nonzero;stroke:none"
             d="m 0,0 c 6.987,36.363 8.886,54.096 -3.258,85.086 -17.652,45.045 -0.571,75.52 6.308,87.772 11.692,20.825 35.122,33.9 35.181,33.962 0,0 38.942,-40.663 13.109,-120.159 0,0 87.201,69.212 117.079,36.323 -5.183,-18.667 -13.326,-30.17 -18.93,-36.707 C 120.444,52.397 80.828,60.055 30.596,25.793 15.988,15.83 5.655,5.85 0,0" /></g><g
           transform="translate(230.3196,1228.9675)"
           id="g354"><path
             id="path356"
             style="fill:#1e1e1c;fill-opacity:1;fill-rule:nonzero;stroke:none"
             d="m 0,0 c 0.778,39.194 -0.416,58.038 -18.638,88.198 -26.486,43.841 -14.121,78.698 -9.138,92.715 8.47,23.823 30.576,41.662 30.628,41.738 0,0 47.915,-35.456 35.198,-123.031 0,0 78.593,87.836 115.659,58.87 -2.065,-20.407 -8.502,-33.868 -13.179,-41.692 C 116.291,76.244 73.584,77.14 27.305,32.394 13.848,19.381 4.853,7.117 0,0" /></g><g
           transform="translate(351.7077,1492.3845)"
           id="g358"><path
             id="path360"
             style="fill:#1e1e1c;fill-opacity:1;fill-rule:nonzero;stroke:none"
             d="m 0,0 c 0,0 10.73,45.604 2.683,93.891 -8.048,48.287 61.699,93.891 61.699,93.891 0,0 16.096,-72.43 -5.365,-112.669 0,0 64.383,37.556 109.987,24.143 C 158.273,56.335 99.256,34.874 75.113,32.191 -5.365,10.73 0,0 0,0" /></g><g
           transform="translate(126.3692,980.0077)"
           id="g362"><path
             id="path364"
             style="fill:#1e1e1c;fill-opacity:1;fill-rule:nonzero;stroke:none"
             d="m 0,0 c 14.831,-89.439 44.798,-121.208 71.089,-132.789 19.478,-8.579 44.73,-9.51 69.748,-32.191 17.051,-15.458 25.963,-33.74 30.849,-46.945 -3.679,18.08 -6.74,45.638 1.342,76.454 10.074,38.411 29.43,51.26 40.239,85.843 6.524,20.875 10.954,52.933 -2.627,98.221 -13.877,-9.476 -32.905,-25.308 -48.343,-49.934 -35.858,-57.202 -24.888,-118.053 -21.46,-134.13 -12.324,26.615 -38.207,72.064 -88.526,107.304 C 33.81,-15.211 15.762,-6.265 0,0" /></g><g
           transform="translate(351.6044,497.5443)"
           id="g366"><path
             id="path368"
             style="fill:#1e1e1c;fill-opacity:1;fill-rule:nonzero;stroke:none"
             d="m 0,0 c 14.735,-16.058 35.757,-34.165 64.486,-46.009 37.059,-15.28 64.179,-10.753 142.178,-13.413 34.602,-1.18 64.574,-3.275 88.525,-5.365 -19.298,29.002 -30.599,55.774 -37.556,77.795 -17.556,55.573 -9.019,85.868 -32.191,123.4 -15.751,25.511 -38.024,41.202 -56.335,50.969 -8.764,-13.801 -13.487,-26.74 -16.095,-37.556 C 134.658,73.724 209.769,-11.201 218.735,-20.524 187.43,-10.465 127.578,17.713 69.851,13.008 43.002,10.82 19.501,5.739 0,0" /></g><g
           transform="translate(479.1312,388.4942)"
           id="g370"><path
             id="path372"
             style="fill:#1e1e1c;fill-opacity:1;fill-rule:nonzero;stroke:none"
             d="m 0,0 c 27.333,-27.958 52.229,-37.049 69.748,-40.239 57.566,-10.481 93.046,32.284 177.051,34.874 24.983,0.77 45.496,-2.283 58.644,-4.889 -8.901,5.869 -22.282,15.981 -34.5,31.715 -37.975,48.896 -20.979,95.744 -50.97,147.543 -9.638,16.646 -27.196,39.103 -61.7,59.017 -6.556,-17.284 -15.383,-48.082 -10.73,-85.843 C 156.68,68.018 210.641,25.182 222.656,16.096 186.246,27.367 119.555,41.62 45.604,18.778 28.538,13.507 13.339,6.957 0,0" /></g><g
           transform="translate(622.0958,305.0172)"
           id="g374"><path
             id="path376"
             style="fill:#1e1e1c;fill-opacity:1;fill-rule:nonzero;stroke:none"
             d="m 0,0 c 64.941,-36.514 108.244,-35.005 136.026,-26.51 37.095,11.344 54.877,38.996 104.621,45.605 26.754,3.554 47.353,-0.908 67.065,-5.366 0.001,0 54.054,-12.223 179.735,-101.939 5.912,-3.751 13.361,-3.735 18.778,0 6.518,4.495 8.978,13.61 5.365,21.461 -52.918,39.495 -99.253,64.787 -131.447,80.478 -75.787,36.937 -100.009,33.725 -126.083,67.065 -33.218,42.477 -18.215,76.799 -55.569,123.999 -11.663,14.738 -32.668,35.342 -71.583,50.809 -4.085,-18.561 -8.46,-51.209 1.918,-88.923 C 149.206,92.61 210.498,57.104 224.078,49.658 185.357,55.68 115.389,60.208 43.581,25.919 27.01,18.006 12.529,9.071 0,0" /></g><g
           transform="translate(261.8405,643.3412)"
           id="g378"><path
             id="path380"
             style="fill:#1e1e1c;fill-opacity:1;fill-rule:nonzero;stroke:none"
             d="m 0,0 c 31.969,-58.521 65.822,-78.54 91.208,-85.843 28.743,-8.269 52.697,-1.984 99.257,-16.096 24.865,-7.536 44.101,-17.23 56.334,-24.143 -6.699,13.585 -16.559,35.777 -24.143,64.382 -18.61,70.194 -4.539,107.442 -29.509,160.956 -6.598,14.14 -17.765,33.368 -37.556,53.652 C 147.08,138.085 130.435,104.356 131.447,59.017 132.786,-0.961 164.136,-41.457 174.369,-53.652 154.073,-36.721 112.567,-6.648 53.652,0 33.516,2.272 15.366,1.714 0,0" /></g><g
           transform="translate(167.9495,801.6147)"
           id="g382"><path
             id="path384"
             style="fill:#1e1e1c;fill-opacity:1;fill-rule:nonzero;stroke:none"
             d="m 0,0 c 20.934,-64.974 50.687,-90.75 75.113,-101.939 25.786,-11.812 47.897,-8.405 88.526,-26.826 26.614,-12.067 46.308,-26.76 59.017,-37.556 -16.133,34.805 -19.14,63.278 -18.778,83.16 0.853,46.88 20.85,68.947 16.095,112.67 -3.054,28.089 -14.691,50.09 -24.143,64.382 C 185.016,83.824 163.262,60.746 152.908,24.143 137.685,-29.672 168.698,-95.782 174.369,-107.304 164.087,-91.415 122.218,-26.555 64.382,-8.048 39.018,0.069 16.265,0.919 0,0" /></g><g
           transform="translate(122.3453,1131.5747)"
           id="g386"><path
             id="path388"
             style="fill:#1e1e1c;fill-opacity:1;fill-rule:nonzero;stroke:none"
             d="m 0,0 c -4.137,-19.417 -6.771,-47.478 5.365,-75.113 12.948,-29.484 34.009,-38.673 64.383,-72.43 14.356,-15.956 33.415,-40.315 50.969,-75.113 -3.126,40.308 6.417,66.476 16.096,83.161 18.558,31.991 42.875,38.174 56.334,69.747 11.24,26.366 7.646,53.399 2.683,72.43 -11.273,-4.291 -24.518,-10.94 -37.557,-21.46 -43.161,-34.822 -51.647,-85.895 -53.652,-101.939 -1.761,13 -9.103,61.09 -50.969,93.891 C 33.642,-11.149 13.565,-3.711 0,0" /></g><g
           transform="translate(165.2669,1303.2611)"
           id="g390"><path
             id="path392"
             style="fill:#1e1e1c;fill-opacity:1;fill-rule:nonzero;stroke:none"
             d="m 0,0 c -21.865,-48.675 -18.046,-79.882 -10.73,-99.256 8.744,-23.158 23.817,-32.936 45.604,-72.43 12.198,-22.112 19.771,-41.341 24.143,-53.653 7.705,12.479 19.993,30.813 37.557,50.97 30.393,34.882 48.363,42.838 64.382,69.748 8.694,14.604 18.277,37.25 19.654,70.912 -13.435,-2.573 -29.763,-7.524 -46.48,-17.26 -55.345,-32.237 -71.376,-91.544 -75.113,-107.304 2.313,18.892 5.319,65.604 -21.461,112.669 C 25.705,-24.775 11.463,-9.929 0,0" /></g><g
           transform="translate(1463.1929,1693.5796)"
           id="g394"><path
             id="path396"
             style="fill:#1e1e1c;fill-opacity:1;fill-rule:nonzero;stroke:none"
             d="m 0,0 c 0,0 -120.979,0 -128.896,88.526 0,0 80.609,32.191 128.896,-88.526" /></g><g
           transform="translate(1562.4491,1597.006)"
           id="g398"><path
             id="path400"
             style="fill:#1e1e1c;fill-opacity:1;fill-rule:nonzero;stroke:none"
             d="m 0,0 c -13.413,26.826 -18.778,40.239 -16.096,67.065 3.9,38.994 -16.095,59.017 -24.143,67.065 -13.679,13.679 -34.814,18.743 -34.874,18.778 0,0 -21.461,-40.239 16.096,-96.573 0,0 -83.161,34.873 -99.256,2.682 8.131,-13.422 17,-20.609 22.802,-24.479 30.07,-20.058 59.286,-5.409 105.962,-21.125 C -15.935,8.843 -5.691,3.323 0,0" /></g><g
           transform="translate(1717.7396,1364.8347)"
           id="g402"><path
             id="path404"
             style="fill:#1e1e1c;fill-opacity:1;fill-rule:nonzero;stroke:none"
             d="m 0,0 c -6.987,36.363 -8.886,54.096 3.258,85.086 17.652,45.045 0.571,75.52 -6.308,87.772 -11.692,20.825 -35.122,33.9 -35.181,33.962 0,0 -38.942,-40.663 -13.109,-120.159 0,0 -87.202,69.212 -117.079,36.323 5.183,-18.667 13.326,-30.17 18.93,-36.707 29.045,-33.88 68.661,-26.222 118.893,-60.484 C -15.988,15.83 -5.655,5.85 0,0" /></g><g
           transform="translate(1769.6804,1228.9675)"
           id="g406"><path
             id="path408"
             style="fill:#1e1e1c;fill-opacity:1;fill-rule:nonzero;stroke:none"
             d="m 0,0 c -0.778,39.194 0.416,58.038 18.638,88.198 26.486,43.841 14.121,78.698 9.138,92.715 -8.47,23.823 -30.577,41.662 -30.628,41.738 0,0 -47.915,-35.456 -35.198,-123.031 0,0 -78.593,87.836 -115.659,58.87 2.065,-20.407 8.502,-33.868 13.179,-41.692 C -116.291,76.244 -73.584,77.14 -27.305,32.394 -13.848,19.381 -4.853,7.117 0,0" /></g><g
           transform="translate(1648.2924,1492.3845)"
           id="g410"><path
             id="path412"
             style="fill:#1e1e1c;fill-opacity:1;fill-rule:nonzero;stroke:none"
             d="m 0,0 c 0,0 -10.73,45.604 -2.683,93.891 8.048,48.287 -61.699,93.891 -61.699,93.891 0,0 -16.096,-72.43 5.365,-112.669 0,0 -64.383,37.556 -109.987,24.143 10.731,-42.921 69.748,-64.382 93.891,-67.065 C 5.365,10.73 0,0 0,0" /></g><g
           transform="translate(1873.6309,980.0077)"
           id="g414"><path
             id="path416"
             style="fill:#1e1e1c;fill-opacity:1;fill-rule:nonzero;stroke:none"
             d="m 0,0 c -14.831,-89.439 -44.798,-121.208 -71.089,-132.789 -19.478,-8.579 -44.73,-9.51 -69.748,-32.191 -17.051,-15.458 -25.963,-33.74 -30.85,-46.945 3.68,18.08 6.741,45.638 -1.341,76.454 -10.074,38.411 -29.43,51.26 -40.239,85.843 -6.524,20.875 -10.954,52.933 2.627,98.221 13.877,-9.476 32.905,-25.308 48.343,-49.934 35.858,-57.202 24.888,-118.053 21.46,-134.13 12.324,26.615 38.207,72.064 88.526,107.304 C -33.81,-15.211 -15.762,-6.265 0,0" /></g><g
           transform="translate(1648.3955,497.5443)"
           id="g418"><path
             id="path420"
             style="fill:#1e1e1c;fill-opacity:1;fill-rule:nonzero;stroke:none"
             d="m 0,0 c -14.735,-16.058 -35.757,-34.165 -64.486,-46.009 -37.059,-15.28 -64.179,-10.753 -142.177,-13.413 -34.603,-1.18 -64.575,-3.275 -88.526,-5.365 19.298,29.002 30.599,55.774 37.556,77.795 17.556,55.573 9.019,85.868 32.191,123.4 15.751,25.511 38.024,41.202 56.335,50.969 8.764,-13.801 13.487,-26.74 16.096,-37.556 18.353,-76.097 -56.758,-161.022 -65.724,-170.345 31.305,10.059 91.157,38.237 148.884,33.532 C -43.002,10.82 -19.501,5.739 0,0" /></g><g
           transform="translate(1520.8688,388.4942)"
           id="g422"><path
             id="path424"
             style="fill:#1e1e1c;fill-opacity:1;fill-rule:nonzero;stroke:none"
             d="m 0,0 c -27.333,-27.958 -52.229,-37.049 -69.748,-40.239 -57.566,-10.481 -93.046,32.284 -177.051,34.874 -24.983,0.77 -45.496,-2.283 -58.644,-4.889 8.901,5.869 22.282,15.981 34.5,31.715 37.975,48.896 20.979,95.744 50.97,147.543 9.638,16.646 27.196,39.103 61.7,59.017 6.556,-17.284 15.382,-48.082 10.73,-85.843 -9.138,-74.16 -63.098,-116.996 -75.113,-126.082 36.41,11.271 103.101,25.524 177.052,2.682 C -28.538,13.507 -13.339,6.957 0,0" /></g><g
           transform="translate(1377.9042,305.0172)"
           id="g426"><path
             id="path428"
             style="fill:#1e1e1c;fill-opacity:1;fill-rule:nonzero;stroke:none"
             d="m 0,0 c -64.941,-36.514 -108.244,-35.005 -136.026,-26.51 -37.095,11.344 -54.877,38.996 -104.621,45.605 -26.754,3.554 -47.353,-0.908 -67.065,-5.366 -0.001,0 -54.054,-12.223 -179.735,-101.939 -5.912,-3.751 -13.362,-3.735 -18.778,0 -6.518,4.495 -8.978,13.61 -5.365,21.461 52.918,39.495 99.253,64.787 131.447,80.478 75.787,36.937 100.009,33.725 126.083,67.065 33.218,42.477 18.215,76.799 55.569,123.999 11.663,14.738 32.668,35.342 71.583,50.809 4.085,-18.561 8.46,-51.209 -1.918,-88.923 -20.38,-74.069 -81.672,-109.575 -95.252,-117.021 38.721,6.022 108.689,10.55 180.497,-23.739 C -27.01,18.006 -12.529,9.071 0,0" /></g><g
           transform="translate(1738.1594,643.3412)"
           id="g430"><path
             id="path432"
             style="fill:#1e1e1c;fill-opacity:1;fill-rule:nonzero;stroke:none"
             d="m 0,0 c -31.969,-58.521 -65.822,-78.54 -91.208,-85.843 -28.743,-8.269 -52.697,-1.984 -99.257,-16.096 -24.865,-7.536 -44.101,-17.23 -56.334,-24.143 6.699,13.585 16.559,35.777 24.143,64.382 18.61,70.194 4.539,107.442 29.509,160.956 6.598,14.14 17.765,33.368 37.556,53.652 8.511,-14.823 25.156,-48.552 24.144,-93.891 -1.339,-59.978 -32.689,-100.474 -42.922,-112.669 C -154.073,-36.721 -112.567,-6.648 -53.652,0 -33.516,2.272 -15.366,1.714 0,0" /></g><g
           transform="translate(1832.0505,801.6147)"
           id="g434"><path
             id="path436"
             style="fill:#1e1e1c;fill-opacity:1;fill-rule:nonzero;stroke:none"
             d="m 0,0 c -20.934,-64.974 -50.687,-90.75 -75.113,-101.939 -25.786,-11.812 -47.897,-8.405 -88.526,-26.826 -26.614,-12.067 -46.308,-26.76 -59.017,-37.556 16.133,34.805 19.14,63.278 18.778,83.16 -0.853,46.88 -20.85,68.947 -16.095,112.67 3.054,28.089 14.691,50.09 24.143,64.382 10.814,-10.067 32.568,-33.145 42.922,-69.748 15.223,-53.815 -15.79,-119.925 -21.461,-131.447 10.282,15.889 52.151,80.749 109.987,99.256 C -39.018,0.069 -16.265,0.919 0,0" /></g><g
           transform="translate(1877.6547,1131.5747)"
           id="g438"><path
             id="path440"
             style="fill:#1e1e1c;fill-opacity:1;fill-rule:nonzero;stroke:none"
             d="m 0,0 c 4.137,-19.417 6.771,-47.478 -5.365,-75.113 -12.948,-29.484 -34.009,-38.673 -64.383,-72.43 -14.356,-15.956 -33.415,-40.315 -50.969,-75.113 3.126,40.308 -6.417,66.476 -16.096,83.161 -18.558,31.991 -42.875,38.174 -56.334,69.747 -11.239,26.366 -7.646,53.399 -2.683,72.43 11.273,-4.291 24.518,-10.94 37.557,-21.46 43.161,-34.822 51.647,-85.895 53.652,-101.939 1.761,13 9.103,61.09 50.969,93.891 C -33.642,-11.149 -13.565,-3.711 0,0" /></g><g
           transform="translate(1834.7332,1303.2611)"
           id="g442"><path
             id="path444"
             style="fill:#1e1e1c;fill-opacity:1;fill-rule:nonzero;stroke:none"
             d="m 0,0 c 21.865,-48.675 18.046,-79.882 10.73,-99.256 -8.744,-23.158 -23.817,-32.936 -45.604,-72.43 -12.198,-22.112 -19.771,-41.341 -24.143,-53.653 -7.705,12.479 -19.993,30.813 -37.557,50.97 -30.393,34.882 -48.363,42.838 -64.382,69.748 -8.694,14.604 -18.277,37.25 -19.654,70.912 13.435,-2.573 29.763,-7.524 46.48,-17.26 55.345,-32.237 71.376,-91.544 75.113,-107.304 -2.313,18.892 -5.319,65.604 21.46,112.669 C -25.705,-24.775 -11.463,-9.929 0,0" /></g></g></g></g></svg>