<?xml version="1.0" encoding="UTF-8"?>
<svg id="Capa_2" data-name="Capa 2" xmlns="http://www.w3.org/2000/svg" viewBox="0 0 867 131.88">
  <defs>
    <style>
      .cls-1 {
        fill: #fff;
      }

      .cls-2 {
        fill: #d3d2d1;
        opacity: .6;
      }
    </style>
  </defs>
  <g id="Capa_1-2" data-name="Capa 1">
    <g>
      <path class="cls-1" d="M0,1.62H95V34.04H37.93v14.43h53.01v29.5H37.93v37.12H0V1.62Z"/>
      <path class="cls-1" d="M155.46,1.62h37.93V82.68h53.33v32.42h-91.27V1.62Z"/>
      <path class="cls-1" d="M255,1.62h39.55l24.32,39.88L343.18,1.62h39.55V115.1h-37.77V58.85l-26.1,40.37h-.65l-26.1-40.37v56.25h-37.12V1.62Z"/>
      <path class="cls-1" d="M404.95,1.62h19.94V115.1h-19.94V1.62Z"/>
      <path class="cls-1" d="M455.2,1.62h18.48l60.79,78.46V1.62h19.61V115.1h-16.7l-62.57-80.73V115.1h-19.61V1.62Z"/>
      <path class="cls-1" d="M584.4,1.62h19.94V115.1h-19.94V1.62Z"/>
      <path class="cls-1" d="M674.37,116.72c-8.75,0-17.13-1.49-25.13-4.46-8-2.97-15.4-7.54-22.21-13.7l12-14.26c5.51,4.76,11.1,8.4,16.78,10.94,5.67,2.54,12.02,3.81,19.05,3.81,6.16,0,11.05-1.32,14.67-3.97,3.62-2.65,5.43-6.08,5.43-10.29v-.32c0-2.05-.35-3.86-1.05-5.43-.71-1.57-2-3.05-3.89-4.46-1.89-1.4-4.49-2.7-7.78-3.89-3.3-1.19-7.59-2.38-12.89-3.57-6.05-1.4-11.43-3-16.13-4.78-4.7-1.78-8.65-3.94-11.83-6.48-3.19-2.54-5.62-5.65-7.3-9.32-1.68-3.67-2.51-8.11-2.51-13.29v-.32c0-4.86,.97-9.32,2.92-13.37,1.95-4.05,4.62-7.51,8.02-10.38,3.41-2.86,7.48-5.11,12.24-6.73,4.75-1.62,9.94-2.43,15.56-2.43,8.32,0,15.81,1.22,22.45,3.65,6.65,2.43,12.89,5.97,18.72,10.62l-10.7,15.08c-5.19-3.78-10.32-6.67-15.4-8.67-5.08-2-10.21-3-15.4-3-5.84,0-10.38,1.3-13.62,3.89-3.24,2.59-4.86,5.78-4.86,9.56v.32c0,2.16,.38,4.08,1.13,5.75,.76,1.68,2.16,3.19,4.22,4.54,2.05,1.35,4.81,2.62,8.27,3.81,3.46,1.19,7.94,2.43,13.45,3.73,5.94,1.51,11.19,3.19,15.73,5.03,4.54,1.84,8.35,4.08,11.43,6.73,3.08,2.65,5.37,5.73,6.89,9.24,1.51,3.51,2.27,7.59,2.27,12.24v.32c0,5.3-1,10.05-3,14.27-2,4.21-4.78,7.78-8.35,10.7-3.57,2.92-7.84,5.13-12.81,6.65-4.97,1.51-10.43,2.27-16.37,2.27Z"/>
      <path class="cls-1" d="M763.85,20.1h-35.99V1.62h92.08V20.1h-35.99V115.1h-20.1V20.1Z"/>
      <path class="cls-1" d="M104.24,1.62h37.93V115.1h-37.93V1.62Z"/>
      <polygon class="cls-2" points="828.79 23.98 .86 67.26 828.79 82.94 828.79 23.98"/>
      <path class="cls-1" d="M867,109.95c0,12.29-9.64,21.93-22.2,21.93s-22.32-9.64-22.32-21.93,9.91-21.67,22.32-21.67,22.2,9.64,22.2,21.67Zm-38.97,0c0,9.64,7.14,17.31,16.91,17.31s16.52-7.66,16.52-17.17-7-17.44-16.65-17.44-16.78,7.79-16.78,17.31Zm13.34,11.36h-5.02v-21.67c1.98-.4,4.76-.66,8.33-.66,4.09,0,5.95,.66,7.53,1.58,1.19,.93,2.11,2.64,2.11,4.76,0,2.38-1.85,4.23-4.49,5.02v.26c2.12,.79,3.31,2.38,3.97,5.29,.66,3.3,1.06,4.62,1.58,5.42h-5.42c-.66-.79-1.05-2.77-1.72-5.28-.39-2.38-1.72-3.44-4.49-3.44h-2.38v8.72Zm.13-12.29h2.38c2.77,0,5.02-.93,5.02-3.17,0-1.98-1.46-3.3-4.63-3.3-1.32,0-2.24,.13-2.78,.26v6.21Z"/>
    </g>
  </g>
</svg>