<?xml version="1.0" encoding="UTF-8" standalone="no"?>
<svg
   xmlns:dc="http://purl.org/dc/elements/1.1/"
   xmlns:cc="http://creativecommons.org/ns#"
   xmlns:rdf="http://www.w3.org/1999/02/22-rdf-syntax-ns#"
   xmlns:svg="http://www.w3.org/2000/svg"
   xmlns="http://www.w3.org/2000/svg"
   viewBox="0 0 1440 1200"
   height="1200"
   width="1440"
   xml:space="preserve"
   id="svg2"
   version="1.1"><metadata
     id="metadata8"><rdf:RDF><cc:Work
         rdf:about=""><dc:format>image/svg+xml</dc:format><dc:type
           rdf:resource="http://purl.org/dc/dcmitype/StillImage" /></cc:Work></rdf:RDF></metadata><defs
     id="defs6"><clipPath
       id="clipPath38"
       clipPathUnits="userSpaceOnUse"><path
         id="path36"
         d="M 0,900 H 1080 V 0 H 0 Z" /></clipPath><clipPath
       id="clipPath56"
       clipPathUnits="userSpaceOnUse"><path
         id="path54"
         d="M 101.865,529.465 H 929.788 V 470.509 H 101.865 Z" /></clipPath></defs><g
     transform="matrix(1.3333333,0,0,-1.3333333,0,1200)"
     id="g10"><g
       transform="translate(101,551.8271)"
       id="g12"><path
         id="path14"
         style="fill:#000000;fill-opacity:1;fill-rule:nonzero;stroke:none"
         d="M 0,0 H 94.996 V -32.422 H 37.934 V -46.85 h 53.01 v -29.504 h -53.01 v -37.124 H 0 Z" /></g><g
       transform="translate(256.4614,551.8271)"
       id="g16"><path
         id="path18"
         style="fill:#000000;fill-opacity:1;fill-rule:nonzero;stroke:none"
         d="m 0,0 h 37.933 v -81.056 h 53.334 v -32.422 H 0 Z" /></g><g
       transform="translate(355.9976,551.8271)"
       id="g20"><path
         id="path22"
         style="fill:#000000;fill-opacity:1;fill-rule:nonzero;stroke:none"
         d="M 0,0 H 39.554 L 63.871,-39.88 88.187,0 h 39.554 v -113.478 h -37.77 v 56.253 l -26.1,-40.366 h -0.649 l -26.1,40.366 v -56.253 H 0 Z" /></g><path
       id="path24"
       style="fill:#8f3289;fill-opacity:1;fill-rule:nonzero;stroke:none"
       d="m 505.948,551.827 h 19.94 V 438.349 h -19.94 z" /><g
       transform="translate(556.1992,551.8271)"
       id="g26"><path
         id="path28"
         style="fill:#8f3289;fill-opacity:1;fill-rule:nonzero;stroke:none"
         d="M 0,0 H 18.48 L 79.271,-78.462 V 0 H 98.886 V -113.478 H 82.188 l -62.574,80.732 v -80.732 H 0 Z" /></g><path
       id="path30"
       style="fill:#8f3289;fill-opacity:1;fill-rule:nonzero;stroke:none"
       d="m 685.398,551.827 h 19.94 V 438.349 h -19.94 z" /><g
       id="g32"><g
         clip-path="url(#clipPath38)"
         id="g34"><g
           transform="translate(775.3691,436.7285)"
           id="g40"><path
             id="path42"
             style="fill:#8f3289;fill-opacity:1;fill-rule:nonzero;stroke:none"
             d="m 0,0 c -8.755,0 -17.13,1.487 -25.127,4.459 -7.999,2.97 -15.4,7.537 -22.209,13.698 l 11.996,14.265 c 5.512,-4.757 11.105,-8.404 16.779,-10.943 5.672,-2.54 12.021,-3.809 19.046,-3.809 6.161,0 11.05,1.323 14.673,3.972 3.618,2.647 5.43,6.079 5.43,10.294 v 0.324 c 0,2.052 -0.353,3.863 -1.053,5.431 -0.706,1.565 -2.002,3.052 -3.891,4.458 -1.892,1.403 -4.487,2.7 -7.782,3.891 -3.298,1.187 -7.593,2.376 -12.888,3.565 -6.053,1.404 -11.428,3 -16.129,4.783 -4.702,1.783 -8.648,3.944 -11.833,6.485 -3.191,2.537 -5.622,5.646 -7.296,9.32 -1.677,3.674 -2.513,8.106 -2.513,13.294 v 0.324 c 0,4.863 0.974,9.321 2.918,13.375 1.946,4.052 4.621,7.51 8.025,10.375 3.405,2.861 7.481,5.106 12.24,6.727 4.754,1.621 9.941,2.432 15.561,2.432 8.323,0 15.806,-1.216 22.451,-3.648 6.649,-2.431 12.889,-5.973 18.725,-10.618 l -10.7,-15.077 c -5.187,3.782 -10.321,6.672 -15.401,8.674 -5.079,1.998 -10.211,2.998 -15.398,2.998 -5.838,0 -10.376,-1.297 -13.619,-3.89 -3.24,-2.594 -4.862,-5.783 -4.862,-9.565 V 85.27 c 0,-2.163 0.378,-4.081 1.133,-5.755 0.756,-1.676 2.162,-3.189 4.216,-4.539 2.053,-1.352 4.808,-2.622 8.268,-3.809 3.458,-1.191 7.944,-2.433 13.454,-3.729 5.943,-1.515 11.187,-3.188 15.726,-5.025 4.539,-1.839 8.347,-4.081 11.427,-6.728 3.081,-2.649 5.375,-5.729 6.892,-9.24 1.511,-3.514 2.269,-7.594 2.269,-12.239 v -0.324 c 0,-5.298 -1.001,-10.051 -3,-14.266 -2,-4.215 -4.782,-7.782 -8.347,-10.7 C 25.612,5.999 21.344,3.782 16.372,2.27 11.4,0.758 5.943,0 0,0" /></g><g
           transform="translate(864.8525,533.3457)"
           id="g44"><path
             id="path46"
             style="fill:#8f3289;fill-opacity:1;fill-rule:nonzero;stroke:none"
             d="M 0,0 H -35.986 V 18.481 H 56.091 V 0 H 20.103 V -94.996 H 0 Z" /></g><path
           id="path48"
           style="fill:#000000;fill-opacity:1;fill-rule:nonzero;stroke:none"
           d="m 205.235,551.827 h 37.934 V 438.349 h -37.934 z" /><g
           id="g50"><g
             id="g52" /><g
             id="g64"><g
               style="opacity:0.60000598"
               id="g62"
               clip-path="url(#clipPath56)"><g
                 id="g60"
                 transform="translate(929.7881,529.4653)"><path
                   id="path58"
                   style="fill:#ffffff;fill-opacity:1;fill-rule:nonzero;stroke:none"
                   d="M 0,0 -827.923,-43.279 0,-58.956 Z" /></g></g></g></g><g
           transform="translate(942.502,444.4199)"
           id="g66"><path
             id="path68"
             style="fill:#000000;fill-opacity:1;fill-rule:nonzero;stroke:none"
             d="M 0,0 H 2.382 C 5.153,0 7.401,0.925 7.401,3.17 7.401,5.152 5.945,6.473 2.775,6.473 1.457,6.473 0.531,6.341 0,6.209 Z M -0.133,-12.286 H -5.152 V 9.38 c 1.983,0.396 4.758,0.66 8.326,0.66 4.095,0 5.945,-0.66 7.53,-1.585 1.187,-0.926 2.111,-2.643 2.111,-4.757 0,-2.377 -1.85,-4.227 -4.493,-5.019 v -0.264 c 2.116,-0.794 3.307,-2.378 3.967,-5.285 0.659,-3.303 1.058,-4.624 1.585,-5.416 H 8.455 c -0.659,0.792 -1.054,2.774 -1.718,5.284 -0.393,2.378 -1.716,3.435 -4.488,3.435 h -2.382 z m -13.342,11.36 c 0,-9.643 7.136,-17.305 16.911,-17.305 9.512,0 16.515,7.662 16.515,17.173 0,9.644 -7.003,17.439 -16.648,17.439 -9.642,0 -16.778,-7.795 -16.778,-17.307 m 38.973,0 c 0,-12.286 -9.642,-21.929 -22.195,-21.929 -12.417,0 -22.324,9.643 -22.324,21.929 0,12.024 9.907,21.667 22.324,21.667 12.553,0 22.195,-9.643 22.195,-21.667" /></g></g></g></g></svg>