<?xml version="1.0" standalone="no"?>
<!DOCTYPE svg PUBLIC "-//W3C//DTD SVG 20010904//EN"
 "http://www.w3.org/TR/2001/REC-SVG-20010904/DTD/svg10.dtd">
<svg version="1.0" xmlns="http://www.w3.org/2000/svg"
 width="887.000000pt" height="281.000000pt" viewBox="0 0 887.000000 281.000000"
 preserveAspectRatio="xMidYMid meet">

<g transform="translate(0.000000,281.000000) scale(0.100000,-0.100000)"
fill="#000000" stroke="none">
<path d="M6 2779 c-8 -41 -8 -2742 0 -2763 6 -15 140 -16 1420 -16 l1414 0 0
1405 0 1405 -1414 0 -1413 0 -7 -31z m2789 -41 c3 -24 4 -639 3 -1368 l-3
-1325 -1367 -3 -1368 -2 0 1363 c0 750 3 1367 7 1370 3 4 617 7 1364 7 l1358
0 6 -42z"/>
<path d="M153 2693 c-10 -4 -13 -271 -13 -1289 l0 -1284 1285 0 1285 0 0 1284
0 1283 -52 7 c-62 7 -2487 7 -2505 -1z m1582 -673 c134 -14 287 -55 382 -102
46 -22 90 -46 96 -52 7 -7 23 -20 37 -29 35 -24 130 -118 130 -129 0 -18 -24
-5 -128 72 -165 120 -279 161 -504 182 -219 19 -466 -10 -625 -73 -244 -97
-388 -215 -488 -397 -16 -31 -39 -58 -50 -62 -29 -11 -85 11 -108 42 l-20 26
26 44 c59 102 237 249 396 328 125 62 200 88 335 115 216 43 358 53 521 35z
m-320 -120 c3 -5 -7 -13 -22 -16 -33 -8 -97 -47 -128 -78 -117 -114 -140 -332
-44 -414 53 -45 105 -61 200 -61 99 -1 148 13 229 66 69 44 106 92 126 159 24
82 1 143 -71 195 -52 37 -48 60 7 38 51 -21 83 -50 108 -99 18 -36 21 -56 18
-119 -6 -134 -68 -227 -205 -304 -172 -98 -372 -85 -473 30 -57 65 -83 135
-83 227 -1 132 55 244 160 325 61 47 163 76 178 51z m255 -774 c213 -29 257
-37 375 -67 129 -33 223 -63 268 -86 22 -11 27 -20 27 -51 0 -25 -7 -46 -20
-60 -32 -34 -89 -29 -236 24 -261 93 -450 145 -609 169 -128 19 -194 19 -315
0 -180 -28 -304 -81 -522 -222 -74 -48 -78 -49 -78 -29 0 15 93 97 164 145
150 100 341 161 576 184 91 9 275 5 370 -7z"/>
<path d="M6990 2691 c-101 -21 -170 -113 -156 -205 14 -83 62 -121 201 -155
50 -13 100 -29 113 -37 27 -18 29 -55 4 -77 -36 -33 -166 -13 -234 35 l-27 19
-28 -32 c-15 -17 -34 -38 -40 -45 -19 -19 -16 -27 20 -50 86 -55 217 -83 299
-64 117 27 178 90 178 185 0 51 -16 89 -52 121 -34 31 -55 41 -157 68 -85 22
-131 46 -131 68 0 4 9 17 20 28 25 25 96 26 155 4 78 -30 80 -30 114 20 l31
45 -21 20 c-46 43 -203 71 -289 52z"/>
<path d="M3097 2683 c-4 -3 -7 -138 -7 -300 l0 -293 75 0 c41 0 75 3 76 8 0 4
0 41 0 82 0 132 11 250 23 250 6 -1 42 -50 80 -110 37 -60 72 -107 77 -105 4
3 29 41 55 84 54 92 90 138 98 130 4 -3 7 -80 9 -170 l2 -164 78 -3 77 -3 -2
298 -3 298 -82 3 -81 3 -72 -116 c-39 -63 -77 -115 -83 -115 -7 1 -24 20 -38
43 -15 23 -47 75 -73 115 l-46 72 -78 0 c-43 0 -82 -3 -85 -7z"/>
<path d="M3862 2473 c4 -231 6 -242 58 -311 50 -68 176 -104 285 -81 104 21
163 70 195 162 17 49 20 83 20 252 l0 196 -77 -3 -78 -3 -5 -200 c-4 -169 -8
-204 -23 -226 -45 -67 -155 -64 -200 5 -14 20 -17 60 -19 223 l-3 198 -78 3
-79 3 4 -218z"/>
<path d="M4755 2678 c-2 -7 -6 -108 -7 -225 -3 -199 -4 -213 -23 -227 -31 -24
-83 -20 -121 9 l-32 25 -49 -45 -48 -45 35 -31 c50 -45 90 -59 165 -59 99 0
163 33 202 104 14 26 18 70 21 269 l4 237 -72 0 c-47 0 -72 -4 -75 -12z"/>
<path d="M5027 2683 c-4 -3 -7 -138 -7 -300 l0 -293 245 0 246 0 -3 58 -3 57
-154 3 c-85 1 -160 7 -167 13 -7 5 -11 30 -10 57 l1 47 145 5 145 5 3 58 3 57
-146 0 -145 0 0 55 0 55 160 0 160 0 0 65 0 65 -233 0 c-129 0 -237 -3 -240
-7z"/>
<path d="M5619 2588 c-1 -120 -1 -206 0 -375 l1 -123 75 0 74 0 3 93 c3 88 4
92 27 95 49 7 68 -7 127 -98 l59 -89 83 -1 c64 0 81 3 76 13 -4 6 -35 52 -68
101 l-61 89 25 16 c119 76 141 216 49 311 -56 58 -109 70 -306 70 l-163 0 -1
-102z m339 -48 c17 -11 32 -28 33 -37 6 -89 -16 -107 -129 -108 l-87 0 -3 69
c-2 38 -1 75 2 83 9 22 144 17 184 -7z"/>
<path d="M6257 2683 c-4 -3 -7 -138 -7 -300 l0 -293 245 0 245 0 0 60 0 60
-159 0 c-115 0 -161 3 -169 13 -5 6 -9 32 -8 57 l1 45 143 5 c151 5 168 11
157 55 -2 11 -5 30 -5 43 0 22 -1 22 -144 22 l-144 0 -4 45 c-2 25 1 50 6 55
6 6 79 10 163 10 l153 0 0 65 0 65 -233 0 c-129 0 -237 -3 -240 -7z"/>
<path d="M7632 2328 c-5 -13 -8 -36 -6 -53 1 -16 3 -67 3 -112 l1 -83 96 0
c86 0 95 2 92 18 -3 13 -14 17 -53 18 -99 3 -95 2 -95 33 0 35 20 54 52 46 28
-6 77 6 78 20 0 6 -28 12 -62 15 l-63 5 0 35 0 35 73 3 c55 2 72 6 72 17 0 18
11 16 -93 21 -84 5 -87 4 -95 -18z"/>
<path d="M7932 2338 c-6 -7 -11 -67 -11 -135 -1 -117 0 -123 19 -123 21 0 21
1 24 109 1 32 6 56 13 58 7 3 36 -29 66 -69 64 -86 81 -102 102 -94 13 5 15
25 13 128 -3 115 -4 123 -23 123 -21 0 -21 -4 -24 -122 -1 -18 -5 -33 -10 -33
-5 0 -39 38 -76 85 -37 47 -71 85 -75 85 -4 0 -12 -6 -18 -12z"/>
<path d="M8428 2342 l-38 -3 0 -130 0 -129 96 0 c86 0 95 2 92 18 -3 14 -16
18 -76 20 l-72 3 0 29 c0 37 13 45 75 45 39 0 50 4 53 17 3 14 -7 17 -60 20
l-63 3 0 35 0 35 73 3 c53 2 72 6 72 17 0 23 -36 28 -152 17z"/>
<path d="M8680 2211 c0 -94 3 -130 13 -133 6 -2 49 -2 95 0 73 3 82 6 82 23 0
17 -8 19 -70 19 l-70 0 0 110 0 110 -25 0 -25 0 0 -129z"/>
<path d="M3290 1706 c-139 -50 -229 -184 -216 -321 12 -116 100 -234 203 -269
65 -22 180 -21 235 3 43 19 128 86 128 101 0 9 -96 80 -108 80 -5 0 -19 -11
-31 -24 -27 -29 -101 -48 -140 -36 -87 26 -124 77 -123 171 1 63 11 89 50 131
45 49 154 50 212 2 l30 -26 50 38 c28 21 50 44 50 50 0 21 -80 82 -128 98 -54
19 -163 20 -212 2z"/>
<path d="M3750 1410 l0 -300 75 0 75 0 0 300 0 300 -75 0 -75 0 0 -300z"/>
<path d="M4040 1410 l0 -300 70 0 70 0 1 98 c1 114 7 213 13 219 13 13 76 -59
220 -251 l49 -66 67 0 67 0 7 163 c8 173 7 403 -1 424 -4 9 -28 13 -79 13
l-74 0 0 -154 c0 -86 -4 -157 -9 -161 -6 -3 -36 27 -67 67 -32 40 -89 112
-128 161 l-69 87 -69 0 -68 0 0 -300z"/>
<path d="M4739 1693 c0 -10 0 -144 0 -298 l0 -280 238 0 238 0 3 58 3 57 -93
2 c-51 1 -124 2 -163 3 -38 0 -73 4 -77 10 -4 5 -8 31 -8 57 l0 47 148 3 147
3 3 58 3 58 -140 -2 c-77 0 -144 2 -150 6 -17 10 -14 95 3 101 8 3 83 6 168 7
l153 2 3 63 3 62 -241 0 c-222 0 -240 -1 -241 -17z"/>
<path d="M5541 1370 c-10 -5 0 -27 36 -80 42 -64 48 -80 48 -124 0 -45 3 -51
23 -54 21 -3 22 0 22 52 0 49 5 64 45 126 25 39 45 72 45 75 0 3 -9 5 -20 5
-13 0 -32 -19 -55 -55 -19 -31 -40 -53 -45 -50 -5 3 -21 28 -36 55 -28 51 -43
63 -63 50z"/>
<path d="M6367 1371 c-11 -4 -33 -41 -53 -86 -19 -44 -39 -89 -44 -100 -5 -11
-14 -32 -20 -47 -8 -24 -7 -28 9 -28 11 0 23 12 31 29 15 36 20 38 93 33 52
-3 59 -7 72 -33 15 -28 45 -40 45 -19 0 16 -89 225 -103 243 -7 9 -19 12 -30
8z m27 -83 c29 -70 29 -75 0 -81 -35 -6 -64 2 -64 20 0 16 38 93 46 93 3 0 11
-15 18 -32z"/>
<path d="M5980 1240 l0 -130 91 0 c81 0 90 2 87 18 -3 14 -16 18 -71 20 l-67
3 0 109 c0 103 -1 110 -20 110 -19 0 -20 -7 -20 -130z"/>
<path d="M7556 871 c-20 -32 -36 -64 -36 -70 0 -22 83 -13 110 12 14 12 40 33
58 46 18 13 31 26 28 29 -7 6 -106 42 -117 42 -4 0 -24 -26 -43 -59z"/>
<path d="M6480 719 c-82 -37 -113 -82 -114 -169 -1 -92 46 -138 179 -175 115
-31 145 -45 151 -71 11 -41 -10 -54 -90 -54 -57 0 -82 6 -129 29 l-58 28 -40
-46 -40 -45 27 -21 c66 -48 134 -68 235 -69 81 -1 103 3 146 22 68 32 103 86
103 160 0 96 -48 140 -200 181 -104 29 -130 44 -130 75 0 57 87 68 182 24 l57
-27 36 51 c34 46 35 51 20 68 -9 9 -45 27 -81 39 -86 28 -192 28 -254 0z"/>
<path d="M7432 721 c-65 -22 -133 -85 -169 -156 -22 -41 -26 -65 -27 -130 -1
-71 3 -88 32 -147 51 -105 136 -158 267 -165 66 -4 90 -1 137 16 227 86 279
369 97 524 -86 74 -223 98 -337 58z m209 -136 c15 -8 40 -35 55 -60 23 -40 26
-54 22 -109 -5 -85 -37 -128 -111 -152 -119 -37 -220 38 -218 163 0 57 20 110
51 138 49 44 137 53 201 20z"/>
<path d="M3060 665 l0 -64 93 -3 92 -3 3 -232 2 -233 75 0 75 0 2 233 3 232
90 5 90 5 2 63 3 62 -265 0 -265 0 0 -65z"/>
<path d="M3680 430 l0 -300 243 2 242 3 0 60 0 60 -165 5 -165 5 0 50 0 50
145 5 145 5 0 55 0 55 -145 5 -145 5 0 50 0 50 163 3 162 2 0 65 0 65 -240 0
-240 0 0 -300z"/>
<path d="M4272 433 l3 -298 228 -3 227 -2 0 65 0 64 -147 3 -148 3 -3 233 -2
232 -80 0 -80 0 2 -297z"/>
<path d="M4820 430 l0 -300 245 0 246 0 -3 63 -3 62 -165 5 -165 5 0 50 0 50
148 3 147 3 0 59 0 59 -147 3 -148 3 0 50 0 50 155 3 c85 1 158 6 163 11 4 4
9 33 10 64 l3 57 -243 0 -243 0 0 -300z"/>
<path d="M5384 703 c7 -26 125 -323 197 -495 l33 -78 73 0 c59 0 74 3 82 18
11 20 162 388 198 482 42 110 47 100 -49 100 l-85 0 -16 -52 c-31 -103 -110
-313 -122 -326 -14 -15 -17 -8 -103 233 l-50 140 -82 3 -82 3 6 -28z"/>
<path d="M6090 430 l0 -300 74 0 c69 0 74 2 78 22 2 13 4 147 3 298 l0 275
-77 3 -78 3 0 -301z"/>
<path d="M6960 430 l0 -301 78 3 77 3 3 298 2 297 -80 0 -80 0 0 -300z"/>
<path d="M7989 726 c-2 -2 -3 -137 -1 -300 l3 -296 74 0 75 0 0 165 c0 127 3
165 13 165 7 0 19 -10 27 -23 8 -13 66 -87 129 -165 l115 -142 63 0 63 0 1
108 c1 59 2 193 2 297 l1 190 -74 0 -73 0 2 -139 c1 -137 -3 -176 -18 -176 -4
0 -63 72 -132 160 l-124 160 -71 0 c-39 0 -73 -2 -75 -4z"/>
<path d="M8795 640 c3 -5 8 -10 11 -10 2 0 4 5 4 10 0 6 -5 10 -11 10 -5 0 -7
-4 -4 -10z"/>
</g>
</svg>
