<?xml version="1.0" standalone="no"?>
<!DOCTYPE svg PUBLIC "-//W3C//DTD SVG 20010904//EN"
 "http://www.w3.org/TR/2001/REC-SVG-20010904/DTD/svg10.dtd">
<svg version="1.0" xmlns="http://www.w3.org/2000/svg"
 width="1024.000000pt" height="329.000000pt" viewBox="0 0 1024.000000 329.000000"
 preserveAspectRatio="xMidYMid meet">

<g transform="translate(0.000000,329.000000) scale(0.100000,-0.100000)"
fill="#000000" stroke="none">
<path d="M10 1645 l0 -1645 1640 0 1640 0 0 1645 0 1645 -1640 0 -1640 0 0
-1645z m3205 0 l0 -1570 -1565 0 -1565 0 -3 1573 -2 1572 1567 -2 1568 -3 0
-1570z"/>
<path d="M160 1645 l0 -1495 1490 0 1490 0 -2 1492 -3 1493 -1487 3 -1488 2 0
-1495z m1890 694 c236 -32 446 -120 594 -249 100 -88 135 -145 43 -72 -211
168 -350 231 -592 268 -144 23 -423 15 -564 -16 -225 -48 -431 -138 -574 -251
-100 -79 -161 -152 -218 -261 l-40 -78 -44 0 c-51 0 -105 38 -105 74 0 38 95
152 195 235 336 279 836 413 1305 350z m-473 -153 c-143 -59 -227 -182 -235
-346 -5 -102 7 -152 48 -202 65 -78 218 -117 349 -89 183 39 331 185 331 328
0 29 -5 65 -12 80 -14 33 -80 99 -108 108 -11 4 -20 11 -20 16 0 11 0 11 41
-2 111 -38 166 -153 140 -295 -24 -131 -100 -230 -228 -297 -91 -48 -168 -67
-268 -67 -193 0 -301 82 -347 263 -19 73 -20 90 -9 157 27 175 148 327 291
363 76 20 93 9 27 -17z m378 -876 c253 -28 673 -134 725 -182 29 -27 26 -74
-6 -103 -47 -43 -85 -39 -288 35 -414 148 -639 200 -873 200 -262 0 -523 -90
-763 -262 -46 -32 -87 -57 -92 -56 -19 7 133 137 216 187 139 84 249 126 426
161 195 39 418 46 655 20z"/>
<path d="M8027 3126 c-105 -38 -159 -106 -160 -205 0 -65 18 -107 65 -146 41
-35 75 -49 189 -80 135 -36 163 -61 119 -105 -39 -39 -184 -19 -265 36 -33 22
-41 24 -49 12 -6 -8 -28 -35 -50 -61 -36 -45 -38 -48 -22 -66 55 -61 201 -105
327 -99 152 7 250 78 265 190 19 137 -50 206 -258 258 -46 12 -93 28 -105 36
-30 19 -30 59 -1 75 34 18 136 5 195 -25 29 -14 54 -26 57 -26 2 0 25 29 49
64 42 59 44 66 29 79 -22 19 -96 53 -147 66 -56 15 -192 13 -238 -3z"/>
<path d="M3560 2775 l0 -355 95 0 95 0 0 201 c0 173 2 200 14 190 8 -7 49 -66
91 -132 43 -65 81 -119 86 -119 5 0 14 11 21 24 28 51 153 236 161 236 4 0 7
-90 7 -200 l0 -200 95 0 95 0 0 355 0 355 -102 0 c-102 0 -103 0 -119 -28 -52
-87 -152 -242 -158 -242 -3 0 -43 61 -89 135 l-83 135 -105 0 -104 0 0 -355z"/>
<path d="M4442 2883 c3 -241 4 -249 29 -303 52 -112 132 -162 272 -168 164 -8
270 42 327 154 24 48 25 55 28 307 l3 257 -95 0 -96 0 0 -212 c0 -230 -6 -272
-46 -309 -21 -20 -36 -24 -89 -24 -49 0 -68 4 -85 20 -45 40 -50 70 -50 305
l0 220 -101 0 -101 0 4 -247z"/>
<path d="M5468 2874 c-3 -255 -3 -256 -27 -275 -37 -30 -93 -25 -136 13 l-36
31 -60 -58 -59 -59 28 -29 c54 -57 108 -80 196 -85 61 -3 91 0 121 12 68 28
111 64 136 114 23 46 24 54 27 320 l3 272 -95 0 -95 0 -3 -256z"/>
<path d="M5782 2778 l3 -353 288 -3 287 -2 0 80 0 80 -192 2 -193 3 0 57 0 58
173 0 172 0 0 75 0 75 -169 0 -169 0 -4 56 c-1 31 -1 58 1 60 2 2 87 4 188 4
l183 0 0 80 0 80 -285 0 -285 0 2 -352z"/>
<path d="M6470 2775 l0 -355 95 0 95 0 0 110 0 110 45 0 45 0 72 -110 73 -110
108 0 c59 0 107 3 107 6 0 3 -33 54 -73 112 -40 59 -76 112 -80 118 -4 7 11
23 36 38 131 83 140 279 16 378 -59 47 -120 58 -341 58 l-198 0 0 -355z m405
160 c17 -16 25 -35 25 -60 0 -25 -8 -44 -25 -60 -22 -23 -32 -25 -120 -25
l-95 0 0 85 0 85 95 0 c88 0 98 -2 120 -25z"/>
<path d="M7200 2775 l0 -355 290 0 290 0 0 80 0 80 -192 2 -193 3 -3 57 -3 58
173 2 173 3 3 72 3 73 -173 2 -173 3 0 55 0 55 188 3 187 2 0 80 0 80 -285 0
-285 0 0 -355z"/>
<path d="M8780 2570 l0 -161 123 3 122 3 3 28 3 27 -90 0 -91 0 0 35 0 35 59
0 c75 0 91 6 91 36 0 23 -3 24 -76 24 l-75 0 3 38 3 37 50 1 c111 1 115 2 115
29 l0 25 -120 0 -120 0 0 -160z"/>
<path d="M9130 2570 l0 -160 30 0 30 0 0 100 c0 55 3 100 8 100 4 0 40 -45 81
-100 63 -86 77 -100 102 -100 l29 0 0 160 0 160 -34 0 -35 0 0 -91 c0 -50 -2
-93 -4 -95 -2 -2 -35 38 -73 90 -62 85 -72 95 -101 95 l-33 1 0 -160z"/>
<path d="M9660 2570 l0 -160 120 0 120 0 0 30 0 30 -90 0 -90 0 0 35 0 34 78
3 c75 3 77 4 80 30 l3 27 -78 3 -78 3 0 35 0 35 85 0 85 0 3 28 3 27 -120 0
-121 0 0 -160z"/>
<path d="M10000 2570 l0 -160 115 0 115 0 0 30 0 30 -80 0 -80 0 0 130 0 130
-35 0 -35 0 0 -160z"/>
<path d="M3854 2010 c-197 -29 -325 -190 -311 -393 9 -134 83 -244 205 -304
51 -25 67 -28 162 -28 93 0 112 3 162 27 32 15 78 48 103 73 l45 47 -67 49
c-37 27 -71 49 -76 49 -5 0 -27 -16 -49 -35 -90 -76 -221 -47 -269 59 -22 49
-24 131 -5 177 49 117 198 145 288 54 l27 -27 62 49 c35 26 67 51 73 55 16 10
-60 85 -115 113 -65 34 -154 47 -235 35z"/>
<path d="M4317 1994 c-8 -8 -9 -631 -1 -672 l7 -32 93 0 94 0 0 355 0 355 -93
0 c-52 0 -96 -3 -100 -6z"/>
<path d="M4648 1645 l2 -355 95 0 95 0 2 197 3 196 59 -79 c33 -43 102 -132
153 -196 l93 -118 85 0 85 0 0 355 0 355 -97 0 -98 0 3 -170 c2 -94 -1 -177
-6 -185 -6 -12 -42 29 -151 170 l-144 185 -91 0 -91 0 3 -355z"/>
<path d="M5450 1645 l0 -355 285 0 285 0 0 80 0 80 -190 0 -190 0 0 60 0 60
170 0 170 0 0 75 0 75 -167 2 -168 3 -3 58 -3 57 191 0 190 0 0 80 0 80 -285
0 -285 0 0 -355z"/>
<path d="M7339 1612 c-24 -3 -33 -18 -90 -154 -35 -83 -65 -155 -67 -160 -2
-4 12 -8 31 -8 32 0 37 4 47 35 11 34 13 35 63 36 29 0 60 2 71 4 13 3 23 -7
35 -36 14 -34 20 -39 49 -39 17 0 32 2 32 5 0 12 -123 294 -133 307 -7 7 -24
12 -38 10z m31 -128 c11 -26 20 -50 20 -55 0 -5 -21 -9 -46 -9 -33 0 -45 4
-41 13 28 70 40 97 43 97 2 0 12 -21 24 -46z"/>
<path d="M6372 1588 c104 -164 108 -173 108 -236 l0 -62 30 0 30 0 0 63 c1 58
4 67 61 157 l60 95 -26 3 c-40 5 -50 -2 -84 -62 -17 -31 -35 -56 -40 -56 -5 0
-24 27 -43 60 -31 57 -34 60 -71 60 -38 0 -39 -1 -25 -22z"/>
<path d="M6890 1450 l0 -160 110 0 110 0 0 30 0 30 -80 0 -80 0 0 130 0 130
-30 0 -30 0 0 -160z"/>
<path d="M8700 1028 c-25 -46 -46 -86 -48 -90 -2 -5 25 -8 61 -8 60 0 67 2
107 38 24 20 54 47 68 59 15 12 24 24 22 26 -3 2 -36 15 -75 27 -38 13 -74 25
-80 27 -5 2 -30 -34 -55 -79z"/>
<path d="M8630 879 c-108 -21 -224 -108 -267 -200 -118 -253 60 -529 342 -529
158 0 293 85 357 227 18 39 23 66 22 143 0 88 -2 100 -32 158 -56 109 -152
179 -273 202 -59 11 -86 11 -149 -1z m159 -187 c58 -29 92 -81 98 -149 9 -100
-26 -170 -101 -204 -110 -50 -228 13 -257 137 -19 84 20 178 91 215 44 24 124
25 169 1z"/>
<path d="M7465 856 c-60 -28 -111 -77 -126 -124 -6 -19 -9 -60 -7 -92 7 -100
72 -158 219 -195 132 -33 159 -45 166 -72 18 -74 -121 -85 -248 -20 l-69 35
-50 -56 c-28 -31 -50 -59 -50 -64 0 -15 89 -67 148 -87 188 -64 379 -20 440
99 19 36 23 57 20 110 -6 115 -62 161 -263 214 -56 15 -106 34 -112 43 -23 30
-15 53 23 69 44 18 116 6 191 -32 26 -13 49 -24 50 -24 3 0 93 129 93 133 0 3
-19 16 -42 30 -68 39 -143 57 -242 57 -74 0 -100 -4 -141 -24z"/>
<path d="M10138 868 c5 -5 16 -8 23 -6 8 3 3 7 -10 11 -17 4 -21 3 -13 -5z"/>
<path d="M3522 788 l3 -83 105 -1 105 -2 3 -271 2 -271 95 0 95 0 0 270 0 270
88 1 c48 1 96 2 107 3 18 1 20 9 23 84 l3 82 -316 0 -316 0 3 -82z"/>
<path d="M4240 515 l0 -355 285 0 285 0 0 85 0 85 -190 0 -190 0 0 55 c0 30 5
55 10 55 6 0 76 1 156 1 80 0 152 3 160 6 20 7 20 139 0 146 -8 3 -84 6 -168
6 l-153 0 -3 55 -3 56 191 0 190 0 0 80 0 80 -285 0 -285 0 0 -355z"/>
<path d="M4920 515 l0 -355 268 2 267 3 3 83 3 82 -176 0 -175 0 0 270 0 270
-95 0 -95 0 0 -355z"/>
<path d="M5552 518 l3 -353 285 0 285 0 0 80 0 80 -193 3 -193 2 3 56 3 55
170 2 170 2 0 75 0 75 -170 2 -170 2 -3 55 -3 56 191 0 190 0 0 80 0 80 -285
0 -285 0 2 -352z"/>
<path d="M6189 848 c39 -101 265 -657 272 -670 8 -15 24 -18 98 -18 81 0 89 2
98 23 19 41 273 676 273 682 0 3 -47 5 -104 5 l-103 0 -79 -220 c-43 -121 -81
-220 -84 -220 -4 0 -82 206 -144 383 l-20 57 -108 0 c-107 0 -107 0 -99 -22z"/>
<path d="M7020 515 l0 -355 95 0 95 0 0 355 0 355 -95 0 -95 0 0 -355z"/>
<path d="M8020 515 l0 -355 95 0 95 0 0 355 0 355 -95 0 -95 0 0 -355z"/>
<path d="M9200 515 l0 -355 95 0 95 0 0 196 c0 138 3 193 11 188 6 -3 32 -34
57 -68 26 -35 91 -120 146 -189 l99 -127 83 0 84 0 0 355 0 355 -95 0 -95 0 0
-186 c0 -152 -2 -184 -13 -176 -7 6 -74 90 -148 186 l-134 175 -92 0 -93 1 0
-355z"/>
<path d="M10058 843 c-14 -16 -28 -39 -31 -52 -8 -31 15 -84 44 -105 31 -22
93 -21 110 2 11 14 11 15 -1 5 -17 -16 -74 -17 -102 -2 -11 6 -26 26 -34 45
-12 29 -12 39 -1 67 16 36 33 53 62 60 19 5 19 5 -1 6 -11 0 -32 -11 -46 -26z"/>
<path d="M10200 833 c16 -23 21 -42 18 -71 -2 -22 0 -38 4 -36 5 3 8 23 8 44
0 28 -7 47 -26 67 l-25 28 21 -32z"/>
<path d="M10090 770 c0 -27 5 -50 10 -50 6 0 10 9 10 20 0 27 24 25 43 -2 8
-13 18 -20 21 -17 4 4 0 14 -9 23 -15 14 -15 18 -1 31 24 25 9 45 -35 45 l-39
0 0 -50z m68 23 c2 -8 -6 -13 -22 -13 -17 0 -26 5 -26 16 0 19 41 16 48 -3z"/>
</g>
</svg>
