<?xml version="1.0" encoding="UTF-8"?>
<svg id="Capa_2" data-name="Capa 2" xmlns="http://www.w3.org/2000/svg" viewBox="0 0 1537.09 672.15">
  <defs>
    <style>
      .cls-1 {
        fill: #fff;
      }
    </style>
  </defs>
  <g id="Capa_1-2" data-name="Capa 1">
    <g>
      <path class="cls-1" d="M124.55,201.99l65.55-.27L173.27,10.9,0,0,1.44,354.5l62.88-.25-.56-137.16,68.4,119.21,70.7-.29L124.55,201.99Zm-62.06-49.24l-.37-90.14,66.53-.27,7.3,90.12-73.46,.3Z"/>
      <path class="cls-1" d="M339.5,24.5l-96.67,3.58-28.64,307.9,57.28-7.16,3.58-96.67h45.59l7.02,103.83h49.95L339.5,24.5Zm-60.86,161.11l10.78-93.09h14.28l10.74,96.67-35.8-3.58Z"/>
      <path class="cls-1" d="M969.62,24.5l-96.67,3.58-32.22,304.32,53.7-3.58,10.74-96.67h46.54l9.65,103.83h49.95L969.62,24.5Zm-60.86,161.11l10.78-93.09h14.28l10.74,96.67-35.8-3.58Z"/>
      <polygon class="cls-1" points="445.12 327.03 402.16 327.03 391.42 26.29 445.12 29.87 445.12 327.03"/>
      <polygon class="cls-1" points="477.34 33.45 471.97 332.4 518.51 325.24 529.05 140.86 596.96 335.98 643.82 328.82 638.45 19.13 599.3 26.29 597.28 214.25 540 31.66 477.34 33.45"/>
      <path class="cls-1" d="M668.88,17.34l5.37,309.69,134.26-12.53,32.22-279.26-171.85-17.9Zm100.25,249.92l-46.54,4.27-3.58-196.91,75.18,10.74-25.06,181.9Z"/>
      <polygon class="cls-1" points="1014.37 33.45 1029.7 327.03 1077.24 335.98 1069.87 153.39 1145.05 332.4 1188.02 332.4 1189.81 44.19 1143.26 47.77 1143.26 223.2 1071.04 31.66 1014.37 33.45"/>
      <polygon class="cls-1" points="1220.24 38.82 1220.24 335.98 1354.22 335.98 1352.71 285.86 1273.94 285.86 1274.64 92.53 1354.22 92.53 1354.22 31.66 1220.24 38.82"/>
      <polygon class="cls-1" points="1379.56 29.87 1388.51 339.56 1524.56 346.72 1524.56 293.6 1438.63 293.02 1438.63 207.09 1494.12 207.09 1494.12 160.55 1436.84 162.34 1436.84 83.58 1536.12 74.62 1537.09 15.55 1379.56 29.87"/>
    </g>
    <g>
      <polygon class="cls-1" points="230.31 545.42 262.53 549 267.26 350.3 232.1 352.65 230.31 545.42"/>
      <polygon class="cls-1" points="124.69 350.3 124.69 565.87 166.12 565.87 166.12 476.42 203.45 476.42 203.45 442.02 164.07 442.88 164.07 387.83 214.19 388.69 214.19 350.3 124.69 350.3"/>
      <polygon class="cls-1" points="291.99 353.88 291.99 544.43 364.21 549 364.56 513.2 321.6 513.2 327.83 353.88 291.99 353.88"/>
      <polygon class="cls-1" points="380.79 353.88 382.47 561.53 418.27 563.69 418.27 454.02 450.49 511.41 484.58 449.65 484.58 558.88 529.25 557.95 525.67 346.72 495.28 350.3 457.29 451.44 411.11 343.14 380.79 353.88"/>
      <polygon class="cls-1" points="603.32 353.88 603.32 569.08 640.33 569.08 640.33 476.26 681.41 476.26 681.41 438.08 642.37 442.19 642.37 384.03 695.73 380.73 695.73 343.14 603.32 353.88"/>
      <polygon class="cls-1" points="719.01 353.49 711.85 547.21 804.93 554.37 804.93 519.15 751.23 522.15 751.23 464.87 787.03 464.87 787.03 429.07 751.23 432.65 751.23 386.1 797.77 386.1 797.77 353.49 719.01 353.49"/>
      <polygon class="cls-1" points="817.74 343.14 817.74 461.29 887.28 472.03 887.28 529.31 822.83 522.15 821.26 563.69 926.03 563.69 926.03 437.49 851.47 425.49 851.47 382.52 912.34 386.1 912.34 346.72 817.74 343.14"/>
      <polygon class="cls-1" points="966.04 389.68 934.05 389.68 934.05 357.46 1035.68 357.46 1035.68 389.68 1001.61 389.68 1001.61 554.37 960.49 554.37 966.04 389.68"/>
      <polygon class="cls-1" points="1051.97 346.72 1051.97 557.92 1084.44 554.37 1087.97 353.49 1051.97 346.72"/>
      <polygon class="cls-1" points="1102.09 357.46 1123.57 550.79 1159.37 543.63 1202.34 353.88 1167.27 353.49 1145.05 489.93 1130.73 353.88 1102.09 357.46"/>
      <path class="cls-1" d="M1305.91,563.69l-21.15-216.97h-64.53l-39.38,214.81,36.94,2.16,13.18-77.34h34.99v77.34h39.95Zm-71.35-102.4l12.02-78.76h16.62l5.11,78.76h-33.76Z"/>
      <polygon class="cls-1" points="1320.01 353.49 1324.06 568.7 1409.3 563.69 1409.3 522.67 1359.87 532.89 1359.87 353.49 1320.01 353.49"/>
    </g>
    <g>
      <path class="cls-1" d="M281.32,615.58h12.75c8.6,0,12.59,4.54,12.59,13.54v28.68c0,9-3.98,13.54-12.59,13.54h-12.75v-55.77Zm12.59,50.11c4.38,0,6.53-2.15,6.53-7.65v-29.24c0-5.5-2.15-7.57-6.53-7.57h-6.37v44.45h6.37Z"/>
      <path class="cls-1" d="M329.2,615.58h6.21v55.77h-6.21v-55.77Z"/>
      <path class="cls-1" d="M356.93,658.61v-3.11h5.9v3.58c0,5.02,2.47,7.41,6.45,7.41s6.53-2.39,6.53-7.49-2.15-8.44-8.6-13.78c-7.73-6.37-10.28-10.83-10.28-17.13,0-8.37,4.46-13.3,12.51-13.3s12.27,4.94,12.27,13.46v2.23h-5.9v-2.63c0-5.02-2.31-7.41-6.37-7.41s-6.37,2.39-6.37,7.25,2.23,7.81,8.84,13.22c7.65,6.37,10.12,10.83,10.12,17.61,0,8.68-4.54,13.62-12.67,13.62s-12.43-4.94-12.43-13.54Z"/>
      <path class="cls-1" d="M402.82,658.84v-30.75c0-8.37,4.46-13.3,12.43-13.3s12.43,4.94,12.43,13.3v5.74h-5.9v-6.13c0-4.78-2.47-7.25-6.37-7.25s-6.37,2.47-6.37,7.25v31.55c0,4.78,2.47,7.25,6.37,7.25s6.37-2.47,6.37-7.25v-7.81h5.9v7.41c0,8.29-4.38,13.3-12.43,13.3s-12.43-5.02-12.43-13.3Z"/>
      <path class="cls-1" d="M448.95,658.37v-29.88c0-8.84,4.54-13.7,12.75-13.7s12.83,4.86,12.83,13.7v29.88c0,8.84-4.54,13.78-12.83,13.78s-12.75-4.94-12.75-13.78Zm19.36,.4v-30.67c0-5.26-2.39-7.65-6.61-7.65s-6.53,2.39-6.53,7.65v30.67c0,5.34,2.39,7.73,6.53,7.73s6.61-2.39,6.61-7.73Z"/>
      <path class="cls-1" d="M494.36,615.58h6.29l8.05,47.32,8.05-47.32h5.74l-9.88,55.77h-8.29l-9.96-55.77Z"/>
      <path class="cls-1" d="M543.2,615.58h22.86v5.66h-16.65v18.16h13.54v5.66h-13.54v20.63h16.65v5.66h-22.86v-55.77Z"/>
      <path class="cls-1" d="M587.1,615.58h12.19c8.84,0,12.59,3.98,12.59,12.67v3.43c0,6.13-1.99,9.8-6.45,11.23v.08c4.7,1.2,6.53,5.1,6.53,11.63v9.96c0,2.55,.08,4.78,.8,6.77h-6.29c-.48-1.59-.72-3.03-.72-6.77v-10.28c0-6.05-2.15-8.13-7.41-8.13h-5.02v25.17h-6.21v-55.77Zm11.23,24.94c4.86,0,7.33-2.07,7.33-7.65v-3.98c0-5.42-1.91-7.65-6.53-7.65h-5.82v19.28h5.02Z"/>
      <path class="cls-1" d="M635.3,663.31h6.29v8.05h-6.29v-8.05Z"/>
      <path class="cls-1" d="M693.62,615.58h12.43c8.84,0,12.59,3.98,12.59,12.67v2.31c0,5.97-1.99,9.64-6.21,11.15v.16c5.02,1.43,7.09,5.5,7.09,11.71v4.78c0,8.6-4.14,12.99-12.83,12.99h-13.07v-55.77Zm11.47,23.82c4.86,0,7.33-2.07,7.33-7.65v-2.87c0-5.42-1.91-7.65-6.53-7.65h-6.05v18.16h5.26Zm1.59,26.29c4.54,0,6.61-2.15,6.61-7.49v-4.78c0-6.13-2.23-8.37-7.89-8.37h-5.58v20.63h6.85Z"/>
      <path class="cls-1" d="M741.18,615.58h22.86v5.66h-16.65v18.16h13.54v5.66h-13.54v20.63h16.65v5.66h-22.86v-55.77Z"/>
      <path class="cls-1" d="M813.6,615.58h12.75c8.6,0,12.59,4.54,12.59,13.54v28.68c0,9-3.98,13.54-12.59,13.54h-12.75v-55.77Zm12.59,50.11c4.38,0,6.53-2.15,6.53-7.65v-29.24c0-5.5-2.15-7.57-6.53-7.57h-6.37v44.45h6.37Z"/>
      <path class="cls-1" d="M861.48,615.58h6.21v55.77h-6.21v-55.77Z"/>
      <path class="cls-1" d="M889.21,658.61v-3.11h5.9v3.58c0,5.02,2.47,7.41,6.45,7.41s6.53-2.39,6.53-7.49-2.15-8.44-8.6-13.78c-7.73-6.37-10.28-10.83-10.28-17.13,0-8.37,4.46-13.3,12.51-13.3s12.27,4.94,12.27,13.46v2.23h-5.9v-2.63c0-5.02-2.31-7.41-6.37-7.41s-6.37,2.39-6.37,7.25,2.23,7.81,8.84,13.22c7.65,6.37,10.12,10.83,10.12,17.61,0,8.68-4.54,13.62-12.67,13.62s-12.43-4.94-12.43-13.54Z"/>
      <path class="cls-1" d="M935.1,658.84v-30.75c0-8.37,4.46-13.3,12.43-13.3s12.43,4.94,12.43,13.3v5.74h-5.89v-6.13c0-4.78-2.47-7.25-6.37-7.25s-6.37,2.47-6.37,7.25v31.55c0,4.78,2.47,7.25,6.37,7.25s6.37-2.47,6.37-7.25v-7.81h5.89v7.41c0,8.29-4.38,13.3-12.43,13.3s-12.43-5.02-12.43-13.3Z"/>
      <path class="cls-1" d="M981.23,658.37v-29.88c0-8.84,4.54-13.7,12.75-13.7s12.83,4.86,12.83,13.7v29.88c0,8.84-4.54,13.78-12.83,13.78s-12.75-4.94-12.75-13.78Zm19.36,.4v-30.67c0-5.26-2.39-7.65-6.61-7.65s-6.53,2.39-6.53,7.65v30.67c0,5.34,2.39,7.73,6.53,7.73s6.61-2.39,6.61-7.73Z"/>
      <path class="cls-1" d="M1026.64,615.58h6.29l8.05,47.32,8.05-47.32h5.74l-9.88,55.77h-8.29l-9.96-55.77Z"/>
      <path class="cls-1" d="M1075.48,615.58h22.86v5.66h-16.65v18.16h13.54v5.66h-13.54v20.63h16.65v5.66h-22.86v-55.77Z"/>
      <path class="cls-1" d="M1119.38,615.58h12.19c8.84,0,12.59,3.98,12.59,12.67v3.43c0,6.13-1.99,9.8-6.45,11.23v.08c4.7,1.2,6.53,5.1,6.53,11.63v9.96c0,2.55,.08,4.78,.8,6.77h-6.29c-.48-1.59-.72-3.03-.72-6.77v-10.28c0-6.05-2.15-8.13-7.41-8.13h-5.02v25.17h-6.21v-55.77Zm11.23,24.94c4.86,0,7.33-2.07,7.33-7.65v-3.98c0-5.42-1.91-7.65-6.53-7.65h-5.82v19.28h5.02Z"/>
      <path class="cls-1" d="M1166.86,615.58h22.86v5.66h-16.65v18.16h13.54v5.66h-13.54v20.63h16.65v5.66h-22.86v-55.77Z"/>
      <path class="cls-1" d="M1210.76,615.58h12.75c8.6,0,12.59,4.54,12.59,13.54v28.68c0,9-3.98,13.54-12.59,13.54h-12.75v-55.77Zm12.59,50.11c4.38,0,6.53-2.15,6.53-7.65v-29.24c0-5.5-2.15-7.57-6.53-7.57h-6.37v44.45h6.37Z"/>
    </g>
  </g>
</svg>