<?xml version="1.0" encoding="UTF-8" standalone="no"?>
<svg
   xmlns:dc="http://purl.org/dc/elements/1.1/"
   xmlns:cc="http://creativecommons.org/ns#"
   xmlns:rdf="http://www.w3.org/1999/02/22-rdf-syntax-ns#"
   xmlns:svg="http://www.w3.org/2000/svg"
   xmlns="http://www.w3.org/2000/svg"
   viewBox="0 0 2666.6667 2666.6667"
   height="2666.6667"
   width="2666.6667"
   xml:space="preserve"
   id="svg2"
   version="1.1"><metadata
     id="metadata8"><rdf:RDF><cc:Work
         rdf:about=""><dc:format>image/svg+xml</dc:format><dc:type
           rdf:resource="http://purl.org/dc/dcmitype/StillImage" /></cc:Work></rdf:RDF></metadata><defs
     id="defs6"><clipPath
       id="clipPath102"
       clipPathUnits="userSpaceOnUse"><path
         id="path100"
         d="M 0,2000 H 2000 V 0 H 0 Z" /></clipPath></defs><g
     transform="matrix(1.3333333,0,0,-1.3333333,0,2666.6667)"
     id="g10"><g
       transform="translate(293.804,1182.8702)"
       id="g12"><path
         id="path14"
         style="fill:#201e1d;fill-opacity:1;fill-rule:nonzero;stroke:none"
         d="m 0,0 -0.365,90.144 66.527,0.27 7.302,-90.116 z m 62.064,-49.24 65.549,0.265 -16.831,190.829 -173.266,10.895 1.437,-354.499 62.882,0.255 -0.556,137.162 68.4,-119.211 70.701,0.286 z" /></g><g
       transform="translate(509.959,1150.0079)"
       id="g16"><path
         id="path18"
         style="fill:#201e1d;fill-opacity:1;fill-rule:nonzero;stroke:none"
         d="M 0,0 10.784,93.086 H 25.062 L 35.802,-3.58 Z m 60.864,161.11 -96.666,-3.58 -28.642,-307.899 57.284,7.16 3.58,96.666 h 45.586 l 7.025,-103.826 h 49.954 z" /></g><g
       transform="translate(1140.0781,1150.0079)"
       id="g20"><path
         id="path22"
         style="fill:#201e1d;fill-opacity:1;fill-rule:nonzero;stroke:none"
         d="M 0,0 10.784,93.086 H 25.062 L 35.802,-3.58 Z m 60.864,161.11 -96.666,-3.58 -32.222,-304.319 53.703,3.58 10.741,96.666 h 46.543 l 9.648,-103.826 h 49.955 z" /></g><g
       transform="translate(676.4393,1008.5892)"
       id="g24"><path
         id="path26"
         style="fill:#201e1d;fill-opacity:1;fill-rule:nonzero;stroke:none"
         d="M 0,0 H -42.963 L -53.703,300.739 0,297.159 Z" /></g><g
       transform="translate(708.6614,1302.1675)"
       id="g28"><path
         id="path30"
         style="fill:#201e1d;fill-opacity:1;fill-rule:nonzero;stroke:none"
         d="m 0,0 -5.37,-298.949 46.543,7.161 10.535,184.381 67.907,-195.122 46.865,7.161 L 161.11,14.321 121.957,7.16 119.937,-180.801 62.654,1.79 Z" /></g><g
       transform="translate(1000.4495,1068.3556)"
       id="g32"><path
         id="path34"
         style="fill:#201e1d;fill-opacity:1;fill-rule:nonzero;stroke:none"
         d="m 0,0 -46.543,-4.273 -3.58,196.912 75.185,-10.74 z m -100.246,249.923 5.37,-309.689 134.258,12.53 32.222,279.258 z" /></g><g
       transform="translate(1245.6947,1302.1675)"
       id="g36"><path
         id="path38"
         style="fill:#201e1d;fill-opacity:1;fill-rule:nonzero;stroke:none"
         d="m 0,0 15.324,-293.578 47.541,-8.951 -7.372,182.591 75.185,-179.011 h 42.963 l 1.79,288.208 -46.543,-3.58 V -189.752 L 56.664,1.79 Z" /></g><g
       transform="translate(1451.5575,1296.7971)"
       id="g40"><path
         id="path42"
         style="fill:#201e1d;fill-opacity:1;fill-rule:nonzero;stroke:none"
         d="m 0,0 v -297.159 h 133.982 l -1.514,50.124 H 53.703 l 0.699,193.332 h 79.58 V 7.16 Z" /></g><g
       transform="translate(1610.8773,1305.7477)"
       id="g44"><path
         id="path46"
         style="fill:#201e1d;fill-opacity:1;fill-rule:nonzero;stroke:none"
         d="m 0,0 8.951,-309.689 136.048,-7.161 v 53.119 l -85.925,0.585 v 85.925 h 55.493 v 46.543 l -57.283,-1.79 v 78.765 l 99.275,8.95 0.971,59.074 z" /></g><g
       transform="translate(461.626,790.1956)"
       id="g48"><path
         id="path50"
         style="fill:#201e1d;fill-opacity:1;fill-rule:nonzero;stroke:none"
         d="M 0,0 32.222,-3.58 36.953,195.122 1.79,192.778 Z" /></g><g
       transform="translate(356.0095,985.3177)"
       id="g52"><path
         id="path54"
         style="fill:#201e1d;fill-opacity:1;fill-rule:nonzero;stroke:none"
         d="m 0,0 v -215.569 h 41.428 v 89.449 h 37.337 v 34.403 l -39.383,-0.86 v 55.045 l 50.124,-0.86 V 0 Z" /></g><g
       transform="translate(523.3054,981.7375)"
       id="g56"><path
         id="path58"
         style="fill:#201e1d;fill-opacity:1;fill-rule:nonzero;stroke:none"
         d="m 0,0 v -190.552 l 72.222,-4.57 0.357,35.802 H 29.616 L 35.843,0 Z" /></g><g
       transform="translate(612.1113,981.7375)"
       id="g60"><path
         id="path62"
         style="fill:#201e1d;fill-opacity:1;fill-rule:nonzero;stroke:none"
         d="m 0,0 1.674,-207.653 35.802,-2.158 v 109.67 l 32.222,-57.389 34.087,61.759 v -109.226 l 44.678,0.924 L 144.883,7.16 114.485,3.58 76.502,-97.561 30.316,10.741 Z" /></g><g
       transform="translate(834.6375,981.7375)"
       id="g64"><path
         id="path66"
         style="fill:#201e1d;fill-opacity:1;fill-rule:nonzero;stroke:none"
         d="m 0,0 v -215.199 h 37.01 v 92.818 h 41.086 v 38.184 l -39.048,-4.112 v 58.158 l 53.369,3.299 v 37.593 z" /></g><g
       transform="translate(950.3264,982.1339)"
       id="g68"><path
         id="path70"
         style="fill:#201e1d;fill-opacity:1;fill-rule:nonzero;stroke:none"
         d="m 0,0 -7.16,-193.728 93.085,-7.161 v 35.227 l -53.703,-3.005 v 57.284 h 35.802 v 35.802 l -35.802,-3.58 v 46.543 H 78.765 V 0 Z" /></g><g
       transform="translate(1049.058,992.4782)"
       id="g72"><path
         id="path74"
         style="fill:#201e1d;fill-opacity:1;fill-rule:nonzero;stroke:none"
         d="m 0,0 v -118.147 l 69.539,-10.741 v -57.284 l -64.444,7.161 -1.57,-41.541 H 108.291 V -94.35 l -74.554,12.005 v 42.963 L 94.6,-42.963 V -3.58 Z" /></g><g
       transform="translate(1197.3617,945.9353)"
       id="g76"><path
         id="path78"
         style="fill:#201e1d;fill-opacity:1;fill-rule:nonzero;stroke:none"
         d="M 0,0 H -31.988 V 32.222 H 69.641 V 0 H 35.569 V -164.69 H -5.553 Z" /></g><g
       transform="translate(1283.287,988.8979)"
       id="g80"><path
         id="path82"
         style="fill:#201e1d;fill-opacity:1;fill-rule:nonzero;stroke:none"
         d="m 0,0 v -211.198 l 32.475,3.545 L 36,-6.764 Z" /></g><g
       transform="translate(1333.4102,978.1573)"
       id="g84"><path
         id="path86"
         style="fill:#201e1d;fill-opacity:1;fill-rule:nonzero;stroke:none"
         d="m 0,0 21.481,-193.332 35.803,7.16 L 100.246,3.58 65.182,3.977 42.963,-132.468 28.642,3.58 Z" /></g><g
       transform="translate(1465.8784,874.3309)"
       id="g88"><path
         id="path90"
         style="fill:#201e1d;fill-opacity:1;fill-rule:nonzero;stroke:none"
         d="M 0,0 12.02,78.765 H 28.642 L 33.756,0 Z M 71.353,-102.404 50.205,114.567 h -64.526 l -39.382,-214.813 36.938,-2.158 13.185,77.342 h 34.986 v -77.342 z" /></g><g
       transform="translate(1551.3304,982.1339)"
       id="g92"><path
         id="path94"
         style="fill:#201e1d;fill-opacity:1;fill-rule:nonzero;stroke:none"
         d="m 0,0 4.053,-215.21 85.24,5.002 v 41.021 l -49.437,-10.22 0,179.407 z" /></g><g
       id="g96"><g
         clip-path="url(#clipPath102)"
         id="g98"><g
           transform="translate(525.2265,669.9244)"
           id="g104"><path
             id="path106"
             style="fill:#201e1d;fill-opacity:1;fill-rule:nonzero;stroke:none"
             d="m 0,0 c 4.382,0 6.533,2.151 6.533,7.648 v 29.238 c 0,5.497 -2.151,7.568 -6.533,7.568 H -6.373 V 0 Z M -12.587,50.11 H 0.159 c 8.604,0 12.588,-4.541 12.588,-13.544 V 7.887 c 0,-9.002 -3.984,-13.543 -12.588,-13.543 h -12.746 z" /></g><path
           id="path108"
           style="fill:#201e1d;fill-opacity:1;fill-rule:nonzero;stroke:none"
           d="m 560.521,720.035 h 6.214 v -55.767 h -6.214 z" /><g
           transform="translate(588.2465,677.0143)"
           id="g110"><path
             id="path112"
             style="fill:#201e1d;fill-opacity:1;fill-rule:nonzero;stroke:none"
             d="m 0,0 v 3.107 h 5.896 v -3.585 c 0,-5.018 2.469,-7.409 6.453,-7.409 4.063,0 6.532,2.391 6.532,7.49 0,5.177 -2.151,8.444 -8.604,13.782 C 2.549,19.758 0,24.219 0,30.513 c 0,8.365 4.461,13.303 12.508,13.303 8.046,0 12.268,-4.938 12.268,-13.462 v -2.231 h -5.895 v 2.629 c 0,5.019 -2.31,7.408 -6.373,7.408 -3.984,0 -6.374,-2.389 -6.374,-7.249 0,-4.621 2.231,-7.807 8.844,-13.224 C 22.625,11.313 25.095,6.852 25.095,0.08 25.095,-8.604 20.554,-13.543 12.428,-13.543 4.302,-13.543 0,-8.604 0,0" /></g><g
           transform="translate(634.1371,676.776)"
           id="g114"><path
             id="path116"
             style="fill:#201e1d;fill-opacity:1;fill-rule:nonzero;stroke:none"
             d="m 0,0 v 30.751 c 0,8.365 4.461,13.304 12.428,13.304 8.046,0 12.428,-4.939 12.428,-13.304 V 25.015 H 18.96 v 6.134 c 0,4.781 -2.469,7.249 -6.373,7.249 -3.903,0 -6.373,-2.468 -6.373,-7.249 V -0.398 c 0,-4.781 2.47,-7.25 6.373,-7.25 3.904,0 6.373,2.469 6.373,7.25 v 7.807 h 5.896 V 0 c 0,-8.285 -4.382,-13.305 -12.428,-13.305 C 4.461,-13.305 0,-8.285 0,0" /></g><g
           transform="translate(699.6254,676.8551)"
           id="g118"><path
             id="path120"
             style="fill:#201e1d;fill-opacity:1;fill-rule:nonzero;stroke:none"
             d="m 0,0 v 30.672 c 0,5.258 -2.39,7.647 -6.612,7.647 -4.143,0 -6.533,-2.389 -6.533,-7.647 V 0 c 0,-5.337 2.39,-7.728 6.533,-7.728 C -2.39,-7.728 0,-5.337 0,0 m -19.359,0.398 v 29.875 c 0,8.843 4.541,13.703 12.747,13.703 8.285,0 12.826,-4.86 12.826,-13.703 V 0.398 c 0,-8.842 -4.541,-13.782 -12.826,-13.782 -8.206,0 -12.747,4.94 -12.747,13.782" /></g><g
           transform="translate(725.6801,720.0348)"
           id="g122"><path
             id="path124"
             style="fill:#201e1d;fill-opacity:1;fill-rule:nonzero;stroke:none"
             d="M 0,0 H 6.293 L 14.34,-47.322 22.386,0 h 5.736 L 18.244,-55.767 H 9.958 Z" /></g><g
           transform="translate(774.5175,720.0348)"
           id="g126"><path
             id="path128"
             style="fill:#201e1d;fill-opacity:1;fill-rule:nonzero;stroke:none"
             d="M 0,0 H 22.864 V -5.656 H 6.214 V -23.82 h 13.543 v -5.657 H 6.214 V -50.11 h 16.65 v -5.657 l -22.864,0 z" /></g><g
           transform="translate(829.6494,695.0992)"
           id="g130"><path
             id="path132"
             style="fill:#201e1d;fill-opacity:1;fill-rule:nonzero;stroke:none"
             d="m 0,0 c 4.859,0 7.329,2.071 7.329,7.647 v 3.984 c 0,5.417 -1.912,7.648 -6.533,7.648 H -5.019 L -5.019,0 Z M -11.233,24.936 H 0.956 c 8.843,0 12.587,-3.984 12.587,-12.667 V 8.843 c 0,-6.135 -1.992,-9.799 -6.453,-11.234 V -2.47 c 4.701,-1.195 6.533,-5.098 6.533,-11.632 v -9.958 c 0,-2.548 0.079,-4.78 0.796,-6.771 H 8.125 c -0.477,1.594 -0.716,3.027 -0.716,6.771 v 10.278 c 0,6.054 -2.151,8.126 -7.409,8.126 h -5.019 v -25.175 h -6.214 z" /></g><path
           id="path134"
           style="fill:#201e1d;fill-opacity:1;fill-rule:nonzero;stroke:none"
           d="m 866.616,672.314 h 6.293 v -8.046 h -6.293 z" /><g
           transform="translate(938.0009,669.9244)"
           id="g136"><path
             id="path138"
             style="fill:#201e1d;fill-opacity:1;fill-rule:nonzero;stroke:none"
             d="m 0,0 c 4.541,0 6.612,2.151 6.612,7.488 v 4.781 c 0,6.134 -2.23,8.365 -7.886,8.365 H -6.851 V 0 Z m -1.593,26.29 c 4.86,0 7.329,2.071 7.329,7.648 v 2.868 c 0,5.417 -1.912,7.648 -6.533,7.648 H -6.851 V 26.29 Z m -11.472,23.82 h 12.427 c 8.844,0 12.588,-3.983 12.588,-12.667 v -2.31 c 0,-5.975 -1.992,-9.64 -6.214,-11.154 V 23.82 c 5.019,-1.433 7.09,-5.497 7.09,-11.711 V 7.329 C 12.826,-1.274 8.684,-5.656 0,-5.656 h -13.065 z" /></g><g
           transform="translate(972.4999,720.0348)"
           id="g140"><path
             id="path142"
             style="fill:#201e1d;fill-opacity:1;fill-rule:nonzero;stroke:none"
             d="M 0,0 H 22.864 V -5.656 H 6.214 V -23.82 h 13.543 v -5.657 H 6.214 V -50.11 h 16.65 v -5.657 l -22.864,0 z" /></g><g
           transform="translate(1057.5077,669.9244)"
           id="g144"><path
             id="path146"
             style="fill:#201e1d;fill-opacity:1;fill-rule:nonzero;stroke:none"
             d="m 0,0 c 4.382,0 6.533,2.151 6.533,7.648 v 29.238 c 0,5.497 -2.151,7.568 -6.533,7.568 H -6.373 V 0 Z M -12.587,50.11 H 0.159 c 8.605,0 12.588,-4.541 12.588,-13.544 V 7.887 c 0,-9.002 -3.983,-13.543 -12.588,-13.543 h -12.746 z" /></g><path
           id="path148"
           style="fill:#201e1d;fill-opacity:1;fill-rule:nonzero;stroke:none"
           d="m 1092.803,720.035 h 6.214 v -55.767 h -6.214 z" /><g
           transform="translate(1120.5272,677.0143)"
           id="g150"><path
             id="path152"
             style="fill:#201e1d;fill-opacity:1;fill-rule:nonzero;stroke:none"
             d="m 0,0 v 3.107 h 5.896 v -3.585 c 0,-5.018 2.469,-7.409 6.453,-7.409 4.062,0 6.532,2.391 6.532,7.49 0,5.177 -2.151,8.444 -8.604,13.782 C 2.55,19.758 0,24.219 0,30.513 c 0,8.365 4.462,13.303 12.508,13.303 8.046,0 12.268,-4.938 12.268,-13.462 v -2.231 h -5.895 v 2.629 c 0,5.019 -2.311,7.408 -6.373,7.408 -3.984,0 -6.373,-2.389 -6.373,-7.249 0,-4.621 2.23,-7.807 8.843,-13.224 C 22.625,11.313 25.095,6.852 25.095,0.08 25.095,-8.604 20.554,-13.543 12.428,-13.543 4.302,-13.543 0,-8.604 0,0" /></g><g
           transform="translate(1166.4178,676.776)"
           id="g154"><path
             id="path156"
             style="fill:#201e1d;fill-opacity:1;fill-rule:nonzero;stroke:none"
             d="m 0,0 v 30.751 c 0,8.365 4.461,13.304 12.428,13.304 8.047,0 12.427,-4.939 12.427,-13.304 v -5.736 h -5.894 v 6.134 c 0,4.781 -2.47,7.249 -6.374,7.249 -3.903,0 -6.373,-2.468 -6.373,-7.249 V -0.398 c 0,-4.781 2.47,-7.25 6.373,-7.25 3.904,0 6.374,2.469 6.374,7.25 v 7.807 h 5.894 V 0 c 0,-8.285 -4.38,-13.305 -12.427,-13.305 C 4.461,-13.305 0,-8.285 0,0" /></g><g
           transform="translate(1231.9061,676.8551)"
           id="g158"><path
             id="path160"
             style="fill:#201e1d;fill-opacity:1;fill-rule:nonzero;stroke:none"
             d="m 0,0 v 30.672 c 0,5.258 -2.391,7.647 -6.612,7.647 -4.143,0 -6.534,-2.389 -6.534,-7.647 V 0 c 0,-5.337 2.391,-7.728 6.534,-7.728 C -2.391,-7.728 0,-5.337 0,0 m -19.359,0.398 v 29.875 c 0,8.843 4.541,13.703 12.747,13.703 8.285,0 12.826,-4.86 12.826,-13.703 V 0.398 c 0,-8.842 -4.541,-13.782 -12.826,-13.782 -8.206,0 -12.747,4.94 -12.747,13.782" /></g><g
           transform="translate(1257.9608,720.0348)"
           id="g162"><path
             id="path164"
             style="fill:#201e1d;fill-opacity:1;fill-rule:nonzero;stroke:none"
             d="M 0,0 H 6.294 L 14.34,-47.322 22.387,0 h 5.735 L 18.244,-55.767 H 9.959 Z" /></g><g
           transform="translate(1306.7987,720.0348)"
           id="g166"><path
             id="path168"
             style="fill:#201e1d;fill-opacity:1;fill-rule:nonzero;stroke:none"
             d="M 0,0 H 22.864 V -5.656 H 6.214 V -23.82 h 13.543 v -5.657 H 6.214 V -50.11 h 16.65 v -5.657 l -22.864,0 z" /></g><g
           transform="translate(1361.9296,695.0992)"
           id="g170"><path
             id="path172"
             style="fill:#201e1d;fill-opacity:1;fill-rule:nonzero;stroke:none"
             d="m 0,0 c 4.86,0 7.329,2.071 7.329,7.647 v 3.984 c 0,5.417 -1.911,7.648 -6.532,7.648 H -5.019 V 0 Z M -11.232,24.936 H 0.956 c 8.843,0 12.588,-3.984 12.588,-12.667 V 8.843 c 0,-6.135 -1.992,-9.799 -6.453,-11.234 V -2.47 c 4.7,-1.195 6.532,-5.098 6.532,-11.632 v -9.958 c 0,-2.548 0.08,-4.78 0.797,-6.771 H 8.126 c -0.478,1.594 -0.717,3.027 -0.717,6.771 v 10.278 c 0,6.054 -2.151,8.126 -7.409,8.126 h -5.019 v -25.175 h -6.213 z" /></g><g
           transform="translate(1398.1805,720.0348)"
           id="g174"><path
             id="path176"
             style="fill:#201e1d;fill-opacity:1;fill-rule:nonzero;stroke:none"
             d="M 0,0 H 22.864 V -5.656 H 6.214 V -23.82 h 13.543 v -5.657 H 6.214 V -50.11 h 16.65 v -5.657 l -22.864,0 z" /></g><g
           transform="translate(1454.6659,669.9244)"
           id="g178"><path
             id="path180"
             style="fill:#201e1d;fill-opacity:1;fill-rule:nonzero;stroke:none"
             d="m 0,0 c 4.382,0 6.533,2.151 6.533,7.648 v 29.238 c 0,5.497 -2.151,7.568 -6.533,7.568 H -6.373 V 0 Z M -12.587,50.11 H 0.159 c 8.605,0 12.588,-4.541 12.588,-13.544 V 7.887 c 0,-9.002 -3.983,-13.543 -12.588,-13.543 h -12.746 z" /></g></g></g></g></svg>