<?xml version="1.0" encoding="UTF-8" standalone="no"?>
<svg
   xmlns:dc="http://purl.org/dc/elements/1.1/"
   xmlns:cc="http://creativecommons.org/ns#"
   xmlns:rdf="http://www.w3.org/1999/02/22-rdf-syntax-ns#"
   xmlns:svg="http://www.w3.org/2000/svg"
   xmlns="http://www.w3.org/2000/svg"
   viewBox="0 0 760.55731 526.53998"
   height="526.53998"
   width="760.55731"
   xml:space="preserve"
   id="svg2"
   version="1.1"><metadata
     id="metadata8"><rdf:RDF><cc:Work
         rdf:about=""><dc:format>image/svg+xml</dc:format><dc:type
           rdf:resource="http://purl.org/dc/dcmitype/StillImage" /></cc:Work></rdf:RDF></metadata><defs
     id="defs6"><clipPath
       id="clipPath18"
       clipPathUnits="userSpaceOnUse"><path
         id="path16"
         d="M 0,394.905 H 570.418 V 0 H 0 Z" /></clipPath></defs><g
     transform="matrix(1.3333333,0,0,-1.3333333,0,526.54)"
     id="g10"><g
       id="g12"><g
         clip-path="url(#clipPath18)"
         id="g14"><g
           transform="translate(149.3476,170.3045)"
           id="g20"><path
             id="path22"
             style="fill:#2c364f;fill-opacity:1;fill-rule:nonzero;stroke:none"
             d="M 0,0 V -0.931 H -1.863 V 0 c 0,8.105 -8.385,14.441 -18.541,14.441 -10.155,0 -18.54,-6.336 -18.54,-14.441 0,-14.347 40.993,-14.347 40.9,-30.745 0,-8.664 -9.968,-16.304 -22.36,-16.304 -12.67,0 -22.359,7.547 -22.359,16.304 v 0.932 h 1.863 v -0.932 c 0,-8.013 9.317,-14.441 20.496,-14.441 10.901,0 20.497,6.521 20.497,14.441 0,14.627 -40.806,14.441 -40.9,30.745 0,8.851 8.944,16.304 20.403,16.304 C -8.944,16.304 0,8.851 0,0" /></g><g
           transform="translate(149.3476,170.3045)"
           id="g24"><path
             id="path26"
             style="fill:none;stroke:#2c364f;stroke-width:0.25;stroke-linecap:butt;stroke-linejoin:miter;stroke-miterlimit:10;stroke-dasharray:none;stroke-opacity:1"
             d="M 0,0 V -0.931 H -1.863 V 0 c 0,8.105 -8.385,14.441 -18.541,14.441 -10.155,0 -18.54,-6.336 -18.54,-14.441 0,-14.347 40.993,-14.347 40.9,-30.745 0,-8.664 -9.968,-16.304 -22.36,-16.304 -12.67,0 -22.359,7.547 -22.359,16.304 v 0.932 h 1.863 v -0.932 c 0,-8.013 9.317,-14.441 20.496,-14.441 10.901,0 20.497,6.521 20.497,14.441 0,14.627 -40.806,14.441 -40.9,30.745 0,8.851 8.944,16.304 20.403,16.304 C -8.944,16.304 0,8.851 0,0 Z" /></g><g
           transform="translate(165.3737,185.6769)"
           id="g28"><path
             id="path30"
             style="fill:#2c364f;fill-opacity:1;fill-rule:nonzero;stroke:none"
             d="M 0,0 V 0.932 H 1.863 V 0 -61.489 -62.421 H 0 v 0.932 z" /></g><g
           transform="translate(165.3737,185.6769)"
           id="g32"><path
             id="path34"
             style="fill:none;stroke:#2c364f;stroke-width:0.25;stroke-linecap:butt;stroke-linejoin:miter;stroke-miterlimit:10;stroke-dasharray:none;stroke-opacity:1"
             d="M 0,0 V 0.932 H 1.863 V 0 -61.489 -62.421 H 0 v 0.932 z" /></g><g
           transform="translate(179.3478,185.3046)"
           id="g36"><path
             id="path38"
             style="fill:#2c364f;fill-opacity:1;fill-rule:nonzero;stroke:none"
             d="m 0,0 -0.559,1.304 h 2.05 L 1.677,0.745 27.95,-58.788 54.037,0.745 54.223,1.304 h 2.05 L 55.714,0 28.788,-61.49 c -0.279,-0.652 -1.397,-0.652 -1.676,0 z" /></g><g
           transform="translate(179.3478,185.3046)"
           id="g40"><path
             id="path42"
             style="fill:none;stroke:#2c364f;stroke-width:0.25;stroke-linecap:butt;stroke-linejoin:miter;stroke-miterlimit:10;stroke-dasharray:none;stroke-opacity:1"
             d="m 0,0 -0.559,1.304 h 2.05 L 1.677,0.745 27.95,-58.788 54.037,0.745 54.223,1.304 h 2.05 L 55.714,0 28.788,-61.49 c -0.279,-0.652 -1.397,-0.652 -1.676,0 z" /></g><g
           transform="translate(240.6526,123.8145)"
           id="g44"><path
             id="path46"
             style="fill:#2c364f;fill-opacity:1;fill-rule:nonzero;stroke:none"
             d="m 0,0 -0.186,-0.559 h -2.05 l 0.559,1.304 27.019,61.49 c 0.279,0.652 1.397,0.652 1.677,0 l 27.018,-61.49 0.559,-1.304 h -2.05 L 52.36,0 26.18,59.533 Z" /></g><g
           transform="translate(240.6526,123.8145)"
           id="g48"><path
             id="path50"
             style="fill:none;stroke:#2c364f;stroke-width:0.25;stroke-linecap:butt;stroke-linejoin:miter;stroke-miterlimit:10;stroke-dasharray:none;stroke-opacity:1"
             d="m 0,0 -0.186,-0.559 h -2.05 l 0.559,1.304 27.019,61.49 c 0.279,0.652 1.397,0.652 1.677,0 l 27.018,-61.49 0.559,-1.304 h -2.05 L 52.36,0 26.18,59.533 Z" /></g><g
           transform="translate(330.9494,155.8527)"
           id="g52"><path
             id="path54"
             style="fill:#2c364f;fill-opacity:1;fill-rule:nonzero;stroke:none"
             d="m 0,0 -0.016,0.011 h 3.168 c 9.036,0 16.583,6.335 16.583,14.348 0,8.105 -7.547,14.534 -16.677,14.534 h -26.18 V -0.079 Z m 5.748,-1.691 c 5.551,-4.192 9.631,-9.709 15.85,-29.695 l 0.373,-1.211 h -1.957 l -0.279,0.652 C 13.214,-10.546 9.138,-6.167 2.776,-1.853 h -25.898 v -29.812 -0.932 h -1.863 v 0.932 l 0.046,29.901 -0.046,0.004 0.046,0.889 0.047,30.602 c 0,0.559 0.373,0.932 0.932,0.932 l 27.018,0.093 c 10.248,0 18.54,-7.361 18.54,-16.397 0,-8.168 -6.915,-14.938 -15.85,-16.05" /></g><g
           transform="translate(330.9494,155.8527)"
           id="g56"><path
             id="path58"
             style="fill:none;stroke:#2c364f;stroke-width:0.25;stroke-linecap:butt;stroke-linejoin:miter;stroke-miterlimit:10;stroke-dasharray:none;stroke-opacity:1"
             d="m 0,0 -0.016,0.011 h 3.168 c 9.036,0 16.583,6.335 16.583,14.348 0,8.105 -7.547,14.534 -16.677,14.534 h -26.18 V -0.079 Z m 5.748,-1.691 c 5.551,-4.192 9.631,-9.709 15.85,-29.695 l 0.373,-1.211 h -1.957 l -0.279,0.652 C 13.214,-10.546 9.138,-6.167 2.776,-1.853 h -25.898 v -29.812 -0.932 h -1.863 v 0.932 l 0.046,29.901 -0.046,0.004 0.046,0.889 0.047,30.602 c 0,0.559 0.373,0.932 0.932,0.932 l 27.018,0.093 c 10.248,0 18.54,-7.361 18.54,-16.397 0,-8.168 -6.915,-14.938 -15.85,-16.05 z" /></g><g
           transform="translate(384.411,154.6546)"
           id="g60"><path
             id="path62"
             style="fill:#2c364f;fill-opacity:1;fill-rule:nonzero;stroke:none"
             d="m 0,0 v -30.467 -0.932 h -1.864 v 0.932 30.462 l -20.496,30.469 -1.025,1.49 h 2.236 l 0.279,-0.373 19.938,-29.627 19.565,29.627 0.279,0.373 h 2.237 l -1.025,-1.49 z" /></g><g
           transform="translate(384.411,154.6546)"
           id="g64"><path
             id="path66"
             style="fill:none;stroke:#2c364f;stroke-width:0.25;stroke-linecap:butt;stroke-linejoin:miter;stroke-miterlimit:10;stroke-dasharray:none;stroke-opacity:1"
             d="m 0,0 v -30.467 -0.932 h -1.864 v 0.932 30.462 l -20.496,30.469 -1.025,1.49 h 2.236 l 0.279,-0.373 19.938,-29.627 19.565,29.627 0.279,0.373 h 2.237 l -1.025,-1.49 z" /></g><g
           transform="translate(409.2371,123.8145)"
           id="g68"><path
             id="path70"
             style="fill:#2c364f;fill-opacity:1;fill-rule:nonzero;stroke:none"
             d="m 0,0 -0.186,-0.559 h -2.05 l 0.559,1.304 27.019,61.49 c 0.279,0.652 1.397,0.652 1.676,0 L 54.037,0.745 54.596,-0.559 H 52.547 L 52.36,0 26.18,59.533 Z" /></g><g
           transform="translate(409.2371,123.8145)"
           id="g72"><path
             id="path74"
             style="fill:none;stroke:#2c364f;stroke-width:0.25;stroke-linecap:butt;stroke-linejoin:miter;stroke-miterlimit:10;stroke-dasharray:none;stroke-opacity:1"
             d="m 0,0 -0.186,-0.559 h -2.05 l 0.559,1.304 27.019,61.49 c 0.279,0.652 1.397,0.652 1.676,0 L 54.037,0.745 54.596,-0.559 H 52.547 L 52.36,0 26.18,59.533 Z" /></g><g
           transform="translate(142.8971,106.959)"
           id="g76"><path
             id="path78"
             style="fill:#cbb5cf;fill-opacity:1;fill-rule:nonzero;stroke:none"
             d="M 0,0 H 3.647 L 1.748,5.495 Z m 10.28,-5.317 c 0.237,-0.608 0.009,-0.954 -0.683,-1.039 L 6.736,-6.71 C 6.499,-6.727 6.293,-6.676 6.116,-6.558 5.938,-6.439 5.807,-6.262 5.723,-6.026 L 4.812,-3.392 H -1.089 L -1.823,-5.697 C -1.89,-5.916 -2.017,-6.089 -2.202,-6.216 -2.388,-6.343 -2.6,-6.406 -2.836,-6.406 h -2.937 c -0.32,0 -0.544,0.093 -0.671,0.278 -0.126,0.186 -0.13,0.439 -0.012,0.761 l 5.165,14.736 c 0.067,0.219 0.194,0.388 0.38,0.506 0.185,0.118 0.397,0.178 0.633,0.178 h 3.95 c 0.523,0 0.869,-0.22 1.038,-0.659 z" /></g><g
           transform="translate(171.8388,117.0121)"
           id="g80"><path
             id="path82"
             style="fill:#cbb5cf;fill-opacity:1;fill-rule:nonzero;stroke:none"
             d="m 0,0 c 0.152,0 0.274,-0.047 0.367,-0.14 0.093,-0.093 0.14,-0.215 0.14,-0.367 V -3.469 C 0.507,-3.621 0.46,-3.744 0.367,-3.837 0.274,-3.929 0.152,-3.976 0,-3.976 h -5.115 v -11.977 c 0,-0.152 -0.047,-0.274 -0.139,-0.367 -0.093,-0.093 -0.215,-0.139 -0.367,-0.139 h -3.773 c -0.152,0 -0.275,0.046 -0.367,0.139 -0.093,0.093 -0.14,0.215 -0.14,0.367 v 11.977 h -4.886 c -0.254,0 -0.444,0.067 -0.57,0.203 -0.127,0.135 -0.182,0.329 -0.165,0.582 l 0.254,2.709 C -15.235,-0.161 -15.066,0 -14.762,0 Z" /></g><g
           transform="translate(180.4234,106.959)"
           id="g84"><path
             id="path86"
             style="fill:#cbb5cf;fill-opacity:1;fill-rule:nonzero;stroke:none"
             d="M 0,0 H 3.647 L 1.748,5.495 Z m 10.28,-5.317 c 0.237,-0.608 0.009,-0.954 -0.683,-1.039 L 6.736,-6.71 c -0.237,-0.017 -0.443,0.034 -0.62,0.152 -0.178,0.119 -0.309,0.296 -0.393,0.532 l -0.912,2.634 h -5.9 l -0.734,-2.305 c -0.068,-0.219 -0.194,-0.392 -0.379,-0.519 -0.186,-0.127 -0.398,-0.19 -0.634,-0.19 h -2.937 c -0.32,0 -0.545,0.093 -0.671,0.278 -0.126,0.186 -0.13,0.439 -0.012,0.761 l 5.165,14.736 c 0.067,0.219 0.194,0.388 0.38,0.506 0.185,0.118 0.397,0.178 0.633,0.178 h 3.95 c 0.523,0 0.869,-0.22 1.038,-0.659 z" /></g><g
           transform="translate(200.6801,113.2136)"
           id="g88"><path
             id="path90"
             style="fill:#cbb5cf;fill-opacity:1;fill-rule:nonzero;stroke:none"
             d="m 0,0 v -4.178 h 2.38 c 0.726,0 1.317,0.211 1.773,0.633 0.455,0.422 0.683,0.962 0.683,1.62 0,0.574 -0.228,1.039 -0.683,1.393 C 3.697,-0.177 3.106,0 2.38,0 Z m 7.09,-6.507 2.279,-5.141 c 0.152,-0.27 0.173,-0.502 0.063,-0.696 -0.11,-0.195 -0.291,-0.291 -0.544,-0.291 l -3.722,-0.026 c -0.186,0 -0.364,0.051 -0.532,0.152 -0.169,0.101 -0.288,0.228 -0.355,0.38 L 2.608,-7.546 H 2.38 0 v -4.608 c 0,-0.152 -0.046,-0.274 -0.139,-0.367 -0.093,-0.093 -0.215,-0.14 -0.368,-0.14 h -3.671 c -0.152,0 -0.274,0.047 -0.367,0.14 -0.093,0.093 -0.14,0.215 -0.14,0.367 V 2.785 c 0,0.304 0.094,0.548 0.28,0.734 0.185,0.186 0.421,0.279 0.708,0.279 H 2.38 c 2.364,0 4.166,-0.515 5.406,-1.545 1.241,-1.029 1.861,-2.422 1.861,-4.178 0,-0.743 -0.122,-1.43 -0.367,-2.063 C 9.035,-4.621 8.711,-5.14 8.305,-5.545 7.9,-5.951 7.495,-6.271 7.09,-6.507" /></g><g
           transform="translate(221.8981,106.959)"
           id="g92"><path
             id="path94"
             style="fill:#cbb5cf;fill-opacity:1;fill-rule:nonzero;stroke:none"
             d="M 0,0 H 3.647 L 1.748,5.495 Z m 10.28,-5.317 c 0.237,-0.608 0.009,-0.954 -0.683,-1.039 L 6.736,-6.71 c -0.237,-0.017 -0.443,0.034 -0.62,0.152 -0.178,0.119 -0.309,0.296 -0.393,0.532 l -0.912,2.634 h -5.9 l -0.734,-2.305 c -0.068,-0.219 -0.194,-0.392 -0.379,-0.519 -0.186,-0.127 -0.398,-0.19 -0.634,-0.19 h -2.937 c -0.32,0 -0.545,0.093 -0.67,0.278 -0.127,0.186 -0.131,0.439 -0.013,0.761 l 5.165,14.736 c 0.067,0.219 0.194,0.388 0.38,0.506 0.185,0.118 0.397,0.178 0.633,0.178 h 3.95 c 0.523,0 0.869,-0.22 1.038,-0.659 z" /></g><g
           transform="translate(246.6122,108.8328)"
           id="g96"><path
             id="path98"
             style="fill:#cbb5cf;fill-opacity:1;fill-rule:nonzero;stroke:none"
             d="M 0,0 5.039,-7.191 C 5.242,-7.495 5.296,-7.74 5.203,-7.926 5.111,-8.112 4.879,-8.23 4.507,-8.28 L 1.697,-8.634 C 1.494,-8.651 1.295,-8.613 1.102,-8.521 0.907,-8.427 0.751,-8.288 0.633,-8.103 l -3.19,4.558 -2.533,-4.203 C -5.309,-8.103 -5.663,-8.28 -6.153,-8.28 h -3.773 c -0.354,0 -0.586,0.105 -0.696,0.317 -0.11,0.21 -0.055,0.468 0.165,0.772 l 5.317,7.318 -4.71,6.71 c -0.169,0.219 -0.24,0.426 -0.215,0.62 0.026,0.194 0.275,0.35 0.747,0.469 l 2.634,0.607 C -6.297,8.618 -5.942,8.44 -5.621,8.001 L -2.532,3.596 0.025,7.647 C 0.244,8.001 0.599,8.179 1.089,8.179 H 4.634 C 4.988,8.179 5.216,8.073 5.317,7.863 5.419,7.651 5.36,7.394 5.14,7.09 Z" /></g><g
           transform="translate(261.9569,101.0595)"
           id="g100"><path
             id="path102"
             style="fill:#cbb5cf;fill-opacity:1;fill-rule:nonzero;stroke:none"
             d="m 0,0 c 0,-0.136 -0.051,-0.254 -0.152,-0.355 -0.102,-0.101 -0.22,-0.152 -0.354,-0.152 h -3.926 c -0.134,0 -0.253,0.051 -0.354,0.152 -0.101,0.101 -0.152,0.219 -0.152,0.355 v 15.446 c 0,0.135 0.051,0.253 0.152,0.354 0.101,0.101 0.22,0.153 0.354,0.153 h 3.926 c 0.134,0 0.252,-0.052 0.354,-0.153 C -0.051,15.699 0,15.581 0,15.446 Z" /></g><g
           transform="translate(273.6803,106.959)"
           id="g104"><path
             id="path106"
             style="fill:#cbb5cf;fill-opacity:1;fill-rule:nonzero;stroke:none"
             d="M 0,0 H 3.647 L 1.748,5.495 Z m 10.28,-5.317 c 0.237,-0.608 0.009,-0.954 -0.683,-1.039 L 6.736,-6.71 C 6.5,-6.727 6.293,-6.676 6.116,-6.558 5.938,-6.439 5.807,-6.262 5.723,-6.026 l -0.912,2.634 h -5.9 l -0.734,-2.305 c -0.068,-0.219 -0.194,-0.392 -0.379,-0.519 -0.186,-0.127 -0.398,-0.19 -0.634,-0.19 h -2.937 c -0.32,0 -0.545,0.093 -0.671,0.278 -0.126,0.186 -0.13,0.439 -0.012,0.761 l 5.165,14.736 c 0.067,0.219 0.194,0.388 0.38,0.506 0.185,0.118 0.397,0.178 0.633,0.178 h 3.95 c 0.523,0 0.869,-0.22 1.038,-0.659 z" /></g><g
           transform="translate(309.3569,102.4522)"
           id="g108"><path
             id="path110"
             style="fill:#cbb5cf;fill-opacity:1;fill-rule:nonzero;stroke:none"
             d="m 0,0 c 0.067,-0.202 0.072,-0.405 0.013,-0.608 -0.06,-0.202 -0.157,-0.346 -0.291,-0.431 -0.643,-0.422 -1.465,-0.733 -2.469,-0.936 -1.005,-0.203 -2.056,-0.304 -3.153,-0.304 -1.25,0 -2.401,0.203 -3.456,0.608 -1.055,0.405 -1.959,0.983 -2.71,1.734 -0.751,0.751 -1.329,1.654 -1.734,2.71 -0.405,1.054 -0.608,2.198 -0.608,3.43 0,1.283 0.211,2.465 0.633,3.545 0.422,1.08 1.022,2.009 1.798,2.786 0.776,0.776 1.709,1.371 2.798,1.785 1.089,0.413 2.274,0.62 3.558,0.62 0.978,0 1.911,-0.093 2.797,-0.278 0.887,-0.187 1.634,-0.465 2.242,-0.836 0.168,-0.101 0.295,-0.228 0.379,-0.38 0.085,-0.152 0.102,-0.295 0.051,-0.43 L -1.063,10.356 C -1.148,10.137 -1.275,9.984 -1.443,9.901 -1.612,9.816 -1.789,9.807 -1.975,9.875 c -1.098,0.456 -2.313,0.709 -3.646,0.76 -1.182,0 -2.14,-0.41 -2.874,-1.228 C -9.23,8.588 -9.597,7.52 -9.597,6.203 c 0,-1.249 0.338,-2.258 1.013,-3.025 0.675,-0.769 1.57,-1.153 2.684,-1.153 0.776,0 1.494,0.051 2.153,0.153 0.658,0.101 1.299,0.295 1.923,0.582 0.22,0.084 0.427,0.105 0.621,0.063 0.194,-0.042 0.325,-0.164 0.392,-0.367 z" /></g><g
           transform="translate(319.6882,113.2136)"
           id="g112"><path
             id="path114"
             style="fill:#cbb5cf;fill-opacity:1;fill-rule:nonzero;stroke:none"
             d="m 0,0 v -4.178 h 2.38 c 0.726,0 1.317,0.211 1.773,0.633 0.455,0.422 0.683,0.962 0.683,1.62 0,0.574 -0.228,1.039 -0.683,1.393 C 3.697,-0.177 3.106,0 2.38,0 Z m 7.09,-6.507 2.279,-5.141 c 0.152,-0.27 0.173,-0.502 0.063,-0.696 -0.11,-0.195 -0.291,-0.291 -0.544,-0.291 l -3.722,-0.026 c -0.186,0 -0.364,0.051 -0.532,0.152 -0.169,0.101 -0.288,0.228 -0.354,0.38 L 2.608,-7.546 H 2.38 0 v -4.608 c 0,-0.152 -0.046,-0.274 -0.14,-0.367 -0.092,-0.093 -0.214,-0.14 -0.367,-0.14 h -3.671 c -0.152,0 -0.275,0.047 -0.367,0.14 -0.093,0.093 -0.14,0.215 -0.14,0.367 V 2.785 c 0,0.304 0.094,0.548 0.28,0.734 0.185,0.186 0.421,0.279 0.708,0.279 H 2.38 c 2.364,0 4.166,-0.515 5.406,-1.545 1.241,-1.029 1.861,-2.422 1.861,-4.178 0,-0.743 -0.122,-1.43 -0.367,-2.063 C 9.035,-4.621 8.711,-5.14 8.305,-5.545 7.9,-5.951 7.495,-6.271 7.09,-6.507" /></g><g
           transform="translate(346.0204,104.3515)"
           id="g116"><path
             id="path118"
             style="fill:#cbb5cf;fill-opacity:1;fill-rule:nonzero;stroke:none"
             d="m 0,0 c 0.253,0 0.443,-0.073 0.57,-0.215 0.126,-0.144 0.181,-0.334 0.165,-0.57 L 0.405,-3.318 C 0.354,-3.638 0.186,-3.799 -0.101,-3.799 h -11.344 c -0.219,0 -0.401,0.072 -0.545,0.216 -0.143,0.143 -0.215,0.324 -0.215,0.544 V 11.9 c 0,0.22 0.072,0.402 0.215,0.545 0.144,0.143 0.326,0.216 0.545,0.216 h 10.837 c 0.304,0 0.472,-0.162 0.507,-0.482 L 0.026,9.647 C 0.042,9.428 -0.013,9.242 -0.139,9.09 -0.266,8.938 -0.455,8.862 -0.709,8.862 H -7.267 V 6.381 h 5.368 c 0.152,0 0.274,-0.047 0.367,-0.14 0.093,-0.093 0.139,-0.215 0.139,-0.367 V 3.089 c 0,-0.152 -0.046,-0.275 -0.139,-0.367 -0.093,-0.093 -0.215,-0.14 -0.367,-0.14 h -5.368 l 0,-2.582 z" /></g><g
           transform="translate(356.439,106.959)"
           id="g120"><path
             id="path122"
             style="fill:#cbb5cf;fill-opacity:1;fill-rule:nonzero;stroke:none"
             d="M 0,0 H 3.647 L 1.748,5.495 Z m 10.28,-5.317 c 0.237,-0.608 0.009,-0.954 -0.683,-1.039 L 6.736,-6.71 c -0.237,-0.017 -0.443,0.034 -0.62,0.152 -0.178,0.119 -0.309,0.296 -0.393,0.532 l -0.912,2.634 h -5.9 l -0.734,-2.305 c -0.068,-0.219 -0.194,-0.392 -0.379,-0.519 -0.186,-0.127 -0.398,-0.19 -0.634,-0.19 h -2.937 c -0.32,0 -0.545,0.093 -0.67,0.278 -0.127,0.186 -0.131,0.439 -0.013,0.761 l 5.165,14.736 c 0.067,0.219 0.194,0.388 0.38,0.506 0.185,0.118 0.397,0.178 0.633,0.178 h 3.95 c 0.523,0 0.869,-0.22 1.038,-0.659 z" /></g><g
           transform="translate(383.4308,117.0121)"
           id="g124"><path
             id="path126"
             style="fill:#cbb5cf;fill-opacity:1;fill-rule:nonzero;stroke:none"
             d="m 0,0 c 0.152,0 0.274,-0.047 0.367,-0.14 0.093,-0.093 0.14,-0.215 0.14,-0.367 V -3.469 C 0.507,-3.621 0.46,-3.744 0.367,-3.837 0.274,-3.929 0.152,-3.976 0,-3.976 h -5.114 v -11.977 c 0,-0.152 -0.048,-0.274 -0.14,-0.367 -0.093,-0.093 -0.215,-0.139 -0.367,-0.139 h -3.773 c -0.152,0 -0.274,0.046 -0.367,0.139 -0.093,0.093 -0.139,0.215 -0.139,0.367 v 11.977 h -4.887 c -0.254,0 -0.443,0.067 -0.57,0.203 -0.126,0.135 -0.181,0.329 -0.165,0.582 l 0.254,2.709 C -15.234,-0.161 -15.065,0 -14.761,0 Z" /></g><g
           transform="translate(393.5596,101.0595)"
           id="g128"><path
             id="path130"
             style="fill:#cbb5cf;fill-opacity:1;fill-rule:nonzero;stroke:none"
             d="m 0,0 c 0,-0.136 -0.051,-0.254 -0.152,-0.355 -0.102,-0.101 -0.22,-0.152 -0.354,-0.152 h -3.926 c -0.135,0 -0.253,0.051 -0.354,0.152 -0.101,0.101 -0.152,0.219 -0.152,0.355 v 15.446 c 0,0.135 0.051,0.253 0.152,0.354 0.101,0.101 0.219,0.153 0.354,0.153 h 3.926 c 0.134,0 0.252,-0.052 0.354,-0.153 C -0.051,15.699 0,15.581 0,15.446 Z" /></g><g
           transform="translate(414.7026,117.0121)"
           id="g132"><path
             id="path134"
             style="fill:#cbb5cf;fill-opacity:1;fill-rule:nonzero;stroke:none"
             d="m 0,0 c 0.236,0 0.401,-0.064 0.494,-0.19 0.092,-0.127 0.105,-0.3 0.038,-0.519 l -5.014,-15.016 c -0.168,-0.489 -0.506,-0.734 -1.012,-0.734 h -4.786 c -0.507,0 -0.844,0.245 -1.013,0.734 l -4.938,14.788 c -0.033,0.101 -0.046,0.202 -0.037,0.304 0.008,0.101 0.059,0.193 0.151,0.278 0.093,0.085 0.215,0.135 0.368,0.152 l 3.823,0.405 c 0.168,0.017 0.321,-0.021 0.456,-0.113 0.134,-0.094 0.228,-0.225 0.278,-0.393 l 3.317,-11.75 3.241,11.522 C -4.532,-0.178 -4.296,0 -3.924,0 Z" /></g><g
           transform="translate(423.6916,106.959)"
           id="g136"><path
             id="path138"
             style="fill:#cbb5cf;fill-opacity:1;fill-rule:nonzero;stroke:none"
             d="M 0,0 H 3.647 L 1.748,5.495 Z m 10.28,-5.317 c 0.237,-0.608 0.009,-0.954 -0.683,-1.039 L 6.736,-6.71 c -0.237,-0.017 -0.443,0.034 -0.62,0.152 -0.178,0.119 -0.309,0.296 -0.393,0.532 l -0.911,2.634 h -5.901 l -0.734,-2.305 c -0.068,-0.219 -0.194,-0.392 -0.379,-0.519 -0.186,-0.127 -0.398,-0.19 -0.634,-0.19 h -2.937 c -0.32,0 -0.544,0.093 -0.671,0.278 -0.126,0.186 -0.13,0.439 -0.012,0.761 l 5.165,14.736 c 0.067,0.219 0.194,0.388 0.38,0.506 0.185,0.118 0.397,0.178 0.633,0.178 h 3.95 c 0.523,0 0.869,-0.22 1.038,-0.659 z" /></g><g
           transform="translate(285.1799,287.8471)"
           id="g140"><path
             id="path142"
             style="fill:#2c364f;fill-opacity:1;fill-rule:nonzero;stroke:none"
             d="m 0,0 c -0.035,3.807 -3.507,6.884 -7.788,6.884 -4.304,0 -7.793,-3.108 -7.793,-6.942 0,-0.145 0.012,-0.288 0.023,-0.431 2.781,0.591 5.078,0.158 6.5,-1.273 0.012,-0.014 1.187,-1.414 2.493,-1.336 0.68,0.036 1.303,0.469 1.85,1.287 l 0.538,-0.371 c -0.669,-0.999 -1.462,-1.53 -2.358,-1.575 -0.042,-0.002 -0.084,-0.003 -0.125,-0.003 -1.577,0 -2.841,1.508 -2.876,1.552 -1.251,1.257 -3.355,1.626 -5.94,1.065 0.001,-0.006 0.002,-0.013 0.003,-0.018 -5.056,-1.299 -8.758,-5.444 -8.758,-10.367 0,-0.874 0.121,-1.723 0.342,-2.537 1.142,0.526 4.884,2.008 8.198,0.59 1.345,-0.577 2.442,-1.563 3.285,-2.943 0.885,0.112 4.628,0.768 4.628,3.788 0,1.15 -0.313,2.031 -0.928,2.62 -1.124,1.075 -2.974,0.964 -3.764,0.919 -0.121,-0.008 -0.217,-0.013 -0.281,-0.013 v 0.66 c 0.055,0 0.138,0.005 0.243,0.011 0.798,0.049 2.92,0.174 4.248,-1.097 0.751,-0.719 1.132,-1.762 1.132,-3.1 0,-3.299 -3.61,-4.188 -4.937,-4.404 0.335,-0.648 0.625,-1.362 0.862,-2.158 0.043,-0.16 1.023,-3.928 -1.14,-6.148 -0.903,-0.927 -2.519,-1.511 -4.122,-1.511 -0.141,0 -0.283,0.005 -0.424,0.014 -1.704,0.112 -3.179,0.89 -4.152,2.189 l 0.517,0.4 c 1.099,-1.468 2.606,-1.86 3.677,-1.931 1.56,-0.109 3.183,0.42 4.042,1.303 1.898,1.948 0.984,5.475 0.977,5.502 -0.798,2.682 -2.181,4.461 -4.113,5.29 -3.109,1.33 -6.785,-0.171 -7.752,-0.617 0.008,-0.025 0.014,-0.051 0.023,-0.076 -3.947,-1.78 -6.659,-5.418 -6.659,-9.629 0,-4.48 3.07,-8.312 7.433,-9.944 1.633,0.86 4.88,2.359 7.846,2.459 3.83,0.127 7.289,-2.296 7.4,-5.186 0.1,-2.62 -1.214,-3.888 -2.334,-4.49 -0.166,-0.09 -0.725,-0.311 -0.833,-0.347 v 0 c -0.632,-0.209 -1.296,-0.312 -1.928,-0.312 -1.016,0 -1.941,0.245 -2.487,0.653 l 0.386,0.531 c 0.778,-0.58 2.888,-0.841 4.558,0.057 0.955,0.514 2.076,1.605 1.989,3.882 -0.096,2.497 -3.32,4.683 -6.729,4.552 -2.593,-0.087 -5.495,-1.341 -7.177,-2.189 -1.276,-1.709 -2.026,-3.758 -2.026,-5.965 0,-5.962 5.425,-10.795 12.118,-10.795 0.529,0 1.087,0.037 1.659,0.11 3.805,0.674 4.654,1.416 4.654,1.416 0.695,0.353 1.361,0.775 1.983,1.262 l -0.987,-13.111 -13.282,-19.085 c -1.278,-2.154 0.119,-4.384 2.928,-4.384 h 30.319 c 2.81,0 4.206,2.23 2.929,4.384 L 4.577,-61.823 3.575,-48.521 c 0.689,-0.572 1.443,-1.054 2.229,-1.453 0,0 0.848,-0.742 4.653,-1.416 0.573,-0.073 1.131,-0.11 1.66,-0.11 6.692,0 12.117,4.833 12.117,10.795 0,2.207 -0.75,4.256 -2.026,5.965 -1.682,0.848 -4.584,2.102 -7.176,2.189 -3.41,0.131 -6.633,-2.055 -6.729,-4.552 -0.087,-2.277 1.034,-3.368 1.989,-3.882 1.669,-0.898 3.779,-0.637 4.558,-0.057 l 0.385,-0.531 c -0.545,-0.408 -1.471,-0.653 -2.487,-0.653 -0.631,0 -1.295,0.103 -1.928,0.312 v 0 c -0.108,0.036 -0.667,0.257 -0.833,0.347 -1.12,0.602 -2.434,1.87 -2.334,4.49 0.111,2.89 3.57,5.313 7.4,5.186 2.967,-0.1 6.213,-1.599 7.847,-2.459 4.363,1.632 7.432,5.464 7.432,9.944 0,4.211 -2.711,7.849 -6.659,9.629 0.009,0.025 0.015,0.051 0.024,0.076 -0.967,0.446 -4.644,1.947 -7.752,0.617 -1.932,-0.829 -3.316,-2.608 -4.113,-5.29 -0.007,-0.027 -0.921,-3.554 0.977,-5.502 0.858,-0.883 2.482,-1.412 4.042,-1.303 1.07,0.071 2.577,0.463 3.676,1.931 l 0.518,-0.4 c -0.973,-1.299 -2.448,-2.077 -4.153,-2.189 -0.141,-0.009 -0.282,-0.014 -0.424,-0.014 -1.602,0 -3.218,0.584 -4.122,1.511 -2.163,2.22 -1.182,5.988 -1.139,6.148 0.237,0.796 0.527,1.51 0.861,2.158 -1.327,0.216 -4.936,1.105 -4.936,4.404 0,1.338 0.38,2.381 1.131,3.1 1.329,1.271 3.45,1.146 4.249,1.097 0.105,-0.006 0.187,-0.011 0.243,-0.011 v -0.66 c -0.064,0 -0.16,0.005 -0.281,0.013 -0.79,0.045 -2.64,0.156 -3.765,-0.919 -0.615,-0.589 -0.927,-1.47 -0.927,-2.62 0,-3.02 3.742,-3.676 4.627,-3.788 0.844,1.38 1.94,2.366 3.285,2.943 3.314,1.418 7.056,-0.064 8.199,-0.59 0.221,0.814 0.341,1.663 0.341,2.537 0,4.923 -3.702,9.068 -8.757,10.367 10e-4,0.005 10e-4,0.012 0.002,0.018 -2.585,0.561 -4.689,0.192 -5.94,-1.065 C 9.504,-2.252 8.241,-3.76 6.664,-3.76 c -0.042,0 -0.084,10e-4 -0.126,0.003 -0.896,0.045 -1.689,0.576 -2.357,1.575 l 0.537,0.371 c 0.548,-0.818 1.17,-1.251 1.851,-1.287 1.306,-0.078 2.481,1.322 2.492,1.336 1.423,1.431 3.719,1.864 6.5,1.273 0.012,0.143 0.023,0.286 0.023,0.431 0,3.834 -3.488,6.942 -7.792,6.942 C 3.51,6.884 0.039,3.807 0.003,0" /></g></g></g></g></svg>