<?xml version="1.0" encoding="UTF-8"?>
<svg id="Capa_2" data-name="Capa 2" xmlns="http://www.w3.org/2000/svg" viewBox="0 0 357.56 195.56">
  <defs>
    <style>
      .cls-1 {
        stroke-width: .25px;
      }

      .cls-1, .cls-2 {
        fill: #fff;
        stroke: #fff;
        stroke-miterlimit: 10;
      }
    </style>
  </defs>
  <g id="Layer_1" data-name="Layer 1">
    <g>
      <g>
        <path class="cls-1" d="M42.89,124.93v.93h-1.86v-.93c0-8.11-8.38-14.44-18.54-14.44s-18.54,6.34-18.54,14.44c0,14.35,40.99,14.35,40.9,30.75,0,8.66-9.97,16.3-22.36,16.3S.12,164.43,.12,155.67v-.93H1.99v.93c0,8.01,9.32,14.44,20.5,14.44s20.5-6.52,20.5-14.44c0-14.63-40.81-14.44-40.9-30.75,0-8.85,8.94-16.3,20.4-16.3s20.4,7.45,20.4,16.3Z"/>
        <path class="cls-1" d="M58.91,109.55v-.93h1.86v63.35h-1.86v-62.42Z"/>
        <path class="cls-1" d="M72.89,109.93l-.56-1.3h2.05l.19,.56,26.27,59.53,26.09-59.53,.19-.56h2.05l-.56,1.3-26.93,61.49c-.28,.65-1.4,.65-1.68,0l-27.11-61.49Z"/>
        <path class="cls-1" d="M134.19,171.42l-.19,.56h-2.05l.56-1.3,27.02-61.49c.28-.65,1.4-.65,1.68,0l27.02,61.49,.56,1.3h-2.05l-.19-.56-26.18-59.53-26.18,59.53Z"/>
        <path class="cls-1" d="M230.24,141.07c5.55,4.19,9.63,9.71,15.85,29.69l.37,1.21h-1.96l-.28-.65c-6.52-21.4-10.6-25.78-16.96-30.09h-25.9v30.74h-1.86v-.93l.05-29.9h-.05s.05-.89,.05-.89l.05-30.6c0-.56,.37-.93,.93-.93l27.02-.09c10.25,0,18.54,7.36,18.54,16.4,0,8.17-6.91,14.94-15.85,16.05Zm-5.75-1.69h-.02s3.17-.01,3.17-.01c9.04,0,16.58-6.34,16.58-14.35s-7.55-14.53-16.68-14.53h-26.18v28.97l23.12-.08Z"/>
        <path class="cls-1" d="M277.95,140.58v31.4h-1.86v-31.39l-20.5-30.47-1.03-1.49h2.24l.28,.37,19.94,29.63,19.57-29.63,.28-.37h2.24l-1.03,1.49-20.12,30.46Z"/>
        <path class="cls-1" d="M302.78,171.42l-.19,.56h-2.05l.56-1.3,27.02-61.49c.28-.65,1.4-.65,1.68,0l27.02,61.49,.56,1.3h-2.05l-.19-.56-26.18-59.53-26.18,59.53Z"/>
      </g>
      <g>
        <path class="cls-2" d="M46.72,193.59c.24,.61,0,.95-.68,1.04l-2.86,.35c-.24,.02-.44-.03-.62-.15-.18-.12-.31-.3-.39-.53l-.91-2.63h-5.9l-.73,2.3c-.07,.22-.19,.39-.38,.52-.19,.13-.4,.19-.63,.19h-2.94c-.32,0-.54-.09-.67-.28-.13-.19-.13-.44-.01-.76l5.17-14.74c.07-.22,.19-.39,.38-.51,.19-.12,.4-.18,.63-.18h3.95c.52,0,.87,.22,1.04,.66l5.57,14.71Zm-10.28-5.32h3.65l-1.9-5.5-1.75,5.5Z"/>
        <path class="cls-2" d="M65.38,178.22c.15,0,.27,.05,.37,.14s.14,.22,.14,.37v2.96c0,.15-.05,.28-.14,.37-.09,.09-.21,.14-.37,.14h-5.11v11.98c0,.15-.05,.27-.14,.37-.09,.09-.21,.14-.37,.14h-3.77c-.15,0-.27-.05-.37-.14-.09-.09-.14-.21-.14-.37v-11.98h-4.89c-.25,0-.44-.07-.57-.2-.13-.13-.18-.33-.17-.58l.25-2.71c.03-.32,.2-.48,.51-.48h14.76Z"/>
        <path class="cls-2" d="M84.24,193.59c.24,.61,0,.95-.68,1.04l-2.86,.35c-.24,.02-.44-.03-.62-.15-.18-.12-.31-.3-.39-.53l-.91-2.63h-5.9l-.73,2.3c-.07,.22-.19,.39-.38,.52-.19,.13-.4,.19-.63,.19h-2.94c-.32,0-.54-.09-.67-.28-.13-.19-.13-.44-.01-.76l5.17-14.74c.07-.22,.19-.39,.38-.51,.19-.12,.4-.18,.63-.18h3.95c.52,0,.87,.22,1.04,.66l5.57,14.71Zm-10.28-5.32h3.65l-1.9-5.5-1.75,5.5Z"/>
        <path class="cls-2" d="M101.31,188.53l2.28,5.14c.15,.27,.17,.5,.06,.7-.11,.19-.29,.29-.54,.29l-3.72,.03c-.19,0-.36-.05-.53-.15-.17-.1-.29-.23-.35-.38l-1.67-4.58h-2.61v4.61c0,.15-.05,.27-.14,.37-.09,.09-.21,.14-.37,.14h-3.67c-.15,0-.27-.05-.37-.14-.09-.09-.14-.21-.14-.37v-14.94c0-.3,.09-.55,.28-.73,.18-.19,.42-.28,.71-.28h6.08c2.36,0,4.17,.52,5.41,1.55,1.24,1.03,1.86,2.42,1.86,4.18,0,.74-.12,1.43-.37,2.06-.24,.63-.57,1.15-.97,1.56-.41,.41-.81,.73-1.22,.96Zm-7.09-6.51v4.18h2.38c.73,0,1.32-.21,1.77-.63,.46-.42,.68-.96,.68-1.62,0-.57-.23-1.04-.68-1.39-.46-.35-1.05-.53-1.77-.53h-2.38Z"/>
        <path class="cls-2" d="M125.72,193.59c.24,.61,0,.95-.68,1.04l-2.86,.35c-.24,.02-.44-.03-.62-.15-.18-.12-.31-.3-.39-.53l-.91-2.63h-5.9l-.73,2.3c-.07,.22-.19,.39-.38,.52-.19,.13-.4,.19-.63,.19h-2.94c-.32,0-.54-.09-.67-.28-.13-.19-.13-.44-.01-.76l5.17-14.74c.07-.22,.19-.39,.38-.51,.19-.12,.4-.18,.63-.18h3.95c.52,0,.87,.22,1.04,.66l5.57,14.71Zm-10.28-5.32h3.65l-1.9-5.5-1.75,5.5Z"/>
        <path class="cls-2" d="M140.15,186.4l5.04,7.19c.2,.3,.26,.55,.16,.73-.09,.19-.32,.3-.7,.35l-2.81,.35c-.2,.02-.4-.02-.6-.11-.19-.09-.35-.23-.47-.42l-3.19-4.56-2.53,4.2c-.22,.35-.57,.53-1.06,.53h-3.77c-.35,0-.59-.11-.7-.32-.11-.21-.05-.47,.17-.77l5.32-7.32-4.71-6.71c-.17-.22-.24-.43-.22-.62,.03-.19,.27-.35,.75-.47l2.63-.61c.39-.08,.74,.09,1.06,.53l3.09,4.41,2.56-4.05c.22-.35,.57-.53,1.06-.53h3.54c.35,0,.58,.11,.68,.32,.1,.21,.04,.47-.18,.77l-5.14,7.09Z"/>
        <path class="cls-2" d="M155.5,194.17c0,.14-.05,.25-.15,.35-.1,.1-.22,.15-.35,.15h-3.93c-.13,0-.25-.05-.35-.15s-.15-.22-.15-.35v-15.45c0-.13,.05-.25,.15-.35s.22-.15,.35-.15h3.93c.13,0,.25,.05,.35,.15,.1,.1,.15,.22,.15,.35v15.45Z"/>
        <path class="cls-2" d="M177.5,193.59c.24,.61,0,.95-.68,1.04l-2.86,.35c-.24,.02-.44-.03-.62-.15-.18-.12-.31-.3-.39-.53l-.91-2.63h-5.9l-.73,2.3c-.07,.22-.19,.39-.38,.52-.19,.13-.4,.19-.63,.19h-2.94c-.32,0-.54-.09-.67-.28-.13-.19-.13-.44-.01-.76l5.17-14.74c.07-.22,.19-.39,.38-.51,.19-.12,.4-.18,.63-.18h3.95c.52,0,.87,.22,1.04,.66l5.57,14.71Zm-10.28-5.32h3.65l-1.9-5.5-1.75,5.5Z"/>
        <path class="cls-2" d="M202.9,192.78c.07,.2,.07,.41,.01,.61-.06,.2-.16,.35-.29,.43-.64,.42-1.46,.73-2.47,.94-1.01,.2-2.06,.3-3.15,.3-1.25,0-2.4-.2-3.46-.61-1.06-.41-1.96-.98-2.71-1.73-.75-.75-1.33-1.65-1.73-2.71-.41-1.05-.61-2.2-.61-3.43s.21-2.46,.63-3.54c.42-1.08,1.02-2.01,1.8-2.79,.78-.78,1.71-1.37,2.8-1.79,1.09-.41,2.27-.62,3.56-.62,.98,0,1.91,.09,2.8,.28,.89,.19,1.63,.47,2.24,.84,.17,.1,.3,.23,.38,.38,.08,.15,.1,.3,.05,.43l-.91,2.66c-.08,.22-.21,.37-.38,.46-.17,.08-.35,.09-.53,.03-1.1-.46-2.31-.71-3.65-.76-1.18,0-2.14,.41-2.87,1.23-.73,.82-1.1,1.89-1.1,3.2,0,1.25,.34,2.26,1.01,3.03,.67,.77,1.57,1.15,2.68,1.15,.78,0,1.49-.05,2.15-.15,.66-.1,1.3-.3,1.92-.58,.22-.08,.43-.11,.62-.06,.19,.04,.32,.16,.39,.37l.81,2.46Z"/>
        <path class="cls-2" d="M220.32,188.53l2.28,5.14c.15,.27,.17,.5,.06,.7-.11,.19-.29,.29-.54,.29l-3.72,.03c-.19,0-.36-.05-.53-.15-.17-.1-.29-.23-.35-.38l-1.67-4.58h-2.61v4.61c0,.15-.05,.27-.14,.37-.09,.09-.21,.14-.37,.14h-3.67c-.15,0-.27-.05-.37-.14-.09-.09-.14-.21-.14-.37v-14.94c0-.3,.09-.55,.28-.73,.18-.19,.42-.28,.71-.28h6.08c2.36,0,4.17,.52,5.41,1.55,1.24,1.03,1.86,2.42,1.86,4.18,0,.74-.12,1.43-.37,2.06-.24,.63-.57,1.15-.97,1.56s-.81,.73-1.22,.96Zm-7.09-6.51v4.18h2.38c.73,0,1.32-.21,1.77-.63,.46-.42,.68-.96,.68-1.62,0-.57-.23-1.04-.68-1.39-.46-.35-1.05-.53-1.77-.53h-2.38Z"/>
        <path class="cls-2" d="M239.56,190.88c.25,0,.44,.07,.57,.22,.13,.14,.18,.33,.17,.57l-.33,2.53c-.05,.32-.22,.48-.51,.48h-11.34c-.22,0-.4-.07-.54-.22-.14-.14-.22-.32-.22-.54v-14.94c0-.22,.07-.4,.22-.54,.14-.14,.33-.22,.54-.22h10.84c.3,0,.47,.16,.51,.48l.13,2.53c.02,.22-.04,.41-.17,.56-.13,.15-.32,.23-.57,.23h-6.56v2.48h5.37c.15,0,.27,.05,.37,.14,.09,.09,.14,.21,.14,.37v2.79c0,.15-.05,.27-.14,.37-.09,.09-.21,.14-.37,.14h-5.37v2.58h7.27Z"/>
        <path class="cls-2" d="M260.26,193.59c.24,.61,0,.95-.68,1.04l-2.86,.35c-.24,.02-.44-.03-.62-.15-.18-.12-.31-.3-.39-.53l-.91-2.63h-5.9l-.73,2.3c-.07,.22-.19,.39-.38,.52-.19,.13-.4,.19-.63,.19h-2.94c-.32,0-.54-.09-.67-.28-.13-.19-.13-.44-.01-.76l5.17-14.74c.07-.22,.19-.39,.38-.51,.19-.12,.4-.18,.63-.18h3.95c.52,0,.87,.22,1.04,.66l5.57,14.71Zm-10.28-5.32h3.65l-1.9-5.5-1.75,5.5Z"/>
        <path class="cls-2" d="M276.97,178.22c.15,0,.27,.05,.37,.14s.14,.22,.14,.37v2.96c0,.15-.05,.28-.14,.37-.09,.09-.21,.14-.37,.14h-5.11v11.98c0,.15-.05,.27-.14,.37-.09,.09-.21,.14-.37,.14h-3.77c-.15,0-.27-.05-.37-.14-.09-.09-.14-.21-.14-.37v-11.98h-4.89c-.25,0-.44-.07-.57-.2-.13-.13-.18-.33-.17-.58l.25-2.71c.03-.32,.2-.48,.51-.48h14.76Z"/>
        <path class="cls-2" d="M287.1,194.17c0,.14-.05,.25-.15,.35-.1,.1-.22,.15-.35,.15h-3.93c-.13,0-.25-.05-.35-.15-.1-.1-.15-.22-.15-.35v-15.45c0-.13,.05-.25,.15-.35,.1-.1,.22-.15,.35-.15h3.93c.13,0,.25,.05,.35,.15,.1,.1,.15,.22,.15,.35v15.45Z"/>
        <path class="cls-2" d="M308.24,178.22c.24,0,.4,.06,.49,.19,.09,.13,.11,.3,.04,.52l-5.01,15.02c-.17,.49-.51,.73-1.01,.73h-4.79c-.51,0-.84-.25-1.01-.73l-4.94-14.79c-.03-.1-.05-.2-.04-.3,0-.1,.06-.19,.15-.28,.09-.08,.22-.13,.37-.15l3.82-.41c.17-.02,.32,.02,.46,.11,.13,.09,.23,.22,.28,.39l3.32,11.75,3.24-11.52c.1-.35,.34-.53,.71-.53h3.92Z"/>
        <path class="cls-2" d="M327.51,193.59c.24,.61,0,.95-.68,1.04l-2.86,.35c-.24,.02-.44-.03-.62-.15-.18-.12-.31-.3-.39-.53l-.91-2.63h-5.9l-.73,2.3c-.07,.22-.19,.39-.38,.52-.19,.13-.4,.19-.63,.19h-2.94c-.32,0-.54-.09-.67-.28-.13-.19-.13-.44-.01-.76l5.17-14.74c.07-.22,.19-.39,.38-.51,.19-.12,.4-.18,.63-.18h3.95c.52,0,.87,.22,1.04,.66l5.57,14.71Zm-10.28-5.32h3.65l-1.9-5.5-1.75,5.5Z"/>
      </g>
      <path class="cls-2" d="M178.72,7.38c-.04-3.81-3.51-6.88-7.79-6.88s-7.79,3.11-7.79,6.94c0,.15,.01,.29,.02,.43,2.78-.59,5.08-.16,6.5,1.27,.01,.01,1.19,1.41,2.49,1.34,.68-.04,1.3-.47,1.85-1.29l.54,.37c-.67,1-1.46,1.53-2.36,1.58-.04,0-.08,0-.13,0-1.58,0-2.84-1.51-2.88-1.55-1.25-1.26-3.36-1.63-5.94-1.07,0,0,0,.01,0,.02-5.06,1.3-8.76,5.44-8.76,10.37,0,.87,.12,1.72,.34,2.54,1.14-.53,4.88-2.01,8.2-.59,1.34,.58,2.44,1.56,3.29,2.94,.89-.11,4.63-.77,4.63-3.79,0-1.15-.31-2.03-.93-2.62-1.12-1.08-2.97-.96-3.76-.92-.12,0-.22,.01-.28,.01v-.66c.06,0,.14,0,.24-.01,.8-.05,2.92-.17,4.25,1.1,.75,.72,1.13,1.76,1.13,3.1,0,3.3-3.61,4.19-4.94,4.4,.33,.65,.62,1.36,.86,2.16,.04,.16,1.02,3.93-1.14,6.15-.9,.93-2.52,1.51-4.12,1.51-.14,0-.28,0-.42-.01-1.7-.11-3.18-.89-4.15-2.19l.52-.4c1.1,1.47,2.61,1.86,3.68,1.93,1.56,.11,3.18-.42,4.04-1.3,1.9-1.95,.98-5.48,.98-5.5-.8-2.68-2.18-4.46-4.11-5.29-3.11-1.33-6.79,.17-7.75,.62,0,.03,.01,.05,.02,.08-3.95,1.78-6.66,5.42-6.66,9.63,0,4.48,3.07,8.31,7.43,9.94,1.63-.86,4.88-2.36,7.85-2.46,3.83-.13,7.29,2.3,7.4,5.19,.1,2.62-1.21,3.89-2.33,4.49-.17,.09-.73,.31-.83,.35h0c-.63,.21-1.3,.31-1.93,.31-1.02,0-1.94-.24-2.49-.65l.39-.53c.78,.58,2.89,.84,4.56-.06,.95-.51,2.08-1.6,1.99-3.88-.1-2.5-3.32-4.68-6.73-4.55-2.59,.09-5.49,1.34-7.18,2.19-1.28,1.71-2.03,3.76-2.03,5.97,0,5.96,5.42,10.8,12.12,10.8,.53,0,1.09-.04,1.66-.11,3.81-.67,4.65-1.42,4.65-1.42,.69-.35,1.36-.77,1.98-1.26l-.99,13.11-13.28,19.09c-1.28,2.15,.12,4.38,2.93,4.38h30.32c2.81,0,4.21-2.23,2.93-4.38l-13.51-19.09-1-13.3c.69,.57,1.44,1.05,2.23,1.45,0,0,.85,.74,4.65,1.42,.57,.07,1.13,.11,1.66,.11,6.69,0,12.12-4.83,12.12-10.8,0-2.21-.75-4.26-2.03-5.97-1.68-.85-4.58-2.1-7.18-2.19-3.41-.13-6.63,2.05-6.73,4.55-.09,2.28,1.03,3.37,1.99,3.88,1.67,.9,3.78,.64,4.56,.06l.39,.53c-.55,.41-1.47,.65-2.49,.65-.63,0-1.3-.1-1.93-.31h0c-.11-.04-.67-.26-.83-.35-1.12-.6-2.43-1.87-2.33-4.49,.11-2.89,3.57-5.31,7.4-5.19,2.97,.1,6.21,1.6,7.85,2.46,4.36-1.63,7.43-5.46,7.43-9.94,0-4.21-2.71-7.85-6.66-9.63,0-.02,.02-.05,.02-.08-.97-.45-4.64-1.95-7.75-.62-1.93,.83-3.32,2.61-4.11,5.29,0,.03-.92,3.55,.98,5.5,.86,.88,2.48,1.41,4.04,1.3,1.07-.07,2.58-.46,3.68-1.93l.52,.4c-.97,1.3-2.45,2.08-4.15,2.19-.14,0-.28,.01-.42,.01-1.6,0-3.22-.58-4.12-1.51-2.16-2.22-1.18-5.99-1.14-6.15,.24-.8,.53-1.51,.86-2.16-1.33-.22-4.94-1.1-4.94-4.4,0-1.34,.38-2.38,1.13-3.1,1.33-1.27,3.45-1.15,4.25-1.1,.11,0,.19,.01,.24,.01v.66c-.06,0-.16,0-.28-.01-.79-.05-2.64-.16-3.76,.92-.62,.59-.93,1.47-.93,2.62,0,3.02,3.74,3.68,4.63,3.79,.84-1.38,1.94-2.37,3.29-2.94,3.31-1.42,7.06,.06,8.2,.59,.22-.81,.34-1.66,.34-2.54,0-4.92-3.7-9.07-8.76-10.37,0,0,0-.01,0-.02-2.58-.56-4.69-.19-5.94,1.07-.03,.04-1.3,1.55-2.88,1.55-.04,0-.08,0-.13,0-.9-.05-1.69-.58-2.36-1.58l.54-.37c.55,.82,1.17,1.25,1.85,1.29,1.31,.08,2.48-1.32,2.49-1.34,1.42-1.43,3.72-1.86,6.5-1.27,.01-.14,.02-.29,.02-.43,0-3.83-3.49-6.94-7.79-6.94s-7.75,3.08-7.79,6.88"/>
    </g>
  </g>
</svg>