<svg width="65" height="65" viewBox="0 0 65 65" fill="none" xmlns="http://www.w3.org/2000/svg">
<path d="M57.8835 31.6671L51.7723 28.9266C51.1521 25.552 49.6798 22.4786 47.5794 19.9343L48.8178 16.637C48.8377 16.5696 48.8773 16.3576 48.697 16.1753C48.477 15.9533 48.2016 16.0524 48.2016 16.0524L44.9479 17.2909C42.3956 15.1706 39.3064 13.6785 35.912 13.0504L33.1675 7.00464C33.1616 6.99473 32.9258 6.51123 32.3412 6.51123C31.7566 6.51123 31.5288 7.0086 31.5288 7.0086L28.8319 13.0226C25.3859 13.631 22.2491 15.127 19.6652 17.2711L16.5284 16.094C16.5284 16.094 16.2629 15.989 16.0409 16.209C15.819 16.4289 15.9161 16.7024 15.9161 16.7024L15.9022 16.6865L17.0991 19.8273C14.9312 22.4172 13.4134 25.5698 12.8011 29.0356L6.88018 31.7226C6.88018 31.7226 6.38281 31.9742 6.38281 32.5667C6.38281 33.1592 6.88018 33.3752 6.88018 33.3752L12.805 36.0305C13.4253 39.4962 14.9511 42.6509 17.1248 45.2408L15.9458 48.3855V48.3815C15.9458 48.3815 15.8428 48.647 16.0647 48.869C16.2411 49.0434 16.4491 49.0176 16.5264 48.9998L19.6969 47.791C22.2808 49.9271 25.4176 51.4192 28.8596 52.0216L31.5763 58.002C31.5763 58.002 31.7963 58.4993 32.3868 58.4993C32.9773 58.4993 33.2408 58.004 33.2408 58.002L35.9397 51.982C39.3361 51.3499 42.4293 49.8518 44.9776 47.7236L48.2452 48.9502C48.2452 48.9502 48.5107 49.0552 48.7306 48.8353C48.907 48.6569 48.8793 48.4509 48.8614 48.3736L47.6071 45.0743C49.6957 42.532 51.164 39.4586 51.7783 36.0879L57.8854 33.3138C57.8854 33.3138 58.3828 33.072 58.3828 32.4815C58.3828 31.891 57.8854 31.6671 57.8854 31.6671H57.8835ZM32.2956 51.2013C21.9737 51.2013 13.6095 42.8351 13.6095 32.5211C13.6095 22.2071 21.9737 13.837 32.2956 13.837C42.6175 13.837 50.9797 22.2012 50.9797 32.5211C50.9797 42.8411 42.6136 51.2013 32.2956 51.2013Z" fill="#1CAFE5"/>
<path d="M32.3769 15.3906C22.915 15.3906 15.2444 23.0612 15.2444 32.5211C15.2444 41.9811 22.915 49.6517 32.3769 49.6517C41.8389 49.6517 49.5114 41.9811 49.5114 32.5211C49.5114 23.0612 41.8389 15.3906 32.3769 15.3906ZM32.2996 17.279C35.2442 17.279 37.63 19.6648 37.63 22.6074C37.63 25.55 35.2423 27.9358 32.2996 27.9358C29.357 27.9358 26.9712 25.55 26.9712 22.6074C26.9712 19.6648 29.357 17.279 32.2996 17.279V17.279ZM31.5902 29.4794C32.0658 29.0019 32.8386 29.0019 33.3162 29.4794C33.7918 29.955 33.7918 30.7278 33.3162 31.2034C32.8386 31.6809 32.0658 31.6809 31.5902 31.2034C31.1147 30.7278 31.1147 29.957 31.5902 29.4794ZM31.0592 33.4604C30.5816 33.9359 29.8108 33.9359 29.3332 33.4604C28.8577 32.9848 28.8577 32.212 29.3332 31.7344C29.8108 31.2589 30.5816 31.2589 31.0592 31.7344C31.5328 32.212 31.5328 32.9828 31.0592 33.4604ZM33.6966 31.5858C34.1742 31.1083 34.947 31.1083 35.4226 31.5858C35.8981 32.0614 35.8981 32.8342 35.4226 33.3098C34.947 33.7854 34.1742 33.7854 33.6966 33.3098C33.223 32.8342 33.223 32.0614 33.6966 31.5858ZM16.6513 29.8916C16.6513 26.949 19.0371 24.5632 21.9797 24.5632C24.9223 24.5632 27.3101 26.949 27.3101 29.8916C27.3101 32.8342 24.9223 35.222 21.9797 35.222C19.0371 35.222 16.6513 32.8362 16.6513 29.8916ZM26.1231 46.6159C23.1785 46.6159 20.7947 44.2301 20.7947 41.2855C20.7947 38.3409 23.1805 35.9571 26.1231 35.9571C29.0657 35.9571 31.4515 38.3429 31.4515 41.2855C31.4515 44.2282 29.0638 46.6159 26.1231 46.6159V46.6159ZM31.4416 35.5648C30.9641 35.0892 30.9641 34.3184 31.4416 33.8408C31.9172 33.3633 32.69 33.3633 33.1656 33.8408C33.6412 34.3184 33.6412 35.0892 33.1656 35.5648C32.688 36.0404 31.9172 36.0404 31.4416 35.5648ZM38.4781 46.6159C35.5355 46.6159 33.1497 44.2301 33.1497 41.2855C33.1497 38.3409 35.5355 35.9571 38.4781 35.9571C41.4207 35.9571 43.8085 38.3429 43.8085 41.2855C43.8085 44.2282 41.4227 46.6159 38.4781 46.6159V46.6159ZM42.7761 35.222C39.8315 35.222 37.4457 32.8362 37.4457 29.8916C37.4457 26.947 39.8335 24.5632 42.7761 24.5632C45.7187 24.5632 48.1045 26.949 48.1045 29.8916C48.1045 32.8342 45.7168 35.222 42.7761 35.222V35.222Z" fill="#1CAFE5"/>
</svg>
