<svg width="3285" height="2571" viewBox="0 0 3285 2571" fill="none" xmlns="http://www.w3.org/2000/svg">
    <path fill-rule="evenodd" clip-rule="evenodd"
        d="M1637.29 1.08079C1633.9 2.01279 1629.84 5.39979 1628.11 8.72679C1627.21 10.4708 1616.17 34.8478 1603.58 62.8978C1590.99 90.9478 1580.37 114.209 1579.99 114.589C1579.6 114.969 1574.56 116.254 1568.79 117.444C1519.43 127.617 1470.36 150.251 1428.68 182.063C1423.39 186.097 1418.56 189.398 1417.93 189.398C1417.31 189.398 1404.88 184.928 1390.32 179.465C1364.53 169.791 1362.19 169.042 1358.54 169.283C1355.57 169.478 1352.79 173.124 1352.79 176.817C1352.79 178.736 1357.33 192.174 1363.15 207.463L1373.51 234.691L1366.01 244.291C1332.84 286.714 1309.58 337.707 1298.81 391.567L1297.68 397.236L1246.48 420.431C1218.33 433.189 1193.86 444.493 1192.11 445.55C1187.63 448.26 1184.4 455.295 1185.04 460.96C1186.06 470.039 1185.34 469.607 1243.91 495.812C1273.27 508.945 1297.36 519.738 1297.45 519.795C1297.55 519.852 1298.98 525.973 1300.64 533.398C1312.11 584.632 1334.45 632.092 1366.25 672.757L1373.96 682.617L1363.37 710.829C1357.55 726.346 1352.79 740.042 1352.79 741.265C1352.79 744.34 1357.11 748.398 1360.39 748.398C1361.87 748.398 1375.61 743.619 1390.92 737.777L1418.75 727.156L1428.52 734.612C1470.23 766.452 1518.72 788.897 1567.68 799.026L1580.61 801.701L1605.33 856.074C1632.69 916.257 1631.54 914.382 1641.4 915.199C1645.8 915.564 1647.46 915.195 1651.16 913.023C1656.43 909.938 1654.08 914.6 1683.71 848.323L1704.98 800.748L1713.94 799.031C1738.33 794.356 1766.96 784.342 1794.29 770.931C1815.86 760.346 1833.4 749.651 1850.35 736.762C1856.76 731.887 1862.61 727.466 1863.34 726.938C1864.28 726.265 1873.29 729.23 1893.42 736.835C1909.23 742.806 1923.54 747.653 1925.22 747.605C1928.62 747.508 1932.79 743.552 1932.79 740.423C1932.79 739.399 1928.01 726.036 1922.16 710.729C1916.32 695.422 1911.32 682.145 1911.06 681.225C1910.77 680.191 1914.16 674.772 1919.94 667.021C1951.1 625.261 1972.79 576.724 1982.78 526.398L1983.88 520.898L2038 496.398C2067.76 482.923 2093.22 471.035 2094.57 469.98C2101.9 464.258 2101.31 450.06 2093.52 444.957C2092.22 444.105 2067.11 432.634 2037.72 419.467C1993.17 399.507 1984.17 395.143 1983.6 393.213C1983.22 391.94 1981.26 383.923 1979.23 375.398C1968.39 329.791 1946.58 284.178 1917.73 246.779L1909.93 236.659L1920.86 207.525C1926.87 191.501 1931.79 177.246 1931.79 175.849C1931.79 172.506 1927.6 168.398 1924.19 168.398C1922.71 168.398 1908.52 173.351 1892.64 179.404L1863.77 190.409L1856.25 184.43C1825.3 159.834 1785.46 138.631 1747.29 126.437C1739.29 123.883 1718.57 118.547 1706.29 115.882C1704.73 115.543 1698.86 103.482 1679.7 61.2098C1652.6 1.43979 1652.86 1.88279 1643.77 0.975788C1641.3 0.730788 1638.39 0.777788 1637.29 1.08079ZM1686.79 132.265C1761.96 143.554 1825.76 176.223 1877.98 230.169C1928.88 282.747 1959.99 349.145 1968.3 422.898C1970.22 439.88 1970.22 476.916 1968.3 493.898C1959.56 571.501 1925.91 640.245 1870.16 694.407C1818.74 744.368 1755.6 774.92 1682.79 785.075C1666.98 787.279 1618.77 787.585 1602.79 785.583C1527.7 776.178 1461.04 743.753 1408.24 690.949C1345.87 628.584 1311.79 546.413 1311.79 458.398C1311.79 381.004 1338.65 306.725 1388.09 247.398C1397.19 236.479 1418.87 214.8 1429.79 205.701C1476.92 166.428 1534.26 140.974 1594.79 132.46C1615.18 129.591 1615.25 129.588 1645.79 129.93C1667.05 130.168 1676.35 130.697 1686.79 132.265ZM1607.6 158.909C1537.37 167.414 1475.66 197.922 1426.23 248.57C1380.54 295.381 1352.24 354.117 1343.18 420.898C1340.75 438.823 1340.72 477.916 1343.13 495.398C1349.81 543.805 1365.47 586.197 1390.63 623.926C1404.17 644.237 1411.56 653.254 1429.24 671.014C1462.71 704.639 1499.04 727.604 1542.91 742.867C1576.66 754.607 1605.7 759.398 1643.15 759.398C1691.4 759.398 1736.27 748.792 1778.21 727.474C1864.09 683.821 1923.92 602.665 1939.71 508.398C1944.27 481.194 1944.9 444.869 1941.29 418.519C1922.41 280.935 1814.04 174.763 1676.29 158.895C1660.38 157.062 1622.79 157.07 1607.6 158.909ZM1660.81 191.831C1689.86 197.923 1715.77 219.559 1727.9 247.847C1733.19 260.185 1734.29 266.551 1734.22 284.398C1734.17 299.379 1733.92 301.707 1731.47 309.686C1725 330.786 1711.5 349.555 1694.27 361.409C1687.7 365.931 1672.51 372.829 1664.29 375.027C1653.42 377.932 1627.15 377.701 1616.29 374.605C1551.31 356.078 1525.75 278.158 1567.38 225.504C1582.24 206.711 1604.98 193.806 1629.26 190.377C1636.78 189.315 1652.21 190.025 1660.81 191.831ZM1483.79 321.158C1507.19 328.313 1525.82 342.013 1538.22 361.18C1568.84 408.537 1551.19 471.5 1500.29 496.443C1486.19 503.353 1475.57 505.766 1459.29 505.766C1442.99 505.766 1432.38 503.35 1418.29 496.435C1366.43 470.979 1349.22 406.105 1381.82 358.949C1395.14 339.679 1416.82 325.015 1439.43 319.973C1449.38 317.757 1474.9 318.439 1483.79 321.158ZM1850.61 321.307C1883.6 330.946 1908.78 357.013 1916.97 390.021C1920.2 403.059 1920.02 422.273 1916.53 435.457C1906.21 474.443 1872.79 502.388 1832.25 505.916C1821.78 506.828 1807.9 505.072 1796.45 501.385C1765.21 491.325 1739.87 463.141 1733.36 431.19C1731.56 422.356 1731.3 404.543 1732.84 395.832C1739.53 358.049 1767.98 328.787 1806.79 319.766C1815.58 317.723 1841.46 318.633 1850.61 321.307ZM1651.57 399.947C1660.52 403.677 1666.78 414.274 1665.23 423.094C1664.24 428.761 1660.44 434.671 1655.69 437.968C1651.91 440.585 1650.64 440.898 1643.8 440.898C1637.13 440.898 1635.61 440.544 1632.02 438.17C1622.29 431.73 1619.28 418.606 1625.3 408.864C1630.77 400.02 1642.33 396.097 1651.57 399.947ZM1689.29 437.264C1691.49 438.266 1694.95 440.93 1696.98 443.185C1703.78 450.721 1704.34 460.404 1698.48 469.064C1688.06 484.47 1664.58 480.195 1659.68 461.999C1656.3 449.44 1667.42 435.442 1680.79 435.442C1683.26 435.442 1687.09 436.262 1689.29 437.264ZM1613.36 440.291C1621.46 443.971 1626.71 453.776 1625.36 462.73C1622.81 479.763 1601.78 487.297 1589.45 475.595C1577.95 464.68 1581.46 445.278 1595.99 439.447C1599.92 437.869 1609 438.31 1613.36 440.291ZM918.788 473.828C889.471 477.566 868.006 484.141 840.288 497.875C809.335 513.211 786.859 529.426 761.248 554.898C745.954 570.109 733.234 585.175 723.035 600.16C719.554 605.274 717.769 608.773 718.35 609.345C720.428 611.39 760.892 615.661 778.788 615.724C841.805 615.946 900.275 591.978 946.654 546.913C959.979 533.966 973.947 517.288 983.518 502.898C990.85 491.874 999.181 477.458 998.572 476.848C998.325 476.601 993.66 475.684 988.205 474.81C974.543 472.62 932.882 472.03 918.788 473.828ZM2312.29 473.002C2307.03 473.521 2293.14 475.344 2289.07 476.05L2285.85 476.608L2287.96 480.753C2297.79 500.074 2316.85 525.54 2335.25 543.934C2367.45 576.125 2403.99 597.379 2445.14 607.857C2472.39 614.794 2495.8 617.195 2519.45 615.476C2535.38 614.318 2564.48 610.621 2566.55 609.49C2567.46 608.996 2566.41 606.751 2562.83 601.558C2521.19 541.107 2458.88 495.251 2396.87 479.42C2378.68 474.776 2365.2 473.225 2340.29 472.91C2327.09 472.744 2314.49 472.785 2312.29 473.002ZM1650.36 477.291C1657.6 480.582 1662.8 489.046 1662.78 497.514C1662.76 502.383 1658.55 510.722 1654.65 513.627C1643.14 522.176 1628.18 518.799 1621.7 506.188C1619.63 502.168 1619.12 493.28 1620.72 489.074C1622.12 485.401 1627.62 479.54 1631.69 477.389C1636.41 474.896 1644.99 474.85 1650.36 477.291ZM646.995 522.306C631.298 532.954 621.122 541.278 611.28 551.522C582.35 581.632 564.807 618.848 558.1 664.34C555.066 684.919 555.998 726.69 559.816 741.285C560.688 744.618 560.501 744.889 548.054 758.285C541.098 765.772 528.891 779.435 520.929 788.647C512.967 797.859 506.269 805.212 506.044 804.988C505.82 804.763 506.436 799.701 507.413 793.739C509.818 779.057 509.825 751.095 507.427 735.494C503.7 711.254 497.238 691.241 485.276 666.898C474.889 645.762 460.178 623.76 445.392 607.248L440.332 601.597L434.922 609.678C427.709 620.451 418.904 637.389 413.444 650.994C393.132 701.606 392.78 756.106 412.399 812.503C420.115 834.68 429.531 854.382 441.809 874.038L447.519 883.178L436.115 900.487C407.945 943.246 379.258 994.868 358.439 1040.26C355.825 1045.96 353.513 1050.46 353.301 1050.24C353.09 1050.03 353.378 1046.49 353.942 1042.38C355.346 1032.12 355.305 997.88 353.875 986.898C347.377 936.997 326.154 888.636 291.781 845.398C283.467 834.94 258.744 808.969 253.568 805.256L250.848 803.305L243.805 817.364C208.225 888.388 204.098 960.834 231.348 1036.01C246.431 1077.62 273.82 1122.97 303.619 1155.67C307.012 1159.39 309.788 1162.86 309.788 1163.38C309.788 1163.9 307.496 1171.87 304.694 1181.11C296.787 1207.17 285.494 1253.22 279.854 1282.4C272.818 1318.8 273.669 1316.7 270.322 1305.93C260.971 1275.85 244.626 1245.03 224.96 1220.4C190.205 1176.87 136.42 1139.66 79.7248 1119.92C74.1528 1117.98 69.3568 1116.4 69.0668 1116.4C68.7768 1116.4 68.7818 1128.43 69.0778 1143.15C69.6258 1170.33 70.6768 1180.7 74.8258 1199.84C93.2338 1284.77 155.054 1358.24 251.078 1409.3L262.867 1415.57L262.148 1421.74C261.752 1425.12 261.397 1450.85 261.358 1478.9C261.281 1535.18 261.722 1543.3 268.309 1606.9L268.93 1612.9L265.392 1604.52C260.999 1594.13 249.657 1573.45 241.924 1561.73C212.833 1517.66 170.062 1480.82 116.816 1453.95C87.6608 1439.24 55.7878 1427.68 27.0888 1421.41L18.5878 1419.55L19.2438 1428.72C23.4528 1487.52 39.0458 1534.51 69.2698 1579.46C91.7448 1612.89 119.678 1641.44 155.579 1667.67C189.842 1692.7 235.103 1716.07 276.406 1730.07L292.523 1735.53L295.774 1748.15C307.699 1794.44 328.415 1853.41 349.693 1901.65C354.942 1913.55 355.854 1915.83 354.981 1914.9C354.467 1914.35 349.544 1908.5 344.042 1901.9C332.625 1888.2 311.301 1867.09 298.788 1857.09C252.95 1820.45 196.121 1797.43 132.788 1789.87C103.791 1786.4 61.1448 1786.89 31.2878 1791.02C20.7928 1792.47 0.627756 1796.22 0.0147557 1796.84C-0.466244 1797.32 10.9188 1816.18 18.5938 1827.61C57.1878 1885.11 115.496 1928.3 186.319 1951.85C217.738 1962.3 253.262 1969.34 290.288 1972.45C314.664 1974.5 368.794 1973.6 381.288 1970.94C382.973 1970.58 384.628 1972.98 391.788 1986.17C413.189 2025.59 445.05 2075.22 472.172 2111.39C473.16 2112.7 473.047 2112.7 471.187 2111.39C470.031 2110.57 466.276 2107.65 462.844 2104.9C415.549 2067.01 354.681 2041.7 288.721 2032.51C239.921 2025.7 181.896 2027.94 133.288 2038.52C117.292 2042 100.788 2046.63 100.788 2047.64C100.788 2048.18 103.781 2052.96 107.44 2058.26C143.884 2111.07 182.106 2145.93 236.182 2175.7C313.848 2218.46 418.701 2235.2 525.288 2221.87C542.338 2219.74 559.871 2216.34 559.222 2215.29C557.495 2212.5 561.159 2215.89 573.494 2228.52C622.959 2279.14 686.185 2330.98 750.788 2373.88C793.466 2402.22 825.482 2420.8 871.09 2443.69C893.904 2455.14 897.61 2456.69 903.09 2457.13C908.223 2457.54 909.701 2457.29 911.691 2455.68C913.81 2453.96 914.187 2452.56 914.892 2443.81C915.331 2438.36 915.713 2428.83 915.739 2422.64C915.794 2410.02 913.951 2404.07 908.868 2400.45C907.392 2399.4 896.532 2393.64 884.736 2387.64C800.336 2344.72 722.731 2292.06 650.288 2228.56C633.111 2213.5 603.788 2186.14 603.788 2185.18C603.788 2184.76 607.286 2180.25 611.562 2175.15C653.038 2125.76 679.831 2072.24 691.186 2016.1C695.388 1995.32 697.044 1977.82 697.073 1953.9C697.099 1931.48 696.247 1920.61 692.72 1898.4C684.314 1845.46 659.886 1785.5 627.977 1739.47L621.441 1730.04L616.434 1735.47C608.059 1744.55 592.74 1764.22 584.164 1776.9C551.618 1825.02 532.726 1877.64 526.718 1936.9C524.973 1954.12 525.209 1990.78 527.186 2009.4C531.36 2048.7 542.111 2092.91 556.232 2128.84C558.164 2133.75 559.59 2137.93 559.401 2138.12C558.627 2138.89 537.534 2114.21 518.619 2090.4C484.755 2047.77 452.884 2001.14 428.051 1957.9C416.05 1937 400.66 1908.27 400.994 1907.38C401.156 1906.95 406.688 1902.68 413.288 1897.88C447.807 1872.79 477.56 1842.32 498.462 1810.67C506.852 1797.96 519.77 1773.58 524.834 1760.9C547.341 1704.53 553.077 1642.83 541.709 1579.4C538.366 1560.74 529.191 1526.61 526.847 1524.11C526.439 1523.67 521.196 1526.55 515.196 1530.5C443.826 1577.53 396.543 1643.47 376.333 1724.14C369.778 1750.3 366.193 1776.8 364.998 1807.9L364.268 1826.9L358.931 1813.4C346.819 1782.76 329.661 1728.01 319.913 1688.9C311.663 1655.79 300.198 1595.19 300.971 1588.78C301.262 1586.36 302.39 1585.77 314.788 1581.45C351.071 1568.81 383.265 1551.68 410.788 1530.36C429.045 1516.22 451.31 1492.8 465.224 1473.11C486.86 1442.48 503.828 1401.36 511.732 1360.4C516.305 1336.7 518.779 1304.44 517.345 1287.23L516.622 1278.56L511.455 1280.36C482.937 1290.26 451.475 1305.06 433.788 1316.88C364.39 1363.27 317.936 1435.61 299.793 1525.53C298.14 1533.73 296.788 1541.64 296.788 1543.11C296.788 1544.73 296.433 1545.42 295.898 1544.85C295.409 1544.32 294.171 1533.55 293.148 1520.9C290.822 1492.14 290.479 1402.82 292.595 1376.9C295.736 1338.41 302.032 1285.93 303.724 1284.11C304.127 1283.68 310.043 1282.86 316.872 1282.29C341.636 1280.21 370.246 1274.33 391.788 1266.88C431.189 1253.27 462.921 1233.4 492.313 1203.95C518.371 1177.84 537.737 1149.38 552.765 1115.11C558.459 1102.13 566.91 1078.47 568.29 1071.65L568.947 1068.4L562.617 1068.41C545.117 1068.44 517.156 1072.21 496.031 1077.39C429.746 1093.65 370.272 1135.42 326.917 1196.15C322.892 1201.79 319.459 1206.4 319.287 1206.4C318.87 1206.4 319.191 1205.1 325.39 1181.77C338.007 1134.27 356.285 1082.47 377.034 1035.4L383.426 1020.9L389.357 1020.96C392.619 1020.99 404.288 1021.38 415.288 1021.83C463.136 1023.76 503.609 1015.48 544.288 995.412C573.967 980.773 593.313 966.77 616.359 943.242C635.838 923.355 649.37 905.695 663.233 882.066C669.522 871.347 677.788 854.276 677.788 852.008C677.788 849.97 663.067 848.876 637.288 848.996C590.599 849.213 551.773 858.515 511.43 879.147C483.546 893.407 460.171 910.388 435.375 934.398C427.707 941.823 421.824 947.223 422.302 946.398C425.837 940.298 460.953 886.633 483.811 852.398C500.727 827.062 516.392 804.861 524.029 795.398C537.755 778.39 560.149 752.182 563.953 748.672L566.367 746.445L579.827 749.819C622.39 760.486 662.814 761.162 701.788 751.859C734.185 744.125 772.897 723.987 801.288 700.099C820.936 683.567 851.105 649.228 847.627 647.357C842.21 644.443 814.704 638.202 797.124 635.897C782.592 633.992 750.814 633.965 736.788 635.844C712.862 639.051 684.151 647.165 664.335 656.32C659.46 658.572 655.287 660.23 655.061 660.005C654.836 659.779 656.597 658.088 658.976 656.246C666.554 650.381 691.788 629.198 691.788 628.703C691.788 628.106 683.388 634.693 659.93 653.684C649.833 661.858 641.753 668.175 641.974 667.722C642.196 667.269 645.152 661.273 648.545 654.398C657.984 635.268 663.35 616.771 665.721 595.187C667.06 583.005 667.081 562.668 665.767 550.898C664.036 535.385 659.638 515.398 657.955 515.398C657.527 515.398 652.595 518.507 646.995 522.306ZM2624.37 521.993C2618.95 543.584 2616.89 566.667 2618.56 587.057C2620.76 613.946 2626.2 634.38 2636.86 655.811C2640.12 662.363 2642.79 667.967 2642.79 668.264C2642.79 668.561 2641.1 667.203 2639.04 665.247C2635.76 662.139 2620.99 650.213 2598.54 632.538C2594.82 629.617 2591.79 627.429 2591.79 627.678C2591.79 628.111 2602.98 637.513 2622.09 653.148C2626.97 657.135 2630.75 660.398 2630.5 660.398C2630.25 660.398 2624.77 658.139 2618.34 655.378C2584.1 640.685 2553.96 634.398 2517.79 634.398C2491.15 634.398 2468.77 637.649 2444.58 645.032L2435.86 647.69L2440.08 653.7C2446.18 662.408 2461.36 679.826 2469.71 687.693C2537.13 751.235 2618.38 772.321 2707.38 749.375L2719.1 746.352L2724.19 752.054C2755.41 787.01 2771.33 807.795 2801.75 853.373C2829.55 895.005 2859.35 940.717 2861.76 945.398C2862.47 946.773 2856.58 941.564 2848.67 933.823C2793 879.34 2729.37 851.521 2654.1 848.754C2636.88 848.12 2609.12 849.72 2607.36 851.448C2605.89 852.888 2620.68 881.478 2630.8 896.751C2643.3 915.616 2653.84 928.506 2670.26 944.975C2686.42 961.194 2693.43 966.993 2711.25 978.89C2743.35 1000.33 2781.92 1014.67 2821.79 1020C2835.84 1021.87 2867.55 1022.39 2888.29 1021.07L2901.29 1020.25L2908.21 1036.07C2926.26 1077.36 2942.43 1121.88 2954.28 1162.9C2961.25 1187.05 2966.07 1205.45 2965.55 1205.97C2965.37 1206.15 2961.57 1201.26 2957.11 1195.1C2933.44 1162.37 2907.28 1136.89 2875.76 1115.84C2839.55 1091.67 2799.45 1076.8 2754.77 1070.97C2741.93 1069.3 2715.79 1067.77 2715.79 1068.69C2715.79 1071.03 2723.93 1095.33 2728.43 1106.4C2745.15 1147.56 2772.41 1187.21 2802.09 1213.53C2848.21 1254.42 2902.14 1276.63 2969.17 1282.33C2975.71 1282.88 2981.19 1283.47 2981.36 1283.64C2981.83 1284.1 2987.52 1325.69 2988.72 1337.4C2993.74 1386.33 2995.61 1436.44 2993.96 1477.79C2992.87 1505.02 2990.13 1544.39 2989.26 1545.26C2988.84 1545.68 2988.92 1546.06 2985.3 1527.07C2965.96 1425.86 2906.83 1342.87 2824.79 1301.8C2813.05 1295.92 2789.42 1286.02 2774.79 1280.85L2768.29 1278.55L2767.75 1288.22C2766.98 1302.07 2768.44 1330.72 2770.7 1345.93C2778.42 1398 2797.48 1444.24 2827.48 1483.66C2831.77 1489.29 2841.8 1500.44 2849.78 1508.44C2882.65 1541.39 2921.97 1564.94 2974.27 1583.01L2984.83 1586.66L2984.32 1589.78C2984.03 1591.49 2982.63 1600.32 2981.2 1609.4C2975.68 1644.48 2964.99 1691.92 2954.31 1728.78C2945.24 1760.08 2923.54 1823.05 2920.93 1825.66C2920.46 1826.12 2919.82 1817.14 2919.49 1805.7C2918.81 1781.77 2916.93 1764.32 2912.67 1742.53C2896.77 1661.16 2854.63 1593.47 2789.29 1544.4C2777.72 1535.71 2759.58 1523.4 2758.35 1523.4C2757.55 1523.4 2750.81 1545.17 2747.8 1557.5C2736.46 1603.97 2734.59 1658.62 2742.87 1702.26C2750.46 1742.32 2766.75 1782.14 2788.53 1813.9C2803.78 1836.14 2829.24 1864.08 2849.79 1881.11C2857.55 1887.54 2879.96 1904.28 2883.38 1906.19C2884.51 1906.82 2882.28 1911.67 2872.68 1929.44C2837 1995.49 2795.89 2055.81 2746.62 2114.4C2728.53 2135.91 2724.87 2140.08 2724.83 2139.25C2724.8 2138.89 2726.76 2133.49 2729.17 2127.25C2739.86 2099.56 2749.75 2063.33 2754.24 2035.4C2770.35 1935 2750.12 1845.24 2693.71 1766.9C2683.19 1752.29 2664.2 1729.59 2663.31 1730.57C2660.71 1733.44 2649.75 1749.95 2643.52 1760.4C2596.14 1839.87 2577.93 1929.66 2592.73 2010.94C2603.29 2068.96 2630.8 2124.7 2674.5 2176.59L2681.82 2185.27L2665.05 2200.96C2583.32 2277.44 2497.33 2338.14 2402.79 2386.1C2376.32 2399.53 2371.83 2402.82 2369.82 2410.28C2368.55 2415 2369.38 2446.97 2370.9 2451.99C2372.2 2456.26 2375.45 2457.76 2382.25 2457.19C2386.9 2456.81 2391.79 2454.76 2411.07 2445.13C2521.16 2390.17 2614.9 2323.28 2702.2 2237.42C2715.35 2224.48 2725.78 2214.46 2725.39 2215.15C2724.99 2215.84 2725.03 2216.4 2725.48 2216.41C2725.92 2216.42 2731.24 2217.33 2737.29 2218.43C2789.63 2227.97 2853.8 2228.86 2909.29 2220.83C2984.43 2209.95 3048.43 2182.94 3105.08 2138.18C3118.33 2127.72 3146.95 2098.87 3157.79 2085.07C3169.52 2070.12 3184.8 2048.04 3183.97 2047.22C3182.8 2046.07 3165.91 2041.55 3151.29 2038.48C3135.66 2035.2 3115.58 2032.15 3096.79 2030.21C3078 2028.27 3027.98 2028.59 3009.33 2030.77C2955.89 2037.01 2912.23 2050.37 2869.62 2073.5C2855.34 2081.25 2832.95 2096.05 2821.5 2105.3C2816.66 2109.2 2812.51 2112.4 2812.28 2112.4C2812.05 2112.4 2816.36 2106.26 2821.86 2098.75C2847.77 2063.39 2871.64 2025.37 2898.07 1977.33L2901.69 1970.75L2907.99 1971.53C2933.03 1974.64 2979.96 1974.35 3010.42 1970.9C3086.09 1962.34 3151.57 1936.79 3203.79 1895.44C3216.24 1885.59 3241.62 1860.37 3251.14 1848.4C3262.3 1834.37 3285.94 1798.13 3284.68 1796.99C3283.77 1796.16 3269.28 1793.36 3256.29 1791.49C3214.47 1785.49 3168.87 1786.18 3128.79 1793.42C3075.67 1803.02 3026.67 1824.93 2985.79 1857.37C2972.67 1867.78 2948.85 1891.61 2938.01 1905.18C2933.49 1910.84 2929.79 1915.06 2929.79 1914.56C2929.79 1914.06 2931.41 1910.1 2933.4 1905.77C2952.71 1863.64 2977.06 1794.97 2988.38 1750.75L2992.25 1735.6L3007.37 1730.53C3042.98 1718.59 3079.3 1700.89 3111.57 1679.77C3202.48 1620.26 3254.23 1540.41 3264.25 1444.18C3265.1 1436.08 3265.79 1427.24 3265.79 1424.53V1419.61L3256.54 1421.61C3237.76 1425.67 3209.88 1434.92 3188.79 1444.08C3124.69 1471.93 3071.89 1515.36 3039.83 1566.58C3033.69 1576.39 3021.05 1600.32 3017.47 1608.9L3015.81 1612.9L3016.31 1608.67C3022.68 1554.59 3025.46 1498.84 3023.79 1458.9C3023.26 1446.25 3022.82 1431.17 3022.81 1425.4L3022.8 1414.9L3032.51 1409.96C3054.58 1398.73 3082.09 1380.82 3103.68 1363.64C3116.64 1353.33 3146.64 1323.29 3156.64 1310.61C3189.95 1268.42 3209.05 1222.37 3214.81 1170.4C3215.8 1161.46 3216.31 1117.58 3215.43 1116.71C3214.72 1115.99 3190.19 1125.26 3177.83 1130.92C3102.03 1165.6 3047.3 1220.43 3021.01 1288.05C3018.26 1295.11 3015.22 1303.82 3014.25 1307.4C3012.37 1314.34 3010.79 1317.21 3010.79 1313.67C3010.79 1310.4 3003.33 1272.42 2998.18 1249.44C2993.29 1227.65 2985.55 1198.54 2978.82 1176.62L2974.74 1163.34L2984.29 1152.34C3024.59 1105.92 3053.89 1049.19 3065.18 995.696C3069.52 975.158 3071.05 960.507 3071.05 939.398C3071.05 903.727 3064.96 872.962 3051.25 839.275C3046.23 826.941 3035.33 804.854 3033.8 803.905C3032.18 802.905 3002.38 833.468 2992.36 846.398C2967.55 878.433 2948.94 913.693 2939.28 947.007C2935.63 959.591 2932.07 977.967 2930.69 991.364C2929.58 1002.12 2929.98 1038.25 2931.32 1047.4C2931.91 1051.44 2933.64 1054.73 2913.63 1013.9C2894.51 974.88 2874.19 939.281 2850.01 902.398C2843.7 892.773 2838.35 884.413 2838.12 883.821C2837.89 883.228 2840.22 878.742 2843.29 873.851C2859.94 847.328 2874.69 811.691 2881.14 782.398C2885.59 762.178 2886.29 755.073 2886.27 730.398C2886.25 710.669 2885.9 704.972 2884.07 694.898C2880.17 673.411 2874.18 655.307 2864.23 634.898C2859.29 624.771 2847.86 605.326 2845.18 602.477C2843.77 600.99 2826.37 622.391 2815.55 638.898C2795.45 669.575 2781.94 704.34 2777.36 737.193C2774.71 756.157 2775.76 791.6 2779.35 804.89C2779.66 806.048 2778.07 804.79 2775.59 801.915C2759.06 782.776 2742.53 764.249 2734.02 755.34C2725.48 746.386 2724.17 744.583 2724.87 742.69C2726.62 737.985 2728.79 713.152 2728.79 697.892C2728.79 671.227 2725.3 648.237 2717.77 625.244C2706.03 589.429 2683.35 556.497 2655.79 535.265C2646 527.723 2628.04 515.398 2626.84 515.398C2626.4 515.398 2625.29 518.366 2624.37 521.993ZM1543.64 519.439C1576.02 523.498 1604.51 544.447 1617.94 574.07C1628.28 596.884 1628.79 624.714 1619.3 648.166C1610.34 670.288 1590.95 689.927 1568.79 699.34C1557.26 704.237 1550.77 705.586 1536.19 706.122C1519.66 706.73 1510.09 705.213 1497.02 699.913C1475.16 691.044 1455.33 671.764 1446.12 650.403C1430.67 614.606 1438.39 573.727 1465.75 546.364C1486.38 525.734 1514.99 515.846 1543.64 519.439ZM1763.83 519.849C1800.53 525.381 1830.99 552.651 1840.94 588.898C1844.2 600.756 1844.23 624.452 1841.01 636.235C1832.12 668.739 1808.1 693.447 1776.08 703.007C1764.16 706.568 1744.06 707.445 1731.71 704.943C1696.54 697.816 1669.88 673.171 1659.18 637.898C1656.73 629.827 1656.44 627.297 1656.38 613.398C1656.32 600.213 1656.65 596.639 1658.6 589.465C1669.87 548.019 1705.92 519.676 1748.79 518.554C1751.81 518.475 1758.58 519.057 1763.83 519.849ZM2587.79 624.776C2587.79 624.983 2588.57 625.771 2589.54 626.526C2591.12 627.769 2591.16 627.734 2589.92 626.148C2588.61 624.482 2587.79 623.953 2587.79 624.776ZM693.66 627.148C692.417 628.734 692.452 628.769 694.038 627.526C695.704 626.219 696.233 625.398 695.41 625.398C695.203 625.398 694.415 626.186 693.66 627.148ZM1131.54 1105.26L974.803 1154.9L974.795 1221.65C974.791 1258.36 974.987 1288.4 975.229 1288.4C975.472 1288.4 1012.17 1278.05 1056.79 1265.4C1101.4 1252.75 1138.1 1242.4 1138.35 1242.4C1138.59 1242.4 1138.79 1387.3 1138.79 1564.4V1886.4H1052.79H966.788V1949.9V2013.4H1212.29H1457.79V1949.9V1886.4H1374.29H1290.79V1470.9C1290.79 1139.1 1290.54 1055.42 1289.54 1055.51C1288.85 1055.58 1217.75 1077.96 1131.54 1105.26ZM1587.79 1300.4V1544.4L1772.54 1544.42C1956.81 1544.44 1981.29 1544.81 2005.29 1547.99C2062.82 1555.61 2109.41 1576.2 2138.81 1607.01C2166.11 1635.63 2177.31 1670.55 2174.69 1718.89C2171.49 1777.89 2143.08 1819.69 2085.79 1849.71C2035.52 1876.04 1967.79 1885.28 1894.29 1875.82C1854.15 1870.65 1807.7 1856.8 1783.29 1842.72C1744.67 1820.44 1722.43 1785.19 1719.22 1741.15L1718.51 1731.4H1642.03H1565.55L1566.23 1745.15C1569.37 1808.44 1585.15 1856.51 1616.67 1898.75C1639.67 1929.58 1665.43 1950.55 1705.29 1970.89C1775.8 2006.87 1861.98 2023.97 1963.29 2022.09C1997.13 2021.46 2014.72 2019.96 2042.38 2015.38C2157.73 1996.24 2253.62 1933.06 2297.16 1847.5C2311.27 1819.78 2320.42 1789.37 2325.48 1753.4C2328.05 1735.12 2328.04 1680.44 2325.46 1661.4C2316.69 1596.6 2294.71 1548.21 2255.79 1508.01C2202.59 1453.06 2123.44 1418.14 2026.79 1406.97C1996.15 1403.43 1985.78 1403.16 1861.54 1402.68L1736.79 1402.2V1300.8V1199.4H2005.79H2274.79V1127.9V1056.4H1931.29H1587.79V1300.4ZM1466.29 2193.8C1457.19 2196.67 1449.89 2202.42 1443.66 2211.59C1439.67 2217.47 1434.25 2228.2 1434.93 2228.86C1435.13 2229.05 1442.04 2232.87 1450.29 2237.35C1463.76 2244.67 1465.39 2245.32 1466.29 2243.75C1468.71 2239.52 1476.27 2232.39 1479.45 2231.34C1484.41 2229.71 1489.55 2231.25 1504.79 2238.94C1514.13 2243.65 1519.26 2245.63 1523.75 2246.24C1542.12 2248.75 1556.92 2239.41 1567.34 2218.74C1569.23 2214.98 1570.78 2211.34 1570.78 2210.65C1570.79 2209.73 1540.98 2194.4 1539.18 2194.4C1539.02 2194.4 1537.49 2196.42 1535.79 2198.9C1529.17 2208.51 1522.04 2208.79 1502.79 2200.16C1495.91 2197.08 1488.49 2194.08 1486.29 2193.49C1481.01 2192.07 1471.28 2192.22 1466.29 2193.8ZM2110.29 2266.06C2077.63 2269.97 2053.31 2280.47 2037.18 2297.6C2027.32 2308.08 2021.77 2318.12 2018.66 2331.15C2015.91 2342.67 2016.42 2362.88 2019.75 2374.38C2030.06 2409.95 2061.44 2427.63 2129.79 2436.38C2167.79 2441.24 2185.22 2449.19 2194.03 2465.68C2195.95 2469.26 2196.28 2471.4 2196.26 2479.9C2196.23 2488.72 2195.9 2490.56 2193.49 2495.52C2188.19 2506.43 2175.82 2514.85 2158.29 2519.48C2148.03 2522.18 2124.64 2523.19 2112.68 2521.44C2084.57 2517.33 2062.6 2503.54 2051.76 2483.19C2050.06 2480 2048.49 2477.4 2048.27 2477.4C2047.54 2477.4 2007.3 2498.3 2005.53 2499.6C2003.88 2500.81 2004.01 2501.38 2007.54 2508.4C2013.35 2519.92 2018.52 2527.15 2027.28 2535.99C2043.74 2552.61 2064.23 2562.65 2092.53 2567.97C2106.06 2570.52 2143.14 2571.08 2157.8 2568.97C2191.78 2564.07 2214.1 2553.2 2231.28 2533.21C2242.28 2520.4 2247.81 2507.32 2249.84 2489.29C2253.87 2453.38 2238.91 2422.53 2210.29 2407.73C2190.73 2397.61 2170.24 2392.06 2135.29 2387.39C2099.99 2382.67 2085.88 2377.85 2076.37 2367.28C2071.17 2361.49 2069.31 2355.64 2070.05 2347.39C2070.75 2339.77 2073.83 2333.45 2079.72 2327.57C2085.58 2321.73 2092.09 2318.16 2102.32 2315.21C2109.39 2313.17 2112.37 2312.91 2128.79 2312.95C2146.01 2312.99 2147.89 2313.18 2156.08 2315.7C2173.99 2321.22 2189.94 2331.53 2196.94 2342.08C2198.38 2344.26 2198.45 2344.24 2219.34 2333.42C2234.09 2325.78 2240.25 2322.09 2240.14 2320.96C2240.07 2320.07 2238.49 2316.83 2236.64 2313.76C2220.75 2287.3 2192.55 2271.39 2152.81 2266.45C2144.99 2265.48 2117.25 2265.22 2110.29 2266.06ZM1802.79 2270.99C1771.01 2275.59 1743.07 2289.77 1720.29 2312.86C1704.12 2329.24 1692.81 2347.88 1686.27 2368.9C1680.16 2388.56 1679.28 2395.21 1679.32 2421.4C1679.36 2441.85 1679.65 2446.22 1681.58 2455.06C1688.46 2486.65 1701.25 2511.18 1721.16 2530.96C1744.57 2554.22 1773.39 2566.28 1813.29 2569.54C1842.88 2571.96 1872.78 2566.74 1897.28 2554.89C1925.32 2541.33 1944.34 2521.65 1958.64 2491.4C1978.86 2448.62 1980.07 2397.55 1961.86 2355.33C1951.4 2331.06 1936.37 2311.17 1918.29 2297.67C1910.9 2292.16 1894.03 2282.98 1884.79 2279.46C1861.39 2270.53 1829.02 2267.19 1802.79 2270.99ZM1147.75 2279.75C1146.69 2282.15 1117.87 2346.39 1083.71 2422.5C1049.55 2498.62 1021.37 2561.46 1021.09 2562.15C1020.68 2563.13 1026.83 2563.39 1049.93 2563.37L1079.29 2563.34L1091.35 2536.62L1103.42 2509.9L1179.41 2509.64L1255.41 2509.39L1267.35 2536.36L1279.29 2563.34L1308.54 2563.37C1324.63 2563.39 1337.79 2563.06 1337.79 2562.65C1337.79 2562.24 1308.88 2497.44 1273.54 2418.66L1209.29 2275.41L1179.48 2275.4L1149.68 2275.4L1147.75 2279.75ZM1374.79 2419.38V2563.4H1401.79H1428.79V2467.9C1428.79 2415.37 1429.13 2372.43 1429.54 2372.46C1429.95 2372.5 1464.49 2415.46 1506.29 2467.95L1582.29 2563.37L1604.54 2563.39L1626.79 2563.4V2419.4V2275.4H1599.79H1572.79V2371.98C1572.79 2435.53 1572.45 2468.45 1571.79 2468.23C1571.25 2468.05 1536.68 2424.7 1494.98 2371.9L1419.16 2275.9L1396.97 2275.63L1374.79 2275.36V2419.38ZM1845.51 2319.9C1869.35 2323.77 1888.39 2335.58 1901.54 2354.66C1915.44 2374.82 1921.23 2393.89 1921.2 2419.4C1921.17 2447.09 1914.36 2468.47 1899.12 2488.79C1891.4 2499.07 1884.18 2505.04 1872.29 2510.94C1859.55 2517.28 1850.25 2519.43 1832.79 2520.1C1795.78 2521.53 1771.52 2511.77 1753.89 2488.38C1738.08 2467.39 1730.87 2442.39 1732.06 2412.66C1732.91 2391.24 1738.2 2374.09 1748.82 2358.28C1755.18 2348.81 1768.17 2336.39 1777.37 2331C1786.07 2325.89 1800.11 2320.96 1809.96 2319.55C1819.95 2318.12 1835.47 2318.27 1845.51 2319.9ZM1206.63 2396.94C1221.02 2429.97 1232.79 2457.31 1232.79 2457.69C1232.79 2458.08 1208.68 2458.4 1179.2 2458.4C1149.73 2458.4 1125.77 2458.01 1125.95 2457.55C1130.88 2444.95 1179.41 2335.66 1179.85 2336.17C1180.2 2336.57 1192.25 2363.92 1206.63 2396.94Z"
        fill="currentColor" />
</svg>