<svg width="590" height="500" viewBox="0 0 590 500" fill="none" xmlns="http://www.w3.org/2000/svg">
<path d="M195.28 302.16V301.37C195.55 301.26 195.92 301.06 196.41 300.77C196.63 300.65 196.77 300.54 196.83 300.46C196.87 300.41 196.9 300.35 196.91 300.29C196.96 300.03 197.01 299.11 197.05 297.53C197.09 295.95 197.11 294.05 197.11 291.83C197.11 288.57 197.11 286.56 197.08 285.8C197.04 283.86 196.97 282.75 196.88 282.48C196.84 282.35 196.76 282.26 196.65 282.2C196.41 282.04 195.62 281.94 194.28 281.89V280.53C195.59 280.59 197.09 280.62 198.77 280.62C200.65 280.62 202.43 280.59 204.11 280.53V281.89C202.94 281.94 202.23 282.04 201.97 282.17C201.86 282.23 201.77 282.33 201.72 282.47C201.67 282.61 201.62 283.25 201.57 284.38C201.52 285.51 201.5 286.95 201.5 288.68C201.5 288.87 201.5 290.36 201.52 293.15C201.53 294.63 201.54 296.09 201.54 297.53C201.54 298.98 201.55 299.86 201.56 300.17C202.98 300.23 203.95 300.26 204.47 300.26C206.04 300.26 207.41 300.17 208.57 299.98C208.99 299.92 209.25 299.85 209.33 299.78C209.41 299.71 209.5 299.52 209.6 299.21C209.8 298.42 210.01 297.53 210.2 296.52H211.48C211.45 296.81 211.43 296.98 211.43 297.03L211.05 300.15C210.96 301.13 210.92 301.72 210.91 301.91C210.61 301.99 210.31 302.05 210.01 302.08C209.38 302.13 208.41 302.16 207.09 302.16C206.9 302.16 205.69 302.14 203.46 302.08C201.76 302.04 200.57 302.02 199.9 302.02C198.89 302.02 197.35 302.07 195.29 302.16H195.28Z" fill="#2d7bbf"/>
<path d="M213.27 302.16V300.88C214.1 300.82 214.6 300.76 214.76 300.72C214.92 300.67 215.06 300.6 215.17 300.5C215.28 300.4 215.4 300.25 215.52 300.04C215.64 299.83 215.99 299.04 216.58 297.68C216.85 297.04 217.36 295.78 218.13 293.89L222.17 283.93L223.53 280.42H225.73L232.65 296.57L233.61 298.69L234.23 300.11C234.33 300.29 234.43 300.43 234.53 300.51C234.62 300.59 234.73 300.65 234.84 300.7C234.96 300.74 235.26 300.78 235.75 300.81C235.9 300.83 236.13 300.86 236.43 300.89V302.17L232.13 302.08L226.7 302.17V300.89C227.95 300.84 228.65 300.77 228.81 300.68C228.97 300.59 229.05 300.45 229.05 300.24C229.05 299.98 228.93 299.56 228.69 298.97L227.36 295.57H219.41L218.73 297.42C218.22 298.84 217.96 299.73 217.96 300.08C217.96 300.33 218.04 300.5 218.21 300.61C218.46 300.75 219.2 300.85 220.42 300.89V302.17L216.85 302.08L213.29 302.17L213.27 302.16ZM220.11 293.79C221.08 293.82 222.18 293.84 223.41 293.84C224.64 293.84 225.66 293.82 226.6 293.79L223.29 285.81L220.12 293.79H220.11Z" fill="#2d7bbf"/>
<path d="M246.99 302.16V301.43C247.54 301.11 247.99 300.79 248.35 300.47C248.41 299.97 248.45 299.35 248.47 298.61C248.51 297.11 248.53 294.37 248.53 290.4C248.53 289.34 248.51 287.68 248.45 285.44C248.42 283.71 248.36 282.72 248.28 282.47C248.23 282.31 248.15 282.21 248.05 282.14C247.83 282 247.06 281.88 245.73 281.8V280.52C245.96 280.52 246.19 280.52 246.44 280.54L248.58 280.6C249.28 280.6 250.15 280.62 251.19 280.62C252.23 280.62 253.03 280.62 253.62 280.59C255.1 280.53 256.08 280.5 256.53 280.5C258.23 280.5 259.54 280.67 260.47 281.03C261.39 281.38 262.07 281.89 262.5 282.55C262.93 283.21 263.14 283.96 263.14 284.78C263.14 285.67 262.89 286.49 262.4 287.25C261.91 288.01 261.29 288.61 260.52 289.03C260.06 289.29 259.05 289.63 257.49 290.07C259.37 290.3 260.68 290.6 261.41 290.97C262.15 291.34 262.74 291.92 263.18 292.71C263.62 293.5 263.85 294.38 263.85 295.35C263.85 296.37 263.62 297.3 263.17 298.13C262.71 298.96 262.13 299.67 261.41 300.26C260.69 300.85 259.87 301.31 258.94 301.66C258.01 302.01 256.85 302.18 255.46 302.18L250.26 302.09C249.43 302.09 248.33 302.12 246.98 302.18L246.99 302.16ZM252.85 289.45L253.75 289.47C254.45 289.47 255.1 289.41 255.7 289.3C256.3 289.19 256.78 288.99 257.15 288.7C257.52 288.42 257.83 287.99 258.08 287.43C258.33 286.87 258.46 286.22 258.46 285.49C258.46 284.76 258.32 284.12 258.03 283.6C257.74 283.08 257.36 282.71 256.9 282.49C256.44 282.27 255.74 282.16 254.81 282.16C254.14 282.16 253.53 282.2 252.99 282.29C252.93 283.03 252.89 283.89 252.88 284.86L252.85 287.26V289.47V289.45ZM252.91 300.43C253.25 300.5 253.89 300.54 254.83 300.54C256.11 300.54 257.14 300.12 257.93 299.28C258.72 298.44 259.11 297.23 259.11 295.67C259.11 294.56 258.9 293.65 258.49 292.96C258.08 292.27 257.53 291.78 256.85 291.5C256.17 291.22 255.23 291.08 254.03 291.08C253.61 291.08 253.21 291.1 252.84 291.14V298.2L252.87 300.04C252.87 300.09 252.88 300.23 252.9 300.44L252.91 300.43Z" fill="#2d7bbf"/>
<path d="M266.91 281.8V280.53C267.15 280.53 267.97 280.55 269.38 280.59C270.07 280.61 271.05 280.62 272.32 280.62C273.4 280.62 274.33 280.6 275.11 280.56C276.39 280.51 277.44 280.48 278.28 280.48C279.9 280.48 281.11 280.6 281.91 280.83C282.71 281.06 283.4 281.54 283.97 282.28C284.54 283.01 284.82 283.91 284.82 284.96C284.82 286.21 284.43 287.34 283.66 288.36C282.89 289.38 281.7 290.19 280.09 290.79C280.35 291.25 280.64 291.73 280.97 292.21C281.3 292.7 281.49 292.99 281.55 293.09C281.6 293.19 281.67 293.29 281.73 293.38L284.13 296.98C284.77 297.94 285.11 298.45 285.17 298.53C285.95 299.56 286.42 300.17 286.59 300.36C286.77 300.54 286.94 300.67 287.1 300.74C287.26 300.81 287.59 300.85 288.07 300.87V302.15C286.48 302.11 285.33 302.09 284.62 302.09C283.8 302.09 282.98 302.11 282.16 302.15C282.11 301.92 281.98 301.63 281.79 301.27L278.48 295.81C277.53 294.24 276.73 293.01 276.07 292.11C275.74 291.65 275.42 291.32 275.11 291.09L275.28 290.58C276.52 290.62 277.45 290.49 278.08 290.2C278.71 289.91 279.24 289.38 279.67 288.62C280.1 287.86 280.32 287.01 280.32 286.08C280.32 285.15 280.09 284.34 279.64 283.71C279.18 283.08 278.62 282.64 277.95 282.39C277.52 282.24 276.74 282.16 275.63 282.16C275.14 282.16 274.65 282.2 274.16 282.28C274.13 282.65 274.1 283.49 274.07 284.78C274.01 287.7 273.98 289.65 273.98 290.63C273.98 292.18 274 293.82 274.03 295.55C274.07 297.67 274.1 298.88 274.12 299.17C274.15 299.75 274.21 300.12 274.29 300.3C274.33 300.38 274.4 300.46 274.49 300.53C274.58 300.6 274.73 300.65 274.94 300.69C275.15 300.73 275.74 300.76 276.74 300.78V302.14C274.97 302.08 273.19 302.05 271.39 302.05C269.78 302.05 268.29 302.08 266.92 302.14V300.78C268.1 300.74 268.79 300.68 269.01 300.61C269.13 300.58 269.22 300.53 269.28 300.45C269.34 300.38 269.38 300.23 269.41 300.02C269.48 299.62 269.54 299.01 269.57 298.2L269.69 293.68V287.94L269.63 284.68C269.61 283.39 269.55 282.62 269.44 282.36C269.39 282.25 269.31 282.16 269.21 282.1C268.96 281.98 268.2 281.87 266.92 281.79L266.91 281.8Z" fill="#2d7bbf"/>
<path d="M289.37 281.8V280.52L294.4 280.61L296.49 280.58L298.58 280.53L299.15 280.51V281.79C298.03 281.79 297.33 281.89 297.03 282.08C296.87 282.17 296.77 282.35 296.72 282.62C296.58 283.26 296.51 284.67 296.51 286.84V292.24C296.52 294.13 296.54 295.29 296.59 295.74C296.68 296.71 296.92 297.49 297.32 298.08C297.71 298.67 298.31 299.15 299.12 299.52C299.93 299.89 300.96 300.07 302.21 300.07C303.65 300.07 304.79 299.83 305.64 299.34C306.5 298.85 307.1 298.21 307.46 297.43C307.82 296.64 308 295.15 308 292.96V289.8C308 287.08 308 285.42 307.99 284.82C307.96 283.52 307.89 282.74 307.77 282.47C307.7 282.31 307.58 282.18 307.42 282.1C307.08 281.93 306.34 281.82 305.2 281.79V280.51C307.06 280.58 308.18 280.62 308.52 280.62C308.61 280.62 308.75 280.62 308.94 280.6L312.37 280.51V281.79C311.41 281.79 310.81 281.87 310.56 282.02C310.44 282.1 310.33 282.26 310.26 282.49C310.18 282.72 310.11 283.77 310.03 285.62C309.96 287.47 309.92 288.94 309.92 290.01V293.64C309.92 294.57 309.85 295.53 309.72 296.52C309.59 297.51 309.32 298.36 308.91 299.06C308.5 299.76 307.93 300.4 307.18 300.96C306.44 301.53 305.55 301.96 304.53 302.24C303.51 302.53 302.33 302.67 300.99 302.67C299.43 302.67 297.96 302.46 296.6 302.04C295.61 301.73 294.8 301.31 294.17 300.79C293.54 300.27 293.06 299.69 292.73 299.04C292.4 298.4 292.2 297.77 292.13 297.18C292.08 296.81 292.05 295.81 292.05 294.18L292.07 291.21V287.28C292.07 285.84 292.04 284.54 291.98 283.38C291.95 282.92 291.89 282.59 291.8 282.39C291.75 282.27 291.62 282.14 291.41 281.99L289.4 281.77L289.37 281.8ZM300.52 279.05H298.65L302.28 274.64C302.81 274 303.23 273.59 303.54 273.4C303.85 273.21 304.21 273.11 304.62 273.11C305.16 273.11 305.59 273.27 305.92 273.58C306.25 273.89 306.41 274.27 306.41 274.72C306.41 275.02 306.31 275.29 306.13 275.54C305.83 275.92 305.31 276.33 304.57 276.75L300.52 279.06V279.05Z" fill="#2d7bbf"/>
<path d="M313.23 305.85L313.59 305.65C314.08 306.1 314.49 306.39 314.81 306.54C315.13 306.69 315.46 306.76 315.8 306.76C316.2 306.76 316.51 306.67 316.73 306.5C316.95 306.32 317.1 306.07 317.2 305.74C317.3 305.41 317.36 304.69 317.39 303.59C317.45 301.42 317.48 300.21 317.48 299.97V287.86C317.48 286.53 317.46 285.33 317.43 284.26C317.39 283.19 317.34 282.56 317.25 282.36C317.21 282.26 317.14 282.18 317.05 282.11C316.92 282.02 316.71 281.96 316.45 281.94L314.35 281.86V280.5C316.34 280.57 318.35 280.61 320.38 280.61C322.08 280.61 323.54 280.57 324.76 280.5V281.84C323.71 281.87 323.08 281.9 322.87 281.93C322.6 281.98 322.4 282.08 322.27 282.22C322.14 282.36 322.06 282.63 322.03 283.01C321.96 283.86 321.92 285.04 321.92 286.55V292.18L321.95 298.78C321.95 300.45 321.8 301.78 321.49 302.77C321.18 303.76 320.68 304.69 319.98 305.57C319.49 306.17 318.91 306.73 318.22 307.27C317.54 307.8 316.87 308.2 316.21 308.48C315.56 308.75 314.95 308.89 314.39 308.89C313.99 308.89 313.57 308.81 313.14 308.66C313.19 307.95 313.22 307 313.22 305.83L313.23 305.85Z" fill="#2d7bbf"/>
<path d="M326.34 281.8V280.52L331.36 280.61L333.45 280.58L335.54 280.53L336.11 280.51V281.79C335 281.79 334.29 281.89 333.99 282.08C333.83 282.17 333.73 282.35 333.68 282.62C333.54 283.26 333.46 284.67 333.46 286.84V290.43L333.48 292.24C333.48 294.13 333.5 295.29 333.54 295.74C333.63 296.71 333.88 297.49 334.27 298.08C334.66 298.67 335.26 299.15 336.07 299.52C336.88 299.89 337.91 300.07 339.16 300.07C340.6 300.07 341.74 299.83 342.59 299.34C343.44 298.85 344.05 298.21 344.41 297.43C344.77 296.64 344.95 295.15 344.95 292.96V289.8C344.95 287.08 344.95 285.42 344.93 284.82C344.9 283.52 344.83 282.74 344.71 282.47C344.64 282.31 344.52 282.18 344.36 282.1C344.02 281.93 343.28 281.82 342.13 281.79V280.51C344 280.58 345.11 280.62 345.45 280.62C345.54 280.62 345.68 280.62 345.87 280.6L349.3 280.51V281.79C348.34 281.79 347.74 281.87 347.49 282.02C347.36 282.1 347.26 282.26 347.19 282.49C347.11 282.72 347.04 283.77 346.97 285.62C346.9 287.47 346.86 288.94 346.86 290.01V293.64C346.86 294.57 346.79 295.53 346.66 296.52C346.53 297.51 346.26 298.36 345.85 299.06C345.44 299.76 344.87 300.4 344.12 300.96C343.38 301.53 342.49 301.96 341.47 302.24C340.45 302.53 339.27 302.67 337.93 302.67C336.36 302.67 334.9 302.46 333.54 302.04C332.55 301.73 331.74 301.31 331.11 300.79C330.48 300.27 330 299.69 329.67 299.04C329.34 298.4 329.14 297.77 329.07 297.18C329.02 296.81 328.99 295.81 328.99 294.18L329.01 291.21V287.28C329.01 285.84 328.98 284.54 328.92 283.38C328.89 282.92 328.83 282.59 328.73 282.39C328.68 282.27 328.55 282.14 328.35 281.99L326.34 281.77V281.8Z" fill="#2d7bbf"/>
<path d="M352.25 302.16V301.37C352.52 301.26 352.89 301.06 353.38 300.77C353.6 300.65 353.74 300.54 353.8 300.46C353.84 300.41 353.87 300.35 353.88 300.29C353.93 300.03 353.98 299.11 354.02 297.53C354.06 295.95 354.08 294.05 354.08 291.83C354.08 288.57 354.08 286.56 354.05 285.8C354.01 283.86 353.94 282.75 353.85 282.48C353.81 282.35 353.73 282.26 353.62 282.2C353.38 282.04 352.59 281.94 351.26 281.89V280.53C352.57 280.59 354.06 280.62 355.74 280.62C357.62 280.62 359.4 280.59 361.08 280.53V281.89C359.92 281.94 359.2 282.04 358.94 282.17C358.83 282.23 358.74 282.33 358.69 282.47C358.64 282.61 358.59 283.25 358.54 284.38C358.49 285.51 358.47 286.95 358.47 288.68C358.47 288.87 358.47 290.36 358.49 293.15C358.5 294.63 358.51 296.09 358.51 297.53C358.51 298.98 358.52 299.86 358.53 300.17C359.95 300.23 360.92 300.26 361.44 300.26C363.01 300.26 364.37 300.17 365.54 299.98C365.96 299.92 366.22 299.85 366.3 299.78C366.38 299.71 366.47 299.52 366.56 299.21C366.76 298.42 366.97 297.53 367.16 296.52H368.45C368.42 296.81 368.4 296.98 368.4 297.03L368.02 300.15C367.94 301.13 367.89 301.72 367.88 301.91C367.58 301.99 367.28 302.05 366.99 302.08C366.36 302.13 365.39 302.16 364.06 302.16C363.88 302.16 362.66 302.14 360.43 302.08C358.73 302.04 357.54 302.02 356.87 302.02C355.86 302.02 354.32 302.07 352.26 302.16H352.25Z" fill="#2d7bbf"/>
<path d="M370.23 302.16V300.88C371.07 300.82 371.56 300.76 371.72 300.72C371.88 300.67 372.02 300.6 372.13 300.5C372.24 300.4 372.36 300.25 372.48 300.04C372.6 299.83 372.95 299.04 373.54 297.68C373.81 297.04 374.32 295.78 375.09 293.89L379.13 283.93L380.49 280.42H382.69L389.6 296.57L390.56 298.69L391.18 300.11C391.28 300.29 391.38 300.43 391.47 300.51C391.56 300.59 391.67 300.65 391.79 300.7C391.91 300.74 392.21 300.78 392.69 300.81C392.84 300.83 393.07 300.86 393.37 300.89V302.17L389.07 302.08L383.64 302.17V300.89C384.89 300.84 385.59 300.77 385.75 300.68C385.91 300.59 385.99 300.45 385.99 300.24C385.99 299.98 385.87 299.56 385.64 298.97L384.31 295.57H376.36L375.68 297.42C375.16 298.84 374.9 299.73 374.9 300.08C374.9 300.33 374.98 300.5 375.15 300.61C375.4 300.75 376.14 300.85 377.36 300.89V302.17L373.79 302.08L370.23 302.17V302.16ZM377.07 293.79C378.04 293.82 379.14 293.84 380.37 293.84C381.6 293.84 382.62 293.82 383.56 293.79L380.25 285.81L377.08 293.79H377.07Z" fill="#2d7bbf"/>
<path d="M195.44 257.92V255.26C197.17 255.13 198.2 255.02 198.53 254.92C198.86 254.82 199.14 254.67 199.38 254.47C199.62 254.27 199.85 253.95 200.1 253.51C200.34 253.07 201.07 251.45 202.29 248.63C202.85 247.3 203.91 244.69 205.49 240.78L213.85 220.15L216.67 212.88H221.22L235.54 246.32L237.53 250.71L238.81 253.65C239.02 254.03 239.23 254.31 239.42 254.48C239.61 254.65 239.83 254.78 240.08 254.86C240.33 254.94 240.95 255.02 241.95 255.08C242.27 255.12 242.74 255.18 243.36 255.24V257.9L234.45 257.71L223.21 257.9V255.24C225.79 255.13 227.25 254.99 227.58 254.81C227.91 254.63 228.08 254.32 228.08 253.9C228.08 253.37 227.83 252.49 227.34 251.27L224.58 244.22H208.12L206.71 248.07C205.64 251.01 205.11 252.85 205.11 253.58C205.11 254.09 205.28 254.46 205.62 254.67C206.13 254.97 207.66 255.16 210.2 255.25V257.91L202.8 257.72L195.43 257.91L195.44 257.92ZM209.6 240.59C211.61 240.65 213.88 240.68 216.42 240.68C218.96 240.68 221.08 240.65 223.02 240.59L216.17 224.06L209.6 240.59Z" fill="#2d7bbf"/>
<path d="M247.43 255.2C249.95 255.07 251.39 254.96 251.76 254.85C251.99 254.77 252.19 254.63 252.35 254.43C252.51 254.23 252.64 253.84 252.75 253.24C252.88 252.43 253.03 250.46 253.2 247.34C253.29 245.57 253.33 243.26 253.33 240.42V230.14L253.2 220.82C253.18 219.26 253.11 218.25 253.01 217.78C252.9 217.31 252.75 216.96 252.54 216.74C252.34 216.51 252 216.34 251.53 216.21C251.06 216.08 249.69 215.94 247.43 215.79V213.1C250.14 213.23 252.14 213.29 253.42 213.29L258.07 213.2L261.01 213.1C265.41 218.85 270.74 225.46 277 232.96C281.51 238.36 285.24 242.59 288.21 245.65V238.25C288.21 226.76 288.08 220 287.83 217.97C287.74 217.18 287.56 216.67 287.26 216.43C286.77 216.05 285.1 215.83 282.26 215.79V213.1C284.86 213.23 287.26 213.29 289.44 213.29C291.62 213.29 294.28 213.23 297.61 213.1V215.79C295 215.85 293.46 216.05 292.96 216.37C292.79 216.48 292.67 216.64 292.61 216.85C292.29 217.92 292.08 220.36 291.98 224.17C291.89 227.98 291.84 230.8 291.84 232.61C291.84 246.81 291.98 255.43 292.26 258.46L291.84 258.75C290.04 258.45 288.22 258.17 286.36 257.92C279.46 250.21 269.68 238.64 257.02 223.2V239.15C257.02 242.46 257.08 245.91 257.21 249.5C257.3 251.98 257.42 253.48 257.59 254.02C257.68 254.28 257.82 254.48 258.02 254.64C258.22 254.8 258.58 254.91 259.1 254.98C260.49 255.15 261.5 255.24 262.14 255.24C262.27 255.24 262.48 255.24 262.78 255.21V257.8C258.72 257.76 256.41 257.74 255.86 257.74C253.79 257.74 250.98 257.8 247.44 257.93V255.21L247.43 255.2ZM262.29 208.69H259.53C260.26 205.51 261.31 203.25 262.69 201.91C264.06 200.58 265.62 199.91 267.35 199.91C269.08 199.91 271.12 200.5 273.72 201.67C275.36 202.4 276.52 202.87 277.18 203.08C277.54 203.19 277.9 203.24 278.27 203.24C278.89 203.24 279.4 203.06 279.81 202.69C280.36 202.22 280.89 201.34 281.38 200.06H284.2C283.39 203.35 282.3 205.65 280.93 206.95C279.56 208.25 277.99 208.9 276.22 208.9C275.32 208.9 274.45 208.79 273.59 208.56C272.73 208.34 271.53 207.86 269.96 207.14C268.39 206.41 267.35 205.97 266.82 205.81C266.29 205.65 265.84 205.57 265.46 205.57C264.84 205.57 264.27 205.8 263.73 206.26C263.2 206.72 262.72 207.53 262.29 208.68V208.69Z" fill="#2d7bbf"/>
<path d="M303.01 236.04C303.01 232.13 303.6 228.73 304.79 225.82C305.98 222.92 307.67 220.45 309.87 218.42C312.07 216.39 314.46 214.93 317.05 214.03C320.36 212.9 323.97 212.33 327.88 212.33C331.79 212.33 335.29 212.87 338.45 213.96C340.8 214.79 342.88 215.99 344.69 217.56C346.49 219.13 347.86 220.74 348.8 222.38C349.74 224.02 350.45 225.83 350.93 227.79C351.41 229.75 351.65 231.92 351.65 234.29C351.65 238.31 350.95 242.03 349.57 245.47C348.54 248.03 347.05 250.31 345.07 252.29C343.1 254.28 340.85 255.8 338.33 256.87C334.87 258.3 330.92 259.01 326.48 259.01C321.68 259.01 317.55 258.14 314.1 256.4C310.65 254.66 307.95 252.09 305.98 248.69C304.02 245.3 303.04 241.07 303.04 236L303.01 236.04ZM312.88 234.15C312.88 239.13 313.56 243.24 314.93 246.5C316.3 249.76 318.05 252.06 320.18 253.41C322.32 254.75 324.84 255.43 327.74 255.43C330.43 255.43 332.84 254.79 334.96 253.51C337.08 252.23 338.75 250.06 339.96 247.01C341.17 243.96 341.77 240.25 341.77 235.89C341.77 232.9 341.44 230.17 340.79 227.69C340.14 225.21 339.2 223.11 337.99 221.36C336.77 219.62 335.34 218.29 333.68 217.37C332.02 216.45 329.83 215.99 327.09 215.99C323.97 215.99 321.32 216.72 319.13 218.19C316.94 219.65 315.35 221.81 314.36 224.67C313.36 227.53 312.87 230.69 312.87 234.15H312.88Z" fill="#2d7bbf"/>
<path d="M387.23 224.83H384.54C384.5 222.35 384.39 220.6 384.22 219.58C383.55 218.64 382.41 217.81 380.77 217.08C379.13 216.35 377.31 215.99 375.28 215.99C372.37 215.99 370.12 216.72 368.54 218.19C366.95 219.65 366.15 221.37 366.15 223.33C366.17 224.74 366.41 225.88 366.86 226.76C367.31 227.64 367.95 228.33 368.78 228.84C369.61 229.35 370.84 229.82 372.46 230.25C373.7 230.51 375.42 230.83 377.63 231.21C379.84 231.59 381.28 231.86 381.94 232.01C383.67 232.46 385.07 233 386.14 233.63C387.21 234.26 388.06 234.99 388.69 235.81C389.32 236.63 389.84 237.67 390.24 238.92C390.65 240.17 390.85 241.57 390.85 243.13C390.85 245.86 390.28 248.27 389.15 250.34C388.29 251.9 387.11 253.32 385.59 254.62C384.07 255.91 382.52 256.88 380.92 257.52C378.35 258.55 375.28 259.06 371.69 259.06C369.06 259.06 366.73 258.82 364.68 258.32C362.63 257.83 360.37 256.99 357.92 255.79C358.58 253.36 358.92 249.65 358.94 244.67H361.63C361.59 246.21 361.7 248.12 361.98 250.41C362.79 251.73 364.18 252.9 366.15 253.9C368.12 254.9 370.26 255.41 372.59 255.41C374.62 255.41 376.43 255.05 378.02 254.33C379.61 253.62 380.76 252.63 381.48 251.37C382.19 250.11 382.56 248.68 382.56 247.08C382.56 245.74 382.31 244.58 381.81 243.62C381.31 242.66 380.52 241.89 379.45 241.31C378.38 240.74 376.51 240.14 373.81 239.52C369.95 238.71 367.41 238.12 366.19 237.76C364.36 237.2 362.88 236.4 361.75 235.36C360.63 234.31 359.79 233.05 359.24 231.56C358.68 230.08 358.4 228.48 358.4 226.77C358.4 224.38 358.9 222.17 359.91 220.15C360.91 218.13 362.24 216.57 363.88 215.46C365.52 214.35 367.38 213.55 369.45 213.07C371.52 212.59 373.65 212.35 375.83 212.35C378.01 212.35 380.28 212.55 382.41 212.96C384.54 213.37 386.38 213.95 387.94 214.72L388.2 215.49C387.9 216.88 387.68 218.24 387.54 219.58C387.41 220.91 387.3 222.67 387.24 224.85L387.23 224.83Z" fill="#2d7bbf"/>
<path d="M241.87 179.75V174.88L253.22 173.68C254.42 173.52 255.3 173.17 255.86 172.63C256.42 172.09 256.84 171 257.12 169.36C257.64 166.24 257.9 159.29 257.9 148.52V134.1C257.9 129.13 257.84 123.77 257.72 118L257.54 112.83C257.54 111.55 257.42 110.73 257.18 110.37C256.94 110.01 256.64 109.83 256.28 109.83C256.04 109.83 255.16 110.17 253.64 110.85C245.83 114.3 240.86 116.58 238.74 117.7L238.02 117.28C237.86 116.48 237.66 115.2 237.42 113.44C237.22 112.12 237 110.9 236.76 109.78L236.82 109.36C243.99 107.28 249.69 105.54 253.91 104.14C258.13 102.74 264.73 100.36 273.7 96.99L275.03 97.89C275.03 98.53 274.91 100.41 274.67 103.54C274.43 106.66 274.31 108.67 274.31 109.55C274.19 113.03 274.03 121.95 273.83 136.28V145.17C273.83 153.86 273.87 159.89 273.95 163.25C274.07 168.38 274.33 171.38 274.73 172.26C274.97 172.78 275.37 173.18 275.93 173.46C276.89 173.98 279.78 174.34 284.58 174.54C285.94 174.58 287.24 174.7 288.48 174.9V179.77C279.79 179.37 272.74 179.17 267.34 179.17C263.66 179.17 255.17 179.37 241.87 179.77V179.75Z" fill="#2d7bbf"/>
<path d="M300.02 178.67C299.82 177.07 299.35 174.05 298.61 169.6C297.87 165.16 297.32 162.11 296.96 160.47L300.98 159.27C302.5 162.91 304.18 165.88 306 168.16C307.82 170.44 309.98 172.12 312.46 173.21C314.94 174.29 317.52 174.83 320.21 174.83C324.69 174.83 328.32 173.39 331.08 170.5C333.84 167.62 335.23 163.73 335.23 158.85C335.23 153.65 333.72 149.75 330.69 147.17C327.67 144.59 323.85 143.3 319.25 143.3C317.05 143.3 314.69 143.64 312.16 144.32L311.44 143.6L311.56 142.82L312.58 139.28L313.72 134.59L314.26 134.53L318.65 134.59C320.81 134.59 322.95 134.02 325.08 132.88C327.2 131.74 328.84 130.17 330 128.16C331.16 126.16 331.74 124.04 331.74 121.79C331.74 118.67 330.62 116.04 328.38 113.92C326.13 111.8 323.19 110.74 319.55 110.74C317.19 110.74 315.02 111.11 313.06 111.85C311.1 112.59 309.67 113.52 308.77 114.64C307.87 115.76 306.94 117.73 305.98 120.53C305.58 121.65 305.26 122.49 305.02 123.05L300.63 122.75L303.28 110.56C303.64 108.8 303.96 106.74 304.24 104.37C306.84 102.41 309.77 100.95 313.04 99.99C316.31 99.03 319.9 98.55 323.82 98.55C330.83 98.55 336.19 100.2 339.92 103.51C343.64 106.81 345.51 110.91 345.51 115.79C345.51 119.52 344.41 122.83 342.2 125.73C340 128.63 336.63 131.29 332.11 133.69C332.99 133.69 334.21 133.85 335.78 134.17C337.78 134.61 339.71 135.34 341.58 136.36C343.44 137.38 345.04 138.64 346.39 140.14C347.73 141.64 348.72 143.34 349.36 145.22C350 147.1 350.33 149.38 350.33 152.07C350.33 159.8 347.24 166.43 341.07 171.95C333.66 178.56 324.89 181.86 314.76 181.86C311.88 181.86 309.36 181.62 307.22 181.14C305.08 180.66 302.68 179.84 300.04 178.68L300.02 178.67Z" fill="#2d7bbf"/>
<path d="M294.06 356.05C270.75 356.05 251.85 374.95 251.85 398.26C251.85 421.57 270.75 440.47 294.06 440.47C317.37 440.47 336.28 421.57 336.28 398.26C336.28 374.95 317.38 356.05 294.06 356.05V356.05ZM293.87 360.7C301.12 360.7 307.01 366.58 307.01 373.83C307.01 381.08 301.13 386.96 293.87 386.96C286.61 386.96 280.74 381.08 280.74 373.83C280.74 366.58 286.62 360.7 293.87 360.7ZM292.12 390.76C293.29 389.58 295.2 389.58 296.37 390.76C297.54 391.93 297.54 393.84 296.37 395.01C295.19 396.19 293.29 396.19 292.12 395.01C290.95 393.84 290.95 391.94 292.12 390.76ZM290.81 400.57C289.63 401.74 287.73 401.74 286.56 400.57C285.39 399.4 285.39 397.49 286.56 396.32C287.74 395.15 289.64 395.15 290.81 396.32C291.98 397.49 291.98 399.4 290.81 400.57ZM297.31 395.95C298.49 394.78 300.39 394.78 301.56 395.95C302.73 397.12 302.73 399.03 301.56 400.2C300.39 401.37 298.48 401.37 297.31 400.2C296.14 399.03 296.14 397.13 297.31 395.95ZM255.31 391.77C255.31 384.52 261.19 378.64 268.44 378.64C275.69 378.64 281.58 384.52 281.58 391.77C281.58 399.02 275.7 404.9 268.44 404.9C261.18 404.9 255.31 399.02 255.31 391.77ZM278.65 432.98C271.39 432.98 265.52 427.1 265.52 419.85C265.52 412.6 271.4 406.72 278.65 406.72C285.9 406.72 291.78 412.6 291.78 419.85C291.78 427.1 285.9 432.98 278.65 432.98ZM291.75 405.75C290.57 404.58 290.57 402.68 291.75 401.5C292.92 400.33 294.82 400.33 296 401.5C297.17 402.68 297.17 404.58 296 405.75C294.82 406.92 292.92 406.92 291.75 405.75ZM309.09 432.98C301.84 432.98 295.96 427.1 295.96 419.85C295.96 412.6 301.84 406.72 309.09 406.72C316.34 406.72 322.23 412.6 322.23 419.85C322.23 427.1 316.35 432.98 309.09 432.98ZM319.68 404.9C312.43 404.9 306.54 399.02 306.54 391.77C306.54 384.52 312.42 378.64 319.68 378.64C326.94 378.64 332.81 384.52 332.81 391.77C332.81 399.02 326.93 404.9 319.68 404.9Z" fill="#2d7bbf"/>
<path d="M356.9 396.16L341.84 389.41C340.31 381.09 336.68 373.52 331.51 367.25L334.56 359.13C334.61 358.96 334.71 358.44 334.26 357.99C333.72 357.44 333.04 357.69 333.04 357.69L325.02 360.74C318.73 355.51 311.12 351.84 302.75 350.29L295.99 335.39C295.99 335.39 295.39 334.17 293.96 334.17C292.53 334.17 291.96 335.39 291.96 335.39L285.32 350.21C276.83 351.71 269.1 355.4 262.73 360.68L255 357.78C255 357.78 254.34 357.52 253.8 358.06C253.25 358.6 253.49 359.28 253.49 359.28L253.46 359.24L256.41 366.98C251.07 373.36 247.33 381.13 245.82 389.67L231.23 396.29C231.23 396.29 230 396.91 230 398.37C230 399.83 231.23 400.36 231.23 400.36L245.83 406.9C247.36 415.44 251.12 423.21 256.47 429.59L253.56 437.34C253.56 437.34 253.3 437.99 253.85 438.53C254.28 438.96 254.8 438.9 254.99 438.85L262.8 435.87C269.16 441.13 276.9 444.81 285.38 446.3L292.07 461.03C292.07 461.03 292.61 462.25 294.06 462.25C295.51 462.25 296.16 461.03 296.17 461.03L302.82 446.2C311.19 444.64 318.81 440.95 325.09 435.71L333.14 438.73C333.14 438.73 333.79 438.99 334.34 438.45C334.77 438.01 334.7 437.5 334.66 437.31L331.57 429.18C336.72 422.92 340.33 415.34 341.85 407.04L356.9 400.2C356.9 400.2 358.12 399.6 358.12 398.15C358.12 396.7 356.9 396.15 356.9 396.15V396.16ZM293.85 444.29C268.42 444.29 247.81 423.68 247.81 398.26C247.81 372.84 268.42 352.22 293.85 352.22C319.28 352.22 339.89 372.83 339.89 398.26C339.89 423.69 319.28 444.29 293.85 444.29V444.29Z" fill="#2d7bbf"/>
<path d="M372.73 393.67C373.14 393.5 373.55 393.33 373.96 393.16C373.83 393.2 373.35 393.35 372.73 393.67Z" fill="#2d7bbf"/>
<path d="M208.25 398.86C208.36 394.65 208.47 392.92 208.47 392.92C208.47 392.92 208.39 390.6 206.26 389.55C206.21 389.53 206.2 389.47 206.15 389.45C205.48 389.13 204.79 388.84 204.13 388.51C188.1 380.52 173.31 370.6 160.07 359.09C156.71 356.17 153.41 353.18 150.25 350.05C156.33 343.2 160.5 336.35 163.26 329.67C167.58 319.2 168.39 309.16 167.4 300.25C165.97 287.34 160.83 276.82 157.22 270.83C155.13 267.35 153.56 265.39 153.56 265.39C151.89 267.19 150.37 269 148.98 270.83C141.51 280.58 137.81 290.64 136.37 300.25C134.76 311.02 136.01 321.19 138.22 329.67C139.4 334.2 140.83 338.28 142.24 341.66C138.76 337.8 135.48 333.77 132.31 329.67C125.19 320.44 118.88 310.61 113.5 300.25C113.17 299.61 112.79 299.01 112.47 298.37C124.89 290.1 131.95 280.39 135.8 270.83C140.14 260.05 140.36 249.49 139.4 241.41C138.37 232.7 135.99 226.88 135.99 226.88C128.89 231.18 123.44 236.14 119.21 241.41C111.6 250.88 108.04 261.33 106.63 270.83C105.95 275.37 105.74 279.7 105.82 283.58C104.14 279.4 102.65 275.14 101.25 270.83C98.17 261.3 95.8 251.49 94.25 241.41C92.8 232.02 92.03 222.42 92.03 212.64C92.03 212.42 92.04 212.2 92.04 211.98C92.07 201.98 92.9 192.16 94.43 182.56C94.44 182.48 94.45 182.41 94.46 182.33C121.58 181.04 134.28 164.55 139.88 153.14C142.9 146.99 143.89 142.28 143.89 142.28C129.87 142.35 119.18 147.01 111.17 153.14C105.12 157.77 100.58 163.22 97.31 168.16C98.54 163.07 99.98 158.06 101.61 153.14C104.97 142.95 109.18 133.12 114.15 123.72C116.7 118.9 119.44 114.19 122.38 109.6C123.2 110.72 123.72 111.33 123.72 111.33C127.35 106.42 129.71 101.64 131.12 97.08C131.83 96.13 132.6 95.23 133.33 94.29C136.51 90.22 139.8 86.24 143.3 82.43C174.57 91.9 192.26 69.38 195.43 64.87C195.77 64.38 196 64.04 196 64.04C183.3 59.77 172.21 61.32 163.34 64.87C162.02 65.4 160.75 65.97 159.53 66.57C160.21 65.98 160.96 65.46 161.64 64.87C165.29 61.76 168.99 58.7 172.87 55.83C168.81 58.7 164.89 61.74 161.06 64.87C160.03 65.71 158.97 66.53 157.96 67.38C146.92 73.3 140.52 81.53 140.52 81.53C141.12 81.74 141.69 81.91 142.28 82.1C138.71 85.81 135.29 89.65 132.01 93.61C134.51 81.8 130.83 71.71 126.88 64.87C123.47 58.96 119.87 55.46 119.87 55.46C117.62 58.61 115.99 61.76 114.75 64.87C110.44 75.75 111.7 86.12 114.48 94.29C116.47 100.17 119.22 104.93 121.2 107.9C117.68 113.01 114.44 118.3 111.4 123.72C107.62 130.46 104.2 137.4 101.22 144.56C103.77 137.07 104.18 130.04 103.38 123.72C101.53 109.15 93.26 98.37 89.67 94.3C88.65 93.14 87.97 92.48 87.97 92.48C87.54 93.09 87.16 93.7 86.76 94.3C80.07 104.47 77.97 114.57 78.33 123.72C78.81 135.98 83.64 146.52 87.57 153.14C90.35 157.83 92.68 160.56 92.68 160.56C94.53 158.05 96.02 155.58 97.35 153.14C98.02 151.92 98.71 150.69 99.26 149.49C98.8 150.69 98.41 151.92 97.97 153.14C94.54 162.65 91.83 172.47 89.9 182.56C89.53 184.48 89.13 186.39 88.83 188.32C88.3 186.29 87.64 184.39 86.9 182.56C79.91 165.17 64.37 156.59 56.16 153.14C52.95 151.79 50.84 151.21 50.84 151.21C50.78 151.87 50.81 152.49 50.78 153.14C50.17 165.02 53.42 174.78 58.35 182.56C66.98 196.16 80.55 203.85 86.78 206.84C86.68 208.54 86.68 210.27 86.62 211.98C86.54 214.3 86.4 216.6 86.4 218.93C86.4 226.53 86.89 234.02 87.74 241.4C88.91 251.45 90.84 261.27 93.5 270.82C96.32 280.96 99.94 290.79 104.3 300.24C109.04 310.51 114.6 320.36 120.99 329.66C128.22 340.18 136.44 350.03 145.54 359.08C156.68 370.16 169.12 380.04 182.63 388.5C189.66 392.9 197.01 396.87 204.58 400.47C206.28 401.04 208.19 401.17 208.25 398.85V398.86Z" fill="#2d7bbf"/>
<path d="M137.59 352.68C136.91 351.58 136.23 350.49 135.52 349.46C134.75 348.34 133.96 347.28 133.16 346.25C132.3 345.13 131.42 344.07 130.53 343.04C129.56 341.92 128.57 340.85 127.57 339.82C126.46 338.69 125.34 337.62 124.2 336.61C122.92 335.47 121.62 334.39 120.31 333.4C118.77 332.23 117.21 331.17 115.64 330.19C113.75 329.01 111.85 327.93 109.94 326.98C107.39 325.72 104.83 324.66 102.28 323.76C97.93 322.23 93.62 321.2 89.49 320.55C78.39 318.78 68.63 319.66 62.92 320.55C59.57 321.07 57.62 321.6 57.62 321.6C58.02 322.35 58.46 323.04 58.88 323.76C59.52 324.86 60.18 325.94 60.85 326.98C61.57 328.08 62.3 329.16 63.06 330.19C63.87 331.3 64.7 332.38 65.55 333.4C66.48 334.52 67.43 335.59 68.4 336.61C69.46 337.73 70.55 338.8 71.66 339.82C72.9 340.96 74.17 342.02 75.46 343.04C76.91 344.19 78.4 345.25 79.9 346.25C81.64 347.41 83.41 348.49 85.19 349.46C87.4 350.66 89.63 351.73 91.87 352.68C94.94 353.97 98.02 355.02 101.06 355.89C107.2 357.64 113.17 358.62 118.54 359.11C126.73 359.85 133.51 359.48 137.41 359.11C139.69 358.89 141.01 358.67 141.01 358.67C140.51 357.71 139.99 356.81 139.47 355.89C138.85 354.79 138.23 353.71 137.58 352.68H137.59Z" fill="#2d7bbf"/>
<path d="M70.05 307.67C75.4 309.2 80.6 310.05 85.28 310.47C92.38 311.11 98.26 310.79 101.65 310.47C103.65 310.28 104.81 310.09 104.81 310.09C104.38 309.25 103.92 308.47 103.47 307.68C102.93 306.72 102.39 305.79 101.83 304.88C101.24 303.93 100.65 302.98 100.03 302.08C99.36 301.11 98.67 300.18 97.98 299.28C97.23 298.31 96.46 297.38 95.69 296.48C94.85 295.5 93.99 294.57 93.12 293.68C92.16 292.7 91.18 291.76 90.19 290.88C89.07 289.89 87.95 288.95 86.8 288.08C85.46 287.07 84.1 286.14 82.73 285.28C81.09 284.25 79.43 283.31 77.77 282.48C75.55 281.38 73.33 280.46 71.12 279.69C67.33 278.36 63.59 277.47 60 276.89C50.32 275.35 41.8 276.11 36.84 276.89C33.94 277.34 32.25 277.8 32.25 277.8C32.6 278.45 32.98 279.06 33.35 279.69C33.91 280.65 34.48 281.58 35.07 282.48C35.7 283.44 36.33 284.38 36.99 285.28C37.7 286.24 38.42 287.18 39.16 288.08C39.97 289.05 40.8 289.98 41.64 290.88C42.57 291.86 43.52 292.79 44.48 293.68C45.56 294.67 46.66 295.59 47.78 296.48C49.05 297.48 50.34 298.41 51.64 299.28C53.16 300.29 54.7 301.23 56.25 302.08C58.17 303.12 60.11 304.06 62.05 304.88C64.73 306.01 67.41 306.92 70.05 307.68V307.67Z" fill="#2d7bbf"/>
<path d="M39.4 213.85C39.61 215.47 39.88 217.04 40.22 218.57C40.57 220.19 40.97 221.77 41.44 223.29C41.95 224.93 42.55 226.49 43.19 228.01C43.87 229.64 44.61 231.22 45.42 232.73C46.3 234.38 47.26 235.95 48.27 237.45C49.38 239.11 50.55 240.68 51.78 242.17C53.16 243.85 54.61 245.42 56.1 246.89C57.83 248.6 59.61 250.16 61.42 251.61C63.6 253.36 65.8 254.93 67.97 256.33C70.85 258.18 73.66 259.76 76.26 261.05C81.18 263.5 85.33 265.01 87.69 265.77C89.02 266.2 89.79 266.4 89.79 266.4C89.79 266.18 89.77 265.98 89.76 265.77C89.73 264.15 89.65 262.58 89.52 261.05C89.38 259.43 89.19 257.86 88.95 256.33C88.69 254.7 88.38 253.13 88.01 251.61C87.62 249.98 87.18 248.4 86.67 246.89C86.13 245.26 85.55 243.67 84.9 242.17C84.18 240.51 83.37 238.96 82.52 237.45C81.59 235.79 80.61 234.21 79.56 232.73C78.37 231.05 77.11 229.48 75.8 228.01C74.28 226.3 72.69 224.73 71.06 223.29C69.07 221.53 67.02 219.97 64.96 218.57C62.25 216.72 59.53 215.15 56.92 213.85C52.4 211.59 48.22 210.09 45.02 209.13C41.26 208 38.86 207.62 38.86 207.62C38.88 208.14 38.93 208.63 38.96 209.13C39.05 210.75 39.19 212.32 39.4 213.85V213.85Z" fill="#2d7bbf"/>
<path d="M152.29 61.67C154.12 60.77 155.83 59.8 157.33 58.73C158.64 57.8 159.82 56.82 160.9 55.8C161.91 54.85 162.83 53.87 163.66 52.86C164.46 51.9 165.19 50.92 165.84 49.93C166.48 48.96 167.05 47.97 167.56 46.99C168.07 46 168.51 45.02 168.9 44.05C169.31 43.05 169.65 42.07 169.95 41.11C170.26 40.1 170.53 39.12 170.74 38.18C170.97 37.15 171.16 36.16 171.29 35.25C171.45 34.15 171.54 33.19 171.61 32.31C171.7 31.04 171.72 30.04 171.71 29.37C171.7 28.81 171.68 28.43 171.68 28.43C170.68 28.7 169.79 29.05 168.86 29.37C166.43 30.2 164.18 31.17 162.19 32.31C160.62 33.21 159.21 34.2 157.9 35.25C156.72 36.18 155.63 37.16 154.64 38.18C153.71 39.13 152.84 40.11 152.05 41.11C151.29 42.08 150.59 43.06 149.95 44.05C149.32 45.03 148.75 46.01 148.23 46.99C147.71 47.98 147.24 48.96 146.82 49.93C146.39 50.93 146.01 51.91 145.67 52.86C145.31 53.88 145.01 54.86 144.75 55.8C144.46 56.85 144.23 57.82 144.03 58.73C143.8 59.83 143.62 60.81 143.5 61.67C143.3 63.05 143.21 64.09 143.18 64.61C143.17 64.86 143.16 65.01 143.16 65.01C143.62 64.9 144 64.74 144.44 64.61C147.35 63.81 149.97 62.82 152.29 61.67V61.67Z" fill="#2d7bbf"/>
<path d="M132.13 182.85C128.54 184.2 125.17 185.71 122.23 187.5C119.87 188.93 117.75 190.5 115.78 192.14C113.99 193.62 112.36 195.17 110.86 196.78C109.45 198.29 108.15 199.84 106.97 201.43C105.83 202.96 104.78 204.51 103.84 206.07C102.91 207.62 102.05 209.17 101.3 210.71C100.54 212.27 99.84 213.82 99.24 215.36C98.62 216.94 98.07 218.49 97.59 220C97.08 221.61 96.66 223.16 96.3 224.65C95.9 226.31 95.59 227.84 95.34 229.29C95.04 231.03 94.82 232.58 94.68 233.93C94.45 236.12 94.36 237.77 94.35 238.58C94.35 238.96 94.35 239.2 94.35 239.2C95.03 239.01 95.66 238.79 96.32 238.58C100.53 237.26 104.3 235.7 107.68 233.93C110.42 232.5 112.91 230.94 115.15 229.29C117.15 227.81 118.98 226.26 120.63 224.65C122.17 223.14 123.56 221.59 124.82 220C126.03 218.47 127.11 216.92 128.08 215.36C129.04 213.82 129.89 212.26 130.64 210.71C131.4 209.15 132.06 207.6 132.63 206.07C133.22 204.49 133.72 202.94 134.14 201.43C134.59 199.83 134.95 198.27 135.24 196.78C135.56 195.15 135.79 193.59 135.96 192.14C136.16 190.43 136.26 188.87 136.31 187.5C136.38 185.5 136.34 183.91 136.29 182.85C136.24 181.91 136.18 181.36 136.18 181.36C134.75 181.79 133.5 182.35 132.17 182.85H132.13Z" fill="#2d7bbf"/>
<path d="M142.46 104.78C140.46 105.55 138.58 106.44 136.78 107.4C135.24 108.22 133.76 109.09 132.37 110.01C131.09 110.86 129.85 111.72 128.69 112.62C127.59 113.48 126.55 114.35 125.55 115.24C124.58 116.11 123.68 116.98 122.81 117.85C121.93 118.73 121.11 119.6 120.34 120.46C119.54 121.35 118.79 122.22 118.11 123.07C117.38 123.98 116.7 124.85 116.09 125.68C115.4 126.62 114.79 127.49 114.26 128.3C113.59 129.31 113.04 130.19 112.61 130.91C111.82 132.25 111.38 133.11 111.38 133.11C112.91 133.34 114.31 133.39 115.76 133.52C119.81 133.86 123.63 133.89 127.13 133.52C131.4 133.07 135.31 132.17 138.83 130.91C140.93 130.16 142.87 129.26 144.72 128.3C146.28 127.48 147.77 126.61 149.16 125.68C150.42 124.84 151.64 123.97 152.76 123.07C153.81 122.22 154.77 121.34 155.71 120.46C156.63 119.59 157.47 118.72 158.28 117.85C159.09 116.97 159.85 116.11 160.55 115.24C161.27 114.35 161.95 113.48 162.57 112.62C163.22 111.72 163.83 110.85 164.36 110.01C164.95 109.09 165.48 108.21 165.94 107.4C166.5 106.41 166.95 105.55 167.33 104.78C167.96 103.49 168.35 102.58 168.52 102.17C168.58 102.01 168.65 101.85 168.65 101.85C162.64 101.05 157.19 101.31 152.17 102.17C148.72 102.76 145.46 103.62 142.47 104.78H142.46Z" fill="#2d7bbf"/>
<path d="M189.12 50.46C192.19 50.78 195.05 50.71 197.8 50.46C201.16 50.16 204.27 49.52 207.14 48.59C208.84 48.04 210.45 47.42 211.98 46.72C213.26 46.13 214.47 45.52 215.63 44.85C216.69 44.24 217.71 43.62 218.66 42.98C219.57 42.36 220.46 41.75 221.27 41.11C222.07 40.49 222.83 39.86 223.54 39.24C224.27 38.6 224.93 37.98 225.56 37.37C226.23 36.72 226.84 36.1 227.4 35.5C228.02 34.83 228.58 34.21 229.07 33.63C229.67 32.92 230.17 32.29 230.57 31.76C231.37 30.7 231.82 30 231.82 30C231.67 29.95 231.54 29.93 231.39 29.88C228.6 28.97 225.91 28.4 223.29 28.01C218.27 27.26 213.53 27.29 209.18 28.01C206.61 28.43 204.21 29.1 201.9 29.88C200.23 30.44 198.63 31.06 197.1 31.75C195.79 32.34 194.54 32.96 193.35 33.62C192.24 34.23 191.18 34.85 190.17 35.49C189.2 36.11 188.26 36.73 187.38 37.36C186.5 37.99 185.66 38.61 184.88 39.23C184.08 39.87 183.32 40.5 182.63 41.1C181.88 41.75 181.21 42.37 180.59 42.97C179.88 43.65 179.24 44.28 178.71 44.84C177.94 45.64 177.41 46.25 177.02 46.71C176.63 47.17 176.36 47.5 176.36 47.5C177.64 47.95 178.85 48.24 180.09 48.59C183.23 49.48 186.28 50.16 189.14 50.46H189.12Z" fill="#2d7bbf"/>
<path d="M379.84 398.86C379.73 394.65 379.62 392.92 379.62 392.92C379.62 392.92 379.7 390.6 381.83 389.55C381.88 389.53 381.89 389.47 381.94 389.45C382.61 389.13 383.3 388.84 383.96 388.51C399.99 380.52 414.78 370.6 428.02 359.09C431.38 356.17 434.68 353.18 437.84 350.05C431.76 343.2 427.59 336.35 424.83 329.67C420.51 319.2 419.7 309.16 420.69 300.25C422.12 287.34 427.26 276.82 430.87 270.83C432.96 267.35 434.53 265.39 434.53 265.39C436.2 267.19 437.72 269 439.11 270.83C446.58 280.58 450.28 290.64 451.72 300.25C453.33 311.02 452.08 321.19 449.87 329.67C448.69 334.2 447.26 338.28 445.85 341.66C449.33 337.8 452.61 333.77 455.78 329.67C462.9 320.44 469.21 310.61 474.59 300.25C474.92 299.61 475.3 299.01 475.62 298.37C463.2 290.1 456.14 280.39 452.29 270.83C447.95 260.05 447.73 249.49 448.69 241.41C449.72 232.7 452.1 226.88 452.1 226.88C459.2 231.18 464.65 236.14 468.88 241.41C476.49 250.88 480.05 261.33 481.46 270.83C482.14 275.37 482.35 279.7 482.27 283.58C483.95 279.4 485.44 275.14 486.84 270.83C489.92 261.3 492.29 251.49 493.84 241.41C495.29 232.02 496.06 222.42 496.06 212.64C496.06 212.42 496.05 212.2 496.05 211.98C496.02 201.98 495.19 192.16 493.66 182.56C493.65 182.48 493.64 182.41 493.63 182.33C466.51 181.04 453.81 164.55 448.21 153.14C445.19 146.99 444.2 142.28 444.2 142.28C458.22 142.35 468.91 147.01 476.92 153.14C482.97 157.77 487.51 163.22 490.78 168.16C489.55 163.07 488.11 158.06 486.48 153.14C483.12 142.95 478.91 133.12 473.94 123.72C471.39 118.9 468.65 114.19 465.71 109.6C464.89 110.72 464.37 111.33 464.37 111.33C460.74 106.42 458.38 101.64 456.97 97.08C456.26 96.13 455.49 95.23 454.76 94.29C451.58 90.22 448.29 86.24 444.79 82.43C413.52 91.9 395.83 69.38 392.66 64.87C392.32 64.38 392.09 64.04 392.09 64.04C404.79 59.77 415.88 61.32 424.75 64.87C426.07 65.4 427.34 65.97 428.56 66.57C427.88 65.98 427.13 65.46 426.45 64.87C422.8 61.76 419.1 58.7 415.22 55.83C419.28 58.7 423.2 61.74 427.03 64.87C428.06 65.71 429.12 66.53 430.13 67.38C441.17 73.3 447.57 81.53 447.57 81.53C446.97 81.74 446.4 81.91 445.81 82.1C449.38 85.81 452.8 89.65 456.08 93.61C453.58 81.8 457.26 71.71 461.21 64.87C464.62 58.96 468.22 55.46 468.22 55.46C470.47 58.61 472.1 61.76 473.34 64.87C477.65 75.75 476.39 86.12 473.61 94.29C471.62 100.17 468.87 104.93 466.89 107.9C470.41 113.01 473.65 118.3 476.69 123.72C480.47 130.46 483.89 137.4 486.87 144.56C484.32 137.07 483.91 130.04 484.71 123.72C486.56 109.15 494.83 98.37 498.42 94.3C499.44 93.14 500.12 92.48 500.12 92.48C500.55 93.09 500.93 93.7 501.33 94.3C508.02 104.47 510.12 114.57 509.76 123.72C509.28 135.98 504.45 146.52 500.52 153.14C497.74 157.83 495.41 160.56 495.41 160.56C493.56 158.05 492.07 155.58 490.74 153.14C490.07 151.92 489.38 150.69 488.83 149.49C489.29 150.69 489.68 151.92 490.12 153.14C493.55 162.65 496.26 172.47 498.19 182.56C498.56 184.48 498.96 186.39 499.26 188.32C499.79 186.29 500.45 184.39 501.19 182.56C508.18 165.17 523.72 156.59 531.93 153.14C535.14 151.79 537.25 151.21 537.25 151.21C537.31 151.87 537.28 152.49 537.31 153.14C537.92 165.02 534.67 174.78 529.74 182.56C521.11 196.16 507.54 203.85 501.31 206.84C501.41 208.54 501.41 210.27 501.47 211.98C501.55 214.3 501.69 216.6 501.69 218.93C501.69 226.53 501.2 234.02 500.35 241.4C499.18 251.45 497.25 261.27 494.59 270.82C491.77 280.96 488.15 290.79 483.79 300.24C479.05 310.51 473.49 320.36 467.1 329.66C459.87 340.18 451.65 350.03 442.55 359.08C431.41 370.16 418.97 380.04 405.46 388.5C398.43 392.9 391.08 396.87 383.51 400.47C381.81 401.04 379.9 401.17 379.84 398.85V398.86Z" fill="#2d7bbf"/>
<path d="M450.5 352.68C451.18 351.58 451.86 350.49 452.57 349.46C453.34 348.34 454.13 347.28 454.93 346.25C455.79 345.13 456.67 344.07 457.56 343.04C458.53 341.92 459.52 340.85 460.52 339.82C461.63 338.69 462.75 337.62 463.89 336.61C465.17 335.47 466.47 334.39 467.78 333.4C469.32 332.23 470.88 331.17 472.45 330.19C474.34 329.01 476.24 327.93 478.15 326.98C480.7 325.72 483.26 324.66 485.81 323.76C490.16 322.23 494.47 321.2 498.6 320.55C509.7 318.78 519.46 319.66 525.17 320.55C528.52 321.07 530.47 321.6 530.47 321.6C530.07 322.35 529.63 323.04 529.21 323.76C528.57 324.86 527.91 325.94 527.24 326.98C526.52 328.08 525.79 329.16 525.03 330.19C524.22 331.3 523.39 332.38 522.54 333.4C521.61 334.52 520.66 335.59 519.69 336.61C518.63 337.73 517.54 338.8 516.43 339.82C515.19 340.96 513.92 342.02 512.63 343.04C511.18 344.19 509.69 345.25 508.19 346.25C506.45 347.41 504.68 348.49 502.9 349.46C500.69 350.66 498.46 351.73 496.22 352.68C493.15 353.97 490.07 355.02 487.03 355.89C480.89 357.64 474.92 358.62 469.55 359.11C461.36 359.85 454.58 359.48 450.68 359.11C448.4 358.89 447.08 358.67 447.08 358.67C447.58 357.71 448.1 356.81 448.62 355.89C449.24 354.79 449.86 353.71 450.51 352.68H450.5Z" fill="#2d7bbf"/>
<path d="M518.04 307.67C512.69 309.2 507.49 310.05 502.81 310.47C495.71 311.11 489.83 310.79 486.44 310.47C484.44 310.28 483.28 310.09 483.28 310.09C483.71 309.25 484.17 308.47 484.62 307.68C485.16 306.72 485.7 305.79 486.26 304.88C486.85 303.93 487.44 302.98 488.06 302.08C488.73 301.11 489.42 300.18 490.11 299.28C490.86 298.31 491.63 297.38 492.4 296.48C493.24 295.5 494.1 294.57 494.97 293.68C495.93 292.7 496.91 291.76 497.9 290.88C499.02 289.89 500.14 288.95 501.29 288.08C502.63 287.07 503.99 286.14 505.36 285.28C507 284.25 508.66 283.31 510.32 282.48C512.54 281.38 514.76 280.46 516.97 279.69C520.76 278.36 524.5 277.47 528.09 276.89C537.77 275.35 546.29 276.11 551.25 276.89C554.15 277.34 555.84 277.8 555.84 277.8C555.49 278.45 555.11 279.06 554.74 279.69C554.18 280.65 553.61 281.58 553.02 282.48C552.39 283.44 551.76 284.38 551.1 285.28C550.39 286.24 549.67 287.18 548.93 288.08C548.12 289.05 547.29 289.98 546.45 290.88C545.52 291.86 544.57 292.79 543.61 293.68C542.53 294.67 541.43 295.59 540.31 296.48C539.04 297.48 537.75 298.41 536.45 299.28C534.93 300.29 533.39 301.23 531.84 302.08C529.92 303.12 527.98 304.06 526.04 304.88C523.36 306.01 520.68 306.92 518.04 307.68V307.67Z" fill="#2d7bbf"/>
<path d="M548.69 213.85C548.48 215.47 548.21 217.04 547.87 218.57C547.52 220.19 547.12 221.77 546.65 223.29C546.14 224.93 545.54 226.49 544.9 228.01C544.22 229.64 543.48 231.22 542.67 232.73C541.79 234.38 540.83 235.95 539.82 237.45C538.71 239.11 537.54 240.68 536.31 242.17C534.93 243.85 533.48 245.42 531.99 246.89C530.26 248.6 528.48 250.16 526.67 251.61C524.49 253.36 522.29 254.93 520.12 256.33C517.24 258.18 514.43 259.76 511.83 261.05C506.91 263.5 502.76 265.01 500.4 265.77C499.07 266.2 498.3 266.4 498.3 266.4C498.3 266.18 498.32 265.98 498.33 265.77C498.36 264.15 498.44 262.58 498.57 261.05C498.71 259.43 498.9 257.86 499.14 256.33C499.4 254.7 499.71 253.13 500.08 251.61C500.47 249.98 500.91 248.4 501.42 246.89C501.96 245.26 502.54 243.67 503.19 242.17C503.91 240.51 504.72 238.96 505.57 237.45C506.5 235.79 507.48 234.21 508.53 232.73C509.72 231.05 510.98 229.48 512.29 228.01C513.81 226.3 515.4 224.73 517.03 223.29C519.02 221.53 521.07 219.97 523.13 218.57C525.84 216.72 528.56 215.15 531.17 213.85C535.69 211.59 539.87 210.09 543.07 209.13C546.83 208 549.23 207.62 549.23 207.62C549.21 208.14 549.16 208.63 549.13 209.13C549.04 210.75 548.9 212.32 548.69 213.85V213.85Z" fill="#2d7bbf"/>
<path d="M435.8 61.67C433.97 60.77 432.26 59.8 430.76 58.73C429.45 57.8 428.27 56.82 427.19 55.8C426.18 54.85 425.26 53.87 424.43 52.86C423.63 51.9 422.9 50.92 422.25 49.93C421.61 48.96 421.04 47.97 420.53 46.99C420.02 46 419.58 45.02 419.19 44.05C418.78 43.05 418.44 42.07 418.14 41.11C417.83 40.1 417.56 39.12 417.35 38.18C417.12 37.15 416.93 36.16 416.8 35.25C416.64 34.15 416.55 33.19 416.48 32.31C416.39 31.04 416.37 30.04 416.38 29.37C416.39 28.81 416.41 28.43 416.41 28.43C417.41 28.7 418.3 29.05 419.23 29.37C421.66 30.2 423.91 31.17 425.9 32.31C427.47 33.21 428.88 34.2 430.19 35.25C431.37 36.18 432.46 37.16 433.45 38.18C434.38 39.13 435.25 40.11 436.04 41.11C436.8 42.08 437.5 43.06 438.14 44.05C438.77 45.03 439.34 46.01 439.86 46.99C440.38 47.98 440.85 48.96 441.27 49.93C441.7 50.93 442.08 51.91 442.42 52.86C442.78 53.88 443.08 54.86 443.34 55.8C443.63 56.85 443.86 57.82 444.06 58.73C444.29 59.83 444.47 60.81 444.59 61.67C444.79 63.05 444.88 64.09 444.91 64.61C444.92 64.86 444.93 65.01 444.93 65.01C444.47 64.9 444.09 64.74 443.65 64.61C440.74 63.81 438.12 62.82 435.8 61.67V61.67Z" fill="#2d7bbf"/>
<path d="M455.96 182.85C459.55 184.2 462.92 185.71 465.86 187.5C468.22 188.93 470.34 190.5 472.31 192.14C474.1 193.62 475.73 195.17 477.23 196.78C478.64 198.29 479.94 199.84 481.12 201.43C482.26 202.96 483.31 204.51 484.25 206.07C485.18 207.62 486.04 209.17 486.79 210.71C487.55 212.27 488.25 213.82 488.85 215.36C489.47 216.94 490.02 218.49 490.5 220C491.01 221.61 491.43 223.16 491.79 224.65C492.19 226.31 492.5 227.84 492.75 229.29C493.05 231.03 493.27 232.58 493.41 233.93C493.64 236.12 493.73 237.77 493.74 238.58C493.74 238.96 493.74 239.2 493.74 239.2C493.06 239.01 492.43 238.79 491.77 238.58C487.56 237.26 483.79 235.7 480.41 233.93C477.67 232.5 475.18 230.94 472.94 229.29C470.94 227.81 469.11 226.26 467.46 224.65C465.92 223.14 464.53 221.59 463.27 220C462.06 218.47 460.98 216.92 460.01 215.36C459.05 213.82 458.2 212.26 457.45 210.71C456.69 209.15 456.03 207.6 455.46 206.07C454.87 204.49 454.37 202.94 453.95 201.43C453.5 199.83 453.14 198.27 452.85 196.78C452.53 195.15 452.3 193.59 452.13 192.14C451.93 190.43 451.83 188.87 451.78 187.5C451.71 185.5 451.75 183.91 451.8 182.85C451.85 181.91 451.91 181.36 451.91 181.36C453.34 181.79 454.59 182.35 455.92 182.85H455.96Z" fill="#2d7bbf"/>
<path d="M445.63 104.78C447.63 105.55 449.51 106.44 451.31 107.4C452.85 108.22 454.33 109.09 455.72 110.01C457 110.86 458.24 111.72 459.4 112.62C460.5 113.48 461.54 114.35 462.54 115.24C463.51 116.11 464.41 116.98 465.28 117.85C466.16 118.73 466.98 119.6 467.75 120.46C468.55 121.35 469.3 122.22 469.98 123.07C470.71 123.98 471.39 124.85 472 125.68C472.69 126.62 473.3 127.49 473.83 128.3C474.5 129.31 475.05 130.19 475.48 130.91C476.27 132.25 476.71 133.11 476.71 133.11C475.18 133.34 473.78 133.39 472.33 133.52C468.28 133.86 464.46 133.89 460.96 133.52C456.69 133.07 452.78 132.17 449.26 130.91C447.16 130.16 445.22 129.26 443.37 128.3C441.81 127.48 440.32 126.61 438.93 125.68C437.67 124.84 436.45 123.97 435.33 123.07C434.28 122.22 433.32 121.34 432.38 120.46C431.46 119.59 430.62 118.72 429.81 117.85C429 116.97 428.24 116.11 427.54 115.24C426.82 114.35 426.14 113.48 425.52 112.62C424.87 111.72 424.26 110.85 423.73 110.01C423.14 109.09 422.61 108.21 422.15 107.4C421.59 106.41 421.14 105.55 420.76 104.78C420.13 103.49 419.74 102.58 419.57 102.17C419.51 102.01 419.44 101.85 419.44 101.85C425.45 101.05 430.9 101.31 435.92 102.17C439.37 102.76 442.63 103.62 445.62 104.78H445.63Z" fill="#2d7bbf"/>
<path d="M398.97 50.46C395.9 50.78 393.04 50.71 390.29 50.46C386.93 50.16 383.82 49.52 380.95 48.59C379.25 48.04 377.64 47.42 376.11 46.72C374.83 46.13 373.62 45.52 372.46 44.85C371.4 44.24 370.38 43.62 369.43 42.98C368.52 42.36 367.63 41.75 366.82 41.11C366.02 40.49 365.26 39.86 364.55 39.24C363.82 38.6 363.16 37.98 362.53 37.37C361.86 36.72 361.25 36.1 360.69 35.5C360.07 34.83 359.51 34.21 359.02 33.63C358.42 32.92 357.92 32.29 357.52 31.76C356.72 30.7 356.27 30 356.27 30C356.42 29.95 356.55 29.93 356.7 29.88C359.49 28.97 362.18 28.4 364.8 28.01C369.82 27.26 374.56 27.29 378.91 28.01C381.48 28.43 383.88 29.1 386.19 29.88C387.86 30.44 389.46 31.06 390.99 31.75C392.3 32.34 393.55 32.96 394.74 33.62C395.85 34.23 396.91 34.85 397.92 35.49C398.89 36.11 399.83 36.73 400.71 37.36C401.59 37.99 402.43 38.61 403.21 39.23C404.01 39.87 404.77 40.5 405.46 41.1C406.21 41.75 406.88 42.37 407.5 42.97C408.21 43.65 408.85 44.28 409.38 44.84C410.15 45.64 410.68 46.25 411.07 46.71C411.46 47.17 411.73 47.5 411.73 47.5C410.45 47.95 409.24 48.24 408 48.59C404.86 49.48 401.81 50.16 398.95 50.46H398.97Z" fill="#2d7bbf"/>
</svg>
