<?xml version="1.0" encoding="UTF-8"?>
<svg id="Capa_1" data-name="Capa 1" xmlns="http://www.w3.org/2000/svg" viewBox="0 0 800 800">
  <defs>
    <style>
      .cls-1 {
        fill: #fff;
      }
    </style>
  </defs>
  <path class="cls-1" d="M395.59,682.27l-279.69-.12c-39.71-3.51-114.8-30.96-114.8-109.79l.09-441.9C4.56,85.33,36.65,0,133.88,0h427.41l3.03.61c39.42,7.88,113.97,43,113.97,119.47v276.35h-62.3V120.08c0-39.74-49.04-54.66-61.34-57.77H133.88c-60.14,0-69.31,60.8-70.48,71.94v438.11c0,38.75,47.1,46.43,56.91,47.61h275.28v62.3Z"/>
  <polygon class="cls-1" points="799.16 620.03 675.36 676.2 619.19 800 563.96 675.26 439.22 620.03 566.24 567.08 619.19 440.06 673.08 566.14 799.16 620.03"/>
  <g>
    <path class="cls-1" d="M374.82,477.98l-23.07-51.61h-143.09l-23.46,51.61h-55.91l122.76-273.67h56.3l122.76,273.67h-56.3ZM331.03,378.29l-50.82-116.5-50.83,116.5h101.65Z"/>
    <path class="cls-1" d="M515.95,477.98h-51.21V204.31h51.21v273.67Z"/>
  </g>
</svg>