<svg width="317" height="129" viewBox="0 0 317 129" fill="none" xmlns="http://www.w3.org/2000/svg">
<path d="M275.18 15.0701C258.99 15.0701 245.41 26.1201 241.49 41.0901C223.74 42.1201 207.96 55.5001 198.21 76.4101C188.06 54.6301 171.38 40.9901 152.73 40.9901C134.08 40.9901 117.41 54.6301 107.25 76.4101C97.09 54.6301 80.42 40.9901 61.77 40.9901C35.51 40.9901 13.16 68.0201 7.42001 106.73L6.10001 115.59L23.82 118.22L25.13 109.36C29.47 80.1201 44.87 58.9001 61.76 58.9001C78.65 58.9001 94.04 80.1201 98.38 109.36H116.1C120.44 80.1201 135.84 58.9001 152.72 58.9001C169.6 58.9001 185 80.1201 189.34 109.36H207.06C211.21 81.3601 225.52 60.7601 241.55 59.0601C245.56 73.8901 259.08 84.8101 275.17 84.8101C294.43 84.8101 310.04 69.2001 310.04 49.9401C310.04 30.6801 294.42 15.0701 275.17 15.0701H275.18ZM275.18 66.9001C265.83 66.9001 258.22 59.2901 258.22 49.9401C258.22 40.5901 265.83 32.9801 275.18 32.9801C284.53 32.9801 292.14 40.5901 292.14 49.9401C292.14 59.2901 284.53 66.9001 275.18 66.9001Z" fill="white"/>
</svg>
