<svg width="208" height="178" viewBox="0 0 208 178" fill="none" xmlns="http://www.w3.org/2000/svg">
<path d="M95.0601 109.35C95.0601 126.63 82.8401 137.95 66.4601 137.95C50.0801 137.95 37.5601 126.33 37.5601 109.35C37.5601 101.6 38.7501 95.94 45.6001 79.56L62.8801 36.66H92.3801L79.2701 84.03C89.1001 88.2 95.0601 97.14 95.0601 109.35ZM165.37 109.35C165.37 126.63 153.15 137.95 136.77 137.95C120.39 137.95 107.87 126.33 107.87 109.35C107.87 101.6 109.06 95.94 115.91 79.56L133.19 36.66H162.69L149.58 84.03C159.41 88.2 165.37 97.14 165.37 109.35V109.35Z" fill="#252F60"/>
</svg>
