<svg width="386" height="392" viewBox="0 0 386 392" fill="none" xmlns="http://www.w3.org/2000/svg">
<path d="M210.24 195.55L336.27 69.52C341.17 64.62 341.17 56.68 336.27 51.79C331.37 46.9 323.44 46.9 318.54 51.79L192.51 177.82L66.48 51.79C61.58 46.89 53.64 46.89 48.75 51.79C43.86 56.69 43.85 64.63 48.75 69.52L174.78 195.55L48.75 321.58C43.85 326.48 43.85 334.42 48.75 339.31C51.2 341.76 54.41 342.98 57.62 342.98C60.83 342.98 64.0399 341.76 66.4899 339.31L192.52 213.28L318.55 339.31C321 341.76 324.21 342.98 327.42 342.98C330.63 342.98 333.84 341.76 336.29 339.31C341.19 334.41 341.19 326.47 336.29 321.58L210.26 195.55H210.24Z" fill="white"/>
</svg>
