<svg width="263" height="271" viewBox="0 0 263 271" fill="none" xmlns="http://www.w3.org/2000/svg">
<path d="M87.47 86.3C87.47 62.97 68.55 44.05 45.22 44.05C21.89 44.05 2.97998 62.97 2.97998 86.3C2.97998 109.63 21.9 128.54 45.22 128.54C68.54 128.54 87.47 109.63 87.47 86.3V86.3ZM149.03 147.48C156.15 147.48 163 146.26 169.37 144.01V202.93C169.37 215.97 158.8 226.55 145.76 226.55H47.87C34.83 226.55 24.25 215.98 24.25 202.93V143.78C30.79 146.18 37.86 147.48 45.22 147.48C67.08 147.48 86.3 135.95 97.12 118.65C107.93 135.95 127.16 147.48 149.02 147.48H149.03ZM149.03 44.06C125.7 44.06 106.77 62.97 106.77 86.31C106.77 109.65 125.7 128.55 149.03 128.55C172.36 128.55 191.27 109.63 191.27 86.31C191.27 62.99 172.36 44.06 149.03 44.06V44.06ZM259.61 114.84V226.54L188.3 190.26V151.77L259.61 114.85V114.84Z" fill="white"/>
</svg>
