<svg width="251" height="258" viewBox="0 0 251 258" fill="none" xmlns="http://www.w3.org/2000/svg">
<path d="M176.51 122.73L143.47 89.68L201.5 31.64C210.63 22.51 225.44 22.51 234.56 31.64C243.69 40.77 243.69 55.56 234.56 64.7L176.53 122.73H176.51ZM136.77 100.42L113.84 123.35C100.57 136.62 93.9 149.36 87.84 167.12L99.08 178.37C116.83 172.3 129.57 165.63 142.84 152.37L165.77 129.44L136.77 100.44V100.42ZM90.77 181.73L84.47 175.44L77.95 181.96C76.21 183.69 76.21 186.51 77.95 188.25C79.69 189.99 82.51 189.99 84.24 188.25L90.77 181.73V181.73ZM182.3 150.03L182.18 150.15V210.22H31.28V99.84H104.85L127.53 77.2H8.63V232.86H204.82V127.5L182.3 150.02V150.03Z" fill="white"/>
</svg>
