<svg width="192" height="195" viewBox="0 0 192 195" fill="none" xmlns="http://www.w3.org/2000/svg">
<path fill-rule="evenodd" clip-rule="evenodd" d="M95.62 5.77002C45.16 5.77002 4.26001 46.67 4.26001 97.13C4.26001 147.59 45.16 188.49 95.62 188.49C146.08 188.49 186.98 147.59 186.98 97.13C186.98 46.67 146.07 5.77002 95.62 5.77002ZM122.4 57.85C122.4 58.65 121.75 59.31 120.94 59.31H109.33C106.48 59.31 104.17 61.62 104.17 64.47V76.63H120.68C121.53 76.63 122.2 77.36 122.13 78.21L120.68 95.34C120.62 96.09 119.99 96.67 119.23 96.67H104.17V153.54C104.17 154.34 103.52 155 102.71 155H81.93C81.13 155 80.47 154.35 80.47 153.54V96.67H70.08C69.28 96.67 68.62 96.02 68.62 95.21V78.08C68.62 77.28 69.27 76.62 70.08 76.62H80.47V60.1C80.47 48.59 89.8 39.26 101.31 39.26H120.93C121.73 39.26 122.39 39.91 122.39 40.72V57.85H122.4Z" fill="#2977BC"/>
</svg>
