<svg width="264" height="272" viewBox="0 0 264 272" fill="none" xmlns="http://www.w3.org/2000/svg">
<path d="M154.98 33.53H57.02C46.39 33.53 37.79 42.14 37.79 52.76V114.73C37.79 125.35 46.4 133.96 57.02 133.96H154.98C165.6 133.96 174.21 125.35 174.21 114.73V52.76C174.21 42.14 165.6 33.53 154.98 33.53V33.53ZM154.1 95.18C153.49 95.85 153.24 96.56 153.14 97.41C153.08 97.89 152.83 98.36 152.63 98.92C152.97 98.83 153.21 98.77 153.44 98.71C153.5 98.77 153.56 98.84 153.62 98.9C153.35 99.2 153.07 99.5 152.91 99.66C153.11 101.19 152.38 102.46 152.28 103.83C152.19 103.84 152.1 103.85 152.02 103.86C151.78 103.29 151.52 102.72 151.23 102.04C150.64 102.73 149.83 103.36 149.44 104.2C148.96 105.28 148.06 105.58 147.15 105.68C145.64 105.86 144.09 105.82 142.56 105.87C142.02 105.89 141.59 105.96 141.59 106.68C141.61 107.84 141.59 107.84 140.28 107.95C140.76 108.38 141.12 108.72 141.5 109.04C142.19 109.63 142.91 110.19 143.56 110.81C143.7 110.94 143.71 111.35 143.62 111.55C143.54 111.74 143.25 111.94 143.03 111.97C142.13 112.06 141.24 112.12 140.33 112.15C139.65 112.18 139.13 112.34 138.87 113.08C138.69 113.59 138.39 114.06 138.09 114.52C137.86 114.9 137.67 115.23 138.07 115.61C138.14 115.68 138.2 115.82 138.18 115.91C138.02 116.46 137.84 117.02 137.64 117.66C137.47 117.55 137.27 117.46 137.13 117.33C135.87 116.12 134.63 114.88 133.35 113.7C132.85 113.24 132.26 112.85 131.66 112.53C131.36 112.38 130.91 112.53 130.58 112.42C130 112.22 129.47 111.89 128.89 111.69C128.66 111.61 128.26 111.66 128.09 111.8C127.11 112.68 125.93 113.09 124.75 113.6C123.28 114.23 122 114.06 120.69 113.38C120.62 113.34 120.53 113.28 120.46 113.29C118.9 113.43 117.71 112.43 116.34 111.98C115.7 111.76 115.18 111.23 114.56 110.98C113.89 110.71 113.15 110.62 112.45 110.45C112.27 110.41 112.06 110.41 111.89 110.34C110.71 109.86 109.48 109.47 108.38 108.85C107.3 108.25 106.38 107.38 105.36 106.68C104.89 106.36 104.35 106.12 103.81 105.94C102.52 105.5 101.17 105.23 99.93 104.68C99.35 104.43 98.98 103.7 98.51 103.18C98.3 102.94 98.12 102.63 97.85 102.49C96.97 101.99 96.06 101.54 95.13 101.09C94.1 100.61 93.79 99.52 93.14 98.71C92.87 98.36 92.77 97.87 92.56 97.46C92.12 96.61 92.17 96.47 93.14 96.24C93.24 96.21 93.34 96.17 93.61 96.1C93.32 95.76 93.1 95.5 92.87 95.23C93.16 94.77 93.52 94.32 93.74 93.81C93.85 93.52 93.86 93 93.69 92.82C92.7 91.9 92.74 90.58 92.33 89.45C92.27 89.3 92.43 89.08 92.4 88.9C92.36 88.62 92.34 88.21 92.16 88.11C90.34 87.03 89.37 85.28 88.34 83.53C87.99 82.94 87.25 82.61 86.69 82.15C86.36 81.87 86.04 81.56 85.72 81.26C85.26 80.85 84.97 80.42 85.53 79.89C84.74 79.29 84.01 78.73 83.27 78.19C82.77 77.83 82.15 77.58 81.71 77.14C81.09 76.49 81.3 75.32 82.07 74.78C81.85 74.11 81.65 73.47 80.71 73.42C80.46 73.4 80.14 73.01 80.03 72.72C79.83 72.19 79.61 71.82 79.02 71.64C78.6 71.5 78.27 71.11 77.91 70.83C77.91 70.33 77.94 69.83 77.89 69.32C77.87 69.18 77.66 68.97 77.5 68.93C76.79 68.78 76.34 68.45 76.05 67.72C75.82 67.15 75.2 66.74 74.89 66.19C74.18 64.92 73.48 63.64 72.92 62.3C72.59 61.52 72.54 60.62 72.32 59.79C72.03 58.67 71.39 57.65 71.57 56.39C71.61 56.12 70.91 55.75 70.42 55.54C70.37 55.3 70.38 55.03 70.25 54.84C70.14 54.67 69.76 54.47 69.7 54.52C68.85 55.26 68.44 54.38 67.9 54.05C67.58 53.85 67.28 53.59 67.03 53.41C66.89 54.01 66.67 54.53 66.66 55.05C66.66 56.01 66.8 56.98 66.86 57.95C66.88 58.13 66.91 58.35 66.83 58.51C66.41 59.41 67.02 59.97 67.47 60.61C68.21 61.65 69.38 62.42 69.57 63.82C69.6 63.99 69.76 64.15 69.88 64.28C70 64.42 70.21 64.51 70.29 64.67C70.77 65.63 71.71 66.39 71.49 67.64C71.44 67.92 71.56 68.35 71.76 68.56C72.7 69.49 73.05 70.74 73.65 71.86C73.7 71.95 73.73 72.11 73.81 72.13C75.41 72.67 75.09 74.15 75.32 75.31C75.44 76.01 75.75 76.62 75.95 77.24C76.27 78.29 77.21 79.17 76.9 80.44C76.8 80.85 76.99 81.36 77.14 81.78C77.18 81.88 77.68 81.96 77.8 81.85C78.22 81.51 78.5 81.61 78.75 82C79.39 83.01 80.07 84 80.6 85.06C80.73 85.33 80.42 85.93 80.15 86.23C79.83 86.58 79.33 86.75 78.75 87.1C78.55 86.67 78.28 86.27 78.19 85.84C78.06 85.22 77.88 84.7 77.33 84.33C77.02 84.12 76.8 83.79 76.53 83.52C75.55 82.52 74.58 81.51 73.58 80.53C73.22 80.16 72.61 79.93 72.42 79.5C72.24 79.06 72.3 78.4 72.49 77.93C73.19 76.11 72.51 74.82 71.14 73.7C70.68 73.33 70.34 72.81 69.89 72.42C69.5 72.07 69.11 71.56 68.67 71.93C67.79 71.3 67 70.73 66.21 70.16C66.14 70.11 66.03 70.07 66.03 70.01C65.95 68.97 64.98 68.54 64.51 67.77C64.47 67.71 64.48 67.61 64.43 67.42C65.28 67.57 66.08 67.71 66.89 67.86C67.07 67.37 67.35 66.72 67.53 66.05C67.6 65.77 67.58 65.36 67.42 65.14C66.32 63.67 65.55 61.95 63.89 60.89C63.46 60.62 63.48 59.62 63.28 58.96C63.17 58.63 63.05 58.3 62.92 57.97C62.9 57.9 62.79 57.83 62.8 57.77C63.02 56.23 61.9 55.06 61.68 53.66C61.5 52.54 61.32 51.46 60.89 50.41C60.84 50.28 61.13 49.82 61.26 49.83C63.44 49.92 65.62 50.06 67.85 50.19C67.79 50.51 67.74 50.74 67.69 50.99C71.05 52.77 74.39 54.6 77.78 56.3C78.52 56.67 79.49 56.62 80.35 56.71C82.15 56.9 83.94 57.05 85.74 57.25C86.43 57.32 86.87 57.19 86.76 56.36C86.69 55.75 87 55.62 87.55 55.68C88.86 55.83 90.18 55.88 91.47 56.06C91.87 56.11 92.29 56.37 92.59 56.65C93.75 57.72 94.81 58.89 96 59.91C96.72 60.53 97.17 61.38 97.18 62.15C97.23 63.99 98.48 64.72 99.73 65.52C100.07 65.74 100.46 65.88 100.81 66.08C101.75 66.61 102.3 66.42 102.69 65.41C102.79 65.16 102.86 64.89 102.98 64.65C103.41 63.76 104.19 63.46 105.12 63.78C105.25 63.83 105.39 63.88 105.52 63.87C107.47 63.63 108.41 64.98 109.27 66.34C109.79 67.16 110.07 68.12 110.57 68.96C111.08 69.79 111.62 70.65 112.34 71.27C112.9 71.75 113.08 72.29 113.29 72.9C113.6 73.77 113.93 74.63 114.27 75.48C114.32 75.62 114.45 75.78 114.58 75.83C115.26 76.17 115.94 76.51 116.64 76.77C117.11 76.95 117.63 77 118.13 77.1C118.36 77.16 118.62 77.2 118.84 77.27C119.3 77.41 119.77 77.56 120.41 77.77C120.64 78.83 119.64 79.73 119.51 80.89C119.36 80.82 119.29 80.82 119.27 80.78C119.11 80.55 118.96 80.32 118.81 80.08C118.77 80.39 118.73 80.69 118.71 80.99C118.66 81.77 118.58 82.56 118.59 83.34C118.59 84.94 118.68 86.53 118.69 88.12C118.69 88.5 118.42 88.89 118.47 89.26C118.58 90.37 118.66 91.52 118.98 92.58C119.31 93.67 119.89 94.67 120.39 95.69C120.53 96 120.76 96.28 120.98 96.56C121.69 97.48 122.45 98.36 123.1 99.33C123.57 100.03 123.83 100.88 124.27 101.61C124.57 102.1 125.04 102.49 125.48 102.97C126.53 102.81 127.56 103.14 128.53 103.72C128.65 103.8 128.74 103.97 128.79 104.12C129.06 104.83 129.61 105.05 130.3 104.88C131.01 104.71 131.7 104.46 132.4 104.24C132.55 104.19 132.71 104.07 132.86 104.09C134.19 104.22 135.27 103.63 136.39 103.05C137.2 102.64 137.99 102.9 138.66 103.48C138.87 103.67 139.37 103.66 139.69 103.58C139.99 103.5 140.26 103.2 140.57 102.97C140.39 102.73 140.21 102.51 140.04 102.28C140.54 101.83 141.07 101.47 141.44 100.98C141.8 100.51 141.97 99.92 142.26 99.38C142.93 98.12 142.69 96.73 142.82 95.39C142.9 94.62 143.36 93.99 144.14 93.76C145.25 93.44 146.39 93.18 147.51 92.89C147.82 92.81 148.15 92.74 148.43 92.57C149.48 91.94 150.59 91.91 151.75 92.07C152.48 92.17 153.15 92.5 153.96 92.05C154.47 91.76 154.79 92.4 154.88 92.92C155.02 93.81 154.59 94.57 154.06 95.15L154.1 95.18Z" fill="white"/>
<path d="M189.43 68.27V99.2L246.74 133.95V33.53L189.43 68.27Z" fill="white"/>
<path d="M193.15 220.15L175.49 237.74L117.07 179.33V237.74H92.29V179.66L34.05 237.74L16.48 220.27L85.72 151.06H123.97L193.15 220.15Z" fill="white"/>
</svg>
