<svg width="1362" height="690" viewBox="0 0 1362 690" fill="none" xmlns="http://www.w3.org/2000/svg">
<g clip-path="url(#clip0_33_436)">
<path d="M302.08 689.05C291.53 669.78 285.52 647.66 285.52 624.14C285.52 549.43 346.13 488.83 420.85 488.83C495.57 488.83 556.24 549.43 556.24 624.14C556.24 647.67 550.23 669.78 539.68 689.05V692.67H598.83V689.05C599.65 682.44 602.56 676.04 607.63 670.97C619.74 658.89 639.33 658.89 651.44 670.97C656.49 676.04 659.4 682.44 660.21 689.05V693.01H709.58L709.36 689.05C709.36 681.13 712.37 673.21 718.39 667.17C730.51 655.06 750.12 655.06 762.21 667.17C768.25 673.21 771.28 681.13 771.28 689.05V693.88H830.16V689.05C819.61 669.78 813.6 647.66 813.6 624.14C813.6 549.43 874.23 488.83 948.99 488.83C1023.75 488.83 1084.3 549.43 1084.3 624.14C1084.3 647.67 1078.29 669.78 1067.74 689.05V693.01H1120.02V689.05C1118.99 449.66 924.56 255.9 684.9 255.9C445.24 255.9 250.88 449.66 249.85 689.05V691.71H302.08V689.05ZM708.72 657.46C696.6 669.58 676.99 669.58 664.91 657.46C652.83 645.4 652.83 625.79 664.91 613.69C676.99 601.58 696.61 601.58 708.72 613.69C720.81 625.79 720.81 645.4 708.72 657.46ZM682.94 303.87C757.7 303.87 818.32 364.45 818.32 439.18C818.32 513.91 757.7 574.52 682.94 574.52C608.18 574.52 547.62 513.95 547.62 439.18C547.62 364.41 608.19 303.87 682.94 303.87Z" fill="white"/>
<path d="M1345.23 689.05C1344.72 674.73 1332.66 669.3 1332.66 669.3L1177.44 599.7C1161.66 514 1124.29 435.92 1070.96 371.33L1102.41 287.6C1102.9 285.87 1103.94 280.5 1099.32 275.86C1093.71 270.24 1086.75 272.73 1086.75 272.73L1086.78 272.67L1004.16 304.18C939.35 250.32 860.9 212.43 774.68 196.5L704.97 42.97C704.82 42.7 698.81 30.43 684.01 30.43C669.21 30.43 663.38 43.06 663.38 43.06L594.89 195.81C507.39 211.25 427.69 249.27 362.07 303.68L282.41 273.78C282.41 273.78 275.65 271.1 270.04 276.7C264.42 282.29 266.88 289.25 266.88 289.25L266.54 288.87L296.91 368.62C241.87 434.41 203.31 514.48 187.76 602.46L37.3799 670.71C37.3799 670.71 26.4899 676.24 24.9399 689.06V704.11H208.35V689.06C209.38 427.88 421.37 216.49 682.85 216.49C944.33 216.49 1156.31 427.88 1157.35 689.06V698.83H1345.23V689.06V689.05Z" fill="white"/>
</g>
<defs>
<clipPath id="clip0_33_436">
<rect width="1361.49" height="689.05" fill="white"/>
</clipPath>
</defs>
</svg>
