<svg width="269" height="277" viewBox="0 0 269 277" fill="none" xmlns="http://www.w3.org/2000/svg">
<path d="M197.38 225.09L179.23 243.17L119.2 183.14V243.17H93.74V183.48L33.89 243.17L15.83 225.22L86.99 154.09H126.29L197.39 225.1L197.38 225.09Z" fill="white"/>
<path d="M130.91 76.8499C130.72 76.8499 129.87 77.4 129.57 76.76C129.52 76.64 129.21 76.0899 128.8 76.8499C128.69 77.0499 128.08 76.9 127.87 76.79C127.28 76.46 126.54 75.6799 126.36 75.4899C126.16 75.2499 125.57 75.58 126.01 76.22C127.45 78.38 127.71 78.4 128.11 78.61C128.31 78.47 128.28 78.4199 128.53 78.3899C128.69 78.3699 128.82 78.2699 128.89 78.1299C128.96 77.9699 129.12 77.8499 129.29 77.8099C129.46 77.7699 129.65 77.81 129.79 77.94C130.04 78.16 130.36 77.9599 130.62 78.0899C131.3 78.4099 131.04 79.05 130.9 79.82C130.84 79.82 130.77 79.87 130.77 79.93C130.77 80.17 130.93 80.3999 130.88 80.6399C130.88 80.6399 130.88 80.66 130.86 80.66C130.78 80.7 130.71 80.76 130.65 80.82C130.45 81.02 130.44 81.2799 130.27 81.5199C130.11 81.7399 130.27 82.23 129.9 82.23C129.75 82.23 129.27 82.51 129.19 82.83C129.1 83.21 128.9 83.55 128.6 83.8C128.39 83.98 128.08 84.22 127.68 84.54C127.49 84.69 126.7 85.5299 126.02 85.6999C125.93 85.7199 125.84 85.69 125.77 85.61C125.77 85.61 125.77 85.6099 125.77 85.5999C125.33 84.9099 125.24 84.0799 124.88 83.3499C124.47 82.4899 123.35 82.2599 123.04 81.3099C122.79 80.5099 122.68 80.1599 122.31 79.9599C122.05 79.8099 121.83 79.62 121.68 79.37C121.42 78.97 121.03 78.39 120.71 78.08C120.56 77.94 120.47 77.7599 120.44 77.5599C120.42 77.4699 120.29 77.4699 120.29 77.5599C120.27 77.8899 120.33 77.98 120.24 78.05C120.17 78.1 120.07 78.08 120.01 78.01C119.78 77.77 119.41 77.3399 119.32 77.0999C119.29 77.1999 119.32 77.2899 119.36 77.3799C119.86 78.0899 122.28 81.5899 122.34 81.9199C122.75 84.1199 124.45 84.65 125.33 85.47C125.49 85.62 125.59 85.8199 125.64 86.0299C125.68 86.2399 125.78 86.41 125.93 86.55C126.09 86.7 126.26 86.6799 127.17 86.5599C127.32 86.5399 127.42 86.4299 127.53 86.3399C127.61 86.2599 128.35 86 128.45 85.93C128.65 85.81 128.41 85.88 128.86 85.66C129.04 85.57 129.25 85.0299 129.22 85.6399C129.22 85.7999 129.3 85.9399 129.28 86.0999C129.18 87.0299 129.11 87.18 129.05 87.36C128.98 87.6 128.88 87.82 128.83 88.07C128.55 89.21 128.11 90.42 127.34 91.32C127.34 91.34 127.31 91.36 127.3 91.37C126.88 91.77 126.1 92.49 125.47 93.72C125.07 94.49 124.52 95.17 124.1 95.93C123.96 96.19 123.93 96.26 124.05 96.61C124.14 96.86 124.41 98.01 124.45 99.48C124.5 101.09 124.24 101.35 123.72 101.73C122.9 102.33 122.34 102.73 121.95 103.02C121.5 103.36 121.23 103.88 121.22 104.44C121.22 104.65 121.17 104.91 121.03 105.22C121.07 105.28 119.97 105.83 119.59 106.27C119.59 106.28 119.59 106.29 119.59 106.31C119.84 107.11 116.62 109.41 115.95 109.4C115.46 109.4 114.27 109.59 113.71 109.83C113.32 109.99 112.29 109.64 112.22 109.42C112.22 109.39 112.2 109.33 112.22 109.31C112.47 109.1 111.62 107.87 111.42 107.73C111.29 107.64 111.03 107.06 110.93 106.92C110.63 106.48 111.16 105.86 110.81 105.43C110.79 105.4 110.77 105.38 110.76 105.36L109.76 103.96C109.59 103.74 109.15 103.48 109.15 103.22C109.15 102.93 109.66 101.51 109.71 101.46C109.76 101.39 109.8 101.31 109.84 101.24C109.87 101.2 109.9 101.17 109.98 101.13C110.24 101 110.6 100.68 110.19 99.9899C110.16 99.9499 110.16 100.13 110.02 99.19C109.94 98.57 109.12 97.1699 108.98 97.0199C108.98 97.0199 108.03 96.5699 107.6 95.6699C107.63 95.6199 107.65 95.58 107.7 95.54C108.1 95.22 108.03 94.8199 108.15 93.9499C108.15 93.9099 108.15 93.86 108.17 93.82L108.19 93.76C108.23 93.58 108.27 93.35 108.03 93C107.99 92.94 107.92 92.9 107.85 92.91C107.72 92.91 107.6 92.82 107.59 92.69C107.4 92.61 107.19 92.6 106.99 92.65C106.57 92.77 105.66 92.9599 105.56 92.3799C105.42 91.5899 104.88 91.42 104.61 91.43C103.48 91.51 102.53 92.48 101.37 92.4C101.32 92.4 101.25 92.3799 101.2 92.3499C100.19 91.9799 99.11 91.9699 98.09 91.7699C97.74 91.6999 97.24 91.5299 96.99 91.2799L95.56 89.8799C95.47 89.7899 95.38 89.69 95.32 89.58C94.86 88.88 94.7 87.35 94.58 87.08C94.55 87.04 94.54 86.9999 94.52 86.9499L94.4 86.72C94.07 86.29 93.96 85.71 94.13 85.18L94.69 83.3C94.69 83.3 94.71 83.2399 94.72 83.2099C94.74 83.1499 94.75 83.0899 94.76 83.0299C94.89 82.0999 94.71 81.7499 94.62 81.5899C94.5133 81.3833 94.73 80.9033 95.27 80.15C96.73 78.1 96.99 77.9999 97.28 77.8799C97.92 77.9499 99.13 77.17 99.1 76.75C99.1 76.61 99.08 76.3299 99.32 75.9599C99.41 75.8199 99.53 75.68 99.67 75.58L100.99 74.5C101.24 74.3 101.58 74.2799 101.83 74.4599C102 74.3999 102.2 74.41 102.37 74.48C102.6 74.58 102.75 74.51 102.81 74.48C103.62 74.1 104.49 73.98 108.54 73.72C108.68 73.72 108.8 73.77 108.9 73.87C109.14 74.18 108.95 74.1499 109.23 74.5999C109.33 74.7699 109.23 74.9 108.91 75.23C108.79 75.36 108.81 75.5499 108.85 75.5599C108.96 75.5599 109.23 75.64 109.45 75.75C109.73 75.9 110.19 76.05 110.57 76.16C110.91 76.26 111.22 76.46 111.45 76.73C111.59 76.91 113.6 78.11 113.52 76.48C113.52 76.37 113.63 76.1699 113.81 76.0199C114.47 75.4899 114.95 76.17 115.12 76.22C115.41 76.28 115.45 76.2799 115.65 76.2799C115.82 76.2799 115.91 76.4899 116.48 76.4499C117.47 76.3899 118.47 76.54 119.46 76.37C119.57 76.35 119.72 76.3199 119.81 76.2399C120.91 75.3399 119.81 74.23 119.96 73.23C119.62 73.25 119.3 73.3799 119.05 73.5999C118.96 73.6799 118.84 73.74 118.69 73.75C118.41 73.78 118.19 73.6 117.96 73.51C117.84 73.46 117.71 73.5099 117.67 73.6399C117.58 73.8699 116.53 73.7 116.22 73.18C116.12 73.02 115.98 72.9 115.81 72.83C115.81 72.83 115.81 72.83 115.81 72.82C116.12 72.52 115.65 72.31 115.59 72.08C115.57 71.97 115.63 71.8499 115.74 71.8099C115.99 71.7099 116.11 71.58 116.06 71.61C115.95 71.69 115.82 71.7399 115.69 71.7399C115.62 71.7399 115.55 71.74 115.49 71.69C115.34 71.61 115.16 71.5599 114.98 71.5599C114.78 71.5599 114.57 71.62 114.52 71.82C114.52 71.86 114.49 71.8899 114.46 71.9199C114.43 71.9399 114.41 71.9499 114.37 71.9199C114.33 71.8899 114.27 71.8999 114.23 71.9199C114.18 71.9499 114.16 71.9999 114.17 72.0599C114.19 72.2399 114.67 72.42 114.28 72.61C114.28 72.61 114.12 72.7099 114.1 72.7099C113.94 72.7899 113.73 72.61 113.59 72.61C113.54 72.61 113.5 72.62 113.45 72.62C113.45 72.62 113.41 72.62 113.41 72.61C113.41 72.61 113.25 72.4599 113.22 72.4199C113.16 72.3199 113.16 72.3099 113.12 72.2799C113.1 72.2499 113.06 72.22 113.02 72.19C112.95 72.14 112.89 72.0499 112.89 71.9499C112.89 71.8799 112.87 71.7799 112.85 71.6699C112.82 71.4199 112.7 71.1799 112.5 71.0299C112.45 70.9899 112.39 70.97 112.32 70.97C112.28 70.97 112.24 70.97 112.21 70.94C112.04 70.83 111.93 70.8099 111.93 70.8099L110.64 69.86C110.57 69.81 110.48 69.78 110.39 69.79C110.31 69.79 110.27 69.72 110.23 69.66C110.15 69.54 109.99 69.4799 109.84 69.5199C109.84 69.5199 109.84 69.5199 109.82 69.5199C109.73 69.5599 109.68 69.66 109.74 69.75C109.77 69.8 109.79 69.85 109.83 69.9L110.58 71C110.71 71.18 110.91 71.2899 111.13 71.2799C111.22 71.2799 111.3 71.35 111.3 71.44C111.3 71.48 111.34 71.52 111.37 71.55C111.73 71.76 112.19 71.79 112.44 72.18C112.44 72.18 112.44 72.18 112.44 72.19C112.44 72.19 112.42 72.3199 112.4 72.3499C112.38 72.3999 112.28 72.42 112.25 72.4C112.23 72.38 112.23 72.34 112.23 72.29C112.23 72.27 112.23 72.2499 112.23 72.2399C112.19 72.1299 112.11 72.11 112.01 72.07C111.87 72.02 111.72 72.0699 111.65 72.2099C111.6 72.3799 111.69 72.4199 111.74 72.4499C111.82 72.4899 111.95 72.55 111.92 72.73C111.9 72.81 111.82 72.7799 111.77 72.8099C111.77 72.8099 111.8 72.78 111.64 73.08C111.6 73.19 111.64 73.2099 111.51 73.2799C111.4 73.3299 111.34 73.2599 111.33 73.2399C111.28 73.1599 111.35 73.08 111.35 73C111.35 72.96 111.35 72.9399 111.45 72.8899C111.6 72.8299 111.45 72.5799 111.35 72.4499C111.17 72.1299 111.29 72.3899 111.08 72.1999C110.96 72.0699 110.62 71.87 110.55 71.79C110.11 71.24 109.37 70.98 108.99 70.36C108.92 70.23 108.81 70.13 108.67 70.08C108.58 70.04 108.48 70.0099 108.36 70.0199C108.25 70.0199 107.73 70.3299 107.31 70.5599C106.92 70.7899 106.62 70.25 106.24 70.41C105.82 70.58 106.07 71.12 105.72 71.32C105.31 71.55 104.83 71.6299 104.47 71.9599C104.47 71.9599 104.44 71.99 104.43 72.01C104.32 72.26 104.14 72.37 104.12 72.44C104.12 72.49 104.1 72.51 104.12 72.58C104.16 72.73 104.12 72.9 104 73C103.92 73.07 103.98 73.29 103.92 73.33C103.78 73.39 103.65 73.33 103.51 73.36C103.31 73.42 103.3 73.6799 103.1 73.7399C102.84 73.8199 102.6 73.6499 102.34 73.7099C101.953 73.7966 101.753 73.8566 101.74 73.8899C101.74 73.8899 101.68 74.0199 101.59 74.0199C101.29 74.0199 101.4 73.63 101.25 73.47C101.1 73.3 101.06 73.3199 100.98 73.3499C100.89 73.3899 100.73 73.45 100.68 73.43C100.62 73.39 100.57 73.33 100.49 73.3C100.44 73.29 100.4 73.2499 100.37 73.2099C100.33 73.1299 100.43 72.78 100.46 72.68C100.48 72.62 100.46 72.55 100.45 72.5C100.42 72.43 100.36 72.3899 100.29 72.3799C100.29 72.3799 100.27 72.38 100.25 72.37C100.17 72.27 100.51 71.93 100.61 71.75C100.63 71.72 100.65 71.68 100.66 71.66C100.95 70.9 100.95 70.6399 100.9 70.3899C100.87 70.2799 100.95 70.17 101.06 70.16C101.12 70.16 101.19 70.16 101.24 70.16C101.37 70.02 101.57 69.9799 101.74 70.0599C101.97 70.1799 102.43 70.3399 103.21 70.3799C103.4 70.3799 103.59 70.4299 103.77 70.4899C103.93 70.5499 104.07 70.4099 104.14 70.3399C104.29 70.1499 104.26 69.9199 104.29 69.6999C104.31 69.5799 104.37 69.4799 104.47 69.4199C104.5 69.3999 104.51 69.3799 104.5 69.3399C104.5 69.2999 104.46 68.97 104.43 68.97C104.11 68.93 104.21 68.5199 104 68.3899C103.82 68.2799 103.83 68.2 103.38 68.15C103.32 68.15 103.47 67.83 103.73 67.75C103.75 67.75 103.77 67.75 103.78 67.75C103.94 67.83 104.12 67.86 104.3 67.86C104.36 67.86 104.43 67.82 104.46 67.76C104.5 67.71 104.51 67.64 104.5 67.57C104.48 67.5 104.55 67.3999 104.62 67.4499C104.76 67.5499 104.85 67.61 105.1 67.58C105.16 67.57 105.22 67.5199 105.23 67.4599C105.23 67.4299 105.26 67.3999 105.28 67.3899C105.57 67.2299 105.69 67.1499 105.75 67.0899C105.89 66.9299 106.05 66.7999 106.23 66.6999C106.49 66.5499 106.62 66.46 106.87 66.23C106.98 66.13 107.11 66.0699 107.24 66.0299C107.29 66.0299 107.31 65.98 107.3 65.93C107.3 65.93 107.3 65.92 107.3 65.91C107.35 65.85 107.42 65.81 107.49 65.8C107.67 65.78 107.78 65.7799 107.87 65.7799C107.91 65.7099 108 65.68 108.08 65.68C108.27 65.68 108.52 65.77 108.49 65.25C108.43 64.78 108.58 64.3 108.91 63.95C109.06 64.01 109.03 64.17 109.05 64.32C109.05 64.42 109.03 64.5099 108.97 64.5899C108.34 65.2899 109.15 65.2699 109.17 65.4499C109.17 65.4499 109.19 65.5099 109.22 65.5199C109.24 65.5399 109.27 65.5399 109.3 65.5299C109.33 65.5199 109.95 65.2599 109.98 65.2799C110.09 65.3499 110.01 65.39 110.1 65.48C110.25 65.61 110.45 65.64 110.62 65.55C110.98 65.36 111.38 65.3 111.78 65.37C111.97 65.41 112.46 64.9399 112.37 64.6699C112.32 64.5199 112.31 64.34 112.34 64.18C112.37 64.07 112.32 64.0199 112.44 63.9399C112.5 63.8999 112.58 63.89 112.64 63.93C112.72 63.96 112.81 63.97 112.91 63.93C113.02 63.88 113.1 63.77 113.11 63.65C113.11 63.65 113.11 63.6 113.07 63.58C112.97 63.52 112.91 63.3899 112.92 63.2599C112.94 63.1199 113.04 63.0099 113.19 62.9799C113.6 62.8999 113.68 63.13 114.06 62.79C114.09 62.76 114.1 62.74 114.1 62.7C114.08 62.67 114.06 62.6499 114.03 62.6399C113.71 62.5699 113.37 62.59 113.06 62.7L112.68 62.83C112.63 62.87 112.54 62.89 112.47 62.88C112.21 62.86 112.04 62.61 111.94 62.34C111.82 62.02 111.86 61.66 112.05 61.38C112.14 61.23 112.19 61.0499 112.3 60.9199C112.34 60.8699 112.35 60.7999 112.34 60.7299C112.3 60.5399 111.98 60.46 111.79 60.5C111.42 60.58 111.66 61.02 111.51 61.25C111.43 61.39 111.08 61.48 111.04 61.66C110.97 62.12 110.92 62.3599 110.96 62.5299C111.02 62.8699 110.99 63.2199 110.86 63.5499C110.76 63.8299 110.98 64.1199 110.83 64.3899C110.66 64.7099 110.27 64.4599 110.18 64.8399C110.14 64.9999 109.83 64.76 109.72 64.66C109.7 64.34 109.58 64.2 109.5 63.95C109.43 63.75 109.26 63.5899 109.06 63.5299C108.51 63.3699 108.4 63.9 107.92 63.75C107.54 63.63 107.26 63.28 107.24 62.88C107.22 62.48 107.45 62.1 107.83 61.95C109.1 61.42 109.33 60.9699 109.42 60.6699C109.44 60.5999 109.49 60.5499 109.56 60.5299C109.58 60.4599 109.61 60.3999 109.66 60.3499C109.79 60.2299 109.88 60.06 110 59.93C110.13 59.79 110.26 59.56 110.26 59.56C110.26 59.56 110.92 58.92 111.61 58.7C111.94 58.6 112.17 58.5999 112.25 58.6199C112.32 58.6399 112.44 58.66 112.64 58.7C112.64 58.76 112.64 58.8199 112.68 58.8699C112.77 58.9899 113.07 58.9599 113.41 59.1199C113.8 59.2999 114.29 59.25 114.72 59.34C114.9 59.38 115.02 59.54 115 59.72C114.97 59.9 114.82 60.0299 114.64 60.0299C114.51 60.0299 114.4 60.1 114.36 60.22C114.31 60.34 114.36 60.4699 114.45 60.5499C114.61 60.6799 114.78 60.77 114.98 60.84C115.2 60.92 115.55 60.9799 115.4 60.7999C115.34 60.7399 115.26 60.7 115.18 60.7C114.88 60.7 114.98 60.43 115.13 60.5C115.31 60.58 115.81 60.6299 115.47 60.2999C115.42 60.2599 115.42 60.19 115.45 60.15C115.51 60.08 115.56 60 115.59 59.91C115.66 59.73 115.65 59.78 115.89 59.86C115.93 59.88 115.96 59.8599 116 59.8499C116.06 59.7999 116.16 59.76 116.09 59.72C116.04 59.68 116.14 59.58 116.18 59.59C116.25 59.62 116.33 59.59 116.37 59.54C116.41 59.5 116.42 59.4399 116.41 59.3899C116.36 59.2499 116.47 58.89 116.66 58.81C116.71 58.79 116.76 58.79 116.81 58.81C116.81 58.81 116.9 58.74 116.95 58.72C117.04 58.69 117.19 58.63 117.29 58.54C117.4 58.45 117.55 58.41 117.67 58.45C117.72 58.4 117.71 58.33 117.67 58.29C117.59 58.21 117.32 58.0599 117.36 57.9599C117.36 57.9199 117.54 57.8899 117.56 57.7299C117.58 57.6299 117.52 57.53 117.43 57.5C114.57 56.38 111.5 55.6899 108.28 55.5099C107.7 55.8699 107.1 56.2899 106.57 56.7299C104.63 58.3399 101.55 59 101.62 58.83C101.33 58.83 101.25 58.75 101.25 58.75C101.16 58.78 101.07 58.83 100.99 58.77C100.99 58.77 100.98 58.6999 100.94 58.6699C100.84 58.5999 100.64 58.7699 100.15 59.0099C100.15 59.0099 100.13 59.01 100.12 59.02C99.92 59.13 99.69 59.15 99.53 59.16C99.42 59.16 99.31 59.18 99.2 59.22C99.2 59.22 99.17 59.22 99.16 59.2C99.12 59.14 99.3 59.0799 99.36 59.0499C99.42 59.0199 99.4 58.9599 99.15 59.0999C99.1 59.1299 99.03 59.14 98.98 59.13C98.73 59.07 98.44 59.2599 98.25 59.4199C98.22 59.4499 98.19 59.4599 98.14 59.4399C98.07 59.4099 98.01 59.42 98.03 59.52C98.05 59.64 97.41 59.9199 97.4 59.8699C97.4 59.8399 97.35 59.82 97.32 59.82C97.23 59.84 97.13 59.9099 97.08 60.0099C96.98 60.2099 96.69 60.2399 96.56 60.3499C96.41 60.4599 96.2 60.59 96.2 60.59C96.13 60.67 96.07 60.7299 95.99 60.7299C95.9 60.7299 95.86 60.59 95.9 60.54C95.93 60.51 96.07 60.3599 96.04 60.3499C96.04 60.3499 96.01 60.34 96 60.32C95.98 60.27 96.1 60.22 96.06 60.15C96.04 60.11 95.81 60.1 95.8 60.08C95.78 60.06 95.78 60.04 95.8 60.02C95.95 59.73 95.96 59.7099 96.16 59.5099C96.16 59.5099 96.14 59.43 96.16 59.41C96.27 59.25 96.64 58.7699 97.06 58.7099C97.17 58.6899 97.1 58.6699 97.1 58.6699C97 58.6299 96.86 58.6 96.94 58.52C97.1 58.36 97.33 58.1399 97.58 58.0099C97.71 57.9499 97.82 57.87 97.93 57.79C98.04 57.7 98.4 57.5499 98.77 57.5299C99.1 57.5099 99.94 56.9299 99.95 56.9199C99.92 56.8899 99.95 56.81 99.95 56.77C99.95 56.75 99.95 56.73 99.97 56.72C100.04 56.68 100.15 56.6599 100.24 56.6199C100.24 56.6199 100.26 56.6099 100.26 56.5999C100.26 56.5599 100.22 56.55 100.2 56.56C100.03 56.62 99.95 56.6499 99.91 56.6699C99.89 56.6699 99.86 56.67 99.86 56.65C99.86 56.62 99.86 56.6 99.86 56.59C100.06 56.42 100.34 56.42 100.57 56.33C100.67 56.29 100.67 56.07 100.46 56.11C99.39 56.28 98.42 56.5999 97.4 56.9399C97.4 56.9699 97.2 57.0699 97.17 57.0999C97.17 57.0999 97.15 57.13 97.17 57.15C97.17 57.15 97.19 57.17 97.17 57.18C97.13 57.21 97.05 57.18 97.03 57.22C97 57.27 97.1 57.26 97.12 57.29C97.12 57.32 97.12 57.3499 97.12 57.3699C97.08 57.3999 96.93 57.4699 96.9 57.4399C96.88 57.4199 96.87 57.39 96.85 57.41C96.74 57.48 96.67 57.52 96.6 57.54C96.37 57.58 96.08 57.7 96.08 57.7C96.12 57.67 96.22 57.5599 96.24 57.5299C96.29 57.3999 96.37 57.37 96.44 57.34C96.49 57.33 96.51 57.25 96.26 57.34C96.04 57.42 95.84 57.5499 95.66 57.7099C95.52 57.8499 95.35 58 95.22 58.06C95.25 58.02 95.22 58.01 95.22 58.02C95.22 58.02 95.09 58.1299 95.05 58.1199C94.9 58.0799 95.1 57.9999 95.1 57.8499C95.12 57.8299 95.13 57.81 95.15 57.79C94.99 57.86 94.83 57.9699 94.71 58.0999C94.61 58.2099 94.53 58.34 94.42 58.24C94.37 58.19 94.29 58.1799 94.23 58.2099C93.81 58.3999 93.41 58.5999 93.02 58.7999C92.97 58.8199 92.94 58.85 92.9 58.88C92.87 58.91 92.85 58.93 92.85 58.97C92.85 59.02 92.77 59.11 92.74 59.15C92.74 59.17 92.74 59.1999 92.74 59.2099C92.78 59.2599 92.9 59.2299 92.96 59.2099C93.05 59.1799 93.15 59.2099 93.21 59.2999C93.25 59.3799 93.25 59.4799 93.17 59.5499C93.13 59.5999 93.07 59.6699 93.02 59.7299C92.93 59.8599 92.84 60 92.7 60.09C92.61 60.14 92.52 60.21 92.45 60.27C91.69 60.95 91.66 62.2099 91.1 62.4599C90.67 62.6499 90.52 62.48 90 62.68C89.9 62.72 89.81 62.6899 89.72 62.6699C89.63 62.6499 89.57 62.5899 89.54 62.5099C89.43 62.2199 89.11 62.0799 88.82 62.1899C88.77 62.2099 88.72 62.2199 88.67 62.1899C88.57 62.2199 87.96 62.41 88.01 62.5C88.01 62.5 89.07 62.17 88.83 62.75C88.79 62.75 88.76 62.79 88.74 62.83C88.71 62.88 88.68 62.9099 88.59 62.9399C88.49 62.9599 88.38 62.94 88.31 62.86C88.26 62.86 88.23 63 88.26 63.04C88.29 63.09 88.42 63.09 88.28 63.18C88.2 63.23 88.08 63.2599 88.04 63.3499C88 63.4599 87.94 63.5699 87.88 63.6699C87.81 63.7799 87.95 63.81 87.84 63.9C87.69 64.02 87.22 63.8999 87.04 63.9399C87.04 63.9399 86.75 63.9699 86.57 64.0299C86.4 64.0899 86.09 64.1699 85.9 64.3799C85.61 64.7399 85.63 64.81 85.28 64.72C85.26 64.72 85.24 64.7199 85.23 64.7399C81.66 68.5199 79.09 73.2599 77.91 78.5199C77.91 78.5199 77.91 78.5199 77.91 78.5299C77.84 78.8699 77.74 79.28 77.62 80.05V80.0999C77.64 80.1799 77.66 80.2099 77.77 80.2099C78.03 80.2099 78.26 80.3899 78.3 80.6399C78.3 80.7099 78.35 80.77 78.42 80.79C78.47 80.81 78.54 80.7999 78.6 80.7699C78.64 80.7399 78.86 80.9299 78.88 81.1699C78.88 81.2999 78.93 81.44 78.96 81.57C78.99 81.72 78.94 81.88 78.85 82C78.83 82.02 78.82 82.0399 78.83 82.0599C78.96 82.5399 79.52 84.61 79.64 84.72C79.7 84.71 79.76 84.7199 79.79 84.7699C80.92 86.0499 82.21 88.14 82.17 88.79C81.92 89.27 81.94 89.25 82.15 89.5C82.54 89.99 82.54 90.01 82.39 90.51C82.48 90.37 82.64 90.2799 82.8 90.2799C82.96 90.2799 83.12 90.37 83.21 90.51C83.27 90.62 83.34 90.72 83.43 90.8C83.66 91.01 83.78 91.3199 83.75 91.6299C83.75 91.6299 84.12 91.63 84.61 92.01C85.24 92.49 87.48 95.0399 87.56 95.7399C87.6 96.0499 87.47 96.35 87.32 96.62C87.14 96.93 86.54 97.58 86.44 97.93C86.39 98.1 86.11 98.1799 86.11 98.2799C86.11 98.4199 86.15 98.71 86.36 99.3C86.42 99.47 86.56 100.75 86.5 101.26C86.46 101.56 86.46 101.62 86.54 101.95C86.56 102.05 86.3 102.34 86.12 102.22C85.9 102.06 85.71 102.08 85.69 102.13C85.38 102.64 84.26 102.73 84.51 103.27C84.58 103.43 84.66 103.59 84.72 103.75C84.8 103.94 84.84 104.15 84.85 104.36C84.85 104.45 85.16 105.1 85.41 105.35C90.78 110.96 98.36 114.47 106.74 114.47C123.04 114.47 136.26 101.26 136.26 84.9499C136.26 81.8899 135.73 78.7999 135.2 77.1699C135.04 76.6599 134.64 76.24 134.15 76.05C133.64 75.85 133.09 75.89 132.61 76.16C131.42 76.83 131.46 76.9099 131.05 76.8899L130.91 76.8499ZM110.11 73.36C110.11 73.36 110.14 73.39 110.18 73.4C110.23 73.4 110.25 73.35 110.31 73.36C110.39 73.36 110.45 73.4399 110.53 73.4499C110.59 73.4499 110.63 73.3899 110.68 73.3899C110.73 73.3899 110.77 73.4099 110.81 73.3899C110.85 73.3899 110.89 73.35 110.94 73.33C111.01 73.28 111 73.33 111.09 73.32C111.12 73.32 111.14 73.3 111.17 73.29C111.17 73.29 111.22 73.32 111.22 73.37C111.19 73.47 111.11 73.55 111.1 73.66C111.1 73.73 111.18 73.7699 111.15 73.8399C111.1 74.0299 111.04 74.04 111 74.04C110.96 74.04 110.92 74.0399 110.89 74.0199C110.83 73.9899 110.79 73.9299 110.73 73.8899C110.7 73.8699 110.66 73.8599 110.63 73.8499C110.52 73.8099 110.22 73.5899 110.12 73.5999C110.08 73.5999 110.06 73.6299 110.02 73.6299C110.02 73.6299 109.98 73.6199 109.95 73.5899C109.95 73.5599 110.01 73.34 110.08 73.36H110.11ZM103.7 64C103.7 64 103.73 63.9999 103.75 64.0299C103.75 64.0299 103.757 64.0299 103.77 64.0299C103.79 63.9899 103.8 63.95 103.81 63.91C103.81 63.91 103.81 63.89 103.81 63.88C103.81 63.88 103.75 63.88 103.72 63.86C103.7 63.83 103.69 63.7999 103.72 63.7599C103.74 63.7299 103.76 63.71 103.78 63.7C103.78 63.7 103.82 63.7 103.83 63.7C103.86 63.7 103.88 63.7 103.91 63.7C103.91 63.7 103.91 63.6999 103.91 63.6899C103.99 63.6299 104.07 63.55 104.12 63.47C104.15 63.43 104.18 63.3999 104.2 63.3899C104.25 63.3799 104.28 63.3699 104.32 63.3699C104.42 63.3699 104.52 63.37 104.61 63.4C104.66 63.42 104.75 63.4599 104.64 63.5299C104.59 63.5599 104.53 63.5799 104.49 63.6199C104.45 63.6499 104.45 63.6999 104.44 63.7299C104.44 63.7299 104.44 63.74 104.44 63.75C104.44 63.75 104.44 63.75 104.46 63.75C104.55 63.75 105.04 63.7199 104.93 63.8699C104.88 63.9299 104.85 64.01 104.82 64.08C104.76 64.26 104.74 64.4499 104.8 64.6399C104.8 64.6899 104.82 64.74 104.8 64.79C104.8 64.84 104.78 64.8899 104.8 64.9499C104.8 64.9999 104.85 65.0399 104.84 65.0899V65.11H104.87C104.87 65.11 104.96 65.11 105.01 65.11C105.01 65.11 105.03 65.11 105.04 65.11C105.04 65.11 105.14 65.35 105.12 65.37C105.09 65.4 105.1 65.45 105.12 65.48C105.15 65.52 105.17 65.5499 105.18 65.5999C105.18 65.6299 105.18 65.6299 105.07 65.7099C105.07 65.7299 105.05 65.73 105.07 65.75C105.13 65.7766 105.177 65.7833 105.21 65.7699C105.29 65.7199 105.57 65.87 105.58 65.87C105.73 65.95 105.71 66.0699 105.7 66.0899C105.68 66.1599 105.66 66.2 105.63 66.22C105.58 66.26 105.51 66.29 105.46 66.33C105.46 66.33 105.43 66.33 105.41 66.32C105.41 66.32 105.41 66.32 105.39 66.32C105.39 66.32 105.39 66.32 105.37 66.32C105.37 66.32 105.37 66.3199 105.37 66.3399C105.37 66.4399 105.43 66.52 105.51 66.58C105.51 66.69 105.27 66.73 105.27 66.73C105.19 66.73 105.11 66.77 105.03 66.76C104.97 66.76 104.91 66.7 104.84 66.69C104.733 66.69 104.667 66.6833 104.64 66.6699C104.64 66.6699 104.52 66.6399 104.48 66.6299C104.37 66.6299 104.28 66.7 104.18 66.73C104.09 66.75 104.03 66.6599 103.93 66.6699C103.8 66.6699 103.76 66.8 103.68 66.87C103.68 66.87 103.66 66.87 103.65 66.87C103.59 66.75 103.48 66.7999 103.41 66.8399C103.39 66.8399 103.37 66.86 103.36 66.87C103.34 66.89 103.31 66.88 103.3 66.87C103.28 66.85 103.28 66.82 103.3 66.8C103.34 66.76 103.37 66.72 103.41 66.68C103.52 66.57 103.66 66.5099 103.81 66.4899C103.86 66.4899 103.91 66.4899 103.96 66.4899C104.05 66.4899 104.12 66.45 104.18 66.41C104.2 66.4 104.2 66.38 104.2 66.36C104.2 66.34 104.17 66.33 104.16 66.33C104.13 66.33 104.11 66.33 104.09 66.36C104.09 66.36 104.07 66.36 104.07 66.37C104.03 66.38 104.01 66.38 103.98 66.37C103.98 66.37 103.96 66.37 103.96 66.36C103.9 66.3 103.82 66.25 103.74 66.23C103.66 66.21 103.57 66.2799 103.49 66.2399C103.43 66.2099 103.43 66.13 103.44 66.11C103.46 66.1 103.49 66.09 103.53 66.08C103.59 66.08 103.8 65.9999 103.84 65.9599C103.87 65.9299 103.93 65.72 103.84 65.72C103.79 65.72 103.77 65.7599 103.72 65.7699C103.72 65.7699 103.7 65.7699 103.69 65.7699C103.69 65.7699 103.69 65.7599 103.69 65.7399C103.72 65.6799 103.81 65.7099 103.81 65.6299C103.81 65.6099 103.81 65.5999 103.79 65.5899C103.77 65.5699 103.77 65.55 103.79 65.54C103.79 65.52 103.83 65.5099 103.85 65.5199C103.97 65.5599 104.09 65.5299 104.18 65.4499C104.27 65.3599 104.3 65.23 104.26 65.11C104.24 65.05 104.21 65.0099 104.18 64.9899C104.14 64.9799 104.12 64.9499 104.11 64.9199C104 64.9899 103.99 64.99 103.97 64.9C103.97 64.9 103.91 64.8899 103.9 64.8499C103.88 64.8199 103.9 64.7899 103.9 64.7699C103.93 64.7499 103.96 64.72 104 64.69C104.07 64.64 104.06 64.55 104.06 64.48C104.06 64.47 104.06 64.4599 104.04 64.4499C104.04 64.4499 104.02 64.4499 104 64.4499C103.97 64.4499 103.95 64.4799 103.91 64.4899C103.87 64.4999 103.86 64.52 103.84 64.55C103.81 64.58 103.79 64.6 103.78 64.62C103.76 64.64 103.74 64.6399 103.73 64.6299C103.71 64.6099 103.7 64.59 103.71 64.57C103.71 64.57 103.71 64.55 103.73 64.54C103.79 64.45 103.79 64.33 103.73 64.25C103.73 64.25 103.71 64.23 103.71 64.22C103.71 64.18 103.76 64.0499 103.81 64.0299L103.7 64ZM101.86 65.87C101.92 65.73 102.07 65.6699 102.15 65.5599C102.26 65.4199 102.23 65.4 102.2 65.37C102.15 65.32 102.16 65.29 102.19 65.25C102.24 65.2 102.29 65.16 102.33 65.11C102.37 65.06 102.38 65 102.42 64.97C102.47 64.92 102.52 64.93 102.61 64.93C102.68 64.93 102.85 64.62 103.07 64.57C103.27 64.52 103.6 64.91 103.51 65.05C103.48 65.08 103.43 65.0899 103.37 65.0999C103.32 65.0999 103.28 65.11 103.23 65.26C103.21 65.31 103.27 65.39 103.2 65.43C103.14 65.47 103.18 65.53 103.16 65.58C103.12 65.68 103.03 65.8 102.98 65.87C102.93 65.94 102.77 65.89 102.59 65.94C102.46 65.98 102.35 66.0499 102.22 66.0999C102.09 66.1499 101.86 66.21 101.84 66.07C101.83 66.03 101.83 65.9299 101.84 65.8799L101.86 65.87Z" fill="white"/>
<path d="M117.61 68.7C117.55 68.66 117.54 68.67 117.46 68.7C117.42 68.72 117.39 68.74 117.33 68.74C117.29 68.74 117.27 68.71 117.26 68.68C117.26 68.64 117.26 68.61 117.3 68.59C117.32 68.59 117.32 68.57 117.3 68.56C117.3 68.56 117.3 68.54 117.28 68.54C117.18 68.51 117.1 68.5 117.02 68.49C116.88 68.47 116.75 68.49 116.62 68.52C116.51 68.55 116.51 68.57 116.48 68.64C116.42 68.82 116.39 68.9 116.37 68.93C116.28 69.05 116.22 69.18 116.18 69.32C116.16 69.37 116.13 69.42 116.07 69.45C116.07 69.45 116.03 69.78 116.03 69.82C116.03 69.89 116.08 69.97 116.06 70.05C116.03 70.11 115.94 70.1 115.92 70.16C115.88 70.28 115.92 70.45 115.96 70.56C115.96 70.56 115.96 70.58 115.96 70.59C115.96 70.59 115.94 70.59 115.93 70.59C115.93 70.59 115.87 70.56 115.86 70.59C115.86 70.61 115.86 70.62 115.86 70.64L116 70.83C116.14 71.02 116.32 71.17 116.54 71.26C116.66 71.31 116.77 71.23 116.89 71.25C117.03 71.26 117.16 71.25 117.28 71.25C117.33 71.25 117.42 71.24 117.47 71.21C117.52 71.19 117.52 71.16 117.52 71.12C117.52 71.12 117.54 71.07 117.68 70.95C117.79 70.87 117.92 70.82 118.03 70.74C118.2 70.6 118.43 70.74 118.64 70.68C118.68 70.68 119.29 70.9 119.33 70.92C119.51 70.99 120 71 120.11 71.03C120.15 71.05 120.23 71.06 120.3 71.06C120.39 71.01 120.45 70.86 120.58 70.93C120.82 71.04 121.47 70.94 121.3 70.4C121.22 70.11 120.83 69.95 120.71 69.91C120.36 69.78 120.13 69.48 119.83 69.29C119.69 69.21 119.54 69.29 119.39 69.23C119.183 69.1433 119.073 69.07 119.06 69.01V68.99C119.14 68.87 119.21 68.74 119.24 68.6C119.26 68.54 119.28 68.52 119.22 68.48C119.15 68.43 119.01 68.48 119 68.36C118.98 68.27 119.19 68.16 119.28 68.11C119.34 68.07 119.37 68.02 119.39 67.99C119.41 67.94 119.34 67.86 119.32 67.87C119.22 67.87 118.95 68.04 118.92 68.04C118.92 68.04 118.89 68.04 118.88 68.04L118.27 68.39C118.17 68.47 118.1 68.6 118.11 68.73C118.11 68.86 118.2 68.98 118.32 69.05C118.36 69.08 118.44 69.09 118.41 69.14C118.41 69.14 118.07 69.48 118.03 69.49C117.94 69.49 117.91 69.46 117.9 69.44C117.9 69.44 117.9 69.43 117.9 69.42C117.85 69.27 117.73 69.15 117.56 69.09C117.52 69.09 117.51 69.05 117.51 69.01C117.51 68.92 117.66 68.92 117.67 68.82C117.67 68.77 117.67 68.72 117.62 68.69L117.61 68.7Z" fill="white"/>
<path d="M158.15 33.29H57.48C46.56 33.29 37.71 42.14 37.71 53.05V116.74C37.71 127.65 46.56 136.5 57.48 136.5H158.15C169.07 136.5 177.92 127.65 177.92 116.74V53.06C177.92 42.14 169.07 33.3 158.15 33.3V33.29ZM106.6 121.77C86.23 121.77 69.72 105.26 69.72 84.89C69.72 64.52 86.23 48.01 106.6 48.01C126.97 48.01 143.47 64.52 143.47 84.89C143.47 105.26 126.96 121.77 106.6 121.77V121.77Z" fill="white"/>
<path d="M193.55 69V100.79L252.45 136.5V33.29L193.55 69Z" fill="white"/>
</svg>
