<svg width="239" height="246" viewBox="0 0 239 246" fill="none" xmlns="http://www.w3.org/2000/svg">
<path d="M223 96.07C224.02 92.53 224.6 88.79 224.6 84.92C224.6 63.1 207.17 45.39 185.48 44.86C177.06 24.36 156.92 9.91003 133.38 9.91003C109.84 9.91003 89.79 24.29 81.33 44.72C77.11 43.21 72.58 42.35 67.84 42.35C45.69 42.35 27.73 60.31 27.73 82.46C27.73 85.26 28.02 87.99 28.57 90.62C13.6 93.17 2.20001 106.16 2.20001 121.85C2.20001 139.37 16.4 153.57 33.92 153.57H113.87V196.11C107.05 198.02 101.71 203.4 99.83 210.23H21V220.98H99.83C102.19 229.56 110.02 235.87 119.35 235.87C128.68 235.87 136.51 229.56 138.87 220.98H217.7V210.23H138.87C136.97 203.33 131.54 197.92 124.62 196.06V153.57H204.57C204.57 153.57 214.13 153.61 219.74 149.71C229.6 144.33 236.29 133.87 236.29 121.85C236.29 111.22 231.04 101.83 223.01 96.07H223Z" fill="white"/>
</svg>
