<?xml version="1.0" encoding="utf-8"?>
<!-- Generator: Adobe Illustrator 28.0.0, SVG Export Plug-In . SVG Version: 6.00 Build 0)  -->
<svg version="1.1" id="Layer_1" xmlns="http://www.w3.org/2000/svg" xmlns:xlink="http://www.w3.org/1999/xlink" x="0px" y="0px"
	 viewBox="0 0 278.8 231.9" style="enable-background:new 0 0 278.8 231.9;" xml:space="preserve">
<style type="text/css">
	.st0{fill:#FFFFFF;}
</style>
<g>
	<path class="st0" d="M97.7,143.1c-0.1,0.8-0.2,1.6-0.2,2.6l-0.1,0.1l-5.7-0.1c-0.9,0-1.6,0-2,0.1l-0.1-0.1v-0.2l0-0.1
		c0.4-0.2,0.6-0.4,0.6-0.5c0.1-0.1,0.1-0.4,0.1-1l0-1.7v-3.9c0-1.2,0-2-0.1-2.4c0-0.1-0.1-0.2-0.3-0.3c-0.1,0-0.4-0.1-0.9-0.1
		l-0.1-0.1v-0.5l0.1-0.1c0.5,0,1.3,0.1,2.3,0.1s1.9,0,2.4-0.1l0.1,0.1v0.5l-0.1,0.1c-0.5,0-0.8,0.1-0.9,0.1c-0.2,0-0.2,0.1-0.3,0.3
		c-0.1,0.4-0.1,1.2-0.1,2.4v4.6c0,0.7,0,1.3,0,2h1.1c1.5,0,2.4-0.1,2.8-0.2c0.1,0,0.1-0.1,0.1-0.1c0.1-0.1,0.1-0.2,0.2-0.5l0.2-1
		l0.1-0.1L97.7,143.1L97.7,143.1L97.7,143.1z"/>
	<path class="st0" d="M110.3,145.7L110.3,145.7c-1.2,0.1-1.9,0-2.2,0c-0.9,0-1.8,0-2.7,0.1l-0.1-0.1v-0.5l0.1-0.1l0.7,0
		c0.3,0,0.4-0.1,0.4-0.3c0-0.1-0.1-0.4-0.2-0.7l-0.6-1.6c-0.7,0-1.4,0-2.2,0c-0.4,0-1,0-1.8,0l-0.3,0.9c-0.3,0.7-0.4,1.2-0.4,1.4
		c0,0.2,0.1,0.3,0.4,0.4c0.1,0,0.4,0,0.8,0.1l0.1,0.1v0.5l-0.1,0.1c-1,0-1.6-0.1-1.8-0.1c-0.2,0-0.7,0-1.6,0.1l-0.1-0.1v-0.5
		l0.1-0.1c0.5,0,0.9-0.1,1-0.3c0.1-0.2,0.6-1.3,1.4-3.2l2-5.1c0.2-0.4,0.4-1,0.7-1.8h1.1l4.1,9.7c0.2,0.4,0.3,0.6,0.4,0.6
		c0.2,0.1,0.4,0.1,0.7,0.1l0.1,0.1V145.7L110.3,145.7z M105.4,141.5l-1.7-4.1l-1.6,4.1c0.4,0,1,0,1.7,0S105,141.6,105.4,141.5
		L105.4,141.5z"/>
	<path class="st0" d="M124.3,142.2c0,1.3-0.6,2.3-1.9,3c-0.6,0.4-1.4,0.5-2.4,0.5c-0.3,0-0.6,0-0.8,0l-1.9,0c-0.7,0-1.2,0-1.5,0.1
		l-0.1-0.1v-0.2l0-0.1c0.4-0.2,0.6-0.4,0.6-0.5c0.1-0.1,0.1-0.4,0.1-1l0-1.7v-3.9c0-1.2,0-2-0.1-2.4c0-0.1-0.1-0.2-0.3-0.3
		c-0.1,0-0.4-0.1-0.9-0.1l-0.1-0.1v-0.5l0.1-0.1c0.5,0,1.2,0.1,2.4,0.1c0.7,0,1.4,0,1.9,0c0.5,0,0.8,0,1.2,0c1.4,0,2.4,0.3,2.8,1
		c0.2,0.4,0.4,0.8,0.4,1.2c0,0.7-0.3,1.4-0.9,1.8c-0.3,0.2-0.6,0.4-0.8,0.5c-0.3,0.1-0.7,0.2-1.1,0.3
		C123.2,139.7,124.2,140.6,124.3,142.2L124.3,142.2z M121.6,137.3c0-1.1-0.6-1.7-1.8-1.7c-0.4,0-0.7,0-1,0.1c0,0.5,0,1.1,0,1.5v2.1
		c0.1,0,0.4,0,0.7,0c0.9,0,1.6-0.3,1.8-0.9C121.5,138.1,121.6,137.7,121.6,137.3z M121.9,142.5c0-1.6-0.8-2.3-2.4-2.3
		c-0.2,0-0.4,0-0.7,0v3.6c0,0.4,0,0.8,0,1.1c0.2,0,0.5,0.1,0.9,0.1c0.7,0,1.3-0.2,1.7-0.7C121.7,143.9,121.9,143.3,121.9,142.5
		L121.9,142.5z"/>
	<path class="st0" d="M136.3,145.7L136.3,145.7c-0.1,0.1-0.2,0.1-0.4,0.1c-0.7,0-1.1,0-1.3,0c-0.3,0-0.7,0-1.3,0.1
		c0-0.1-0.1-0.3-0.3-0.6l-1.9-3.2l-0.9-1.3c-0.1-0.2-0.3-0.3-0.5-0.5l0.1-0.3c0.1,0,0.2,0,0.3,0c0.5,0,0.9-0.1,1.2-0.2
		c0.3-0.1,0.5-0.4,0.7-0.8s0.3-0.8,0.3-1.3c0-0.9-0.3-1.5-1-1.8c-0.3-0.1-0.8-0.2-1.4-0.2c-0.3,0-0.5,0-0.8,0.1
		c-0.1,0.5-0.1,1.4-0.1,2.6v4.1c0,1.2,0,2,0.1,2.4c0,0.1,0.1,0.2,0.3,0.3c0.1,0,0.4,0.1,0.9,0.1l0.1,0.1v0.5l-0.1,0.1
		c-0.5,0-1.3-0.1-2.4-0.1s-1.9,0-2.4,0.1l-0.1-0.1v-0.5l0.1-0.1c0.5,0,0.8-0.1,0.9-0.1c0.2,0,0.2-0.1,0.3-0.3
		c0.1-0.4,0.1-1.2,0.1-2.4v-4.1c0-1.2,0-2-0.1-2.4c0-0.1-0.1-0.2-0.3-0.3c-0.1,0-0.4-0.1-0.9-0.1l-0.1-0.1v-0.5l0.1-0.1
		c0.5,0,1.3,0.1,2.4,0.1c0.6,0,1.1,0,1.5,0c0.8,0,1.4-0.1,1.8-0.1c0.9,0,1.6,0.1,2,0.2c0.6,0.2,0.9,0.6,1.1,1.1
		c0.1,0.2,0.1,0.6,0.1,0.9c0,1.4-0.8,2.4-2.4,3c0.3,0.4,0.5,0.9,0.8,1.3l1.2,1.8c0.7,1.1,1.2,1.7,1.4,1.9c0.1,0.1,0.3,0.1,0.5,0.1
		l0.1,0.1L136.3,145.7L136.3,145.7z"/>
	<path class="st0" d="M148.5,135.4L148.5,135.4c-0.7,0.1-1,0.2-1.1,0.6c0,0.2-0.1,0.6-0.1,1.2c0,0.4,0,1.1,0,1.9v2.4
		c0,1.5-0.3,2.6-0.9,3.3c-0.8,0.9-1.9,1.3-3.4,1.3c-1.4,0-2.4-0.2-3.2-0.7c-0.6-0.4-1.1-0.9-1.3-1.6c-0.1-0.4-0.2-1.6-0.2-3.5v-2
		c0-1.2,0-2-0.1-2.4c0-0.1-0.1-0.2-0.3-0.3c-0.1,0-0.4-0.1-0.9-0.1l-0.1-0.1v-0.5l0.1-0.1c0.5,0,1.3,0.1,2.4,0.1s1.9,0,2.4-0.1
		l0.1,0.1v0.5l-0.1,0.1c-0.5,0-0.8,0.1-0.9,0.1c-0.1,0-0.2,0.1-0.3,0.3c-0.1,0.4-0.1,1.2-0.1,2.4v1.6c0,2,0.1,3.2,0.3,3.6
		c0.4,0.9,1.2,1.3,2.6,1.3c0.9,0,1.6-0.2,2.1-0.7c0.2-0.2,0.4-0.4,0.5-0.6s0.2-0.6,0.2-1c0.1-0.4,0.1-0.9,0.1-1.3v-1.6
		c0-1.4,0-2.3,0-2.8c0-0.5,0-0.8-0.1-0.9c0-0.1-0.1-0.2-0.3-0.2c-0.1-0.1-0.4-0.1-1-0.1l-0.1-0.1v-0.5l0.1-0.1
		c0.4,0,0.9,0.1,1.4,0.1c0.4,0,1,0,2.1-0.1l0.1,0.1L148.5,135.4L148.5,135.4z M145.5,131.2l-3.5,2.5l-0.4-0.3v-0.1l1.7-2.1l2-0.2
		L145.5,131.2L145.5,131.2z"/>
	<path class="st0" d="M154.7,135.4L154.7,135.4c-0.6,0.1-0.9,0.1-1,0.2c-0.1,0-0.2,0.1-0.3,0.3c-0.1,0.4-0.1,1.2-0.1,2.4v5.8
		c0,1-0.1,1.9-0.3,2.4c-0.2,0.7-0.7,1.3-1.4,1.9c-0.7,0.6-1.4,0.9-2.1,0.9c-0.2,0-0.4,0-0.6-0.1c0-0.4,0-0.9,0-1.4l0.2-0.1
		c0.4,0.4,0.8,0.6,1.1,0.6c0.4,0,0.7-0.2,0.8-0.7c0.1-0.6,0.1-1.5,0.1-2.8v-6.5c0-1.2,0-2-0.1-2.4c0-0.1-0.1-0.2-0.3-0.3
		c0,0-0.4,0-1.1-0.1l-0.1-0.1v-0.5l0.1-0.1c0.7,0,1.6,0.1,2.6,0.1c1.1,0,1.9,0,2.4-0.1l0.1,0.1L154.7,135.4L154.7,135.4z"/>
	<path class="st0" d="M167.1,135.4L167.1,135.4c-0.7,0.1-1,0.2-1.1,0.6c0,0.2-0.1,0.6-0.1,1.2c0,0.4,0,1.1,0,1.9v2.4
		c0,1.5-0.3,2.6-0.9,3.3c-0.8,0.9-1.9,1.3-3.4,1.3c-1.4,0-2.4-0.2-3.2-0.7c-0.6-0.4-1.1-0.9-1.3-1.6c-0.1-0.4-0.2-1.6-0.2-3.5v-2
		c0-1.2,0-2-0.1-2.4c0-0.1-0.1-0.2-0.3-0.3c-0.1,0-0.4-0.1-0.9-0.1l-0.1-0.1v-0.5l0.1-0.1c0.5,0,1.3,0.1,2.4,0.1s1.9,0,2.4-0.1
		l0.1,0.1v0.5l-0.1,0.1c-0.5,0-0.8,0.1-0.9,0.1c-0.1,0-0.2,0.1-0.3,0.3c-0.1,0.4-0.1,1.2-0.1,2.4v1.6c0,2,0.1,3.2,0.3,3.6
		c0.4,0.9,1.2,1.3,2.6,1.3c0.9,0,1.6-0.2,2.1-0.7c0.2-0.2,0.4-0.4,0.5-0.6s0.2-0.6,0.2-1c0.1-0.4,0.1-0.9,0.1-1.3v-1.6
		c0-1.4,0-2.3,0-2.8c0-0.5,0-0.8-0.1-0.9c0-0.1-0.1-0.2-0.3-0.2c-0.1-0.1-0.4-0.1-1-0.1l-0.1-0.1v-0.5l0.1-0.1
		c0.4,0,0.9,0.1,1.4,0.1c0.4,0,1,0,2.1-0.1l0.1,0.1V135.4L167.1,135.4z"/>
	<path class="st0" d="M176.5,143.1c-0.1,0.8-0.2,1.6-0.2,2.6l-0.1,0.1l-5.6-0.1c-0.9,0-1.6,0-2,0.1l-0.1-0.1v-0.2l0-0.1
		c0.4-0.2,0.6-0.4,0.6-0.5c0.1-0.1,0.1-0.4,0.1-1l0-1.7v-3.9c0-1.2,0-2-0.1-2.4c0-0.1-0.1-0.2-0.3-0.3c-0.1,0-0.4-0.1-0.9-0.1
		l-0.1-0.1v-0.5l0.1-0.1c0.5,0,1.3,0.1,2.4,0.1s1.9,0,2.4-0.1l0.1,0.1v0.5l-0.1,0.1c-0.5,0-0.8,0.1-0.9,0.1c-0.1,0-0.2,0.1-0.3,0.3
		c-0.1,0.4-0.1,1.2-0.1,2.4v4.6c0,0.7,0,1.3,0,2h1.1c1.5,0,2.4-0.1,2.8-0.2c0.1,0,0.1-0.1,0.1-0.1c0.1-0.1,0.1-0.2,0.1-0.5l0.2-1
		l0.1-0.1L176.5,143.1L176.5,143.1L176.5,143.1z"/>
	<path class="st0" d="M189.1,145.7L189.1,145.7c-1.2,0.1-1.9,0-2.2,0c-0.9,0-1.8,0-2.7,0.1l-0.1-0.1v-0.5l0.1-0.1l0.7,0
		c0.3,0,0.4-0.1,0.4-0.3c0-0.1-0.1-0.4-0.2-0.7l-0.6-1.6c-0.7,0-1.4,0-2.2,0c-0.4,0-1,0-1.8,0l-0.3,0.9c-0.3,0.7-0.4,1.2-0.4,1.4
		c0,0.2,0.1,0.3,0.4,0.4c0.1,0,0.4,0,0.8,0.1l0.1,0.1v0.5l-0.1,0.1c-1,0-1.6-0.1-1.9-0.1c-0.2,0-0.7,0-1.6,0.1l-0.1-0.1v-0.5
		l0.1-0.1c0.5,0,0.9-0.1,1-0.3c0.1-0.2,0.6-1.3,1.4-3.2l2-5.1c0.1-0.4,0.4-1,0.7-1.8h1.1l4.1,9.7c0.2,0.4,0.3,0.6,0.4,0.6
		c0.2,0.1,0.4,0.1,0.7,0.1l0.1,0.1L189.1,145.7L189.1,145.7z M184.2,141.5l-1.7-4.1l-1.6,4.1c0.4,0,1,0,1.7,0
		S183.8,141.6,184.2,141.5L184.2,141.5z"/>
</g>
<g>
	<path class="st0" d="M113.9,123.5l-0.1,0.2c-2.4-0.1-3.8-0.1-4.3-0.1c-2,0-3.8,0-5.5,0.1l-0.2-0.2v-1l0.2-0.2l1.4-0.1
		c0.6,0,0.9-0.2,0.9-0.6c0-0.2-0.2-0.7-0.4-1.5l-1.3-3.4c-1.5,0-3,0-4.5,0c-0.8,0-2.1,0-3.7,0l-0.7,2c-0.5,1.5-0.8,2.4-0.8,2.8
		c0,0.4,0.2,0.7,0.8,0.7c0.3,0,0.8,0.1,1.6,0.1l0.2,0.2v1l-0.2,0.2c-2-0.1-3.3-0.1-3.8-0.1c-0.4,0-1.5,0-3.3,0.1l-0.2-0.2v-1
		l0.2-0.2c1.1-0.1,1.8-0.3,2-0.7c0.2-0.4,1.2-2.6,2.8-6.7l4.2-10.5c0.3-0.8,0.8-2,1.4-3.7h2.3l8.5,20.1c0.3,0.8,0.6,1.2,0.9,1.3
		c0.3,0.1,0.9,0.2,1.5,0.2l0.1,0.2L113.9,123.5L113.9,123.5z M103.8,114.8l-3.4-8.4l-3.3,8.4c0.9,0,2,0.1,3.4,0.1
		S102.9,114.8,103.8,114.8z"/>
	<path class="st0" d="M141.1,102.1l-0.2,0.2c-1.1,0.1-1.7,0.1-1.9,0.2c-0.3,0.1-0.5,0.3-0.6,0.6c-0.1,0.8-0.2,2.4-0.2,5v6.5
		c0,4.8,0.1,7.9,0.2,9.4l-0.2,0.2c-1.2-0.2-2.1-0.3-2.8-0.4c-2.9-3.2-7.8-9.1-14.7-17.7v10.5c0,2.6,0.1,4.2,0.2,5
		c0.1,0.3,0.2,0.5,0.6,0.6c0.2,0,0.8,0.1,1.9,0.2l0.2,0.2v1.1l-0.2,0.2c-1.2-0.1-2.4-0.1-3.4-0.1c-1.2,0-2.5,0-3.7,0.1l-0.2-0.2
		v-1.1l0.2-0.2c1.1-0.1,1.7-0.1,1.9-0.2c0.3-0.1,0.5-0.3,0.6-0.6c0.1-0.8,0.2-2.4,0.2-5V108c0-2.6-0.1-4.2-0.2-5
		c-0.1-0.3-0.2-0.5-0.6-0.6c-0.2,0-0.8-0.1-1.9-0.2l-0.2-0.2V101l0.2-0.1c1,0.1,2,0.1,2.9,0.1c1.4,0,2.7,0,3.6-0.1
		c3.9,5.2,8.4,10.7,13.6,16.5V108c0-2.6-0.1-4.2-0.2-5c-0.1-0.3-0.2-0.5-0.6-0.6c-0.2,0-0.8-0.1-1.9-0.2l-0.2-0.2V101l0.2-0.1
		c1.2,0.1,2.3,0.1,3.4,0.1c1.4,0,2.6,0,3.7-0.1l0.2,0.1L141.1,102.1L141.1,102.1z M134.8,93.6c-0.2,1.2-0.7,2.2-1.4,3
		c-0.7,0.8-1.5,1.2-2.4,1.2c-0.6,0-1.3-0.2-2.1-0.6c-0.3-0.1-0.7-0.3-1.3-0.6c-0.2-0.1-0.6-0.3-1.1-0.5c-0.4-0.2-0.8-0.3-1.2-0.3
		c-0.9,0-1.5,0.6-1.8,1.8h-1l-0.1-0.2c0.2-1.2,0.7-2.2,1.4-3.1s1.5-1.2,2.4-1.2c0.6,0,1.3,0.2,2.1,0.6c0.3,0.1,0.7,0.3,1.3,0.6
		c0.2,0.1,0.6,0.3,1.1,0.5c0.4,0.2,0.8,0.3,1.2,0.3c0.9,0,1.5-0.6,1.8-1.8h1L134.8,93.6L134.8,93.6z"/>
	<path class="st0" d="M168.1,111.6c0,4-1.1,7.1-3.5,9.3c-2.2,2.2-5.3,3.3-9.2,3.3c-3.7,0-6.6-1-8.6-3.1c-2.1-2.1-3.1-4.9-3.1-8.6
		c0-5.2,2-8.7,5.9-10.7c1.8-0.9,4-1.3,6.6-1.3c3.7,0,6.6,1,8.7,2.9C167,105.4,168.1,108.1,168.1,111.6L168.1,111.6z M163.2,112.5
		c0-3.1-0.6-5.6-1.9-7.4c-1.2-1.8-3.1-2.7-5.5-2.7c-3.2,0-5.3,1.4-6.3,4.3c-0.5,1.5-0.8,3.1-0.8,4.9c0,3.3,0.6,5.9,1.8,7.8
		c1.3,2,3.2,3,5.7,3c3.1,0,5.1-1.5,6.2-4.5C162.9,116.3,163.2,114.5,163.2,112.5L163.2,112.5z"/>
	<path class="st0" d="M188,116.1c0,1.8-0.5,3.3-1.5,4.7c-0.9,1.2-2,2.1-3.5,2.7c-1.3,0.5-2.9,0.8-4.7,0.8c-2.2,0-4.5-0.5-6.6-1.5
		l-0.2-0.3c0.3-1.2,0.4-3,0.4-5.3l0.2-0.2h1l0.1,0.2v0.4c0,0.6,0.1,1.4,0.2,2.4c0.4,0.7,1.1,1.3,2.1,1.8c1,0.5,2.1,0.8,3.2,0.8
		c2.1,0,3.6-0.7,4.4-2.2c0.4-0.8,0.6-1.6,0.6-2.4c0-1.4-0.6-2.3-1.7-2.9c-0.6-0.3-1.5-0.5-2.8-0.7c-2.9-0.4-4.8-1-5.6-1.7
		c-1.4-1-2-2.6-2-4.7s0.7-3.9,2.2-5.3c1.6-1.4,3.7-2.1,6.5-2.1c2.5,0,4.5,0.4,6.1,1.2l0.1,0.4c-0.3,1.3-0.4,2.8-0.5,4.6l-0.2,0.2h-1
		l-0.2-0.2c0-1.3-0.1-2.1-0.2-2.5c-0.3-0.5-0.9-0.9-1.7-1.3c-0.9-0.4-1.8-0.6-2.8-0.6c-1.4,0-2.6,0.4-3.4,1.1
		c-0.8,0.7-1.2,1.7-1.2,2.8c0,1.2,0.4,2.1,1.3,2.7c0.6,0.4,1.9,0.7,4.1,1.1c0.2,0,0.9,0.1,1.9,0.3c0.6,0.1,1.2,0.3,1.8,0.5
		c1.1,0.4,1.9,1,2.4,1.9C187.7,113.6,188,114.7,188,116.1L188,116.1z"/>
</g>
<g>
	<path class="st0" d="M136.7,84.2l-0.3,0.4c-2.8-0.2-6.3-0.3-10.3-0.3s-8.1,0.1-12.5,0.3l-0.3-0.3v-1.8l0.4-0.3c1-0.1,2-0.2,3-0.3
		c1.7-0.1,2.8-0.3,3.3-0.5c0.3-0.2,0.6-0.5,0.9-1.1c0.4-0.9,0.6-4.8,0.6-11.5v-7.5c0-2.2,0-5.1-0.1-8.6l-0.1-2.3
		c0-1-0.2-1.5-0.6-1.5c-0.2,0-0.8,0.2-1.8,0.7c-2.8,1.3-5.1,2.4-7.1,3.3l-0.4-0.2c-0.1-1.2-0.3-2.4-0.6-3.8l0-0.2
		c5.6-1.6,11.8-3.7,18.6-6.3l0.6,0.5c-0.1,1.2-0.2,3-0.3,5.3c-0.1,0.9-0.1,3.3-0.2,7.1L129.3,67c0,8.5,0.1,13,0.4,13.7
		c0.2,0.5,0.5,0.7,0.9,0.8c0.7,0.2,2.6,0.4,5.7,0.5l0.4,0.3L136.7,84.2L136.7,84.2z"/>
	<path class="st0" d="M168.6,84.2l-0.3,0.4c-2.9-0.2-6.2-0.2-9.7-0.2c-2,0-5.4,0.1-10,0.2l-0.3-0.3v-1.9l0.3-0.3l3.2-0.2
		c1.6-0.1,2.6-0.3,2.9-0.7c0.4-0.4,0.6-1.5,0.7-3.3l0.1-3.9h-4l-6,0.1c-1.1,0-2.7,0-4.8,0.1l-0.4-2.5c0.8-2.6,3-7.1,6.6-13.7
		c3.7-6.8,6.5-11.4,8.5-14l7.6-1.5l0.5,0.5c-0.4,3.9-0.5,10.2-0.5,19v7.1h1c0.9,0,2.4-0.1,4.2-0.2l0.4,0.3c-0.1,2-0.1,3.5,0,4.5
		l-0.4,0.4c-0.3,0-0.8,0-1.5,0h-3.6c0,4.4,0.2,6.8,0.7,7.3c0.4,0.3,1.1,0.6,2.3,0.7c0.9,0.1,1.7,0.2,2.4,0.3l0.3,0.3L168.6,84.2
		L168.6,84.2z M155.8,47.9c-2.7,4.3-4.7,7.6-5.9,10c-0.9,1.7-2.6,5.3-5.2,10.9h10.8C155.5,68.9,155.8,47.9,155.8,47.9z"/>
</g>
<g>
	<path class="st0" d="M139.4,172.8c-11.7,0-21.2,9.5-21.2,21.2s9.5,21.2,21.2,21.2s21.2-9.5,21.2-21.2S151.1,172.8,139.4,172.8z
		 M139.3,175.1c3.6,0,6.6,2.9,6.6,6.6s-2.9,6.6-6.6,6.6s-6.6-2.9-6.6-6.6S135.7,175.1,139.3,175.1z M138.4,190.2
		c0.6-0.6,1.5-0.6,2.1,0c0.6,0.6,0.6,1.5,0,2.1c-0.6,0.6-1.6,0.6-2.1,0C137.8,191.8,137.8,190.8,138.4,190.2z M137.8,195.2
		c-0.6,0.6-1.5,0.6-2.1,0c-0.6-0.6-0.6-1.5,0-2.1c0.6-0.6,1.5-0.6,2.1,0C138.4,193.6,138.4,194.6,137.8,195.2z M141,192.9
		c0.6-0.6,1.6-0.6,2.1,0s0.6,1.5,0,2.1c-0.6,0.6-1.5,0.6-2.1,0C140.4,194.4,140.4,193.4,141,192.9z M119.9,190.8
		c0-3.6,2.9-6.6,6.6-6.6s6.6,2.9,6.6,6.6s-2.9,6.6-6.6,6.6S119.9,194.4,119.9,190.8z M131.7,211.5c-3.6,0-6.6-2.9-6.6-6.6
		s3-6.6,6.6-6.6s6.6,2.9,6.6,6.6S135.3,211.5,131.7,211.5z M138.2,197.8c-0.6-0.6-0.6-1.5,0-2.1c0.6-0.6,1.5-0.6,2.1,0
		c0.6,0.6,0.6,1.5,0,2.1C139.8,198.4,138.8,198.4,138.2,197.8z M147,211.5c-3.6,0-6.6-2.9-6.6-6.6s2.9-6.6,6.6-6.6s6.6,2.9,6.6,6.6
		S150.6,211.5,147,211.5z M152.3,197.4c-3.6,0-6.6-2.9-6.6-6.6s2.9-6.6,6.6-6.6s6.6,2.9,6.6,6.6S155.9,197.4,152.3,197.4z"/>
	<path class="st0" d="M171,192.9l-7.6-3.4c-0.8-4.2-2.6-8-5.2-11.1l1.5-4.1c0-0.1,0.1-0.4-0.1-0.6c-0.3-0.3-0.6-0.1-0.6-0.1l0,0
		l-4,1.5c-3.2-2.6-7-4.5-11.2-5.2l-3.4-7.5c0,0-0.3-0.6-1-0.6s-1,0.6-1,0.6l-3.3,7.4c-4.3,0.8-8.2,2.6-11.3,5.3l-3.9-1.5l0,0
		c0,0-0.3-0.1-0.6,0.1s-0.2,0.6-0.2,0.6l0,0l1.5,3.9c-2.7,3.2-4.6,7.1-5.3,11.4l-7.3,3.3c0,0-0.6,0.3-0.6,1s0.6,1,0.6,1l7.3,3.3
		c0.8,4.3,2.7,8.2,5.3,11.4l-1.5,3.9l0,0c0,0-0.1,0.3,0.1,0.6c0.2,0.2,0.5,0.2,0.6,0.2l3.9-1.5c3.2,2.6,7.1,4.5,11.3,5.2l3.4,7.4
		c0,0,0.3,0.6,1,0.6s1.1-0.6,1.1-0.6l3.3-7.4c4.2-0.8,8-2.6,11.2-5.3l4,1.5l0,0c0,0,0.3,0.1,0.6-0.1c0.2-0.2,0.2-0.5,0.2-0.6
		l-1.6-4.1c2.6-3.1,4.4-6.9,5.2-11.1l7.6-3.4c0,0,0.6-0.3,0.6-1S171,193,171,192.9L171,192.9z M139.3,217.1
		c-12.8,0-23.1-10.4-23.1-23.1s10.3-23.1,23.1-23.1s23.1,10.4,23.1,23.1S152.1,217.1,139.3,217.1z"/>
</g>
<path class="st0" d="M178.9,191.7c0.2-0.1,0.4-0.2,0.6-0.3C179.5,191.5,179.3,191.5,178.9,191.7z"/>
<g>
	<path class="st0" d="M96.3,194.3c0.1-2.1,0.1-3,0.1-3s0-1.2-1.1-1.7c0,0,0,0-0.1-0.1c-0.3-0.2-0.7-0.3-1-0.5
		c-8.1-4-15.5-9-22.1-14.8c-1.7-1.5-3.3-3-4.9-4.5c3.1-3.4,5.2-6.9,6.5-10.2c2.2-5.3,2.6-10.3,2.1-14.8c-0.7-6.5-3.3-11.8-5.1-14.8
		c-1.1-1.8-1.8-2.7-1.8-2.7c-0.8,0.9-1.6,1.8-2.3,2.7c-3.8,4.9-5.6,9.9-6.3,14.8c-0.8,5.4-0.2,10.5,0.9,14.8c0.6,2.3,1.3,4.3,2,6
		c-1.8-1.9-3.4-4-5-6c-3.6-4.6-6.8-9.6-9.4-14.8c-0.2-0.3-0.4-0.6-0.5-0.9c6.2-4.1,9.8-9,11.7-13.8c2.2-5.4,2.3-10.7,1.8-14.8
		c-0.5-4.4-1.7-7.3-1.7-7.3c-3.6,2.2-6.3,4.7-8.4,7.3c-3.8,4.8-5.6,10-6.3,14.8c-0.3,2.3-0.4,4.5-0.4,6.4c-0.8-2.1-1.6-4.2-2.3-6.4
		c-1.5-4.8-2.7-9.7-3.5-14.8c-0.7-4.7-1.1-9.5-1.1-14.4c0-0.1,0-0.2,0-0.3c0-5,0.4-10,1.2-14.8c0,0,0-0.1,0-0.1
		c13.6-0.7,20-8.9,22.8-14.7c1.5-3.1,2-5.4,2-5.4c-7,0-12.4,2.4-16.4,5.4c-3,2.3-5.3,5.1-7,7.6c0.6-2.6,1.3-5.1,2.2-7.6
		c1.7-5.1,3.8-10,6.3-14.8c1.3-2.4,2.7-4.8,4.1-7.1c0.4,0.6,0.7,0.9,0.7,0.9c1.8-2.5,3-4.9,3.7-7.2c0.4-0.5,0.7-0.9,1.1-1.4
		c1.6-2,3.2-4,5-6c15.7,4.8,24.6-6.5,26.2-8.8c0.2-0.2,0.3-0.4,0.3-0.4c-6.4-2.1-11.9-1.4-16.4,0.4c-0.7,0.3-1.3,0.5-1.9,0.9
		c0.3-0.3,0.7-0.6,1.1-0.9c1.8-1.6,3.7-3.1,5.6-4.5c-2,1.4-4,3-5.9,4.5c-0.5,0.4-1.1,0.8-1.6,1.3c-5.5,3-8.8,7.1-8.8,7.1
		c0.3,0.1,0.6,0.2,0.9,0.3c-1.8,1.9-3.5,3.8-5.2,5.8c1.2-5.9-0.6-11-2.6-14.4c-1.7-3-3.5-4.7-3.5-4.7c-1.1,1.6-2,3.2-2.6,4.7
		c-2.2,5.5-1.5,10.7-0.1,14.8c1,3,2.4,5.3,3.4,6.8c-1.8,2.6-3.4,5.2-4.9,7.9c-1.9,3.4-3.6,6.9-5.1,10.5c1.3-3.8,1.5-7.3,1.1-10.5
		c-0.9-7.3-5.1-12.7-6.9-14.8c-0.5-0.6-0.8-0.9-0.8-0.9c-0.2,0.3-0.4,0.6-0.6,0.9c-3.4,5.1-4.4,10.2-4.2,14.8
		c0.2,6.2,2.7,11.4,4.6,14.8c1.4,2.3,2.6,3.7,2.6,3.7c0.9-1.3,1.7-2.5,2.3-3.7c0.3-0.6,0.7-1.2,1-1.8c-0.2,0.6-0.4,1.2-0.7,1.8
		c-1.7,4.8-3.1,9.7-4,14.8c-0.2,1-0.4,1.9-0.5,2.9c-0.3-1-0.6-2-1-2.9c-3.5-8.7-11.3-13-15.4-14.8c-1.6-0.7-2.7-1-2.7-1
		c0,0.3,0,0.6,0,1c-0.3,6,1.3,10.9,3.8,14.8c4.3,6.8,11.2,10.7,14.3,12.2c0,0.8,0,1.7-0.1,2.6c0,1.2-0.1,2.3-0.1,3.5
		c0,3.8,0.2,7.6,0.7,11.3c0.6,5.1,1.6,10,2.9,14.8c1.4,5.1,3.2,10,5.4,14.8c2.4,5.2,5.2,10.1,8.4,14.8c3.6,5.3,7.8,10.2,12.3,14.8
		c5.6,5.6,11.8,10.5,18.6,14.8c3.5,2.2,7.2,4.2,11,6C95.4,195.4,96.3,195.4,96.3,194.3L96.3,194.3z"/>
	<path class="st0" d="M60.8,171.1c-0.3-0.6-0.7-1.1-1-1.6c-0.4-0.6-0.8-1.1-1.2-1.6c-0.4-0.6-0.9-1.1-1.3-1.6
		c-0.5-0.6-1-1.1-1.5-1.6c-0.6-0.6-1.1-1.1-1.7-1.6c-0.6-0.6-1.3-1.1-2-1.6c-0.8-0.6-1.6-1.1-2.3-1.6c-1-0.6-1.9-1.1-2.9-1.6
		c-1.3-0.6-2.6-1.2-3.8-1.6c-2.2-0.8-4.3-1.3-6.4-1.6c-5.6-0.9-10.5-0.4-13.3,0c-1.7,0.3-2.7,0.5-2.7,0.5c0.2,0.4,0.4,0.7,0.6,1.1
		c0.3,0.6,0.6,1.1,1,1.6c0.4,0.6,0.7,1.1,1.1,1.6c0.4,0.6,0.8,1.1,1.2,1.6c0.5,0.6,0.9,1.1,1.4,1.6c0.5,0.6,1.1,1.1,1.6,1.6
		c0.6,0.6,1.3,1.1,1.9,1.6c0.7,0.6,1.5,1.1,2.2,1.6c0.9,0.6,1.8,1.1,2.7,1.6c1.1,0.6,2.2,1.1,3.3,1.6c1.5,0.6,3.1,1.2,4.6,1.6
		c3.1,0.9,6.1,1.4,8.8,1.6c4.1,0.4,7.5,0.2,9.5,0c1.2-0.1,1.8-0.2,1.8-0.2c-0.2-0.5-0.5-0.9-0.8-1.4
		C61.5,172.2,61.2,171.6,60.8,171.1L60.8,171.1z"/>
	<path class="st0" d="M26.9,148.5c2.7,0.8,5.3,1.2,7.6,1.4c3.6,0.3,6.5,0.2,8.2,0c1-0.1,1.6-0.2,1.6-0.2c-0.2-0.4-0.5-0.8-0.7-1.2
		c-0.3-0.5-0.5-0.9-0.8-1.4c-0.3-0.5-0.6-1-0.9-1.4c-0.3-0.5-0.7-0.9-1-1.4c-0.4-0.5-0.8-0.9-1.2-1.4c-0.4-0.5-0.9-1-1.3-1.4
		c-0.5-0.5-1-1-1.5-1.4c-0.6-0.5-1.1-1-1.7-1.4c-0.7-0.5-1.3-1-2-1.4c-0.8-0.5-1.7-1-2.5-1.4c-1.1-0.6-2.2-1-3.3-1.4
		c-1.9-0.7-3.8-1.1-5.6-1.4c-4.9-0.8-9.1-0.4-11.6,0c-1.5,0.2-2.3,0.5-2.3,0.5c0.2,0.3,0.4,0.6,0.5,0.9c0.3,0.5,0.6,0.9,0.9,1.4
		c0.3,0.5,0.6,0.9,1,1.4c0.4,0.5,0.7,1,1.1,1.4c0.4,0.5,0.8,1,1.2,1.4c0.5,0.5,0.9,1,1.4,1.4c0.5,0.5,1.1,1,1.7,1.4
		c0.6,0.5,1.3,1,1.9,1.4c0.8,0.5,1.5,1,2.3,1.4c1,0.5,1.9,1,2.9,1.4C24.3,147.7,25.6,148.2,26.9,148.5L26.9,148.5z"/>
	<path class="st0" d="M11.5,101.4c0.1,0.8,0.2,1.6,0.4,2.4c0.2,0.8,0.4,1.6,0.6,2.4c0.3,0.8,0.6,1.6,0.9,2.4
		c0.3,0.8,0.7,1.6,1.1,2.4c0.4,0.8,0.9,1.6,1.4,2.4c0.6,0.8,1.1,1.6,1.8,2.4c0.7,0.8,1.4,1.6,2.2,2.4c0.9,0.9,1.8,1.6,2.7,2.4
		c1.1,0.9,2.2,1.7,3.3,2.4c1.4,0.9,2.9,1.7,4.2,2.4c2.5,1.2,4.6,2,5.7,2.4c0.7,0.2,1,0.3,1,0.3c0-0.1,0-0.2,0-0.3
		c0-0.8-0.1-1.6-0.1-2.4c-0.1-0.8-0.2-1.6-0.3-2.4c-0.1-0.8-0.3-1.6-0.5-2.4c-0.2-0.8-0.4-1.6-0.7-2.4c-0.3-0.8-0.6-1.6-0.9-2.4
		c-0.4-0.8-0.8-1.6-1.2-2.4c-0.5-0.8-1-1.6-1.5-2.4c-0.6-0.8-1.2-1.6-1.9-2.4c-0.8-0.9-1.6-1.7-2.4-2.4c-1-0.9-2-1.7-3.1-2.4
		c-1.4-0.9-2.7-1.7-4-2.4c-2.3-1.1-4.4-1.9-6-2.4c-1.9-0.6-3.1-0.8-3.1-0.8c0,0.3,0,0.5,0.1,0.8C11.3,99.8,11.4,100.6,11.5,101.4
		L11.5,101.4z"/>
	<path class="st0" d="M68.2,25c0.9-0.5,1.8-0.9,2.5-1.5c0.7-0.5,1.2-1,1.8-1.5c0.5-0.5,1-1,1.4-1.5c0.4-0.5,0.8-1,1.1-1.5
		s0.6-1,0.9-1.5s0.5-1,0.7-1.5c0.2-0.5,0.4-1,0.5-1.5c0.2-0.5,0.3-1,0.4-1.5c0.1-0.5,0.2-1,0.3-1.5c0.1-0.6,0.1-1,0.2-1.5
		C78,9.6,78,9.1,78,8.8c0-0.3,0-0.5,0-0.5c-0.5,0.1-0.9,0.3-1.4,0.5c-1.2,0.4-2.3,0.9-3.3,1.5c-0.8,0.4-1.5,0.9-2.2,1.5
		c-0.6,0.5-1.1,1-1.6,1.5c-0.5,0.5-0.9,1-1.3,1.5c-0.4,0.5-0.7,1-1.1,1.5c-0.3,0.5-0.6,1-0.9,1.5s-0.5,1-0.7,1.5
		c-0.2,0.5-0.4,1-0.6,1.5c-0.2,0.5-0.3,1-0.5,1.5c-0.2,0.5-0.3,1-0.4,1.5c-0.1,0.5-0.2,1-0.3,1.5c-0.1,0.7-0.2,1.2-0.2,1.5
		c0,0.1,0,0.2,0,0.2c0.2-0.1,0.4-0.1,0.6-0.2C65.8,26,67.1,25.5,68.2,25z"/>
	<path class="st0" d="M58.1,85.8c-1.8,0.7-3.5,1.4-5,2.3c-1.2,0.7-2.2,1.5-3.2,2.3c-0.9,0.7-1.7,1.5-2.5,2.3c-0.7,0.8-1.4,1.5-2,2.3
		c-0.6,0.8-1.1,1.6-1.6,2.3S43,99,42.6,99.8c-0.4,0.8-0.7,1.6-1,2.3c-0.3,0.8-0.6,1.6-0.8,2.3c-0.2,0.8-0.5,1.6-0.7,2.3
		c-0.2,0.8-0.4,1.6-0.5,2.3c-0.2,0.9-0.3,1.7-0.3,2.3c-0.1,1.1-0.2,1.9-0.2,2.3c0,0.2,0,0.3,0,0.3c0.3-0.1,0.7-0.2,1-0.3
		c2.1-0.7,4-1.4,5.7-2.3c1.4-0.7,2.6-1.5,3.8-2.3c1-0.7,1.9-1.5,2.8-2.3c0.8-0.8,1.5-1.5,2.1-2.3c0.6-0.8,1.2-1.6,1.6-2.3
		c0.5-0.8,0.9-1.6,1.3-2.3s0.7-1.6,1-2.3c0.3-0.8,0.5-1.6,0.8-2.3c0.2-0.8,0.4-1.6,0.5-2.3c0.2-0.8,0.3-1.6,0.4-2.3
		c0.1-0.9,0.2-1.6,0.2-2.3c0-1,0-1.8,0-2.3c0-0.5-0.1-0.8-0.1-0.8C59.4,85.3,58.7,85.6,58.1,85.8L58.1,85.8z"/>
	<path class="st0" d="M63.3,46.6c-1,0.4-2,0.8-2.8,1.3c-0.8,0.4-1.5,0.8-2.2,1.3c-0.6,0.4-1.3,0.9-1.8,1.3c-0.5,0.4-1.1,0.9-1.6,1.3
		c-0.5,0.4-0.9,0.9-1.4,1.3c-0.4,0.4-0.8,0.9-1.2,1.3c-0.4,0.5-0.8,0.9-1.1,1.3c-0.4,0.5-0.7,0.9-1,1.3c-0.3,0.5-0.7,0.9-0.9,1.3
		c-0.3,0.5-0.6,1-0.8,1.3c-0.4,0.7-0.6,1.1-0.6,1.1c0.8,0.1,1.5,0.1,2.2,0.2c2,0.2,4,0.2,5.7,0c2.2-0.2,4.1-0.7,5.9-1.3
		c1.1-0.4,2-0.8,3-1.3c0.8-0.4,1.5-0.8,2.2-1.3c0.6-0.4,1.2-0.9,1.8-1.3c0.5-0.4,1-0.9,1.5-1.3c0.5-0.4,0.9-0.9,1.3-1.3
		c0.4-0.4,0.8-0.9,1.1-1.3c0.4-0.5,0.7-0.9,1-1.3c0.3-0.5,0.6-0.9,0.9-1.3c0.3-0.5,0.6-0.9,0.8-1.3c0.3-0.5,0.5-0.9,0.7-1.3
		c0.3-0.7,0.5-1.1,0.6-1.3c0-0.1,0.1-0.2,0.1-0.2c-3-0.4-5.8-0.3-8.3,0.2C66.4,45.6,64.8,46,63.3,46.6L63.3,46.6z"/>
	<path class="st0" d="M86.7,19.3c1.5,0.2,3,0.1,4.4,0c1.7-0.1,3.2-0.5,4.7-0.9c0.8-0.3,1.7-0.6,2.4-0.9c0.6-0.3,1.2-0.6,1.8-0.9
		c0.5-0.3,1-0.6,1.5-0.9c0.5-0.3,0.9-0.6,1.3-0.9c0.4-0.3,0.8-0.6,1.1-0.9c0.4-0.3,0.7-0.6,1-0.9c0.3-0.3,0.6-0.6,0.9-0.9
		c0.3-0.3,0.6-0.6,0.8-0.9c0.3-0.4,0.6-0.7,0.8-0.9c0.4-0.5,0.6-0.9,0.6-0.9c-0.1,0-0.1,0-0.2-0.1c-1.4-0.5-2.8-0.7-4.1-0.9
		c-2.5-0.4-4.9-0.4-7.1,0c-1.3,0.2-2.5,0.6-3.7,0.9c-0.8,0.3-1.6,0.6-2.4,0.9c-0.7,0.3-1.3,0.6-1.9,0.9c-0.6,0.3-1.1,0.6-1.6,0.9
		c-0.5,0.3-1,0.6-1.4,0.9s-0.9,0.6-1.3,0.9c-0.4,0.3-0.8,0.6-1.1,0.9c-0.4,0.3-0.7,0.6-1,0.9c-0.4,0.3-0.7,0.7-0.9,0.9
		c-0.4,0.4-0.7,0.7-0.8,0.9c-0.2,0.2-0.3,0.4-0.3,0.4c0.6,0.2,1.2,0.4,1.9,0.5C83.7,18.8,85.3,19.2,86.7,19.3L86.7,19.3z"/>
</g>
<g>
	<path class="st0" d="M182.5,194.3c-0.1-2.1-0.1-3-0.1-3s0-1.2,1.1-1.7c0,0,0,0,0.1-0.1c0.3-0.2,0.7-0.3,1-0.5
		c8.1-4,15.5-9,22.1-14.8c1.7-1.5,3.4-3,4.9-4.5c-3.1-3.4-5.1-6.9-6.5-10.2c-2.2-5.3-2.6-10.3-2.1-14.8c0.7-6.5,3.3-11.8,5.1-14.8
		c1.1-1.8,1.8-2.7,1.8-2.7c0.8,0.9,1.6,1.8,2.3,2.7c3.8,4.9,5.6,9.9,6.3,14.8c0.8,5.4,0.2,10.5-0.9,14.8c-0.6,2.3-1.3,4.3-2,6
		c1.8-1.9,3.4-4,5-6c3.6-4.6,6.8-9.6,9.4-14.8c0.2-0.3,0.4-0.6,0.5-0.9c-6.2-4.1-9.8-9-11.7-13.8c-2.2-5.4-2.3-10.7-1.8-14.8
		c0.5-4.4,1.7-7.3,1.7-7.3c3.6,2.2,6.3,4.7,8.4,7.3c3.8,4.8,5.6,10,6.3,14.8c0.3,2.3,0.4,4.5,0.4,6.4c0.9-2.1,1.6-4.2,2.3-6.4
		c1.6-4.8,2.7-9.7,3.5-14.8c0.7-4.7,1.1-9.5,1.1-14.4c0-0.1,0-0.2,0-0.3c0-5-0.4-10-1.2-14.8c0,0,0-0.1,0-0.1
		c-13.6-0.7-20-8.9-22.8-14.7c-1.5-3.1-2-5.4-2-5.4c7,0,12.4,2.4,16.4,5.4c3,2.3,5.3,5.1,7,7.6c-0.6-2.6-1.3-5.1-2.2-7.6
		c-1.7-5.1-3.8-10-6.3-14.8c-1.3-2.4-2.7-4.8-4.1-7.1c-0.4,0.6-0.7,0.9-0.7,0.9c-1.8-2.5-3-4.9-3.7-7.2c-0.4-0.5-0.7-0.9-1.1-1.4
		c-1.6-2-3.2-4-5-6c-15.7,4.8-24.6-6.5-26.2-8.8c-0.2-0.2-0.3-0.4-0.3-0.4c6.4-2.1,11.9-1.4,16.4,0.4c0.7,0.3,1.3,0.5,1.9,0.9
		c-0.3-0.3-0.7-0.6-1.1-0.9c-1.8-1.6-3.7-3.1-5.6-4.5c2,1.4,4,3,5.9,4.5c0.5,0.4,1.1,0.8,1.6,1.3c5.5,3,8.8,7.1,8.8,7.1
		c-0.3,0.1-0.6,0.2-0.9,0.3c1.8,1.9,3.5,3.8,5.2,5.8c-1.2-5.9,0.6-11,2.6-14.4c1.7-3,3.5-4.7,3.5-4.7c1.1,1.6,1.9,3.2,2.6,4.7
		c2.2,5.5,1.5,10.7,0.1,14.8c-1,3-2.4,5.3-3.4,6.8c1.8,2.6,3.4,5.2,4.9,7.9c1.9,3.4,3.6,6.9,5.1,10.5c-1.3-3.8-1.5-7.3-1.1-10.5
		c0.9-7.3,5.1-12.7,6.9-14.8c0.5-0.6,0.9-0.9,0.9-0.9c0.2,0.3,0.4,0.6,0.6,0.9c3.4,5.1,4.4,10.2,4.2,14.8
		c-0.2,6.2-2.7,11.4-4.6,14.8c-1.4,2.3-2.6,3.7-2.6,3.7c-0.9-1.3-1.7-2.5-2.4-3.7c-0.3-0.6-0.7-1.2-1-1.8c0.2,0.6,0.4,1.2,0.6,1.8
		c1.7,4.8,3.1,9.7,4.1,14.8c0.2,1,0.4,1.9,0.5,2.9c0.3-1,0.6-2,1-2.9c3.5-8.7,11.3-13,15.4-14.8c1.6-0.7,2.7-1,2.7-1
		c0,0.3,0,0.6,0,1c0.3,6-1.3,10.9-3.8,14.8c-4.3,6.8-11.1,10.7-14.3,12.2c0.1,0.8,0.1,1.7,0.1,2.6c0,1.2,0.1,2.3,0.1,3.5
		c0,3.8-0.2,7.6-0.7,11.3c-0.6,5.1-1.6,10-2.9,14.8c-1.4,5.1-3.2,10-5.4,14.8c-2.4,5.2-5.2,10.1-8.4,14.8
		c-3.6,5.3-7.8,10.2-12.3,14.8c-5.6,5.6-11.8,10.5-18.6,14.8c-3.5,2.2-7.2,4.2-11,6C183.5,195.4,182.5,195.4,182.5,194.3
		L182.5,194.3z"/>
	<path class="st0" d="M218,171.1c0.3-0.6,0.7-1.1,1-1.6c0.4-0.6,0.8-1.1,1.2-1.6c0.4-0.6,0.9-1.1,1.3-1.6c0.5-0.6,1-1.1,1.5-1.6
		c0.6-0.6,1.1-1.1,1.7-1.6c0.6-0.6,1.3-1.1,1.9-1.6c0.8-0.6,1.6-1.1,2.4-1.6c0.9-0.6,1.9-1.1,2.9-1.6c1.3-0.6,2.6-1.2,3.9-1.6
		c2.2-0.8,4.4-1.3,6.4-1.6c5.6-0.9,10.5-0.4,13.3,0c1.7,0.3,2.7,0.5,2.7,0.5c-0.2,0.4-0.4,0.7-0.6,1.1c-0.3,0.6-0.6,1.1-1,1.6
		c-0.4,0.6-0.7,1.1-1.1,1.6c-0.4,0.6-0.8,1.1-1.2,1.6c-0.5,0.6-0.9,1.1-1.4,1.6c-0.5,0.6-1.1,1.1-1.6,1.6c-0.6,0.6-1.3,1.1-1.9,1.6
		c-0.7,0.6-1.5,1.1-2.2,1.6c-0.9,0.6-1.8,1.1-2.7,1.6c-1.1,0.6-2.2,1.1-3.4,1.6c-1.5,0.6-3.1,1.2-4.6,1.6c-3.1,0.9-6.1,1.4-8.8,1.6
		c-4.1,0.4-7.5,0.2-9.5,0c-1.1-0.1-1.8-0.2-1.8-0.2c0.2-0.5,0.5-0.9,0.8-1.4C217.3,172.2,217.7,171.6,218,171.1L218,171.1z"/>
	<path class="st0" d="M251.9,148.5c-2.7,0.8-5.3,1.2-7.6,1.4c-3.6,0.3-6.5,0.2-8.2,0c-1-0.1-1.6-0.2-1.6-0.2
		c0.2-0.4,0.4-0.8,0.7-1.2c0.3-0.5,0.5-0.9,0.8-1.4c0.3-0.5,0.6-1,0.9-1.4c0.3-0.5,0.7-0.9,1-1.4c0.4-0.5,0.8-0.9,1.1-1.4
		c0.4-0.5,0.9-1,1.3-1.4c0.5-0.5,1-1,1.5-1.4c0.6-0.5,1.1-1,1.7-1.4c0.7-0.5,1.4-1,2-1.4c0.8-0.5,1.7-1,2.5-1.4
		c1.1-0.6,2.2-1,3.3-1.4c1.9-0.7,3.8-1.1,5.6-1.4c4.9-0.8,9.1-0.4,11.6,0c1.5,0.2,2.3,0.5,2.3,0.5c-0.2,0.3-0.4,0.6-0.5,0.9
		c-0.3,0.5-0.6,0.9-0.9,1.4c-0.3,0.5-0.6,0.9-1,1.4c-0.4,0.5-0.7,1-1.1,1.4c-0.4,0.5-0.8,1-1.2,1.4c-0.5,0.5-0.9,1-1.4,1.4
		c-0.5,0.5-1.1,1-1.7,1.4c-0.6,0.5-1.3,1-1.9,1.4c-0.8,0.5-1.5,1-2.3,1.4c-1,0.5-1.9,1-2.9,1.4C254.6,147.7,253.2,148.2,251.9,148.5
		L251.9,148.5z"/>
	<path class="st0" d="M267.3,101.4c-0.1,0.8-0.2,1.6-0.4,2.4c-0.2,0.8-0.4,1.6-0.6,2.4c-0.3,0.8-0.6,1.6-0.9,2.4
		c-0.3,0.8-0.7,1.6-1.1,2.4c-0.4,0.8-0.9,1.6-1.4,2.4c-0.6,0.8-1.1,1.6-1.8,2.4c-0.7,0.8-1.4,1.6-2.2,2.4c-0.9,0.9-1.8,1.6-2.7,2.4
		c-1.1,0.9-2.2,1.7-3.3,2.4c-1.4,0.9-2.9,1.7-4.2,2.4c-2.5,1.2-4.6,2-5.7,2.4c-0.7,0.2-1.1,0.3-1.1,0.3c0-0.1,0-0.2,0-0.3
		c0-0.8,0.1-1.6,0.1-2.4c0.1-0.8,0.2-1.6,0.3-2.4c0.1-0.8,0.3-1.6,0.5-2.4c0.2-0.8,0.4-1.6,0.7-2.4c0.3-0.8,0.6-1.6,0.9-2.4
		c0.4-0.8,0.8-1.6,1.2-2.4c0.5-0.8,1-1.6,1.5-2.4c0.6-0.8,1.2-1.6,1.9-2.4c0.8-0.9,1.6-1.7,2.4-2.4c1-0.9,2-1.7,3.1-2.4
		c1.4-0.9,2.7-1.7,4-2.4c2.3-1.1,4.4-1.9,6-2.4c1.9-0.6,3.1-0.8,3.1-0.8c0,0.3,0,0.5,0,0.8C267.5,99.8,267.4,100.6,267.3,101.4
		L267.3,101.4z"/>
	<path class="st0" d="M210.6,25c-0.9-0.5-1.8-0.9-2.5-1.5c-0.7-0.5-1.2-1-1.8-1.5c-0.5-0.5-1-1-1.4-1.5c-0.4-0.5-0.8-1-1.1-1.5
		c-0.3-0.5-0.6-1-0.9-1.5s-0.5-1-0.7-1.5c-0.2-0.5-0.4-1-0.5-1.5c-0.2-0.5-0.3-1-0.4-1.5c-0.1-0.5-0.2-1-0.3-1.5
		c-0.1-0.6-0.1-1-0.2-1.5c-0.1-0.6-0.1-1.1-0.1-1.5c0-0.3,0-0.5,0-0.5c0.5,0.1,0.9,0.3,1.4,0.5c1.2,0.4,2.4,0.9,3.4,1.5
		c0.8,0.4,1.5,0.9,2.2,1.5c0.6,0.5,1.1,1,1.6,1.5c0.5,0.5,0.9,1,1.3,1.5c0.4,0.5,0.7,1,1.1,1.5c0.3,0.5,0.6,1,0.9,1.5s0.5,1,0.7,1.5
		c0.2,0.5,0.4,1,0.6,1.5c0.2,0.5,0.3,1,0.5,1.5c0.1,0.5,0.3,1,0.4,1.5c0.1,0.5,0.2,1,0.3,1.5c0.1,0.7,0.1,1.2,0.2,1.5
		c0,0.1,0,0.2,0,0.2c-0.2-0.1-0.4-0.1-0.6-0.2C213.1,26,211.8,25.5,210.6,25L210.6,25z"/>
	<path class="st0" d="M220.7,85.8c1.8,0.7,3.5,1.4,5,2.3c1.2,0.7,2.2,1.5,3.2,2.3c0.9,0.7,1.7,1.5,2.5,2.3c0.7,0.8,1.4,1.5,2,2.3
		c0.6,0.8,1.1,1.6,1.6,2.3s0.9,1.6,1.3,2.3s0.7,1.6,1,2.3c0.3,0.8,0.6,1.6,0.8,2.3c0.2,0.8,0.5,1.6,0.6,2.3c0.2,0.8,0.4,1.6,0.5,2.3
		c0.1,0.9,0.3,1.7,0.3,2.3c0.1,1.1,0.2,1.9,0.2,2.3c0,0.2,0,0.3,0,0.3c-0.3-0.1-0.7-0.2-1-0.3c-2.1-0.7-4-1.4-5.7-2.3
		c-1.4-0.7-2.6-1.5-3.8-2.3c-1-0.7-1.9-1.5-2.8-2.3c-0.8-0.8-1.5-1.5-2.1-2.3c-0.6-0.8-1.1-1.6-1.6-2.3c-0.5-0.8-0.9-1.6-1.3-2.3
		c-0.4-0.8-0.7-1.6-1-2.3c-0.3-0.8-0.6-1.6-0.8-2.3c-0.2-0.8-0.4-1.6-0.6-2.3c-0.2-0.8-0.3-1.6-0.4-2.3c-0.1-0.9-0.1-1.6-0.2-2.3
		c0-1,0-1.8,0-2.3c0-0.5,0.1-0.8,0.1-0.8C219.5,85.3,220.1,85.6,220.7,85.8L220.7,85.8z"/>
	<path class="st0" d="M215.6,46.6c1,0.4,1.9,0.8,2.9,1.3c0.8,0.4,1.5,0.8,2.2,1.3c0.6,0.4,1.3,0.9,1.9,1.3c0.6,0.4,1.1,0.9,1.6,1.3
		c0.5,0.4,0.9,0.9,1.4,1.3c0.4,0.4,0.9,0.9,1.2,1.3c0.4,0.5,0.8,0.9,1.1,1.3c0.4,0.5,0.7,0.9,1,1.3c0.4,0.5,0.6,0.9,0.9,1.3
		c0.3,0.5,0.6,1,0.8,1.3c0.4,0.7,0.6,1.1,0.6,1.1c-0.8,0.1-1.5,0.1-2.2,0.2c-2,0.2-3.9,0.2-5.7,0c-2.1-0.2-4.1-0.7-5.9-1.3
		c-1.1-0.4-2-0.8-3-1.3c-0.8-0.4-1.5-0.8-2.2-1.3c-0.6-0.4-1.2-0.9-1.8-1.3c-0.5-0.4-1-0.9-1.5-1.3c-0.5-0.4-0.9-0.9-1.3-1.3
		c-0.4-0.4-0.8-0.9-1.1-1.3c-0.4-0.5-0.7-0.9-1-1.3c-0.3-0.5-0.6-0.9-0.9-1.3c-0.3-0.5-0.6-0.9-0.8-1.3c-0.3-0.5-0.5-0.9-0.7-1.3
		c-0.3-0.7-0.5-1.1-0.6-1.3c0-0.1-0.1-0.2-0.1-0.2c3-0.4,5.8-0.3,8.3,0.2C212.4,45.6,214.1,46,215.6,46.6L215.6,46.6z"/>
	<path class="st0" d="M192.1,19.3c-1.5,0.2-3,0.1-4.4,0c-1.7-0.1-3.2-0.5-4.7-0.9c-0.9-0.3-1.7-0.6-2.4-0.9
		c-0.6-0.3-1.2-0.6-1.8-0.9c-0.5-0.3-1-0.6-1.5-0.9c-0.5-0.3-0.9-0.6-1.3-0.9c-0.4-0.3-0.8-0.6-1.1-0.9c-0.4-0.3-0.7-0.6-1-0.9
		c-0.3-0.3-0.6-0.6-0.9-0.9c-0.3-0.3-0.6-0.6-0.8-0.9c-0.3-0.4-0.6-0.7-0.8-0.9c-0.4-0.5-0.6-0.9-0.6-0.9c0.1,0,0.1,0,0.2-0.1
		c1.4-0.5,2.8-0.7,4.1-0.9c2.5-0.4,4.9-0.4,7.1,0c1.3,0.2,2.5,0.6,3.6,0.9c0.8,0.3,1.6,0.6,2.4,0.9c0.7,0.3,1.3,0.6,1.9,0.9
		c0.6,0.3,1.1,0.6,1.6,0.9c0.5,0.3,1,0.6,1.4,0.9c0.4,0.3,0.9,0.6,1.3,0.9c0.4,0.3,0.8,0.6,1.1,0.9c0.4,0.3,0.7,0.6,1,0.9
		c0.4,0.3,0.7,0.7,0.9,0.9c0.4,0.4,0.6,0.7,0.9,0.9c0.2,0.2,0.3,0.4,0.3,0.4c-0.6,0.2-1.2,0.4-1.9,0.5
		C195.1,18.8,193.6,19.2,192.1,19.3L192.1,19.3z"/>
</g>
</svg>
