<svg width="706" height="328" viewBox="0 0 706 328" fill="none" xmlns="http://www.w3.org/2000/svg">
<path d="M159.11 77.24C111.36 77.24 72.65 115.95 72.65 163.69C72.65 211.43 111.36 250.14 159.11 250.14C206.86 250.14 245.58 211.43 245.58 163.69C245.58 115.95 206.86 77.24 159.11 77.24ZM158.72 86.77C173.58 86.77 185.62 98.81 185.62 113.66C185.62 128.51 173.57 140.55 158.72 140.55C143.87 140.55 131.83 128.51 131.83 113.66C131.83 98.81 143.87 86.77 158.72 86.77V86.77ZM155.14 148.34C157.54 145.93 161.44 145.93 163.85 148.34C166.25 150.74 166.25 154.64 163.85 157.04C161.44 159.45 157.54 159.45 155.14 157.04C152.74 154.64 152.74 150.75 155.14 148.34ZM152.46 168.43C150.05 170.83 146.16 170.83 143.75 168.43C141.35 166.03 141.35 162.13 143.75 159.72C146.16 157.32 150.05 157.32 152.46 159.72C154.85 162.13 154.85 166.02 152.46 168.43ZM165.77 158.97C168.18 156.56 172.08 156.56 174.48 158.97C176.88 161.37 176.88 165.27 174.48 167.67C172.08 170.07 168.18 170.07 165.77 167.67C163.38 165.27 163.38 161.37 165.77 158.97ZM79.75 150.42C79.75 135.57 91.79 123.53 106.64 123.53C121.49 123.53 133.54 135.57 133.54 150.42C133.54 165.27 121.49 177.32 106.64 177.32C91.79 177.32 79.75 165.28 79.75 150.42ZM127.55 234.82C112.69 234.82 100.66 222.78 100.66 207.92C100.66 193.06 112.7 181.03 127.55 181.03C142.4 181.03 154.44 193.07 154.44 207.92C154.44 222.77 142.39 234.82 127.55 234.82V234.82ZM154.39 179.05C151.98 176.65 151.98 172.76 154.39 170.35C156.79 167.94 160.69 167.94 163.09 170.35C165.49 172.76 165.49 176.65 163.09 179.05C160.68 181.45 156.79 181.45 154.39 179.05ZM189.9 234.82C175.05 234.82 163.01 222.78 163.01 207.92C163.01 193.06 175.05 181.03 189.9 181.03C204.75 181.03 216.8 193.07 216.8 207.92C216.8 222.77 204.76 234.82 189.9 234.82V234.82ZM211.59 177.32C196.73 177.32 184.69 165.28 184.69 150.42C184.69 135.56 196.74 123.53 211.59 123.53C226.44 123.53 238.48 135.57 238.48 150.42C238.48 165.27 226.43 177.32 211.59 177.32V177.32Z" fill="white"/>
<path d="M287.83 159.38L256.99 145.55C253.86 128.52 246.43 113.01 235.83 100.17L242.08 83.53C242.18 83.19 242.38 82.12 241.47 81.2C240.36 80.08 238.97 80.58 238.97 80.58L222.55 86.83C209.67 76.13 194.08 68.6 176.95 65.43L163.1 34.92C163.07 34.87 161.88 32.43 158.93 32.43C155.98 32.43 154.83 34.94 154.83 34.94L141.22 65.29C123.83 68.36 108 75.91 94.9601 86.73L79.1301 80.79C79.1301 80.79 77.7901 80.26 76.6701 81.37C75.5501 82.48 76.0401 83.86 76.0401 83.86L75.9701 83.78L82.0101 99.63C71.0701 112.7 63.4101 128.61 60.3201 146.1L30.4401 159.66C30.4401 159.66 27.9301 160.93 27.9301 163.92C27.9301 166.91 30.4401 168 30.4401 168L60.3401 181.4C63.4701 198.89 71.1701 214.81 82.1401 227.88L76.1901 243.75V243.73C76.1901 243.73 75.6701 245.07 76.7901 246.19C77.6801 247.07 78.7301 246.94 79.1201 246.85L95.1201 240.75C108.16 251.53 123.99 259.06 141.36 262.1L155.07 292.28C155.07 292.28 156.18 294.79 159.16 294.79C162.14 294.79 163.47 292.29 163.47 292.28L177.09 261.9C194.23 258.71 209.84 251.15 222.7 240.41L239.19 246.6C239.19 246.6 240.53 247.13 241.64 246.02C242.53 245.12 242.39 244.08 242.3 243.69L235.97 227.04C246.51 214.21 253.92 198.7 257.02 181.69L287.84 167.69C287.84 167.69 290.35 166.47 290.35 163.49C290.35 160.51 287.84 159.38 287.84 159.38H287.83ZM158.7 257.96C106.61 257.96 64.4001 215.74 64.4001 163.69C64.4001 111.64 106.61 69.4 158.7 69.4C210.79 69.4 252.99 111.61 252.99 163.69C252.99 215.77 210.77 257.96 158.7 257.96Z" fill="white"/>
<path d="M351.43 154.48C354.04 154.48 356.54 154.73 358.94 155.22C361.34 155.71 363.45 156.55 365.27 157.73C367.1 158.92 368.55 160.49 369.65 162.41C370.75 164.36 371.3 166.76 371.3 169.67C371.3 171.28 371.04 172.86 370.52 174.39C370 175.92 369.26 177.3 368.31 178.55C367.36 179.78 366.23 180.83 364.93 181.72C363.62 182.57 362.16 183.19 360.54 183.53V183.72C364.53 184.23 367.71 185.88 370.09 188.61C372.45 191.35 373.64 194.76 373.64 198.81C373.64 199.78 373.55 200.9 373.37 202.13C373.2 203.39 372.85 204.66 372.33 205.95C371.82 207.24 371.06 208.53 370.08 209.81C369.09 211.08 367.78 212.2 366.13 213.15C364.48 214.1 362.46 214.89 360.06 215.48C357.65 216.09 354.79 216.4 351.42 216.4H325.24V154.48H351.42H351.43ZM351.43 181.62C353.81 181.62 355.86 181.34 357.59 180.79C359.33 180.24 360.77 179.5 361.93 178.54C363.09 177.58 363.95 176.46 364.53 175.2C365.11 173.93 365.4 172.57 365.4 171.12C365.4 163.37 360.74 159.5 351.43 159.5H331.14V181.63H351.43V181.62ZM351.43 211.36C353.64 211.36 355.72 211.17 357.68 210.79C359.65 210.42 361.38 209.74 362.89 208.76C364.39 207.78 365.58 206.47 366.44 204.81C367.31 203.17 367.74 201.1 367.74 198.62C367.74 194.63 366.35 191.63 363.53 189.64C360.73 187.64 356.69 186.64 351.43 186.64H331.14V211.36H351.43V211.36Z" fill="white"/>
<path d="M406.54 154.48C409.08 154.48 411.5 154.79 413.79 155.43C416.07 156.06 418.06 157.03 419.78 158.33C421.48 159.64 422.83 161.31 423.85 163.37C424.86 165.42 425.37 167.84 425.37 170.6C425.37 174.53 424.35 177.95 422.33 180.83C420.31 183.73 417.3 185.58 413.31 186.39V186.57C415.33 186.86 417.01 187.4 418.34 188.17C419.67 188.95 420.75 189.95 421.6 191.16C422.44 192.37 423.03 193.78 423.42 195.37C423.79 196.96 424.03 198.67 424.15 200.52C424.21 201.57 424.26 202.85 424.32 204.35C424.38 205.85 424.49 207.36 424.67 208.91C424.83 210.43 425.11 211.87 425.49 213.23C425.86 214.59 426.37 215.64 427 216.4H420.49C420.15 215.81 419.87 215.12 419.67 214.27C419.47 213.44 419.32 212.57 419.25 211.67C419.16 210.78 419.08 209.89 419.02 209.03C418.96 208.16 418.91 207.42 418.85 206.78C418.73 204.58 418.55 202.39 418.29 200.24C418.03 198.06 417.48 196.13 416.64 194.41C415.81 192.7 414.59 191.33 413 190.3C411.42 189.25 409.23 188.8 406.46 188.9H384.09V216.4H378.19V154.48H406.55H406.54ZM406.1 183.87C407.89 183.87 409.6 183.6 411.22 183.04C412.83 182.5 414.25 181.71 415.47 180.66C416.68 179.62 417.65 178.36 418.38 176.88C419.11 175.41 419.47 173.72 419.47 171.81C419.47 168 418.37 164.99 416.18 162.79C413.98 160.6 410.62 159.49 406.12 159.49H384.1V183.86H406.12L406.1 183.87Z" fill="white"/>
<path d="M437.45 154.48V192.81C437.45 196.41 437.85 199.45 438.66 201.96C439.47 204.47 440.66 206.53 442.22 208.12C443.78 209.71 445.69 210.85 447.95 211.57C450.2 212.31 452.74 212.67 455.58 212.67C458.42 212.67 461.04 212.31 463.29 211.57C465.55 210.85 467.46 209.71 469.02 208.12C470.58 206.52 471.76 204.47 472.57 201.96C473.38 199.45 473.79 196.41 473.79 192.81V154.48H479.69V194.11C479.69 197.29 479.24 200.3 478.34 203.17C477.44 206.02 476.02 208.52 474.09 210.66C472.15 212.81 469.67 214.49 466.63 215.74C463.59 216.98 459.9 217.61 455.58 217.61C451.26 217.61 447.64 216.98 444.6 215.74C441.57 214.49 439.08 212.81 437.14 210.66C435.21 208.52 433.79 206.02 432.89 203.17C431.99 200.3 431.55 197.29 431.55 194.11V154.48H437.44H437.45ZM450.46 149.53L459.56 137.3H466.33L454.88 149.53H450.46Z" fill="white"/>
<path d="M519.54 154.48V199.13C519.54 202.31 519.22 205.06 518.58 207.37C517.94 209.68 516.91 211.59 515.51 213.1C514.09 214.59 512.23 215.72 509.95 216.47C507.67 217.22 504.85 217.6 501.5 217.6C497.97 217.6 495.09 217.01 492.83 215.83C490.58 214.63 488.82 213.07 487.54 211.14C486.27 209.22 485.4 206.97 484.93 204.42C484.47 201.88 484.24 199.25 484.24 196.52H490.13C490.19 197.85 490.28 199.44 490.39 201.29C490.5 203.14 490.91 204.91 491.6 206.59C492.29 208.26 493.43 209.7 495.03 210.88C496.62 212.06 498.94 212.65 502.01 212.65C504.32 212.65 506.23 212.35 507.74 211.74C509.24 211.14 510.42 210.18 511.29 208.89C512.16 207.58 512.77 205.92 513.11 203.89C513.46 201.88 513.63 199.43 513.63 196.61V154.46H519.53L519.54 154.48Z" fill="white"/>
<path d="M529.98 154.48V192.81C529.98 196.41 530.38 199.45 531.2 201.96C532.01 204.47 533.19 206.53 534.75 208.12C536.31 209.71 538.22 210.85 540.48 211.57C542.73 212.31 545.27 212.67 548.1 212.67C550.93 212.67 553.57 212.31 555.82 211.57C558.08 210.85 559.99 209.71 561.55 208.12C563.11 206.52 564.3 204.47 565.11 201.96C565.92 199.45 566.33 196.41 566.33 192.81V154.48H572.22V194.11C572.22 197.29 571.76 200.3 570.88 203.17C569.97 206.02 568.56 208.52 566.62 210.66C564.69 212.81 562.2 214.49 559.16 215.74C556.12 216.98 552.44 217.61 548.1 217.61C543.76 217.61 540.17 216.98 537.13 215.74C534.1 214.49 531.61 212.81 529.67 210.66C527.73 208.52 526.31 206.02 525.42 203.17C524.52 200.3 524.07 197.29 524.07 194.11V154.48H529.97H529.98Z" fill="white"/>
<path d="M582.67 154.48V211.37H617.35V216.4H576.77V154.48H582.67V154.48Z" fill="white"/>
<path d="M653.37 154.48L677.65 216.4H671.33L663.79 197.14H635.6L628.14 216.4H621.89L646.79 154.48H653.38H653.37ZM661.78 192.12L649.82 160.36L637.42 192.12H661.78Z" fill="white"/>
<path d="M326.55 110.39H324.83V142.59H344.87V140.88H326.55V110.39Z" fill="white"/>
<path d="M365.27 140.88C364.99 140.91 364.69 140.93 364.36 140.94C364.04 140.96 363.78 140.94 363.55 140.87C363.33 140.81 363.17 140.72 363.05 140.59C362.94 140.46 362.89 140.22 362.89 139.89V125.51C362.86 124.22 362.62 123.13 362.19 122.25C361.74 121.37 361.15 120.65 360.44 120.12C359.74 119.58 358.9 119.19 357.93 118.96C356.97 118.75 355.98 118.64 355.01 118.64C353.57 118.64 352.28 118.85 351.2 119.25C350.11 119.65 349.17 120.21 348.42 120.92C347.67 121.62 347.08 122.47 346.67 123.46C346.27 124.42 346.04 125.47 345.99 126.58L345.97 127.02H347.67L347.7 126.63C347.83 124.64 348.53 123.08 349.75 122.01C350.99 120.92 352.76 120.37 355.01 120.37C356.43 120.37 357.57 120.56 358.41 120.94C359.23 121.31 359.83 121.76 360.24 122.32C360.66 122.89 360.92 123.5 361.02 124.16C361.13 124.88 361.19 125.57 361.19 126.2C361.19 126.95 361.05 127.52 360.76 127.9C360.48 128.28 360.04 128.57 359.4 128.76C358.71 128.97 357.82 129.11 356.74 129.18C355.69 129.26 354.43 129.33 352.99 129.41H352.75C351.83 129.48 350.89 129.61 349.88 129.8C348.89 130 348 130.36 347.23 130.87C346.43 131.41 345.8 132.11 345.31 133.02C344.82 133.93 344.58 135.13 344.58 136.6C344.58 138.76 345.33 140.41 346.82 141.49C348.26 142.56 350.19 143.09 352.56 143.09C353.76 143.09 354.9 142.92 355.93 142.6C356.96 142.29 357.89 141.85 358.71 141.3C359.53 140.74 360.19 140.12 360.74 139.4C360.91 139.18 361.06 138.96 361.2 138.73V139.99C361.2 141 361.51 141.7 362.11 142.06C362.65 142.42 363.28 142.59 364.04 142.59H365.77V140.83L365.3 140.89L365.27 140.88ZM346.58 138.38C346.37 137.76 346.27 137.18 346.27 136.59C346.27 135.47 346.45 134.56 346.8 133.87C347.14 133.19 347.61 132.65 348.2 132.27C348.81 131.87 349.51 131.6 350.27 131.46C351.06 131.29 351.88 131.19 352.79 131.14C353.66 131.07 354.56 131.04 355.47 131.01C356.35 130.98 357.21 130.91 358.09 130.79C358.9 130.67 359.62 130.5 360.28 130.26C360.62 130.14 360.91 129.99 361.17 129.81V133.1C361.17 134.13 360.98 135.18 360.61 136.2C360.23 137.2 359.67 138.09 358.94 138.85C358.2 139.62 357.27 140.24 356.19 140.71C355.11 141.18 353.85 141.42 352.45 141.42C351.26 141.42 350.27 141.27 349.49 140.98C348.72 140.71 348.08 140.34 347.59 139.89C347.11 139.45 346.78 138.96 346.58 138.4V138.38Z" fill="white"/>
</svg>
