<svg width="827" height="319" viewBox="0 0 827 319" fill="none" xmlns="http://www.w3.org/2000/svg">
<path d="M116.03 157.21H109.62L77.6 118.6V194.75H41.66V66.48H79.55L113.36 109.89L146.98 66.48H184.88V194.75H148.94V118.25L116.03 157.21Z" fill="white"/>
<path d="M210.85 194.75V66.48H311.01V96.89H246.6V115.22H307.27V144.76H246.6V164.15H313.49V194.75H210.84H210.85ZM275.07 57.05H245.53V55.98L259.59 26.44H295V28.05L275.07 57.04V57.05Z" fill="white"/>
<path d="M398.54 85.69L410.28 66.48H449.25V68.43L408.85 130.17L451.91 193.33V194.75H412.59L400.68 176.96L386.44 153.13L371.85 177.32L360.11 194.75H320.79V193.33L363.84 130.17L323.46 68.43V66.48H362.6L374.52 86.05L386.44 108.82L398.54 85.69Z" fill="white"/>
<path d="M500.83 66.48H464.72V194.75H500.83V66.48Z" fill="white"/>
<path d="M589.97 198.14C539.8 198.14 519.88 166.3 519.88 131.59C519.88 96.88 541.76 63.63 589.97 63.63C608.66 63.63 625.01 70.03 639.78 84.09L617.37 105.97C607.94 97.25 598.68 94.94 589.97 94.94C565.06 94.94 555.81 115.04 555.81 131.77C555.81 148.5 564.71 167.35 589.97 167.35C598.87 167.35 610.96 163.61 620.21 154.18L641.56 178.02C626.97 192.61 609.72 198.13 589.97 198.13" fill="white"/>
<path d="M716.99 197.95C675 197.95 645.64 173.58 645.64 130.7C645.64 87.82 675 63.27 716.99 63.27C758.98 63.27 788.16 88 788.16 130.7C788.16 173.4 758.8 197.95 716.99 197.95ZM716.99 94.4C696.17 94.4 681.94 109.35 681.94 130.7C681.94 152.05 696.34 166.81 716.99 166.81C737.64 166.81 751.86 151.87 751.86 130.7C751.86 108.47 738.34 94.4 716.99 94.4Z" fill="white"/>
<path d="M78.75 252.52C78.75 263.3 72.1 274.02 57.19 274.02H40.24V230.9H57.19C72.16 230.9 78.75 241.67 78.75 252.52M57.19 266.2C66.8 266.2 70.68 259.36 70.68 252.52C70.68 245.68 66.74 238.6 57.19 238.6H48.32V266.2H57.19V266.2Z" fill="white"/>
<path d="M86.5 274.02V230.9H118.78V238.78H94.57V248.7H117.91V256.28H94.57V266.01H118.78V274.02H86.5Z" fill="white"/>
<path d="M142.91 236.94C136.81 236.94 133.98 239.58 133.98 242.23C133.98 245.99 138.41 246.98 143.59 247.65C152.65 248.82 160.96 251.04 160.96 261.38C160.96 271 152.46 275.12 142.85 275.12C134.04 275.12 127.21 272.41 124.06 264.52L130.83 261.01C132.8 265.75 137.67 267.85 142.97 267.85C148.27 267.85 152.89 266.07 152.89 261.38C152.89 257.32 148.64 255.72 142.91 255.04C134.1 254.05 125.97 251.59 125.97 241.97C125.97 233.91 134.72 229.84 142.66 229.84C149.43 229.84 156.27 231.75 159.6 238.4L153.13 241.73C151.65 239.26 147.58 236.93 142.9 236.93" fill="white"/>
<path d="M164.27 238.29V230.9H199.76V238.29H186.08V274.02H177.95V238.29H164.27Z" fill="white"/>
<path d="M213.98 230.9H205.9V274.02H213.98V230.9Z" fill="white"/>
<path d="M253.7 230.9H261.84V274.02H255.25L232.33 245.31V274.02H224.2V230.9H230.79L253.7 259.91V230.9Z" fill="white"/>
<path d="M313.81 252.28C313.81 263.55 307.04 275.01 291.69 275.01C276.34 275.01 269.51 264.11 269.51 252.77C269.51 239.15 279.31 230.04 291.87 230.04C306.41 230.23 313.8 241.25 313.8 252.29M291.68 267.56C302.09 267.56 305.79 259.62 305.79 252.41C305.79 245.2 301.6 237.62 291.86 237.44C282.99 237.44 277.51 243.91 277.51 252.22C277.51 259.49 281.26 267.56 291.68 267.56Z" fill="white"/>
<path d="M374.84 252.52C374.84 263.3 368.19 274.02 353.28 274.02H336.34V230.9H353.28C368.25 230.9 374.84 241.67 374.84 252.52M353.28 266.2C362.89 266.2 366.77 259.36 366.77 252.52C366.77 245.68 362.83 238.6 353.28 238.6H344.41V266.2H353.28Z" fill="white"/>
<path d="M382.58 274.02V230.9H414.87V238.78H390.66V248.7H414V256.28H390.66V266.01H414.87V274.02H382.58Z" fill="white"/>
<path d="M438.44 230.78H469.42V238.6H446.57V250.55H468.2V258.06H446.57V274.02H438.44V230.78Z" fill="white"/>
<path d="M485.13 230.9H477.05V274.02H485.13V230.9Z" fill="white"/>
<path d="M503.48 266.51H525.66V274.02H495.34V230.9H503.48V266.51Z" fill="white"/>
<path d="M555.27 261.52H553.67L539.93 242.73V274.08H531.8V230.96H541.16L554.65 249.5L568.15 230.96H577.45V274.08H569.32V242.79L555.27 261.52Z" fill="white"/>
<path d="M595.23 265.89L591.53 274.02H582.72L602.06 230.9H610.93L630.28 274.02H621.41L617.77 265.89H595.23V265.89ZM598.5 258.31H614.51L606.5 239.95L598.49 258.31H598.5Z" fill="white"/>
<path d="M654.42 275.01C638.41 275.01 631.57 263.92 631.57 252.77C631.57 241.62 638.78 230.04 654.42 230.04C660.33 230.04 665.82 232.19 670.26 236.62L664.84 241.86C661.94 239.09 658.18 237.79 654.42 237.79C643.95 237.79 639.58 245.56 639.58 252.76C639.58 259.96 643.83 267.36 654.42 267.36C658.18 267.36 662.37 265.88 665.26 262.98L670.81 268.58C666.37 273.02 660.64 274.99 654.42 274.99" fill="white"/>
<path d="M685.22 230.9H677.14V274.02H685.22V230.9Z" fill="white"/>
<path d="M737.2 252.28C737.2 263.55 730.42 275.01 715.08 275.01C699.74 275.01 692.9 264.11 692.9 252.77C692.9 239.16 702.7 230.04 715.26 230.04C729.8 230.22 737.2 241.25 737.2 252.28M715.08 267.55C725.49 267.55 729.19 259.61 729.19 252.4C729.19 245.19 724.99 237.61 715.26 237.43C706.39 237.43 700.92 243.9 700.92 252.21C700.92 259.48 704.67 267.55 715.09 267.55M718.23 226.28H711.57V225.91L716.13 217.54H725V217.85L718.23 226.28Z" fill="white"/>
<path d="M774.33 230.9H782.46V274.02H775.87L752.95 245.31V274.02H744.81V230.9H751.41L774.33 259.91V230.9Z" fill="white"/>
</svg>
