<svg width="239" height="246" viewBox="0 0 239 246" fill="none" xmlns="http://www.w3.org/2000/svg">
<path d="M143.3 40.3101C143.3 51.5001 134.23 60.57 123.04 60.57C111.85 60.57 102.78 51.5001 102.78 40.3101C102.78 29.1201 111.85 20.05 123.04 20.05C134.23 20.05 143.3 29.1201 143.3 40.3101ZM123.04 190.25C113.25 190.25 105.31 198.19 105.31 207.98C105.31 217.77 113.25 225.71 123.04 225.71C132.83 225.71 140.77 217.77 140.77 207.98C140.77 198.19 132.84 190.25 123.04 190.25ZM206.87 136.81C199.88 136.81 194.21 131.14 194.21 124.15C194.21 117.16 199.88 111.49 206.87 111.49C213.86 111.49 219.53 117.16 219.53 124.15C219.53 131.14 213.86 136.81 206.87 136.81ZM59.46 124.15C59.46 112.96 50.39 103.89 39.2 103.89C28.01 103.89 18.94 112.96 18.94 124.15C18.94 135.34 28.01 144.41 39.2 144.41C50.39 144.41 59.46 135.34 59.46 124.15V124.15ZM78.08 50.5401C85.99 58.4501 85.99 71.2801 78.08 79.1901C70.17 87.1001 57.34 87.1001 49.43 79.1901C41.52 71.2801 41.52 58.4501 49.43 50.5401C57.34 42.6301 70.17 42.6301 78.08 50.5401V50.5401ZM171.57 172.69C165.63 178.63 165.63 188.24 171.57 194.18C177.51 200.12 187.12 200.12 193.06 194.18C198.99 188.24 198.99 178.63 193.06 172.69C187.13 166.76 177.51 166.76 171.57 172.69ZM189.48 72.0401C185.52 76.0001 179.11 76.0001 175.15 72.0401C171.19 68.0801 171.19 61.67 175.15 57.71C179.1 53.75 185.52 53.75 189.48 57.71C193.43 61.67 193.43 68.0801 189.48 72.0401ZM78.08 169.11C70.17 161.19 57.34 161.2 49.43 169.11C41.52 177.02 41.52 189.85 49.43 197.76C57.34 205.67 70.17 205.67 78.08 197.76C85.99 189.85 85.99 177.02 78.08 169.11Z" fill="white"/>
</svg>
