<svg width="239" height="246" viewBox="0 0 239 246" fill="none" xmlns="http://www.w3.org/2000/svg">
<path d="M21.25 29.8101V215.95H217.23V29.8101H21.25ZM62.83 196.54H41.4V178.11H62.83V196.54ZM62.83 164.4H41.4V145.96H62.83V164.4ZM62.83 132.09H41.4V113.66H62.83V132.09ZM62.83 100.1H41.4V81.6701H62.83V100.1V100.1ZM62.83 67.9501H41.4V49.5201H62.83V67.9501ZM158.08 196.54H82.12V132.24H158.08V196.54V196.54ZM158.08 113.81H82.12V49.5201H158.08V113.82V113.81ZM198.8 196.54H177.37V178.11H198.8V196.54ZM198.8 164.4H177.37V145.96H198.8V164.4ZM198.8 132.09H177.37V113.66H198.8V132.09ZM198.8 100.1H177.37V81.6701H198.8V100.1V100.1ZM198.8 67.9501H177.37V49.5201H198.8V67.9501Z" fill="white"/>
</svg>
