<svg width="192" height="195" viewBox="0 0 192 195" fill="none" xmlns="http://www.w3.org/2000/svg">
<path fill-rule="evenodd" clip-rule="evenodd" d="M101.6 52.37C78.1601 52.37 59.1001 71.44 59.1001 94.87C59.1001 102.61 61.2501 110.23 65.3201 116.91L66.4201 118.72L62.1701 134.57L78.1101 130.3L79.9101 131.37C86.5101 135.3 94.0101 137.38 101.61 137.38C125.05 137.38 144.11 118.31 144.11 94.88C144.11 71.45 125.04 52.38 101.61 52.38L101.6 52.37ZM126.57 110.92C124.99 114.76 121.06 117.23 117.08 117.98C113.27 118.7 110.13 117.49 106.61 116.33C103.47 115.29 100.43 113.78 97.6101 112.05C91.9701 108.6 87.1001 103.97 83.1901 98.66C81.9901 97.03 80.8901 95.34 79.8601 93.6C78.5101 91.29 77.3001 88.86 76.6701 86.26C76.4101 85.18 76.2701 84.06 76.2601 82.94C76.2101 79 77.7201 75.02 80.8401 72.48C82.6501 71.01 85.3201 70.37 87.3501 71.51C89.5601 72.76 90.7001 75.9 91.7201 78.1C92.5201 79.82 93.4301 82.09 93.1001 84.02C92.7701 85.96 91.2401 87.59 90.0201 89.02C89.2001 89.99 89.0701 90.81 89.7601 91.86C93.8001 98.59 99.4101 103.48 106.73 106.39C107.73 106.79 108.5 106.67 109.15 105.87C110.41 104.31 111.66 101.26 113.61 100.46C116.15 99.42 118.96 100.86 121.12 102.15C123.13 103.35 126.49 104.83 127.03 107.31C127.29 108.51 127.06 109.78 126.59 110.91L126.57 110.92Z" fill="#2977BC"/>
<path fill-rule="evenodd" clip-rule="evenodd" d="M97.45 5.7C47.06 5.7 6.20996 46.55 6.20996 96.94C6.20996 147.33 47.06 188.18 97.45 188.18C147.84 188.18 188.69 147.33 188.69 96.94C188.69 46.55 147.84 5.7 97.45 5.7ZM101.6 147.28C92.92 147.28 84.36 145.09 76.69 140.93L48.16 148.57L55.77 120.19C51.46 112.42 49.2 103.71 49.2 94.87C49.2 65.97 72.71 42.46 101.61 42.46C130.51 42.46 154.02 65.97 154.02 94.87C154.02 123.77 130.51 147.28 101.61 147.28H101.6Z" fill="#2977BC"/>
</svg>
