<svg width="192" height="195" viewBox="0 0 192 195" fill="none" xmlns="http://www.w3.org/2000/svg">
<path d="M90.3999 6.81C94.1599 6.81 97.9299 6.81 101.69 6.81C102.14 6.91 102.59 7.06 103.05 7.1C117.12 8.15 130.28 12.19 142.28 19.57C165.6 33.93 179.96 54.57 184.99 81.57C185.6 84.85 185.92 88.18 186.38 91.49V102.78C186.28 103.29 186.15 103.8 186.07 104.32C185.48 108.33 185.11 112.38 184.27 116.33C175.81 156.24 140.5 185.98 99.8199 187.38C76.0699 188.2 54.8899 181.09 37.0299 165.36C13.7899 144.89 3.52995 118.89 6.20995 88.08C7.91995 68.45 15.7799 51.24 29.0199 36.64C42.9499 21.29 60.1699 11.72 80.6499 8.17C83.8799 7.61 87.1499 7.26 90.3999 6.81V6.81ZM93.6999 57.2C93.6999 57.34 93.6899 57.49 93.6799 57.63C93.0299 57.63 92.3899 57.6 91.7399 57.63C79.4199 58.21 67.0799 58.61 54.7699 59.46C47.7399 59.94 43.0299 64.39 41.6799 71.27C39.5299 82.17 39.2599 93.23 39.8199 104.29C40.1399 110.67 40.7299 117.08 41.8199 123.37C42.8999 129.59 47.0899 133.31 53.3099 134.51C55.8999 135.01 58.5399 135.35 61.1699 135.52C85.7299 137.06 110.28 137.19 134.82 135.2C144.96 134.38 149.58 130.13 151.01 120.16C152.44 110.13 152.88 100.01 152.31 89.9C151.95 83.52 151.37 77.12 150.28 70.83C149.24 64.84 145.21 61.18 139.26 59.82C137.49 59.42 135.67 59.13 133.86 59.04C120.48 58.39 107.09 57.8 93.7099 57.19L93.6999 57.2Z" fill="#2977BC"/>
<path d="M84.8601 114.03V80.25C94.6501 85.89 104.25 91.41 114.18 97.13C104.32 102.81 94.7001 108.35 84.8601 114.02V114.03Z" fill="#2977BC"/>
</svg>
