<svg width="139" height="139" viewBox="0 0 139 139" fill="none" xmlns="http://www.w3.org/2000/svg">
<path fill-rule="evenodd" clip-rule="evenodd" d="M69.32 0.819824C31.16 0.819824 0.22998 31.7502 0.22998 69.9102C0.22998 108.07 31.16 139 69.32 139C107.48 139 138.41 108.07 138.41 69.9102C138.41 31.7502 107.48 0.819824 69.32 0.819824ZM89.57 40.21C89.57 40.82 89.08 41.3101 88.47 41.3101H79.69C77.54 41.3101 75.79 43.06 75.79 45.21V54.3999H88.28C88.93 54.3999 89.43 54.9501 89.38 55.6001L88.28 68.5601C88.23 69.1301 87.75 69.5698 87.18 69.5698H75.79V112.58C75.79 113.19 75.3 113.68 74.69 113.68H58.98C58.37 113.68 57.88 113.19 57.88 112.58V69.5698H50.02C49.41 69.5698 48.92 69.0802 48.92 68.4702V55.5098C48.92 54.8998 49.41 54.4102 50.02 54.4102H57.88V41.9199C57.88 33.2099 64.94 26.1602 73.64 26.1602H88.48C89.09 26.1602 89.58 26.6498 89.58 27.2598V40.2202L89.57 40.21Z" fill="#2D7BBF"/>
</svg>
