<svg width="139" height="139" viewBox="0 0 139 139" fill="none" xmlns="http://www.w3.org/2000/svg">
<path d="M87.9301 32.75H51.3801C40.9701 32.75 32.4901 41.2201 32.4901 51.6401V88.1899C32.4901 98.5999 40.9601 107.08 51.3801 107.08H87.9301C98.3401 107.08 106.82 98.6099 106.82 88.1899V51.6401C106.82 41.2301 98.3501 32.75 87.9301 32.75ZM70.0301 92.46C57.6001 92.46 47.48 82.3502 47.48 69.9102C47.48 57.4702 57.6001 47.3599 70.0301 47.3599C82.4601 47.3599 92.5801 57.4702 92.5801 69.9102C92.5801 82.3502 82.4701 92.46 70.0301 92.46ZM93.8901 51.2202C90.9301 51.2202 88.5201 48.8201 88.5201 45.8501C88.5201 42.8801 90.9201 40.48 93.8901 40.48C96.8601 40.48 99.2601 42.8801 99.2601 45.8501C99.2601 48.8201 96.8601 51.2202 93.8901 51.2202Z" fill="#2D7BBF"/>
<path d="M70.0301 55.4702C62.0701 55.4702 55.5901 61.9502 55.5901 69.9102C55.5901 77.8702 62.0701 84.3501 70.0301 84.3501C77.9901 84.3501 84.47 77.8702 84.47 69.9102C84.47 61.9502 77.9901 55.4702 70.0301 55.4702Z" fill="#2D7BBF"/>
<path d="M69.4301 0.819824C31.2701 0.819824 0.340088 31.7502 0.340088 69.9102C0.340088 108.07 31.2701 139 69.4301 139C107.59 139 138.52 108.07 138.52 69.9102C138.52 31.7502 107.59 0.819824 69.4301 0.819824ZM115.43 88.1899C115.43 103.35 103.09 115.69 87.9301 115.69H51.3801C36.2201 115.69 23.8801 103.35 23.8801 88.1899V51.6401C23.8801 36.4801 36.2201 24.1401 51.3801 24.1401H87.9301C103.09 24.1401 115.43 36.4801 115.43 51.6401V88.1899Z" fill="#2D7BBF"/>
</svg>
