<svg width="508" height="206" viewBox="0 0 508 206" fill="none" xmlns="http://www.w3.org/2000/svg">
<path d="M102.84 35.5C65.62 35.5 35.45 65.67 35.45 102.88C35.45 140.09 65.62 170.26 102.84 170.26C140.06 170.26 170.23 140.09 170.23 102.88C170.23 65.67 140.05 35.5 102.84 35.5V35.5ZM102.54 42.93C114.12 42.93 123.51 52.31 123.51 63.89C123.51 75.47 114.12 84.85 102.54 84.85C90.96 84.85 81.58 75.47 81.58 63.89C81.58 52.31 90.96 42.93 102.54 42.93ZM99.75 90.92C101.62 89.04 104.66 89.04 106.54 90.92C108.41 92.79 108.41 95.83 106.54 97.7C104.66 99.58 101.63 99.58 99.75 97.7C97.88 95.83 97.88 92.79 99.75 90.92ZM97.66 106.58C95.78 108.45 92.75 108.45 90.87 106.58C89 104.71 89 101.67 90.87 99.79C92.75 97.92 95.78 97.92 97.66 99.79C99.53 101.67 99.53 104.7 97.66 106.58ZM108.03 99.21C109.91 97.33 112.94 97.33 114.82 99.21C116.69 101.08 116.69 104.12 114.82 105.99C112.95 107.86 109.91 107.86 108.03 105.99C106.17 104.12 106.17 101.08 108.03 99.21ZM40.99 92.55C40.99 80.98 50.38 71.59 61.95 71.59C73.52 71.59 82.92 80.98 82.92 92.55C82.92 104.12 73.53 113.51 61.95 113.51C50.37 113.51 40.99 104.13 40.99 92.55V92.55ZM78.25 158.33C66.67 158.33 57.29 148.95 57.29 137.37C57.29 125.79 66.67 116.42 78.25 116.42C89.83 116.42 99.21 125.8 99.21 137.37C99.21 148.94 89.82 158.33 78.25 158.33ZM99.17 114.86C97.29 112.99 97.29 109.96 99.17 108.08C101.04 106.2 104.08 106.2 105.95 108.08C107.82 109.96 107.82 112.99 105.95 114.86C104.07 116.73 101.04 116.73 99.17 114.86ZM126.85 158.33C115.27 158.33 105.89 148.95 105.89 137.37C105.89 125.79 115.28 116.42 126.85 116.42C138.42 116.42 147.82 125.8 147.82 137.37C147.82 148.94 138.43 158.33 126.85 158.33ZM143.76 113.51C132.18 113.51 122.79 104.13 122.79 92.55C122.79 80.97 132.18 71.59 143.76 71.59C155.34 71.59 164.72 80.98 164.72 92.55C164.72 104.12 155.33 113.51 143.76 113.51Z" fill="white" stroke="#575756" stroke-miterlimit="10"/>
<path d="M203.17 99.5301L179.13 88.7501C176.69 75.4801 170.9 63.3801 162.64 53.3801L167.51 40.4101C167.59 40.1401 167.75 39.3101 167.03 38.5901C166.16 37.7201 165.08 38.1001 165.08 38.1001L152.28 42.9701C142.24 34.6301 130.09 28.7601 116.74 26.2901L105.94 2.51007C105.94 2.51007 104.99 0.570068 102.69 0.570068C100.39 0.570068 99.5 2.53007 99.5 2.53007L88.89 26.1901C75.34 28.5801 62.99 34.4701 52.83 42.9001L40.49 38.2701C40.49 38.2701 39.44 37.8501 38.57 38.7201C37.7 39.5901 38.08 40.6601 38.08 40.6601L38.03 40.6001L42.73 52.9501C34.21 63.1401 28.23 75.5401 25.83 89.1701L2.54002 99.7401C2.54002 99.7401 0.580017 100.73 0.580017 103.06C0.580017 105.39 2.54002 106.24 2.54002 106.24L25.84 116.68C28.28 130.31 34.28 142.72 42.83 152.9L38.19 165.27C38.19 165.27 37.78 166.3 38.65 167.17C39.34 167.86 40.16 167.76 40.46 167.68L52.93 162.93C63.09 171.33 75.43 177.2 88.97 179.57L99.65 203.09C99.65 203.09 100.51 205.04 102.83 205.04C105.15 205.04 106.19 203.09 106.19 203.09L116.8 179.41C130.16 176.93 142.33 171.03 152.35 162.66L165.2 167.48C165.2 167.48 166.24 167.89 167.11 167.03C167.8 166.33 167.69 165.52 167.62 165.22L162.68 152.24C170.89 142.24 176.67 130.15 179.09 116.89L203.11 105.98C203.11 105.98 205.06 105.03 205.06 102.71C205.06 100.39 203.11 99.5101 203.11 99.5101L203.17 99.5301ZM102.53 176.36C61.93 176.36 29.04 143.46 29.04 102.88C29.04 62.3001 61.94 29.3901 102.53 29.3901C143.12 29.3901 176.02 62.2901 176.02 102.88C176.02 143.47 143.11 176.36 102.53 176.36Z" fill="white" stroke="#575756" stroke-miterlimit="10"/>
<path d="M252.74 95.71C254.78 95.71 256.72 95.9 258.59 96.28C260.46 96.66 262.1 97.3199 263.53 98.2299C264.95 99.1599 266.09 100.38 266.94 101.88C267.8 103.4 268.23 105.27 268.23 107.54C268.23 108.8 268.02 110.03 267.62 111.22C267.21 112.41 266.64 113.49 265.9 114.47C265.16 115.43 264.28 116.25 263.27 116.94C262.25 117.6 261.11 118.08 259.85 118.35V118.5C262.96 118.9 265.44 120.18 267.29 122.31C269.13 124.45 270.06 127.1 270.06 130.26C270.06 131.01 269.99 131.89 269.85 132.85C269.72 133.83 269.45 134.82 269.04 135.83C268.64 136.83 268.05 137.84 267.29 138.84C266.52 139.83 265.49 140.7 264.21 141.45C262.92 142.19 261.35 142.81 259.48 143.27C257.6 143.75 255.37 143.99 252.75 143.99H232.34V95.7299H252.75L252.74 95.71ZM252.74 116.87C254.6 116.87 256.19 116.65 257.54 116.22C258.89 115.79 260.02 115.21 260.92 114.47C261.82 113.72 262.49 112.85 262.95 111.86C263.4 110.87 263.63 109.81 263.63 108.68C263.63 102.64 260 99.6199 252.74 99.6199H236.93V116.87H252.74V116.87ZM252.74 140.05C254.46 140.05 256.08 139.9 257.61 139.6C259.14 139.31 260.49 138.78 261.67 138.02C262.84 137.26 263.77 136.24 264.44 134.94C265.12 133.66 265.45 132.05 265.45 130.11C265.45 127 264.36 124.67 262.17 123.11C259.99 121.55 256.84 120.77 252.74 120.77H236.93V140.04H252.74V140.05Z" fill="white" stroke="#575756" stroke-miterlimit="10"/>
<path d="M295.69 95.7102C297.67 95.7102 299.56 95.9502 301.34 96.4502C303.12 96.9402 304.67 97.7002 306 98.7102C307.32 99.7302 308.38 101.04 309.17 102.64C309.96 104.24 310.36 106.12 310.36 108.27C310.36 111.33 309.57 114 307.99 116.24C306.42 118.5 304.07 119.94 300.96 120.57V120.71C302.53 120.94 303.85 121.36 304.88 121.96C305.92 122.57 306.76 123.35 307.42 124.29C308.07 125.24 308.54 126.33 308.84 127.57C309.13 128.81 309.32 130.14 309.41 131.58C309.46 132.4 309.5 133.4 309.55 134.56C309.6 135.73 309.69 136.91 309.83 138.11C309.96 139.3 310.17 140.42 310.47 141.48C310.76 142.54 311.16 143.36 311.65 143.95H306.58C306.32 143.49 306.1 142.95 305.94 142.29C305.78 141.64 305.67 140.97 305.61 140.26C305.54 139.56 305.48 138.87 305.43 138.2C305.38 137.52 305.34 136.95 305.3 136.44C305.2 134.72 305.06 133.02 304.86 131.34C304.65 129.64 304.23 128.13 303.57 126.8C302.92 125.47 301.98 124.4 300.73 123.6C299.5 122.78 297.79 122.43 295.63 122.51H278.19V143.94H273.59V95.6802H295.69V95.7102ZM295.35 118.62C296.75 118.62 298.08 118.41 299.34 117.97C300.6 117.55 301.7 116.93 302.65 116.12C303.6 115.31 304.35 114.33 304.91 113.18C305.48 112.04 305.76 110.72 305.76 109.23C305.76 106.26 304.9 103.92 303.19 102.2C301.48 100.49 298.86 99.6302 295.35 99.6302H278.18V118.63H295.35V118.62Z" fill="white" stroke="#575756" stroke-miterlimit="10"/>
<path d="M319.78 95.7101V125.58C319.78 128.38 320.09 130.75 320.73 132.71C321.36 134.67 322.29 136.27 323.5 137.51C324.72 138.75 326.21 139.64 327.97 140.2C329.72 140.77 331.7 141.05 333.92 141.05C336.14 141.05 338.17 140.77 339.93 140.2C341.69 139.64 343.18 138.75 344.39 137.51C345.61 136.26 346.53 134.66 347.16 132.71C347.79 130.75 348.11 128.38 348.11 125.58V95.7101H352.71V126.6C352.71 129.08 352.36 131.43 351.66 133.66C350.96 135.88 349.85 137.83 348.35 139.5C346.84 141.18 344.91 142.49 342.54 143.46C340.17 144.43 337.3 144.91 333.92 144.91C330.54 144.91 327.73 144.42 325.36 143.46C323 142.48 321.06 141.17 319.54 139.5C318.03 137.83 316.93 135.88 316.23 133.66C315.53 131.43 315.19 129.08 315.19 126.6V95.7101H319.78V95.7101ZM329.92 91.8601L337.01 82.3301H342.29L333.37 91.8601H329.92V91.8601Z" fill="white" stroke="#575756" stroke-miterlimit="10"/>
<path d="M383.76 95.7102V130.51C383.76 132.99 383.51 135.13 383.01 136.94C382.51 138.74 381.71 140.23 380.62 141.41C379.51 142.57 378.07 143.45 376.28 144.04C374.5 144.63 372.3 144.92 369.69 144.92C366.94 144.92 364.69 144.46 362.93 143.54C361.18 142.61 359.8 141.39 358.81 139.88C357.82 138.38 357.14 136.63 356.78 134.64C356.42 132.66 356.24 130.61 356.24 128.48H360.83C360.87 129.51 360.94 130.75 361.04 132.19C361.12 133.63 361.44 135.01 361.98 136.32C362.52 137.62 363.41 138.74 364.65 139.67C365.89 140.59 367.7 141.05 370.09 141.05C371.89 141.05 373.38 140.81 374.56 140.34C375.73 139.87 376.65 139.13 377.33 138.12C378.01 137.1 378.48 135.8 378.75 134.22C379.02 132.65 379.15 130.75 379.15 128.55V95.7002H383.75L383.76 95.7102Z" fill="white" stroke="#575756" stroke-miterlimit="10"/>
<path d="M391.9 95.71V125.58C391.9 128.38 392.21 130.75 392.85 132.71C393.48 134.67 394.4 136.27 395.62 137.51C396.84 138.75 398.33 139.64 400.09 140.2C401.84 140.77 403.82 141.05 406.03 141.05C408.24 141.05 410.29 140.77 412.05 140.2C413.81 139.64 415.3 138.75 416.52 137.51C417.73 136.26 418.66 134.66 419.29 132.71C419.92 130.75 420.24 128.38 420.24 125.58V95.71H424.83V126.6C424.83 129.08 424.47 131.43 423.79 133.66C423.08 135.88 421.98 137.83 420.47 139.5C418.96 141.18 417.02 142.49 414.66 143.46C412.29 144.43 409.42 144.91 406.04 144.91C402.66 144.91 399.86 144.42 397.49 143.46C395.13 142.48 393.19 141.17 391.68 139.5C390.17 137.83 389.06 135.88 388.37 133.66C387.67 131.43 387.32 129.08 387.32 126.6V95.71H391.92H391.9Z" fill="white" stroke="#575756" stroke-miterlimit="10"/>
<path d="M432.96 95.71V140.05H459.99V143.97H428.36V95.71H432.96V95.71Z" fill="white" stroke="#575756" stroke-miterlimit="10"/>
<path d="M488.08 95.71L507 143.97H502.07L496.19 128.96H474.22L468.4 143.97H463.53L482.94 95.71H488.07H488.08ZM494.64 125.05L485.32 100.3L475.65 125.05H494.64Z" fill="white" stroke="#575756" stroke-miterlimit="10"/>
<path d="M233.34 61.3501H232.01V86.4401H247.62V85.1101H233.34V61.3501Z" fill="white" stroke="#575756" stroke-miterlimit="10"/>
<path d="M263.52 85.11C263.3 85.14 263.07 85.15 262.81 85.15C262.56 85.17 262.36 85.15 262.18 85.1C262.01 85.05 261.88 84.98 261.79 84.88C261.71 84.78 261.66 84.59 261.66 84.34V73.13C261.63 72.13 261.45 71.27 261.11 70.59C260.76 69.9 260.3 69.34 259.75 68.93C259.2 68.51 258.55 68.2 257.79 68.02C257.04 67.85 256.27 67.77 255.51 67.77C254.39 67.77 253.39 67.93 252.54 68.25C251.69 68.56 250.96 69 250.37 69.55C249.78 70.1 249.33 70.76 249.01 71.53C248.7 72.28 248.52 73.1 248.48 73.96L248.46 74.3H249.79L249.81 74C249.92 72.45 250.45 71.24 251.41 70.4C252.38 69.55 253.76 69.12 255.51 69.12C256.62 69.12 257.51 69.27 258.16 69.56C258.8 69.85 259.27 70.2 259.58 70.64C259.91 71.09 260.11 71.56 260.19 72.07C260.28 72.63 260.32 73.17 260.32 73.66C260.32 74.25 260.21 74.69 259.99 74.98C259.77 75.28 259.43 75.5 258.93 75.65C258.39 75.81 257.7 75.92 256.86 75.98C256.04 76.04 255.06 76.09 253.94 76.16H253.75C253.03 76.22 252.3 76.31 251.51 76.47C250.74 76.63 250.04 76.91 249.45 77.3C248.82 77.72 248.33 78.27 247.96 78.98C247.58 79.69 247.39 80.62 247.39 81.77C247.39 83.46 247.98 84.74 249.13 85.58C250.25 86.41 251.76 86.83 253.6 86.83C254.54 86.83 255.42 86.7 256.23 86.45C257.03 86.21 257.76 85.87 258.39 85.44C259.03 85 259.54 84.52 259.97 83.96C260.1 83.79 260.22 83.61 260.32 83.44V84.42C260.32 85.2 260.56 85.75 261.03 86.03C261.45 86.31 261.94 86.45 262.53 86.45H263.88V85.08L263.52 85.12V85.11ZM248.95 83.16C248.79 82.68 248.71 82.22 248.71 81.76C248.71 80.89 248.85 80.18 249.12 79.64C249.39 79.11 249.76 78.69 250.21 78.39C250.69 78.08 251.23 77.87 251.83 77.76C252.45 77.63 253.09 77.55 253.79 77.51C254.47 77.46 255.17 77.43 255.88 77.41C256.57 77.39 257.23 77.33 257.92 77.24C258.55 77.15 259.11 77.01 259.63 76.83C259.89 76.74 260.12 76.62 260.32 76.48V79.04C260.32 79.85 260.17 80.66 259.88 81.45C259.59 82.23 259.15 82.92 258.58 83.52C258 84.12 257.28 84.61 256.43 84.97C255.59 85.34 254.61 85.53 253.52 85.53C252.6 85.53 251.82 85.42 251.22 85.19C250.62 84.98 250.12 84.69 249.74 84.34C249.37 83.99 249.11 83.61 248.95 83.18V83.16Z" fill="white" stroke="#575756" stroke-miterlimit="10"/>
</svg>
