<svg width="206" height="206" viewBox="0 0 206 206" fill="none" xmlns="http://www.w3.org/2000/svg">
<path d="M102.84 35.5C65.62 35.5 35.45 65.67 35.45 102.88C35.45 140.09 65.62 170.26 102.84 170.26C140.06 170.26 170.23 140.09 170.23 102.88C170.23 65.67 140.05 35.5 102.84 35.5V35.5ZM102.54 42.93C114.12 42.93 123.51 52.31 123.51 63.89C123.51 75.47 114.12 84.85 102.54 84.85C90.96 84.85 81.58 75.47 81.58 63.89C81.58 52.31 90.96 42.93 102.54 42.93ZM99.75 90.92C101.62 89.04 104.66 89.04 106.54 90.92C108.41 92.79 108.41 95.83 106.54 97.7C104.66 99.58 101.63 99.58 99.75 97.7C97.88 95.83 97.88 92.79 99.75 90.92ZM97.66 106.58C95.78 108.45 92.75 108.45 90.87 106.58C89 104.71 89 101.67 90.87 99.79C92.75 97.92 95.78 97.92 97.66 99.79C99.53 101.67 99.53 104.7 97.66 106.58ZM108.03 99.21C109.91 97.33 112.94 97.33 114.82 99.21C116.69 101.08 116.69 104.12 114.82 105.99C112.95 107.86 109.91 107.86 108.03 105.99C106.17 104.12 106.17 101.08 108.03 99.21ZM40.99 92.55C40.99 80.98 50.38 71.59 61.95 71.59C73.52 71.59 82.92 80.98 82.92 92.55C82.92 104.12 73.53 113.51 61.95 113.51C50.37 113.51 40.99 104.13 40.99 92.55V92.55ZM78.25 158.33C66.67 158.33 57.29 148.95 57.29 137.37C57.29 125.79 66.67 116.42 78.25 116.42C89.83 116.42 99.21 125.8 99.21 137.37C99.21 148.94 89.82 158.33 78.25 158.33ZM99.17 114.86C97.29 112.99 97.29 109.96 99.17 108.08C101.04 106.2 104.08 106.2 105.95 108.08C107.82 109.96 107.82 112.99 105.95 114.86C104.07 116.73 101.04 116.73 99.17 114.86ZM126.85 158.33C115.27 158.33 105.89 148.95 105.89 137.37C105.89 125.79 115.28 116.42 126.85 116.42C138.42 116.42 147.82 125.8 147.82 137.37C147.82 148.94 138.43 158.33 126.85 158.33ZM143.76 113.51C132.18 113.51 122.79 104.13 122.79 92.55C122.79 80.97 132.18 71.59 143.76 71.59C155.34 71.59 164.72 80.98 164.72 92.55C164.72 104.12 155.33 113.51 143.76 113.51Z" fill="white" stroke="#575756" stroke-miterlimit="10"/>
<path d="M203.17 99.5301L179.13 88.7501C176.69 75.4801 170.9 63.3801 162.64 53.3801L167.51 40.4101C167.59 40.1401 167.75 39.3101 167.03 38.5901C166.16 37.7201 165.08 38.1001 165.08 38.1001L152.28 42.9701C142.24 34.6301 130.09 28.7601 116.74 26.2901L105.94 2.51007C105.94 2.51007 104.99 0.570068 102.69 0.570068C100.39 0.570068 99.5 2.53007 99.5 2.53007L88.89 26.1901C75.34 28.5801 62.99 34.4701 52.83 42.9001L40.49 38.2701C40.49 38.2701 39.44 37.8501 38.57 38.7201C37.7 39.5901 38.08 40.6601 38.08 40.6601L38.03 40.6001L42.73 52.9501C34.21 63.1401 28.23 75.5401 25.83 89.1701L2.54002 99.7401C2.54002 99.7401 0.580017 100.73 0.580017 103.06C0.580017 105.39 2.54002 106.24 2.54002 106.24L25.84 116.68C28.28 130.31 34.28 142.72 42.83 152.9L38.19 165.27C38.19 165.27 37.78 166.3 38.65 167.17C39.34 167.86 40.16 167.76 40.46 167.68L52.93 162.93C63.09 171.33 75.43 177.2 88.97 179.57L99.65 203.09C99.65 203.09 100.51 205.04 102.83 205.04C105.15 205.04 106.19 203.09 106.19 203.09L116.8 179.41C130.16 176.93 142.33 171.03 152.35 162.66L165.2 167.48C165.2 167.48 166.24 167.89 167.11 167.03C167.8 166.33 167.69 165.52 167.62 165.22L162.68 152.24C170.89 142.24 176.67 130.15 179.09 116.89L203.11 105.98C203.11 105.98 205.06 105.03 205.06 102.71C205.06 100.39 203.11 99.5101 203.11 99.5101L203.17 99.5301ZM102.53 176.36C61.93 176.36 29.04 143.46 29.04 102.88C29.04 62.3001 61.94 29.3901 102.53 29.3901C143.12 29.3901 176.02 62.2901 176.02 102.88C176.02 143.47 143.11 176.36 102.53 176.36Z" fill="white" stroke="#575756" stroke-miterlimit="10"/>
</svg>
