<svg width="139" height="139" viewBox="0 0 139 139" fill="none" xmlns="http://www.w3.org/2000/svg">
<path fill-rule="evenodd" clip-rule="evenodd" d="M72.59 36.2002C54.87 36.2002 40.45 50.6198 40.45 68.3398C40.45 74.1898 42.08 79.9498 45.15 85.0098L45.98 86.3799L42.77 98.3599L54.82 95.1299L56.18 95.9399C61.17 98.9099 66.84 100.48 72.59 100.48C90.31 100.48 104.73 86.0598 104.73 68.3398C104.73 50.6198 90.31 36.2002 72.59 36.2002ZM91.47 80.48C90.27 83.38 87.3 85.2498 84.29 85.8198C81.41 86.3698 79.04 85.4498 76.37 84.5698C73.99 83.7798 71.7 82.6398 69.57 81.3398C65.31 78.7298 61.62 75.23 58.66 71.21C57.76 69.98 56.92 68.7001 56.15 67.3901C55.13 65.6401 54.22 63.8098 53.74 61.8398C53.54 61.0198 53.44 60.1801 53.43 59.3301C53.4 56.3501 54.53 53.3399 56.89 51.4199C58.26 50.3099 60.28 49.8199 61.81 50.6899C63.48 51.6299 64.34 54.0099 65.12 55.6699C65.72 56.9699 66.41 58.6899 66.16 60.1499C65.91 61.6099 64.75 62.8502 63.83 63.9302C63.21 64.6602 63.11 65.2901 63.63 66.0801C66.68 71.1701 70.93 74.8698 76.46 77.0698C77.21 77.3698 77.8 77.2799 78.29 76.6699C79.25 75.4899 80.19 73.1801 81.66 72.5801C83.58 71.7901 85.7 72.8799 87.34 73.8599C88.86 74.7699 91.4 75.8798 91.81 77.7598C92.01 78.6698 91.83 79.6302 91.48 80.4902L91.47 80.48Z" fill="#2D7BBF"/>
<path fill-rule="evenodd" clip-rule="evenodd" d="M69.46 0.910156C31.35 0.910156 0.460022 31.8002 0.460022 69.9102C0.460022 108.02 31.35 138.91 69.46 138.91C107.57 138.91 138.46 108.02 138.46 69.9102C138.46 31.8002 107.57 0.910156 69.46 0.910156ZM72.6 107.98C66.04 107.98 59.56 106.32 53.76 103.18L32.18 108.96L37.93 87.4902C34.67 81.6102 32.96 75.0298 32.96 68.3398C32.96 46.4898 50.74 28.7002 72.6 28.7002C94.46 28.7002 112.24 46.4798 112.24 68.3398C112.24 90.1998 94.46 107.98 72.6 107.98Z" fill="#2D7BBF"/>
</svg>
